<?xml version="1.0" standalone="no"?>
<!DOCTYPE svg PUBLIC "-//W3C//DTD SVG 1.1//EN" "http://www.w3.org/Graphics/SVG/1.1/DTD/svg11.dtd" >
<svg xmlns="http://www.w3.org/2000/svg" xmlns:xlink="http://www.w3.org/1999/xlink" version="1.1">
<metadata>
Created by FontForge 20201107 at Mon Jun  2 13:31:32 2025
 By 
Copyright (c) 2016-2019 by TypeType. Designers Ivan Gladkikh, Pavel Emelyanov. Technical designers Vika Usmanova, Olexa Volochay, Nadyr Rakhimov. All rights reserved. |DCNT
</metadata>
<defs>
<font id="TTNormsPro-Black" horiz-adv-x="1269" >
  <font-face 
    font-family="TT Norms Pro Black"
    font-weight="900"
    font-stretch="normal"
    units-per-em="2048"
    panose-1="2 0 9 3 2 0 0 2 0 4"
    ascent="1638"
    descent="-410"
    x-height="1004"
    cap-height="1434"
    bbox="-1300 -553 2945 2079"
    underline-thickness="102"
    underline-position="-204"
    unicode-range="U+000D-FB06"
  />
<missing-glyph horiz-adv-x="0" 
 />
    <glyph glyph-name="f_f" unicode="ff" horiz-adv-x="1556" 
d="M174 0v594h-133v369h133v51q0 199 104.5 309.5t284.5 110.5q79 0 162 -17l63 -14v-338q-3 1 -26 10q-27 10 -66 10q-112 0 -112 -122h307v92q0 199 104.5 309.5t284.5 110.5q79 0 162 -17l63 -14v-338q-3 1 -26 10q-27 10 -66 10q-113 0 -113 -122v-41h205v-369h-205
v-594h-409v594h-307v-594h-410z" />
    <glyph glyph-name="uniFB01" unicode="fi" horiz-adv-x="1433" 
d="M174 0v594h-133v369h133v92q0 199 104.5 309.5t284.5 110.5q79 0 162 -17l63 -14v-338q-3 1 -26 10q-27 10 -66 10q-112 0 -112 -122v-41h727v-963h-410v594h-317v-594h-410zM881 1290q0 87 63 146t162 59t162 -59t63 -146t-63 -146t-162 -59t-162 59t-63 146z" />
    <glyph glyph-name="f_f_i" unicode="ffi" horiz-adv-x="2150" 
d="M174 0v594h-133v369h133v51q0 199 104.5 309.5t284.5 110.5q79 0 162 -17l63 -14v-338q-3 1 -26 10q-27 10 -66 10q-112 0 -112 -122h307v92q0 199 104.5 309.5t284.5 110.5q79 0 162 -17l63 -14v-338q-3 1 -26 10q-27 10 -66 10q-113 0 -113 -122v-41h728v-963h-410v594
h-318v-594h-409v594h-307v-594h-410zM1597 1290q0 87 63.5 146t162.5 59t162 -59t63 -146t-63 -146t-162 -59t-162.5 59t-63.5 146z" />
    <glyph glyph-name=".notdef" horiz-adv-x="0" 
 />
    <glyph glyph-name=".null" horiz-adv-x="0" 
 />
    <glyph glyph-name="nonmarkingreturn" horiz-adv-x="682" 
 />
    <glyph glyph-name="NULL" horiz-adv-x="0" 
 />
    <glyph glyph-name="NULL" horiz-adv-x="0" 
 />
    <glyph glyph-name="CR" unicode="&#xd;" horiz-adv-x="0" 
 />
    <glyph glyph-name="space" unicode=" " horiz-adv-x="450" 
 />
    <glyph glyph-name="exclam" unicode="!" horiz-adv-x="737" 
d="M195 481l-72 953h491l-71 -953h-348zM143 184q0 87 63.5 146t162.5 59t162 -59t63 -146t-63 -145.5t-162 -58.5t-162.5 58.5t-63.5 145.5z" />
    <glyph glyph-name="quotedbl" unicode="&#x22;" horiz-adv-x="1044" 
d="M573 891v543h369v-543h-369zM102 891v543h369v-543h-369z" />
    <glyph glyph-name="numbersign" unicode="#" horiz-adv-x="1546" 
d="M164 0l67 328h-211l62 286h211l41 205h-211l61 287h209l68 328h368l-67 -328h184l68 328h368l-67 -328h211l-62 -287h-211l-41 -205h211l-61 -286h-209l-68 -328h-368l67 328h-184l-68 -328h-368zM662 614h182l41 205h-183z" />
    <glyph glyph-name="dollar" unicode="$" horiz-adv-x="1259" 
d="M20 205l267 276q42 -45 82 -71q94 -72 204 -72q74 0 109 25.5t35 66.5q0 32 -35.5 59t-92.5 49.5t-126 48t-137.5 62.5t-125.5 84.5t-92.5 123t-35.5 169.5q0 156 108 272t281 158v172h379v-176q145 -31 258 -111q52 -37 80 -71l-267 -277q-24 31 -53 51q-81 52 -162 52
q-59 0 -91 -20t-32 -52q0 -26 22 -48t59.5 -39.5t86 -35.5t102 -39.5t107 -47t102 -62t86 -80t59.5 -106t22 -136.5q0 -156 -110.5 -279t-268.5 -161v-185h-379v164q-177 38 -328 142q-77 55 -113 94z" />
    <glyph glyph-name="percent" unicode="%" horiz-adv-x="1843" 
d="M317 1096q0 -40 29 -71.5t74 -31.5t73.5 31t28.5 72q0 40 -28.5 71t-73.5 31t-74 -31t-29 -71zM31 1096q0 153 113.5 260.5t275.5 107.5t275.5 -107.5t113.5 -260.5q0 -154 -114 -261.5t-275 -107.5t-275 107.5t-114 261.5zM287 0l901 1434h368l-901 -1434h-368z
M1321 338q0 -40 28.5 -71t73.5 -31t74 31t29 71t-29 71t-74 31t-73.5 -31t-28.5 -71zM1034 338q0 154 114 261.5t275 107.5t275 -107.5t114 -261.5t-114 -261.5t-275 -107.5t-275 107.5t-114 261.5z" />
    <glyph glyph-name="ampersand" unicode="&#x26;" horiz-adv-x="1402" 
d="M788 748l164 -164q16 22 25 47q27 60 27 117h358q0 -158 -78 -302q-33 -58 -76 -108q15 -12 33 -21q46 -20 80 -20q15 0 43 4l18 6v-307q-13 -9 -43 -20q-65 -21 -120 -21q-103 0 -213 66q-48 28 -84 67q-40 -40 -99 -67q-132 -66 -291 -66q-108 0 -201.5 34t-156 90.5
t-98 131t-35.5 154.5q0 170 139 301q60 57 142 102q-44 41 -80 96q-78 118 -78 228q0 158 122.5 268.5t317.5 110.5q196 0 318 -108.5t122 -260.5q0 -127 -129 -256q-54 -54 -127 -102zM707 328l-185 225l-41 -43q-41 -48 -41 -111q0 -55 36 -89t97 -34q56 0 97 25
q18 7 37 27zM604 1167q-39 0 -65.5 -28t-26.5 -74q0 -50 41 -98l41 -45q27 21 51 45q51 55 51 98q0 46 -26.5 74t-65.5 28z" />
    <glyph glyph-name="quotesingle" unicode="'" horiz-adv-x="573" 
d="M102 891v543h369v-543h-369z" />
    <glyph glyph-name="parenleft" unicode="(" horiz-adv-x="819" 
d="M799 -307l-297 -174q-109 114 -201 274q-199 353 -199 719t199 719q92 160 201 274l297 -174q-83 -119 -144 -241q-143 -298 -143 -578q0 -288 143 -580q63 -129 144 -239z" />
    <glyph glyph-name="parenright" unicode=")" horiz-adv-x="819" 
d="M317 -481l-297 174q81 110 144 239q143 292 143 580q0 280 -143 578q-61 122 -144 241l297 174q108 -117 199 -274q201 -361 201 -719t-201 -719q-91 -157 -199 -274z" />
    <glyph glyph-name="asterisk" unicode="*" horiz-adv-x="901" 
d="M123 860l143 154l-205 30l82 267l195 -103l-41 226h307l-41 -226l195 103l82 -267l-205 -30l143 -154l-205 -164l-122 205l-123 -205z" />
    <glyph glyph-name="plus" unicode="+" horiz-adv-x="1085" 
d="M61 410v378h297v297h369v-297h297v-378h-297v-297h-369v297h-297z" />
    <glyph glyph-name="comma" unicode="," horiz-adv-x="593" 
d="M-31 -123l246 522l317 -184l-307 -481z" />
    <glyph glyph-name="hyphen" unicode="-" horiz-adv-x="901" 
d="M102 420v368h697v-368h-697z" />
    <glyph glyph-name="period" unicode="." horiz-adv-x="593" 
d="M297 389q99 0 162 -59t63 -146t-63 -145.5t-162 -58.5t-162 58.5t-63 145.5t63 146t162 59z" />
    <glyph glyph-name="slash" unicode="/" horiz-adv-x="1013" 
d="M0 -430l614 1884h400l-615 -1884h-399z" />
    <glyph glyph-name="zero" unicode="0" horiz-adv-x="1454" 
d="M727 369q78 0 131 85t53 263t-53 263t-131 85t-131 -85t-53 -263t53 -263t131 -85zM727 -41q-130 0 -247.5 54.5t-205.5 151t-140 240t-52 312.5t52 312.5t140 240t205.5 151t247.5 54.5t247.5 -54.5t205.5 -151t140 -240t52 -312.5t-52 -312.5t-140 -240t-205.5 -151
t-247.5 -54.5z" />
    <glyph glyph-name="one" unicode="1" horiz-adv-x="890" 
d="M276 0v963h-225v276q131 18 215 109q40 43 62 86h409v-1434h-461z" />
    <glyph glyph-name="two" unicode="2" 
d="M676 410h502v-410h-1117q0 144 34.5 263.5t89.5 198t122 141.5t133.5 107.5t121.5 82t89.5 77t34.5 82.5q0 48 -30 75.5t-83 27.5q-55 0 -110 -51q-12 -12 -43 -52l-379 174q53 102 131 174q187 175 463 175q124 0 228.5 -38t175 -102.5t110 -150t39.5 -180.5
q0 -82 -30 -154.5t-75 -122t-105 -97t-114 -80.5t-107.5 -71t-80.5 -69z" />
    <glyph glyph-name="three" unicode="3" horiz-adv-x="1218" 
d="M0 195l256 266q35 -35 74 -58q83 -55 182 -55q67 0 105 32t38 81t-38 80.5t-105 31.5h-143v318h133q55 0 89 27.5t34 74.5t-34 75t-89 28q-68 0 -140 -47q-33 -23 -55 -45l-256 266q46 51 133 102q182 103 410 103q119 0 221 -35t169 -93t104.5 -131.5t37.5 -150.5
q0 -148 -129 -244q-52 -38 -127 -57v-12q83 -22 144 -66q143 -101 143 -287q0 -85 -40 -164t-113 -140.5t-185 -98.5t-246 -37q-238 0 -428 117q-80 51 -145 119z" />
    <glyph glyph-name="four" unicode="4" horiz-adv-x="1310" 
d="M41 205v420l614 809h492v-840h133v-389h-133v-205h-461v205h-645zM440 584h256v338z" />
    <glyph glyph-name="five" unicode="5" horiz-adv-x="1290" 
d="M61 195l256 266q35 -35 74 -58q83 -55 182 -55q68 0 111 39t43 94t-43 94t-111 39q-52 0 -106 -30q-21 -15 -37 -31l-317 61l61 820h963v-379h-543l-21 -154q21 11 56 21q70 20 139 20q193 0 327 -135.5t134 -335.5q0 -220 -160.5 -366t-423.5 -146q-248 0 -438 117
q-86 53 -146 119z" />
    <glyph glyph-name="six" unicode="6" horiz-adv-x="1320" 
d="M215 870l369 564h491l-297 -451q139 -24 246 -88q246 -144 246 -424q0 -103 -43 -196.5t-120 -163.5t-191.5 -111t-249.5 -41t-249.5 41t-192 111t-120.5 163.5t-43 196.5q0 137 76 281q36 67 78 118zM666 328q62 0 102.5 41t40.5 102t-40.5 102t-102.5 41t-103 -41
t-41 -102t41 -102t103 -41z" />
    <glyph glyph-name="seven" unicode="7" horiz-adv-x="1167" 
d="M123 0l491 1014h-553v420h1065v-369l-512 -1065h-491z" />
    <glyph glyph-name="eight" unicode="8" horiz-adv-x="1310" 
d="M655 573q-61 0 -102 -39t-41 -94t41 -94t102 -39t102.5 39t41.5 94t-41.5 94t-102.5 39zM655 1126q-54 0 -88.5 -32t-34.5 -80t35 -80.5t88 -32.5t88 32.5t35 80.5t-34.5 80t-88.5 32zM328 758v10q-62 27 -109 68q-106 91 -106 229q0 77 38 150.5t105.5 131.5t171.5 93
t227 35t227 -35t172 -93t106 -131.5t38 -150.5q0 -137 -108 -229q-45 -40 -107 -68v-10q74 -27 133 -74q133 -111 133 -274q0 -90 -40.5 -171t-114.5 -143.5t-188 -99.5t-251 -37t-251 37t-188 99.5t-114.5 143.5t-40.5 171q0 166 134 274q61 49 133 74z" />
    <glyph glyph-name="nine" unicode="9" horiz-adv-x="1320" 
d="M246 0l297 451q-137 21 -246 86q-107 61 -176.5 166t-69.5 260q0 103 43 196.5t120 163.5t191.5 111t249.5 41t249.5 -41t192 -111t120.5 -163.5t43 -196.5q0 -133 -78 -281q-36 -67 -76 -119l-369 -563h-491zM512 963q0 -62 41 -103t102 -41t102.5 41.5t41.5 102.5
t-41 102t-103 41q-61 0 -102 -41t-41 -102z" />
    <glyph glyph-name="colon" unicode=":" horiz-adv-x="593" 
d="M72 819q0 87 63 146t162 59t162 -59t63 -146t-63 -146t-162 -59t-162 59t-63 146zM72 184q0 87 63 146t162 59t162 -59t63 -146t-63 -145.5t-162 -58.5t-162 58.5t-63 145.5z" />
    <glyph glyph-name="semicolon" unicode=";" horiz-adv-x="624" 
d="M113 819q0 87 63 146t162 59t162 -59t63 -146t-63 -146t-162 -59t-162 59t-63 146zM-31 -123l246 512l317 -184l-307 -471z" />
    <glyph glyph-name="less" unicode="&#x3c;" horiz-adv-x="1064" 
d="M61 348v297l943 359v-349l-472 -153v-10l472 -154v-348z" />
    <glyph glyph-name="equal" unicode="=" horiz-adv-x="1054" 
d="M82 215v328h891v-328h-891zM82 666v327h891v-327h-891z" />
    <glyph glyph-name="greater" unicode="&#x3e;" horiz-adv-x="1064" 
d="M61 -10v348l471 154v10l-471 153v349l943 -359v-297z" />
    <glyph glyph-name="question" unicode="?" horiz-adv-x="1167" 
d="M748 481h-379q-10 24 -11 31q-10 33 -10 61q0 50 22 95.5t55 76.5t71.5 61.5t71.5 53t55 50t22 53.5q0 48 -29.5 75t-83.5 27q-70 0 -133 -51q-25 -22 -41 -51l-358 163q48 98 127 174q75 75 190.5 125t266.5 50q127 0 235 -37t178.5 -99t110 -141t39.5 -164t-34 -152.5
t-86 -114t-106 -86.5t-103.5 -91.5t-69.5 -108.5zM553 389q99 0 162 -59t63 -146t-63 -145.5t-162 -58.5t-162 58.5t-63 145.5t63 146t162 59z" />
    <glyph glyph-name="at" unicode="@" horiz-adv-x="1822" 
d="M901 389q41 0 72 31t31 82t-31 81.5t-72 30.5t-71.5 -30.5t-30.5 -81.5t30.5 -82t71.5 -31zM1085 256h-10q-20 -39 -57 -68q-77 -65 -178 -65q-128 0 -218 103.5t-90 275.5t88 275.5t209 103.5q69 0 125 -37q24 -17 39 -35h11v61h266v-389q0 -53 27 -82.5t75 -29.5
q51 0 82 45t31 139q0 110 -42.5 208t-117.5 169.5t-182.5 113t-231.5 41.5q-150 0 -280 -76.5t-206.5 -209t-76.5 -287.5q0 -117 45.5 -223.5t121.5 -183t179.5 -121.5t216.5 -45q149 0 279 61q55 25 100 61l154 -194q-53 -47 -139 -88q-180 -86 -394 -86q-170 0 -323.5 65
t-264.5 175t-176 261.5t-65 317.5t65 317.5t176 261.5t264.5 175t323.5 65q181 0 338.5 -61.5t267 -166t172 -247.5t62.5 -303q0 -199 -110 -314.5t-289 -115.5q-118 0 -203 65q-36 26 -64 68z" />
    <glyph glyph-name="A" unicode="A" horiz-adv-x="1525" 
d="M645 594h236l-113 399h-10zM-20 0l522 1434h522l522 -1434h-491l-82 276h-420l-82 -276h-491z" />
    <glyph glyph-name="B" unicode="B" horiz-adv-x="1474" 
d="M154 0v1434h665q122 0 223.5 -31.5t165 -84t98.5 -118t35 -135.5q0 -165 -122 -248q-51 -37 -123 -55v-8q84 -17 157 -62q160 -96 160 -293q0 -82 -35 -153.5t-102.5 -126.5t-174.5 -87t-241 -32h-706zM614 348h185q68 0 105.5 34t37.5 89t-37.5 89t-105.5 34h-185v-246z
M614 881h123q133 0 133 102t-133 102h-123v-204z" />
    <glyph glyph-name="C" unicode="C" horiz-adv-x="1536" 
d="M1239 532l277 -296q-67 -79 -160 -140q-202 -137 -475 -137q-172 0 -323.5 59.5t-257.5 161.5t-167 241.5t-61 295.5t61 295.5t167 241.5t257.5 161.5t323.5 59.5q267 0 469 -140q91 -61 155 -137l-276 -297q-36 45 -88 82q-114 82 -250 82q-153 0 -256 -100t-103 -248
t103 -248t256 -100q136 0 254 82q62 44 94 81z" />
    <glyph glyph-name="D" unicode="D" horiz-adv-x="1576" 
d="M154 0v1434h573q165 0 311 -58t247.5 -155.5t160.5 -228.5t59 -275t-59 -275t-160.5 -228.5t-247.5 -155.5t-311 -58h-573zM614 389h103q148 0 237.5 90t89.5 238t-89.5 237.5t-237.5 89.5h-103v-655z" />
    <glyph glyph-name="E" unicode="E" horiz-adv-x="1392" 
d="M154 0v1434h1136v-379h-676v-174h512v-328h-512v-174h697v-379h-1157z" />
    <glyph glyph-name="F" unicode="F" horiz-adv-x="1351" 
d="M154 0v1434h1136v-400h-676v-215h512v-368h-512v-451h-460z" />
    <glyph glyph-name="G" unicode="G" horiz-adv-x="1638" 
d="M860 543v256h666v-553q-69 -78 -166 -144q-216 -143 -479 -143q-172 0 -323.5 59.5t-257.5 161.5t-167 241.5t-61 295.5t61 295.5t167 241.5t257.5 161.5t323.5 59.5q267 0 469 -140q91 -61 155 -137l-276 -297q-36 45 -88 82q-114 82 -250 82q-153 0 -256 -100
t-103 -248t100.5 -248t248.5 -100q97 0 170 30q32 11 55 31v113h-246z" />
    <glyph glyph-name="H" unicode="H" horiz-adv-x="1658" 
d="M154 0v1434h460v-502h430v502h461v-1434h-461v522h-430v-522h-460z" />
    <glyph glyph-name="I" unicode="I" horiz-adv-x="768" 
d="M154 0v1434h460v-1434h-460z" />
    <glyph glyph-name="J" unicode="J" horiz-adv-x="1105" 
d="M-41 143l287 297q12 -18 30 -30q45 -31 93 -31q62 0 102.5 42.5t40.5 110.5v902h461v-902q0 -268 -149 -420.5t-404 -152.5q-197 0 -346 92q-72 43 -115 92z" />
    <glyph glyph-name="K" unicode="K" horiz-adv-x="1525" 
d="M154 0v1434h460v-492l400 492h512l-482 -594l523 -840h-523l-307 492l-123 -144v-348h-460z" />
    <glyph glyph-name="L" unicode="L" horiz-adv-x="1249" 
d="M154 0v1434h460v-1004h594v-430h-1054z" />
    <glyph glyph-name="M" unicode="M" horiz-adv-x="1925" 
d="M154 0v1434h409l400 -512l399 512h410v-1434h-461v768l-348 -440l-349 440v-768h-460z" />
    <glyph glyph-name="N" unicode="N" horiz-adv-x="1699" 
d="M154 0v1434h399l532 -686v686h461v-1434h-399l-533 686v-686h-460z" />
    <glyph glyph-name="O" unicode="O" horiz-adv-x="1761" 
d="M532 717q0 -148 100.5 -248t248.5 -100t248 100t100 248t-100 248t-248 100t-248.5 -100t-100.5 -248zM72 717q0 156 61 295.5t167 241.5t257.5 161.5t323.5 59.5t323.5 -59.5t257.5 -161.5t167 -241.5t61 -295.5t-61 -295.5t-167 -241.5t-257.5 -161.5t-323.5 -59.5
t-323.5 59.5t-257.5 161.5t-167 241.5t-61 295.5z" />
    <glyph glyph-name="P" unicode="P" horiz-adv-x="1443" 
d="M154 0v1434h675q121 0 224.5 -40t175.5 -110t112.5 -166.5t40.5 -206.5q0 -147 -69 -266t-196 -187.5t-288 -68.5h-215v-389h-460zM614 778h164q61 0 102.5 39t41.5 94t-41.5 94t-102.5 39h-164v-266z" />
    <glyph glyph-name="Q" unicode="Q" horiz-adv-x="1761" 
d="M942 -41h-61q-172 0 -323.5 59.5t-257.5 161.5t-167 241.5t-61 295.5t61 295.5t167 241.5t257.5 161.5t323.5 59.5t323.5 -59.5t257.5 -161.5t167 -241.5t61 -295.5q0 -279 -185 -488q-79 -91 -184 -157q27 -27 63 -47q84 -45 193 -45q33 0 65 4l27 6v-369l-33 -6
q-46 -4 -80 -4q-283 0 -477 174q-85 76 -137 174zM532 717q0 -148 100.5 -248t248.5 -100t248 100t100 248t-100 248t-248 100t-248.5 -100t-100.5 -248z" />
    <glyph glyph-name="R" unicode="R" horiz-adv-x="1495" 
d="M154 0v1434h706q155 0 280 -68t194 -185t69 -259q0 -180 -113 -316q-51 -57 -112 -94l276 -512h-481l-205 410h-154v-410h-460zM614 799h195q61 0 97 34t36 89t-36 88.5t-97 33.5h-195v-245z" />
    <glyph glyph-name="S" unicode="S" horiz-adv-x="1259" 
d="M20 205l267 276q42 -45 82 -71q94 -72 204 -72q74 0 109 25.5t35 66.5q0 32 -35.5 59t-92.5 49.5t-126 47.5t-137.5 62t-125.5 84.5t-92.5 122.5t-35.5 169q0 90 39.5 171t111.5 143.5t181.5 99.5t240.5 37q226 0 404 -103q82 -50 129 -102l-267 -277q-24 31 -53 51
q-81 52 -162 52q-59 0 -91 -20t-32 -52q0 -26 22 -48t59.5 -39.5t86 -35.5t102 -39.5t107 -47t102 -62t86 -80t59.5 -106t22 -136.5q0 -93 -41.5 -177.5t-116.5 -150t-188.5 -104.5t-247.5 -39q-246 0 -449 123q-95 56 -156 123z" />
    <glyph glyph-name="T" unicode="T" horiz-adv-x="1300" 
d="M420 0v1014h-379v420h1219v-420h-379v-1014h-461z" />
    <glyph glyph-name="U" unicode="U" horiz-adv-x="1617" 
d="M133 604v830h461v-830q0 -93 64 -159t151 -66t151 66t64 159v830h461v-830q0 -137 -49.5 -256t-137.5 -205t-214.5 -135t-274.5 -49t-274.5 49t-214.5 135t-137.5 205t-49.5 256z" />
    <glyph glyph-name="V" unicode="V" horiz-adv-x="1464" 
d="M471 0l-491 1434h491l256 -973h10l256 973h492l-492 -1434h-522z" />
    <glyph glyph-name="W" unicode="W" horiz-adv-x="2170" 
d="M451 0l-471 1434h491l195 -789h10l225 789h369l225 -789h10l195 789h491l-471 -1434h-399l-231 758h-9l-231 -758h-399z" />
    <glyph glyph-name="X" unicode="X" horiz-adv-x="1443" 
d="M-20 0l440 748l-400 686h502l195 -420h10l195 420h501l-399 -686l440 -748h-501l-236 481h-10l-236 -481h-501z" />
    <glyph glyph-name="Y" unicode="Y" horiz-adv-x="1423" 
d="M481 0v512l-512 922h502l236 -543h10l235 543h502l-512 -922v-512h-461z" />
    <glyph glyph-name="Z" unicode="Z" horiz-adv-x="1361" 
d="M82 0v410l584 614h-553v410h1147v-410l-584 -614h604v-410h-1198z" />
    <glyph glyph-name="bracketleft" unicode="[" horiz-adv-x="839" 
d="M164 -430v1884h614v-369h-205v-1146h205v-369h-614z" />
    <glyph glyph-name="backslash" unicode="\" horiz-adv-x="1013" 
d="M614 -430l-614 1884h399l615 -1884h-400z" />
    <glyph glyph-name="bracketright" unicode="]" horiz-adv-x="839" 
d="M61 -430v369h205v1146h-205v369h615v-1884h-615z" />
    <glyph glyph-name="asciicircum" unicode="^" horiz-adv-x="972" 
d="M41 788l287 646h317l287 -646h-328l-112 277h-11l-112 -277h-328z" />
    <glyph glyph-name="underscore" unicode="_" horiz-adv-x="727" 
d="M-20 -532v368h768v-368h-768z" />
    <glyph glyph-name="grave" unicode="`" horiz-adv-x="737" 
d="M317 1116l-256 348h431l184 -348h-359z" />
    <glyph glyph-name="a" unicode="a" horiz-adv-x="1136" 
d="M614 0v133h-10q-29 -47 -63 -78q-83 -75 -203 -75q-122 0 -209.5 85t-87.5 201q0 241 317 318l267 61q-8 41 -41.5 66.5t-91.5 25.5q-65 0 -132 -47q-36 -28 -53 -45l-205 195q46 52 111 96q148 98 340 98q134 0 243 -57.5t168.5 -151t59.5 -200.5v-625h-410zM625 410v41
l-103 -31q-46 -13 -64 -31.5t-18 -50.5q0 -31 20.5 -51.5t49.5 -20.5q49 0 82 38.5t33 105.5z" />
    <glyph glyph-name="b" unicode="b" horiz-adv-x="1310" 
d="M123 0v1434h409v-574h11q22 42 65 82q94 82 221 82q85 0 161 -36t133.5 -101.5t91.5 -165t34 -219.5t-34 -219.5t-91.5 -165t-133.5 -101.5t-161 -36q-128 0 -221 81q-43 40 -65 82h-11v-143h-409zM686 338q62 0 108 48t46 116t-46 116t-108 48t-108 -48t-46 -116
t46 -116t108 -48z" />
    <glyph glyph-name="c" unicode="c" horiz-adv-x="1105" 
d="M850 430l235 -246q-48 -63 -110 -108q-144 -107 -340 -107q-121 0 -228.5 43t-183 115.5t-119 170.5t-43.5 204q0 142 74 264t206.5 195t293.5 73q195 0 340 -108q58 -42 110 -107l-235 -246q-19 22 -49 45q-69 48 -135 48q-84 0 -134.5 -46.5t-50.5 -117.5t50.5 -117.5
t134.5 -46.5q70 0 135 45q31 24 49 47z" />
    <glyph glyph-name="d" unicode="d" horiz-adv-x="1310" 
d="M778 0v143h-10q-24 -41 -68 -82q-93 -81 -219 -81q-85 0 -161 36t-133.5 101.5t-91.5 165t-34 219.5t34 219.5t91.5 165t133.5 101.5t161 36q125 0 219 -82q44 -41 68 -82h10v574h410v-1434h-410zM625 338q62 0 107.5 48t45.5 116t-45.5 116t-107.5 48t-108 -48t-46 -116
t46 -116t108 -48z" />
    <glyph glyph-name="e" unicode="e" horiz-adv-x="1208" 
d="M901 358l143 -256q-47 -41 -106 -67q-144 -66 -303 -66q-121 0 -228.5 43t-183 115.5t-119 170.5t-43.5 204t43.5 204t117.5 170t176.5 115t215.5 43q149 0 274.5 -70t197 -185t71.5 -247q0 -54 -10 -92l-10 -30h-666q20 -54 75 -94t140 -40q88 0 158 41q25 13 57 41z
M471 594h277q-8 56 -45 94.5t-89 38.5q-59 0 -97 -38t-46 -95z" />
    <glyph glyph-name="f" unicode="f" horiz-adv-x="839" 
d="M174 0v594h-133v369h133v71q0 199 104.5 309.5t284.5 110.5q84 0 162 -16q26 -7 63 -15v-338q-5 1 -14 5.5t-12 5.5q-27 10 -66 10q-112 0 -112 -123v-20h204v-369h-204v-594h-410z" />
    <glyph glyph-name="g" unicode="g" horiz-adv-x="1300" 
d="M92 -215l225 225q20 -23 60 -47q76 -45 166 -45q107 0 171 60.5t64 154.5v72h-10q-24 -41 -68 -82q-94 -82 -219 -82q-84 0 -160.5 35.5t-134 98t-91.5 155.5t-34 202t34 202t91.5 156t134 98.5t160.5 35.5q125 0 219 -82q44 -41 68 -82h10v144h410v-881
q0 -114 -44.5 -215.5t-123 -176t-192 -118t-244.5 -43.5q-221 0 -375 106q-69 46 -117 109zM492 532q0 -62 41 -102.5t102 -40.5t102 40.5t41 102.5t-41 103t-102 41t-102 -41t-41 -103z" />
    <glyph glyph-name="h" unicode="h" horiz-adv-x="1280" 
d="M123 0v1434h409v-574h11q27 47 65 82q94 82 211 82q159 0 253.5 -108t94.5 -312v-604h-409v512q0 53 -32.5 88t-80.5 35t-80.5 -36.5t-32.5 -96.5v-502h-409z" />
    <glyph glyph-name="i" unicode="i" horiz-adv-x="655" 
d="M123 0v1004h409v-1004h-409zM102 1300q0 87 63.5 146t162.5 59t162 -59t63 -146t-63 -145.5t-162 -58.5t-162.5 58.5t-63.5 145.5z" />
    <glyph glyph-name="j" unicode="j" horiz-adv-x="655" 
d="M-82 -399v368q15 -8 27 -10q30 -10 65 -10q113 0 113 123v932h409v-1014q0 -199 -104.5 -309.5t-284.5 -110.5q-93 0 -161 14q-60 16 -64 17zM106 1300q0 88 62 146.5t160 58.5q99 0 162 -59t63 -146t-63 -145.5t-162 -58.5q-98 0 -160 58t-62 146z" />
    <glyph glyph-name="k" unicode="k" horiz-adv-x="1208" 
d="M123 0v1434h409v-727l236 297h461l-338 -420l348 -584h-440l-195 338l-72 -82v-256h-409z" />
    <glyph glyph-name="l" unicode="l" horiz-adv-x="655" 
d="M123 0v1434h409v-1434h-409z" />
    <glyph glyph-name="m" unicode="m" horiz-adv-x="1843" 
d="M113 0v1004h409v-144h10q18 40 60 82q86 82 207 82q120 0 200 -88q36 -39 56 -86h10q28 47 80 86q113 88 258 88q144 0 236 -110t92 -310v-604h-410v522q0 52 -26 82.5t-66 30.5q-47 0 -75 -34t-28 -89v-512h-409v522q0 52 -26 82.5t-66 30.5q-47 0 -75 -34t-28 -89v-512
h-409z" />
    <glyph glyph-name="n" unicode="n" 
d="M113 0v1004h409v-144h10q26 45 66 82q94 82 211 82q159 0 253.5 -108t94.5 -312v-604h-409v512q0 53 -32.5 88t-80.5 35t-80.5 -36.5t-32.5 -96.5v-502h-409z" />
    <glyph glyph-name="o" unicode="o" 
d="M481 502q0 -62 46.5 -108t107.5 -46t107 46t46 108t-46 107.5t-107 45.5q-62 0 -108 -46t-46 -107zM61 502q0 142 74 264t206.5 195t293.5 73q159 0 291.5 -73t207 -195t74.5 -264t-74.5 -264.5t-207 -195.5t-291.5 -73q-121 0 -228.5 43t-183 115.5t-119 170.5
t-43.5 204z" />
    <glyph glyph-name="p" unicode="p" horiz-adv-x="1300" 
d="M676 338q62 0 107.5 48t45.5 116t-45.5 116t-107.5 48t-108 -48t-46 -116t46 -116t108 -48zM113 -430v1434h409v-144h10q21 40 66 82q94 82 221 82q85 0 161 -36t133.5 -101.5t91.5 -165t34 -219.5t-34 -219.5t-91.5 -165t-133.5 -101.5t-161 -36q-128 0 -221 81
q-45 42 -66 82h-10v-573h-409z" />
    <glyph glyph-name="q" unicode="q" horiz-adv-x="1300" 
d="M778 -430v573h-10q-24 -41 -68 -82q-93 -81 -219 -81q-85 0 -161 36t-133.5 101.5t-91.5 165t-34 219.5t34 219.5t91.5 165t133.5 101.5t161 36q125 0 219 -82q44 -41 68 -82h10v144h410v-1434h-410zM625 338q62 0 107.5 48t45.5 116t-45.5 116t-107.5 48t-108 -48
t-46 -116t46 -116t108 -48z" />
    <glyph glyph-name="r" unicode="r" horiz-adv-x="870" 
d="M113 0v1004h409v-134h10q19 36 60 74q78 74 196 74h41v-424l-28 10q-30 10 -84 10q-88 0 -141.5 -59t-53.5 -166v-389h-409z" />
    <glyph glyph-name="s" unicode="s" horiz-adv-x="1003" 
d="M20 174l185 195q20 -23 55 -47q70 -46 139 -46q72 0 72 41q0 20 -29.5 41t-74 39t-96 46.5t-96 62t-74 88.5t-29.5 123q0 131 117.5 224t322.5 93q181 0 332 -88q66 -39 108 -86l-184 -194q-8 8 -39 30q-55 31 -94 31q-72 0 -72 -41q0 -18 22 -35t57.5 -33.5t78 -35.5
t85 -46t78 -60t57.5 -82t22 -107q0 -63 -29.5 -119.5t-85 -101t-145.5 -71t-201 -26.5q-199 0 -361 103q-72 48 -121 102z" />
    <glyph glyph-name="t" unicode="t" horiz-adv-x="901" 
d="M174 399v236h-133v369h61q54 0 88.5 34t34.5 88v154h359v-276h204v-369h-204v-154q0 -123 112 -123q33 0 66 11q10 2 26 10v-369q-11 -4 -34 -9.5t-29 -6.5q-68 -14 -162 -14q-180 0 -284.5 110t-104.5 309z" />
    <glyph glyph-name="u" unicode="u" 
d="M113 399v605h409v-512q0 -53 32.5 -88t80.5 -35t80.5 36.5t32.5 96.5v502h409v-1004h-409v143h-11q-27 -47 -65 -82q-93 -81 -211 -81q-159 0 -253.5 107.5t-94.5 311.5z" />
    <glyph glyph-name="v" unicode="v" horiz-adv-x="1136" 
d="M348 0l-368 1004h440l143 -553h10l144 553h440l-369 -1004h-440z" />
    <glyph glyph-name="w" unicode="w" horiz-adv-x="1628" 
d="M328 0l-348 1004h430l112 -482h10l144 482h276l144 -482h10l113 482h430l-349 -1004h-337l-144 471h-10l-143 -471h-338z" />
    <glyph glyph-name="x" unicode="x" horiz-adv-x="1105" 
d="M-20 0l296 512l-286 492h440l119 -287h8l119 287h440l-287 -492l297 -512h-440l-129 307h-8l-129 -307h-440z" />
    <glyph glyph-name="y" unicode="y" horiz-adv-x="1136" 
d="M92 -389v348q14 -7 29 -10q33 -10 74 -10q65 0 99.5 25.5t53.5 76.5l-368 963h440l143 -553h10l144 553h440l-389 -1024q-80 -213 -189 -311.5t-282 -98.5q-67 0 -145 20q-31 8 -60 21z" />
    <glyph glyph-name="z" unicode="z" horiz-adv-x="1085" 
d="M72 0v338l379 328h-359v338h901v-338l-379 -328h400v-338h-942z" />
    <glyph glyph-name="braceleft" unicode="{" horiz-adv-x="870" 
d="M215 -51v235q0 68 -35.5 106t-97.5 38h-21v368h21q62 0 97.5 38t35.5 106v235q0 179 100.5 279t278.5 100h215v-369h-72q-47 0 -79.5 -32.5t-32.5 -79.5v-205q0 -130 -103 -209q-43 -32 -102 -47q59 -15 102 -47q103 -79 103 -209v-205q0 -47 32.5 -79.5t79.5 -32.5h72
v-369h-215q-178 0 -278.5 100t-100.5 279z" />
    <glyph glyph-name="bar" unicode="|" horiz-adv-x="901" 
d="M246 -430v1884h409v-1884h-409z" />
    <glyph glyph-name="braceright" unicode="}" horiz-adv-x="870" 
d="M61 -430v369h72q47 0 80 32.5t33 79.5v205q0 131 102 209q42 31 103 47q-61 16 -103 47q-102 78 -102 209v205q0 47 -33 79.5t-80 32.5h-72v369h215q178 0 278.5 -100t100.5 -279v-235q0 -68 35.5 -106t97.5 -38h21v-368h-21q-62 0 -97.5 -38t-35.5 -106v-235
q0 -179 -100.5 -279t-278.5 -100h-215z" />
    <glyph glyph-name="asciitilde" unicode="~" horiz-adv-x="1187" 
d="M317 389l-276 205q18 70 59 123q92 123 269 123q68 0 127.5 -23t113 -46t107.5 -23q67 0 114 40q25 21 39 41l277 -204q-21 -71 -64 -123q-96 -123 -264 -123q-68 0 -127.5 23t-113 46t-107.5 23q-70 0 -115 -41q-25 -21 -39 -41z" />
    <glyph glyph-name="nbspace" unicode="&#xa0;" horiz-adv-x="450" 
 />
    <glyph glyph-name="exclamdown" unicode="&#xa1;" horiz-adv-x="696" 
d="M102 -430l72 952h348l72 -952h-492zM123 819q0 87 63 146t162 59t162 -59t63 -146t-63 -146t-162 -59t-162 59t-63 146z" />
    <glyph glyph-name="cent" unicode="&#xa2;" horiz-adv-x="1105" 
d="M451 -195v195q-74 19 -143.5 64t-124.5 109.5t-88.5 150.5t-33.5 178t33.5 178t88.5 150.5t124.5 109.5t143.5 64v194h368v-194q104 -32 199 -111q41 -35 67 -74l-235 -246q-19 22 -49 45q-69 48 -135 48q-84 0 -134.5 -46.5t-50.5 -117.5t50.5 -117.5t134.5 -46.5
q70 0 135 45q31 24 49 47l235 -246q-25 -37 -67 -73q-100 -83 -199 -111v-195h-368z" />
    <glyph glyph-name="sterling" unicode="&#xa3;" horiz-adv-x="1239" 
d="M82 0v410q60 0 91.5 27t31.5 75v143h-123v123h123v205q0 225 139 358.5t383 133.5q188 0 350 -99q65 -40 121 -96l-317 -297q-12 15 -31 31q-49 30 -92 30q-47 0 -80 -32.5t-33 -79.5v-154h287v-123h-287v-102q0 -64 -37 -111q-12 -17 -35 -32h615v-410h-1106z" />
    <glyph glyph-name="currency" unicode="&#xa4;" horiz-adv-x="1044" 
d="M696 686q0 69 -52.5 121.5t-121.5 52.5t-121.5 -52.5t-52.5 -121.5t52.5 -121.5t121.5 -52.5t121.5 52.5t52.5 121.5zM82 389l113 113q-20 28 -27 49q-25 59 -25 135t25 135q7 21 27 49l-113 113l143 143l113 -112q20 14 49 24q64 27 135 27t135 -27q31 -10 50 -24
l112 112l144 -143l-113 -113q14 -20 24 -49q27 -64 27 -135t-27 -135q-10 -29 -24 -49l113 -113l-144 -143l-112 112q-25 -18 -50 -26q-59 -25 -135 -25t-135 25q-24 8 -49 26l-113 -112z" />
    <glyph glyph-name="yen" unicode="&#xa5;" horiz-adv-x="1423" 
d="M205 195v122h276v103h-276v123h258l-494 891h502l236 -543h10l235 543h502l-496 -891h261v-123h-277v-103h277v-122h-277v-195h-461v195h-276z" />
    <glyph glyph-name="brokenbar" unicode="&#xa6;" horiz-adv-x="901" 
d="M246 -430v778h409v-778h-409zM246 676v778h409v-778h-409z" />
    <glyph glyph-name="section" unicode="&#xa7;" horiz-adv-x="1146" 
d="M82 -41l205 205q22 -29 51 -51q64 -52 143 -52q45 0 68.5 20t23.5 52q0 28 -27 53t-70.5 46.5t-95.5 45t-104.5 55t-96 69.5t-70.5 95.5t-27 127.5q0 119 92 211q36 36 92 65q-39 23 -67 62q-66 82 -66 184q0 61 30.5 119.5t86.5 105t143 75t191 28.5q176 0 325 -89
q63 -39 105 -86l-195 -204q-23 20 -43 34q-56 37 -110 37q-37 0 -59.5 -17.5t-22.5 -43.5q0 -27 26.5 -50.5t69 -44t93.5 -43.5t102.5 -54t94 -68.5t69 -94.5t26.5 -126q0 -111 -88 -207q-43 -47 -86 -70q41 -29 65 -63q68 -89 68 -193q0 -137 -125 -237.5t-336 -100.5
q-202 0 -364 103q-76 50 -117 102zM420 696q0 -73 137 -155q46 -28 139 -70l15 23q16 28 16 59q0 73 -139 156q-45 28 -137 69q-2 -2 -17 -22q-14 -22 -14 -60z" />
    <glyph glyph-name="dieresis" unicode="&#xa8;" horiz-adv-x="1003" 
d="M256 1505q80 0 137.5 -55t57.5 -139t-57.5 -139.5t-137.5 -55.5t-137.5 55.5t-57.5 139.5t57.5 139t137.5 55zM553 1311q0 84 57.5 139t137.5 55t137 -55t57 -139t-57 -139.5t-137 -55.5t-137.5 55.5t-57.5 139.5z" />
    <glyph glyph-name="copyright" unicode="&#xa9;" horiz-adv-x="1638" 
d="M870 154q150 0 280 76.5t207 206.5t77 280t-77 280t-207 206.5t-280 76.5q-112 0 -216 -45.5t-180 -121.5t-121.5 -180t-45.5 -216t45.5 -216t121.5 -180t180 -121.5t216 -45.5zM1075 625l154 -154q-27 -42 -80 -82q-110 -82 -258 -82q-87 0 -165 33t-134 88.5t-88.5 131
t-32.5 157.5q0 168 122 288.5t298 120.5q148 0 258 -82q54 -41 80 -81l-154 -154q-22 22 -43 35q-64 37 -121 37q-77 0 -125.5 -47t-48.5 -117t48.5 -117t125.5 -47q61 0 121 35q24 15 43 37zM82 717q0 160 60 302t164 244.5t251 162t313 59.5q222 0 403 -101.5
t283.5 -277.5t102.5 -389t-102.5 -389t-283.5 -277.5t-403 -101.5q-166 0 -313 59.5t-251 162t-164 244.5t-60 302z" />
    <glyph glyph-name="ordfeminine" unicode="&#xaa;" horiz-adv-x="819" 
d="M471 748v61q-29 -29 -47 -41q-55 -41 -137 -41q-99 0 -162.5 61t-63.5 154q0 86 58.5 141t167.5 74l184 31q0 20 -24 35.5t-68 15.5q-55 0 -103 -27q-23 -10 -40 -24l-144 143q27 35 74 62q100 61 244 61q153 0 240 -83t87 -224v-399h-266zM471 1018v20q-49 -4 -68 -10
q-65 -20 -65 -65q0 -17 12 -29t29 -12q39 0 65.5 27.5t26.5 68.5z" />
    <glyph glyph-name="guillemotleft" unicode="&#xab;" horiz-adv-x="1290" 
d="M338 113l-277 379l277 378h379l-277 -378l277 -379h-379zM850 113l-277 379l277 378h379l-277 -378l277 -379h-379z" />
    <glyph glyph-name="logicalnot" unicode="&#xac;" horiz-adv-x="1003" 
d="M61 543v358h881v-584h-358v226h-523z" />
    <glyph glyph-name="uni00AD" unicode="&#xad;" horiz-adv-x="901" 
d="M102 420v368h697v-368h-697z" />
    <glyph glyph-name="registered" unicode="&#xae;" horiz-adv-x="1740" 
d="M543 328v778h379q136 0 216.5 -72t80.5 -184q0 -96 -62 -166q-29 -32 -61 -49l153 -307h-286l-113 245h-41v-245h-266zM809 758h53q80 0 80 61q0 62 -80 62h-53v-123zM870 154q150 0 280 76.5t207 206.5t77 280t-77 280t-207 206.5t-280 76.5q-112 0 -216 -45.5
t-180 -121.5t-121.5 -180t-45.5 -216t45.5 -216t121.5 -180t180 -121.5t216 -45.5zM82 717q0 160 60 302t164 244.5t251 162t313 59.5q222 0 403 -101.5t283.5 -277.5t102.5 -389t-102.5 -389t-283.5 -277.5t-403 -101.5q-166 0 -313 59.5t-251 162t-164 244.5t-60 302z" />
    <glyph glyph-name="overscore" unicode="&#xaf;" horiz-adv-x="819" 
d="M61 1208v308h697v-308h-697z" />
    <glyph glyph-name="degree" unicode="&#xb0;" horiz-adv-x="839" 
d="M522 1116q0 45 -31 74t-71 29t-71.5 -29t-31.5 -74t31 -73.5t72 -28.5q40 0 71 28.5t31 73.5zM420 1454q152 0 255 -98.5t103 -239.5t-103 -239.5t-255 -98.5t-255.5 98.5t-103.5 239.5t103.5 239.5t255.5 98.5z" />
    <glyph glyph-name="plusminus" unicode="&#xb1;" horiz-adv-x="1105" 
d="M72 0v328h962v-328h-962zM72 645v379h297v276h368v-276h297v-379h-297v-256h-368v256h-297z" />
    <glyph glyph-name="uni00B2" unicode="&#xb2;" horiz-adv-x="706" 
d="M410 1126h235v-225h-594q0 75 17.5 137.5t45.5 103.5t62 74t68 55t62 39.5t45.5 35.5t17.5 36t-13.5 29.5t-38.5 11.5q-39 0 -69 -30q-11 -11 -23 -31l-194 82q27 58 71 102q103 103 256 103q143 0 220 -66t77 -170q0 -57 -31 -106.5t-67.5 -76t-83.5 -57.5t-63 -47z" />
    <glyph glyph-name="uni00B3" unicode="&#xb3;" horiz-adv-x="716" 
d="M31 1014l133 143q17 -21 35 -31q43 -30 88 -30q82 0 82 61q0 19 -23 35t-59 16h-72v144h61q31 0 51.5 14t20.5 37q0 43 -72 43q-24 0 -77 -23q-27 -13 -35 -20l-113 133q29 33 70 55q92 58 237 58q139 0 213 -56.5t74 -138.5q0 -69 -72 -133q-45 -31 -71 -41
q42 -14 82 -39q82 -62 82 -145q0 -85 -83 -145t-235 -60q-131 0 -239 61q-49 28 -78 62z" />
    <glyph glyph-name="acute" unicode="&#xb4;" horiz-adv-x="737" 
d="M61 1116l185 348h430l-256 -348h-359z" />
    <glyph glyph-name="uni00B5" unicode="&#xb5;" horiz-adv-x="1290" 
d="M113 -430v1434h409v-512q0 -53 32.5 -88t80.5 -35t80.5 36.5t32.5 96.5v502h409v-584q0 -62 51 -62q17 0 33 4l8 7v-359q-6 -3 -20.5 -8.5t-18.5 -7.5q-47 -14 -114 -14q-143 0 -224 81q-39 39 -53 82h-10q-26 -41 -74 -82q-94 -79 -213 -79v-412h-409z" />
    <glyph glyph-name="paragraph" unicode="&#xb6;" horiz-adv-x="1443" 
d="M451 -205v819q-167 0 -288.5 121.5t-121.5 288.5t121.5 288.5t288.5 121.5h839v-1639h-358v1249h-123v-1249h-358z" />
    <glyph glyph-name="middot" unicode="&#xb7;" horiz-adv-x="450" 
d="M225 717q99 0 162.5 -59t63.5 -146t-63.5 -146t-162.5 -59t-162 59t-63 146t63 146t162 59z" />
    <glyph glyph-name="cedilla" unicode="&#xb8;" horiz-adv-x="686" 
d="M61 -440l103 153q21 -17 41 -26q45 -25 92 -25q61 0 61 51t-61 51q-5 0 -29 -6l-12 -4l-72 82l92 205h179l-66 -123q62 -9 117 -37q119 -63 119 -188q0 -96 -80.5 -166t-206.5 -70q-114 0 -203 51q-22 12 -74 52z" />
    <glyph glyph-name="uni00B9" unicode="&#xb9;" horiz-adv-x="512" 
d="M154 901v440h-123v195q70 8 119 57q19 19 34 45h256v-737h-286z" />
    <glyph glyph-name="ordmasculine" unicode="&#xba;" horiz-adv-x="839" 
d="M317 1085q0 -45 31 -73.5t72 -28.5q40 0 71 28.5t31 73.5t-31 74t-71 29t-71.5 -29t-31.5 -74zM41 1085q0 155 109.5 262t269.5 107t269.5 -107t109.5 -262q0 -154 -109 -261t-270 -107t-270 107t-109 261z" />
    <glyph glyph-name="guillemotright" unicode="&#xbb;" horiz-adv-x="1290" 
d="M573 113l277 379l-277 378h379l277 -378l-277 -379h-379zM61 113l277 379l-277 378h379l277 -378l-277 -379h-379z" />
    <glyph glyph-name="onequarter" unicode="&#xbc;" horiz-adv-x="1628" 
d="M154 0l901 1434h368l-901 -1434h-368zM164 696v441h-123v194q68 7 119 58q22 22 35 45h256v-738h-287zM932 113v215l328 409h256v-409h71v-215h-71v-113h-277v113h-307zM1147 317h113v154z" />
    <glyph glyph-name="onehalf" unicode="&#xbd;" horiz-adv-x="1689" 
d="M154 0l901 1434h368l-901 -1434h-368zM164 696v441h-123v194q68 7 119 58q22 22 35 45h256v-738h-287zM1382 225h236v-225h-594q0 87 23.5 157t58.5 111.5t76.5 75.5t76.5 53.5t58.5 41t23.5 42.5q0 18 -13 29.5t-38 11.5q-39 0 -69 -30q-11 -11 -23 -31l-194 82
q27 58 71 102q103 103 256 103q143 0 220 -66t77 -170q0 -47 -19 -87t-50.5 -69t-63 -51t-65 -43.5t-48.5 -36.5z" />
    <glyph glyph-name="threequarters" unicode="&#xbe;" horiz-adv-x="1730" 
d="M256 0l901 1434h369l-901 -1434h-369zM1034 113v215l328 409h256v-409h72v-215h-72v-113h-277v113h-307zM1249 317h113v154zM0 809l133 143q16 -19 35 -30q45 -31 88 -31q82 0 82 61q0 19 -23 35.5t-59 16.5h-72v143h62q31 0 51 14t20 37q0 43 -71 43q-27 0 -78 -22
q-23 -12 -35 -21l-113 133q29 33 70 55q92 58 238 58q139 0 212.5 -56.5t73.5 -138.5q0 -70 -71 -133q-44 -31 -72 -41q42 -14 82 -39q82 -62 82 -145q0 -85 -83 -145t-235 -60q-129 0 -239 62q-50 29 -78 61z" />
    <glyph glyph-name="questiondown" unicode="&#xbf;" horiz-adv-x="1064" 
d="M809 41l358 -164q-44 -95 -127 -174q-186 -174 -456 -174q-127 0 -235 37t-179 98.5t-110.5 140.5t-39.5 164q0 62 18 115t48.5 91.5t67.5 72t77.5 64t76.5 60.5t66.5 68.5t45.5 81.5h379l10 -30q10 -30 10 -62q0 -50 -22 -95.5t-55 -76t-71.5 -61t-71.5 -53.5t-55 -50
t-22 -53q0 -48 29.5 -75t83.5 -27q74 0 133 51q25 22 41 51zM389 819q0 87 63 146t162 59t162.5 -59t63.5 -146t-63.5 -146t-162.5 -59t-162 59t-63 146z" />
    <glyph glyph-name="Agrave" unicode="&#xc0;" horiz-adv-x="1525" 
d="M645 594h236l-113 399h-10zM-20 0l522 1434h522l522 -1434h-491l-82 276h-420l-82 -276h-491zM563 1587l-256 348h430l185 -348h-359z" />
    <glyph glyph-name="Aacute" unicode="&#xc1;" horiz-adv-x="1525" 
d="M645 594h236l-113 399h-10zM-20 0l522 1434h522l522 -1434h-491l-82 276h-420l-82 -276h-491zM594 1587l184 348h430l-256 -348h-358z" />
    <glyph glyph-name="Acircumflex" unicode="&#xc2;" horiz-adv-x="1525" 
d="M645 594h236l-113 399h-10zM-20 0l522 1434h522l522 -1434h-491l-82 276h-420l-82 -276h-491zM297 1587l287 348h348l287 -348h-369l-92 133l-92 -133h-369z" />
    <glyph glyph-name="Atilde" unicode="&#xc3;" horiz-adv-x="1525" 
d="M645 594h236l-113 399h-10zM-20 0l522 1434h522l522 -1434h-491l-82 276h-420l-82 -276h-491zM379 1577v102q0 128 61.5 197.5t163.5 69.5q52 0 95 -20.5t74.5 -41t55.5 -20.5q31 0 51.5 22.5t20.5 59.5h246v-103q0 -128 -61.5 -197t-163.5 -69q-53 0 -96 20.5t-74 41
t-56 20.5q-31 0 -51 -22t-20 -60h-246z" />
    <glyph glyph-name="Adieresis" unicode="&#xc4;" horiz-adv-x="1525" 
d="M645 594h236l-113 399h-10zM-20 0l522 1434h522l522 -1434h-491l-82 276h-420l-82 -276h-491zM512 1956q80 0 137.5 -55.5t57.5 -139.5t-57.5 -139t-137.5 -55t-137.5 55t-57.5 139t57.5 139.5t137.5 55.5zM809 1761q0 84 57.5 139.5t137.5 55.5t137 -55.5t57 -139.5
t-57 -139t-137 -55t-137.5 55t-57.5 139z" />
    <glyph glyph-name="Aring" unicode="&#xc5;" horiz-adv-x="1525" 
d="M645 594h236l-113 399h-10zM-20 0l522 1434h522l522 -1434h-491l-82 276h-420l-82 -276h-491zM840 1792q0 33 -22.5 57.5t-59.5 24.5t-59.5 -24.5t-22.5 -57.5t22.5 -57.5t59.5 -24.5t59.5 24.5t22.5 57.5zM758 2058q121 0 203.5 -79t82.5 -187t-82.5 -187t-203.5 -79
t-204 79t-83 187t83 187t204 79z" />
    <glyph glyph-name="AE" unicode="&#xc6;" horiz-adv-x="2109" 
d="M-123 0l799 1434h1331v-379h-614v-174h450v-328h-450v-174h635v-379h-1096v287h-430l-154 -287h-471zM676 604h256v461h-10z" />
    <glyph glyph-name="Ccedilla" unicode="&#xc7;" horiz-adv-x="1536" 
d="M563 -440l103 153q21 -17 41 -26q45 -25 92 -25q61 0 61 51t-61 51q-5 0 -29 -6l-12 -4l-72 82l62 133q-141 18 -265.5 82t-215 161t-143 228t-52.5 277q0 156 61 295.5t167 241.5t257.5 161.5t323.5 59.5q267 0 469 -140q91 -61 155 -137l-276 -297q-36 45 -88 82
q-114 82 -250 82q-153 0 -256 -100t-103 -248t103 -248t256 -100q136 0 254 82q62 44 94 81l277 -296q-68 -80 -152 -136q-196 -133 -453 -141l-20 -41q62 -9 117 -37q118 -62 118 -188q0 -96 -80 -166t-206 -70q-114 0 -203 51q-22 12 -74 52z" />
    <glyph glyph-name="Egrave" unicode="&#xc8;" horiz-adv-x="1392" 
d="M154 0v1434h1136v-379h-676v-174h512v-328h-512v-174h697v-379h-1157zM543 1587l-256 348h430l184 -348h-358z" />
    <glyph glyph-name="Eacute" unicode="&#xc9;" horiz-adv-x="1392" 
d="M154 0v1434h1136v-379h-676v-174h512v-328h-512v-174h697v-379h-1157zM532 1587l185 348h430l-256 -348h-359z" />
    <glyph glyph-name="Ecircumflex" unicode="&#xca;" horiz-adv-x="1392" 
d="M154 0v1434h1136v-379h-676v-174h512v-328h-512v-174h697v-379h-1157zM256 1587l287 348h348l287 -348h-369l-92 133l-92 -133h-369z" />
    <glyph glyph-name="Edieresis" unicode="&#xcb;" horiz-adv-x="1392" 
d="M154 0v1434h1136v-379h-676v-174h512v-328h-512v-174h697v-379h-1157zM471 1956q80 0 137.5 -55.5t57.5 -139.5t-57.5 -139t-137.5 -55t-137.5 55t-57.5 139t57.5 139.5t137.5 55.5zM768 1761q0 84 57.5 139.5t137.5 55.5t137 -55.5t57 -139.5t-57 -139t-137 -55
t-137.5 55t-57.5 139z" />
    <glyph glyph-name="Igrave" unicode="&#xcc;" horiz-adv-x="768" 
d="M154 0v1434h460v-1434h-460zM205 1587l-256 348h430l184 -348h-358z" />
    <glyph glyph-name="Iacute" unicode="&#xcd;" horiz-adv-x="768" 
d="M154 0v1434h460v-1434h-460zM195 1587l184 348h430l-256 -348h-358z" />
    <glyph glyph-name="Icircumflex" unicode="&#xce;" horiz-adv-x="768" 
d="M154 0v1434h460v-1434h-460zM-82 1587l287 348h348l287 -348h-369l-92 133l-92 -133h-369z" />
    <glyph glyph-name="Idieresis" unicode="&#xcf;" horiz-adv-x="768" 
d="M154 0v1434h460v-1434h-460zM133 1956q80 0 137.5 -55.5t57.5 -139.5t-57.5 -139t-137.5 -55t-137 55t-57 139t57 139.5t137 55.5zM430 1761q0 84 57.5 139.5t137.5 55.5t137 -55.5t57 -139.5t-57 -139t-137 -55t-137.5 55t-57.5 139z" />
    <glyph glyph-name="Eth" unicode="&#xd0;" horiz-adv-x="1607" 
d="M184 0v655h-143v123h143v656h574q165 0 311 -58t247.5 -155.5t160.5 -228.5t59 -275t-59 -275t-160.5 -228.5t-247.5 -155.5t-311 -58h-574zM645 389h103q148 0 237.5 90t89.5 238t-89.5 237.5t-237.5 89.5h-103v-266h184v-123h-184v-266z" />
    <glyph glyph-name="Ntilde" unicode="&#xd1;" horiz-adv-x="1699" 
d="M154 0v1434h399l532 -686v686h461v-1434h-399l-533 686v-686h-460zM471 1577v102q0 128 61.5 197.5t163.5 69.5q52 0 95.5 -20.5t75 -41t55.5 -20.5q31 0 51 22t20 60h246v-103q0 -128 -61.5 -197t-163.5 -69q-53 0 -96 20.5t-74 41t-56 20.5q-31 0 -51 -22t-20 -60h-246
z" />
    <glyph glyph-name="Ograve" unicode="&#xd2;" horiz-adv-x="1761" 
d="M532 717q0 -148 100.5 -248t248.5 -100t248 100t100 248t-100 248t-248 100t-248.5 -100t-100.5 -248zM72 717q0 156 61 295.5t167 241.5t257.5 161.5t323.5 59.5t323.5 -59.5t257.5 -161.5t167 -241.5t61 -295.5t-61 -295.5t-167 -241.5t-257.5 -161.5t-323.5 -59.5
t-323.5 59.5t-257.5 161.5t-167 241.5t-61 295.5zM707 1587l-256 348h430l184 -348h-358z" />
    <glyph glyph-name="Oacute" unicode="&#xd3;" horiz-adv-x="1761" 
d="M532 717q0 -148 100.5 -248t248.5 -100t248 100t100 248t-100 248t-248 100t-248.5 -100t-100.5 -248zM72 717q0 156 61 295.5t167 241.5t257.5 161.5t323.5 59.5t323.5 -59.5t257.5 -161.5t167 -241.5t61 -295.5t-61 -295.5t-167 -241.5t-257.5 -161.5t-323.5 -59.5
t-323.5 59.5t-257.5 161.5t-167 241.5t-61 295.5zM696 1587l185 348h430l-256 -348h-359z" />
    <glyph glyph-name="Ocircumflex" unicode="&#xd4;" horiz-adv-x="1761" 
d="M532 717q0 -148 100.5 -248t248.5 -100t248 100t100 248t-100 248t-248 100t-248.5 -100t-100.5 -248zM72 717q0 156 61 295.5t167 241.5t257.5 161.5t323.5 59.5t323.5 -59.5t257.5 -161.5t167 -241.5t61 -295.5t-61 -295.5t-167 -241.5t-257.5 -161.5t-323.5 -59.5
t-323.5 59.5t-257.5 161.5t-167 241.5t-61 295.5zM420 1587l287 348h348l286 -348h-368l-92 133l-93 -133h-368z" />
    <glyph glyph-name="Otilde" unicode="&#xd5;" horiz-adv-x="1761" 
d="M532 717q0 -148 100.5 -248t248.5 -100t248 100t100 248t-100 248t-248 100t-248.5 -100t-100.5 -248zM72 717q0 156 61 295.5t167 241.5t257.5 161.5t323.5 59.5t323.5 -59.5t257.5 -161.5t167 -241.5t61 -295.5t-61 -295.5t-167 -241.5t-257.5 -161.5t-323.5 -59.5
t-323.5 59.5t-257.5 161.5t-167 241.5t-61 295.5zM502 1577v102q0 128 61.5 197.5t163.5 69.5q52 0 95 -20.5t74.5 -41t55.5 -20.5q31 0 51.5 22.5t20.5 59.5h246v-103q0 -127 -61.5 -196.5t-164.5 -69.5q-53 0 -95.5 20.5t-73.5 41t-56 20.5q-31 0 -51 -22t-20 -60h-246z
" />
    <glyph glyph-name="Odieresis" unicode="&#xd6;" horiz-adv-x="1761" 
d="M532 717q0 -148 100.5 -248t248.5 -100t248 100t100 248t-100 248t-248 100t-248.5 -100t-100.5 -248zM72 717q0 156 61 295.5t167 241.5t257.5 161.5t323.5 59.5t323.5 -59.5t257.5 -161.5t167 -241.5t61 -295.5t-61 -295.5t-167 -241.5t-257.5 -161.5t-323.5 -59.5
t-323.5 59.5t-257.5 161.5t-167 241.5t-61 295.5zM635 1956q80 0 137 -55.5t57 -139.5t-57 -139t-137 -55t-137.5 55t-57.5 139t57.5 139.5t137.5 55.5zM932 1761q0 84 57 139.5t137 55.5t137.5 -55.5t57.5 -139.5t-57.5 -139t-137.5 -55t-137 55t-57 139z" />
    <glyph glyph-name="multiply" unicode="&#xd7;" horiz-adv-x="1085" 
d="M72 410l225 225l-225 225l245 246l226 -225l225 225l246 -246l-226 -225l226 -225l-246 -246l-225 225l-226 -225z" />
    <glyph glyph-name="Oslash" unicode="&#xd8;" horiz-adv-x="1761" 
d="M82 72l174 153q-51 57 -92 131q-92 164 -92 361q0 156 61 295.5t167 241.5t257.5 161.5t323.5 59.5q219 0 397 -93q82 -42 135 -92l174 164l92 -92l-174 -154q51 -57 92 -131q93 -166 93 -360q0 -156 -61 -295.5t-167 -241.5t-257.5 -161.5t-323.5 -59.5q-222 0 -398 92
q-82 42 -135 92l-174 -163zM1178 901l-502 -471q23 -20 55 -31q66 -30 150 -30q148 0 248 100t100 248q0 71 -27 135q-10 29 -24 49zM584 532l501 472l-57 30q-86 31 -147 31q-148 0 -248.5 -100t-100.5 -248q0 -76 25 -135q8 -23 27 -50z" />
    <glyph glyph-name="Ugrave" unicode="&#xd9;" horiz-adv-x="1617" 
d="M133 604v830h461v-830q0 -93 64 -159t151 -66t151 66t64 159v830h461v-830q0 -137 -49.5 -256t-137.5 -205t-214.5 -135t-274.5 -49t-274.5 49t-214.5 135t-137.5 205t-49.5 256zM635 1587l-256 348h430l184 -348h-358z" />
    <glyph glyph-name="Uacute" unicode="&#xda;" horiz-adv-x="1617" 
d="M133 604v830h461v-830q0 -93 64 -159t151 -66t151 66t64 159v830h461v-830q0 -137 -49.5 -256t-137.5 -205t-214.5 -135t-274.5 -49t-274.5 49t-214.5 135t-137.5 205t-49.5 256zM625 1587l184 348h430l-256 -348h-358z" />
    <glyph glyph-name="Ucircumflex" unicode="&#xdb;" horiz-adv-x="1617" 
d="M133 604v830h461v-830q0 -93 64 -159t151 -66t151 66t64 159v830h461v-830q0 -137 -49.5 -256t-137.5 -205t-214.5 -135t-274.5 -49t-274.5 49t-214.5 135t-137.5 205t-49.5 256zM348 1587l287 348h348l287 -348h-369l-92 133l-92 -133h-369z" />
    <glyph glyph-name="Udieresis" unicode="&#xdc;" horiz-adv-x="1617" 
d="M133 604v830h461v-830q0 -93 64 -159t151 -66t151 66t64 159v830h461v-830q0 -137 -49.5 -256t-137.5 -205t-214.5 -135t-274.5 -49t-274.5 49t-214.5 135t-137.5 205t-49.5 256zM563 1956q80 0 137.5 -55.5t57.5 -139.5t-57.5 -139t-137.5 -55t-137 55t-57 139t57 139.5
t137 55.5zM860 1761q0 84 57.5 139.5t137.5 55.5t137 -55.5t57 -139.5t-57 -139t-137 -55t-137.5 55t-57.5 139z" />
    <glyph glyph-name="Yacute" unicode="&#xdd;" horiz-adv-x="1423" 
d="M481 0v512l-512 922h502l236 -543h10l235 543h502l-512 -922v-512h-461zM522 1587l185 348h430l-256 -348h-359z" />
    <glyph glyph-name="Thorn" unicode="&#xde;" horiz-adv-x="1587" 
d="M154 0v1434h460v-205h390q243 0 387.5 -137t144.5 -355t-144.5 -354.5t-387.5 -136.5h-390v-246h-460zM614 614h328q59 0 96 36.5t37 86.5t-37 86.5t-96 36.5h-328v-246z" />
    <glyph glyph-name="germandbls" unicode="&#xdf;" horiz-adv-x="1290" 
d="M113 0v963q0 226 141.5 358.5t394.5 132.5q219 0 353.5 -114.5t134.5 -274.5q0 -125 -88 -221q-41 -44 -86 -66q76 -27 137 -73q139 -106 139 -275q0 -185 -145 -307.5t-398 -122.5h-82v358h72q59 0 91 31.5t32 81.5t-32 81.5t-91 31.5h-72v297h21q49 0 81 30t32 82
t-32 82.5t-81 30.5q-48 0 -80.5 -36.5t-32.5 -96.5v-973h-409z" />
    <glyph glyph-name="agrave" unicode="&#xe0;" horiz-adv-x="1136" 
d="M614 0v133h-10q-29 -47 -63 -78q-83 -75 -203 -75q-122 0 -209.5 85t-87.5 201q0 241 317 318l267 61q-8 41 -41.5 66.5t-91.5 25.5q-65 0 -132 -47q-36 -28 -53 -45l-205 195q46 52 111 96q148 98 340 98q134 0 243 -57.5t168.5 -151t59.5 -200.5v-625h-410zM625 410v41
l-103 -31q-46 -13 -64 -31.5t-18 -50.5q0 -31 20.5 -51.5t49.5 -20.5q49 0 82 38.5t33 105.5zM399 1126l-256 349h430l185 -349h-359z" />
    <glyph glyph-name="aacute" unicode="&#xe1;" horiz-adv-x="1136" 
d="M614 0v133h-10q-29 -47 -63 -78q-83 -75 -203 -75q-122 0 -209.5 85t-87.5 201q0 241 317 318l267 61q-8 41 -41.5 66.5t-91.5 25.5q-65 0 -132 -47q-36 -28 -53 -45l-205 195q46 52 111 96q148 98 340 98q134 0 243 -57.5t168.5 -151t59.5 -200.5v-625h-410zM625 410v41
l-103 -31q-46 -13 -64 -31.5t-18 -50.5q0 -31 20.5 -51.5t49.5 -20.5q49 0 82 38.5t33 105.5zM389 1126l184 349h431l-256 -349h-359z" />
    <glyph glyph-name="acircumflex" unicode="&#xe2;" horiz-adv-x="1136" 
d="M614 0v133h-10q-29 -47 -63 -78q-83 -75 -203 -75q-122 0 -209.5 85t-87.5 201q0 241 317 318l267 61q-8 41 -41.5 66.5t-91.5 25.5q-65 0 -132 -47q-36 -28 -53 -45l-205 195q46 52 111 96q148 98 340 98q134 0 243 -57.5t168.5 -151t59.5 -200.5v-625h-410zM625 410v41
l-103 -31q-46 -13 -64 -31.5t-18 -50.5q0 -31 20.5 -51.5t49.5 -20.5q49 0 82 38.5t33 105.5zM113 1126l286 349h349l286 -349h-368l-93 134l-92 -134h-368z" />
    <glyph glyph-name="atilde" unicode="&#xe3;" horiz-adv-x="1136" 
d="M614 0v133h-10q-29 -47 -63 -78q-83 -75 -203 -75q-122 0 -209.5 85t-87.5 201q0 241 317 318l267 61q-8 41 -41.5 66.5t-91.5 25.5q-65 0 -132 -47q-36 -28 -53 -45l-205 195q46 52 111 96q148 98 340 98q134 0 243 -57.5t168.5 -151t59.5 -200.5v-625h-410zM625 410v41
l-103 -31q-46 -13 -64 -31.5t-18 -50.5q0 -31 20.5 -51.5t49.5 -20.5q49 0 82 38.5t33 105.5zM184 1116v103q0 127 61.5 196.5t164.5 69.5q52 0 95 -20.5t74.5 -41t55.5 -20.5q31 0 51.5 22.5t20.5 59.5h245v-103q0 -128 -61.5 -197t-163.5 -69q-53 0 -95.5 20.5t-73.5 41
t-56 20.5q-31 0 -51.5 -22.5t-20.5 -59.5h-246z" />
    <glyph glyph-name="adieresis" unicode="&#xe4;" horiz-adv-x="1136" 
d="M614 0v133h-10q-29 -47 -63 -78q-83 -75 -203 -75q-122 0 -209.5 85t-87.5 201q0 241 317 318l267 61q-8 41 -41.5 66.5t-91.5 25.5q-65 0 -132 -47q-36 -28 -53 -45l-205 195q46 52 111 96q148 98 340 98q134 0 243 -57.5t168.5 -151t59.5 -200.5v-625h-410zM625 410v41
l-103 -31q-46 -13 -64 -31.5t-18 -50.5q0 -31 20.5 -51.5t49.5 -20.5q49 0 82 38.5t33 105.5zM328 1495q80 0 137 -55.5t57 -139.5t-57 -139t-137 -55t-137.5 55t-57.5 139t57.5 139.5t137.5 55.5zM625 1300q0 84 57 139.5t137 55.5t137.5 -55.5t57.5 -139.5t-57.5 -139
t-137.5 -55t-137 55t-57 139z" />
    <glyph glyph-name="aring" unicode="&#xe5;" horiz-adv-x="1136" 
d="M614 0v133h-10q-29 -47 -63 -78q-83 -75 -203 -75q-122 0 -209.5 85t-87.5 201q0 241 317 318l267 61q-8 41 -41.5 66.5t-91.5 25.5q-65 0 -132 -47q-36 -28 -53 -45l-205 195q46 52 111 96q148 98 340 98q134 0 243 -57.5t168.5 -151t59.5 -200.5v-625h-410zM625 410v41
l-103 -31q-46 -13 -64 -31.5t-18 -50.5q0 -31 20.5 -51.5t49.5 -20.5q49 0 82 38.5t33 105.5zM655 1341q0 33 -22.5 57.5t-59.5 24.5t-59 -24.5t-22 -57.5t22 -57t59 -24t59.5 24.5t22.5 56.5zM573 1608q121 0 204 -79.5t83 -187.5t-83 -187t-204 -79t-203.5 79t-82.5 187
t82.5 187.5t203.5 79.5z" />
    <glyph glyph-name="ae" unicode="&#xe6;" horiz-adv-x="1761" 
d="M358 584l267 61q-8 41 -41.5 66.5t-91.5 25.5q-65 0 -132 -47q-36 -28 -53 -45l-205 195q51 54 113 96q144 98 297 98q142 0 244 -78q46 -34 73 -75q37 37 95 75q118 78 254 78q109 0 208 -41.5t169.5 -109.5t112.5 -160.5t42 -190.5q0 -54 -10 -92l-10 -30h-666
q20 -54 75 -94t140 -40q88 0 158 41q25 13 57 41l143 -256q-44 -38 -106 -67q-144 -66 -293 -66q-150 0 -276 86q-56 40 -93 88q-40 -46 -96 -82q-130 -81 -301 -81q-185 0 -288 82t-103 204q0 241 317 318zM1024 594h276q-8 56 -44.5 94.5t-88.5 38.5q-59 0 -97 -38
t-46 -95zM625 420v31l-103 -31q-46 -13 -64 -31.5t-18 -50.5q0 -31 20.5 -51.5t51.5 -20.5q50 0 81.5 39.5t31.5 114.5z" />
    <glyph glyph-name="ccedilla" unicode="&#xe7;" horiz-adv-x="1105" 
d="M307 -440l103 153q21 -17 41 -26q45 -25 92 -25q61 0 61 51t-61 51q-5 0 -29 -6l-12 -4l-72 82l72 152q-192 43 -316.5 181t-124.5 333q0 142 74 264t206.5 195t293.5 73q195 0 340 -108q58 -42 110 -107l-235 -246q-19 22 -49 45q-69 48 -135 48q-84 0 -134.5 -46.5
t-50.5 -117.5t50.5 -117.5t134.5 -46.5q70 0 135 45q31 24 49 47l235 -246q-37 -51 -102 -100q-146 -103 -317 -115l-31 -51q62 -9 117 -37q118 -62 118 -188q0 -96 -80 -166t-206 -70q-114 0 -203 51q-22 12 -74 52z" />
    <glyph glyph-name="egrave" unicode="&#xe8;" horiz-adv-x="1208" 
d="M901 358l143 -256q-47 -41 -106 -67q-144 -66 -303 -66q-121 0 -228.5 43t-183 115.5t-119 170.5t-43.5 204t43.5 204t117.5 170t176.5 115t215.5 43q149 0 274.5 -70t197 -185t71.5 -247q0 -54 -10 -92l-10 -30h-666q20 -54 75 -94t140 -40q88 0 158 41q25 13 57 41z
M471 594h277q-8 56 -45 94.5t-89 38.5q-59 0 -97 -38t-46 -95zM430 1126l-256 349h430l184 -349h-358z" />
    <glyph glyph-name="eacute" unicode="&#xe9;" horiz-adv-x="1208" 
d="M901 358l143 -256q-47 -41 -106 -67q-144 -66 -303 -66q-121 0 -228.5 43t-183 115.5t-119 170.5t-43.5 204t43.5 204t117.5 170t176.5 115t215.5 43q149 0 274.5 -70t197 -185t71.5 -247q0 -54 -10 -92l-10 -30h-666q20 -54 75 -94t140 -40q88 0 158 41q25 13 57 41z
M471 594h277q-8 56 -45 94.5t-89 38.5q-59 0 -97 -38t-46 -95zM420 1126l184 349h430l-256 -349h-358z" />
    <glyph glyph-name="ecircumflex" unicode="&#xea;" horiz-adv-x="1208" 
d="M901 358l143 -256q-47 -41 -106 -67q-144 -66 -303 -66q-121 0 -228.5 43t-183 115.5t-119 170.5t-43.5 204t43.5 204t117.5 170t176.5 115t215.5 43q149 0 274.5 -70t197 -185t71.5 -247q0 -54 -10 -92l-10 -30h-666q20 -54 75 -94t140 -40q88 0 158 41q25 13 57 41z
M471 594h277q-8 56 -45 94.5t-89 38.5q-59 0 -97 -38t-46 -95zM143 1126l287 349h348l287 -349h-369l-92 134l-92 -134h-369z" />
    <glyph glyph-name="edieresis" unicode="&#xeb;" horiz-adv-x="1208" 
d="M901 358l143 -256q-47 -41 -106 -67q-144 -66 -303 -66q-121 0 -228.5 43t-183 115.5t-119 170.5t-43.5 204t43.5 204t117.5 170t176.5 115t215.5 43q149 0 274.5 -70t197 -185t71.5 -247q0 -54 -10 -92l-10 -30h-666q20 -54 75 -94t140 -40q88 0 158 41q25 13 57 41z
M471 594h277q-8 56 -45 94.5t-89 38.5q-59 0 -97 -38t-46 -95zM358 1495q80 0 137.5 -55.5t57.5 -139.5t-57.5 -139t-137.5 -55t-137 55t-57 139t57 139.5t137 55.5zM655 1300q0 84 57.5 139.5t137.5 55.5t137 -55.5t57 -139.5t-57 -139t-137 -55t-137.5 55t-57.5 139z" />
    <glyph glyph-name="igrave" unicode="&#xec;" horiz-adv-x="655" 
d="M123 0v1004h409v-1004h-409zM154 1126l-256 349h430l184 -349h-358z" />
    <glyph glyph-name="iacute" unicode="&#xed;" horiz-adv-x="655" 
d="M123 0v1004h409v-1004h-409zM143 1126l185 349h430l-256 -349h-359z" />
    <glyph glyph-name="icircumflex" unicode="&#xee;" horiz-adv-x="655" 
d="M123 0v1004h409v-1004h-409zM-133 1126l287 349h348l286 -349h-368l-92 134l-92 -134h-369z" />
    <glyph glyph-name="idieresis" unicode="&#xef;" horiz-adv-x="655" 
d="M123 0v1004h409v-1004h-409zM82 1495q80 0 137 -55.5t57 -139.5t-57 -139t-137 -55t-137.5 55t-57.5 139t57.5 139.5t137.5 55.5zM379 1300q0 84 57 139.5t137 55.5t137.5 -55.5t57.5 -139.5t-57.5 -139t-137.5 -55t-137 55t-57 139z" />
    <glyph glyph-name="eth" unicode="&#xf0;" horiz-adv-x="1280" 
d="M317 1075l-92 103l215 92q-9 7 -32 27t-37 30q-68 55 -146 96l297 144l82 -56q99 -69 144 -108l194 92l92 -102l-184 -82q159 -150 258.5 -345.5t99.5 -412.5q0 -253 -160 -413t-413 -160q-169 0 -301.5 67t-202.5 178.5t-70 245.5q0 209 145.5 350.5t366.5 141.5
q67 0 136 -21q34 -11 49 -20h10q-57 92 -143 178l-82 78zM625 317q61 0 107 46t46 108t-46 108t-107 46t-107.5 -46.5t-46.5 -107.5t46.5 -107.5t107.5 -46.5z" />
    <glyph glyph-name="ntilde" unicode="&#xf1;" 
d="M113 0v1004h409v-144h10q26 45 66 82q94 82 211 82q159 0 253.5 -108t94.5 -312v-604h-409v512q0 53 -32.5 88t-80.5 35t-80.5 -36.5t-32.5 -96.5v-502h-409zM256 1116v103q0 128 61.5 197t163.5 69q52 0 95.5 -20.5t75 -41t55.5 -20.5q31 0 51 22t20 60h246v-103
q0 -128 -61.5 -197t-163.5 -69q-53 0 -96 20.5t-74 41t-56 20.5q-31 0 -51 -22t-20 -60h-246z" />
    <glyph glyph-name="ograve" unicode="&#xf2;" 
d="M481 502q0 -62 46.5 -108t107.5 -46t107 46t46 108t-46 107.5t-107 45.5q-62 0 -108 -46t-46 -107zM61 502q0 142 74 264t206.5 195t293.5 73q159 0 291.5 -73t207 -195t74.5 -264t-74.5 -264.5t-207 -195.5t-291.5 -73q-121 0 -228.5 43t-183 115.5t-119 170.5
t-43.5 204zM461 1126l-256 349h430l184 -349h-358z" />
    <glyph glyph-name="oacute" unicode="&#xf3;" 
d="M481 502q0 -62 46.5 -108t107.5 -46t107 46t46 108t-46 107.5t-107 45.5q-62 0 -108 -46t-46 -107zM61 502q0 142 74 264t206.5 195t293.5 73q159 0 291.5 -73t207 -195t74.5 -264t-74.5 -264.5t-207 -195.5t-291.5 -73q-121 0 -228.5 43t-183 115.5t-119 170.5
t-43.5 204zM451 1126l184 349h430l-256 -349h-358z" />
    <glyph glyph-name="ocircumflex" unicode="&#xf4;" 
d="M481 502q0 -62 46.5 -108t107.5 -46t107 46t46 108t-46 107.5t-107 45.5q-62 0 -108 -46t-46 -107zM61 502q0 142 74 264t206.5 195t293.5 73q159 0 291.5 -73t207 -195t74.5 -264t-74.5 -264.5t-207 -195.5t-291.5 -73q-121 0 -228.5 43t-183 115.5t-119 170.5
t-43.5 204zM174 1126l287 349h348l287 -349h-369l-92 134l-92 -134h-369z" />
    <glyph glyph-name="otilde" unicode="&#xf5;" 
d="M481 502q0 -62 46.5 -108t107.5 -46t107 46t46 108t-46 107.5t-107 45.5q-62 0 -108 -46t-46 -107zM61 502q0 142 74 264t206.5 195t293.5 73q159 0 291.5 -73t207 -195t74.5 -264t-74.5 -264.5t-207 -195.5t-291.5 -73q-121 0 -228.5 43t-183 115.5t-119 170.5
t-43.5 204zM246 1116v103q0 128 61.5 197t163.5 69q52 0 95 -20.5t74.5 -41t55.5 -20.5q31 0 51.5 22.5t20.5 59.5h246v-103q0 -127 -61.5 -196.5t-164.5 -69.5q-53 0 -95.5 20.5t-73.5 41t-56 20.5q-31 0 -51 -22t-20 -60h-246z" />
    <glyph glyph-name="odieresis" unicode="&#xf6;" 
d="M481 502q0 -62 46.5 -108t107.5 -46t107 46t46 108t-46 107.5t-107 45.5q-62 0 -108 -46t-46 -107zM61 502q0 142 74 264t206.5 195t293.5 73q159 0 291.5 -73t207 -195t74.5 -264t-74.5 -264.5t-207 -195.5t-291.5 -73q-121 0 -228.5 43t-183 115.5t-119 170.5
t-43.5 204zM389 1495q80 0 137.5 -55.5t57.5 -139.5t-57.5 -139t-137.5 -55t-137 55t-57 139t57 139.5t137 55.5zM686 1300q0 84 57.5 139.5t137.5 55.5t137 -55.5t57 -139.5t-57 -139t-137 -55t-137.5 55t-57.5 139z" />
    <glyph glyph-name="divide" unicode="&#xf7;" horiz-adv-x="1064" 
d="M317 184q0 81 59 138t156 57t156.5 -57t59.5 -138t-59.5 -137.5t-156.5 -56.5t-156 56.5t-59 137.5zM61 461v287h943v-287h-943zM317 1024q0 81 59 138t156 57t156.5 -57t59.5 -138t-59.5 -138t-156.5 -57t-156 57t-59 138z" />
    <glyph glyph-name="oslash" unicode="&#xf8;" 
d="M72 61l112 113q-37 44 -61 90q-62 114 -62 238q0 142 74 264t206.5 195t293.5 73q144 0 260 -57q49 -21 98 -55l113 112l92 -92l-113 -113q40 -47 62 -90q61 -112 61 -237q0 -142 -74.5 -264.5t-207 -195.5t-291.5 -73q-146 0 -260 56q-60 26 -99 57l-112 -113zM809 584
l-266 -256q19 -10 26 -11q30 -10 66 -10q86 0 140 54.5t54 140.5q0 36 -10 59zM461 420l266 256q-5 1 -27 10q-27 10 -65 10q-86 0 -140.5 -54t-54.5 -140q0 -31 11 -60q3 -11 10 -22z" />
    <glyph glyph-name="ugrave" unicode="&#xf9;" 
d="M113 399v605h409v-512q0 -53 32.5 -88t80.5 -35t80.5 36.5t32.5 96.5v502h409v-1004h-409v143h-11q-27 -47 -65 -82q-93 -81 -211 -81q-159 0 -253.5 107.5t-94.5 311.5zM461 1126l-256 349h430l184 -349h-358z" />
    <glyph glyph-name="uacute" unicode="&#xfa;" 
d="M113 399v605h409v-512q0 -53 32.5 -88t80.5 -35t80.5 36.5t32.5 96.5v502h409v-1004h-409v143h-11q-27 -47 -65 -82q-93 -81 -211 -81q-159 0 -253.5 107.5t-94.5 311.5zM451 1126l184 349h430l-256 -349h-358z" />
    <glyph glyph-name="ucircumflex" unicode="&#xfb;" 
d="M113 399v605h409v-512q0 -53 32.5 -88t80.5 -35t80.5 36.5t32.5 96.5v502h409v-1004h-409v143h-11q-27 -47 -65 -82q-93 -81 -211 -81q-159 0 -253.5 107.5t-94.5 311.5zM174 1126l287 349h348l287 -349h-369l-92 134l-92 -134h-369z" />
    <glyph glyph-name="udieresis" unicode="&#xfc;" 
d="M113 399v605h409v-512q0 -53 32.5 -88t80.5 -35t80.5 36.5t32.5 96.5v502h409v-1004h-409v143h-11q-27 -47 -65 -82q-93 -81 -211 -81q-159 0 -253.5 107.5t-94.5 311.5zM389 1495q80 0 137.5 -55.5t57.5 -139.5t-57.5 -139t-137.5 -55t-137 55t-57 139t57 139.5
t137 55.5zM686 1300q0 84 57.5 139.5t137.5 55.5t137 -55.5t57 -139.5t-57 -139t-137 -55t-137.5 55t-57.5 139z" />
    <glyph glyph-name="yacute" unicode="&#xfd;" horiz-adv-x="1136" 
d="M92 -389v348q14 -7 29 -10q33 -10 74 -10q65 0 99.5 25.5t53.5 76.5l-368 963h440l143 -553h10l144 553h440l-389 -1024q-80 -213 -189 -311.5t-282 -98.5q-67 0 -145 20q-31 8 -60 21zM389 1126l184 349h431l-256 -349h-359z" />
    <glyph glyph-name="thorn" unicode="&#xfe;" horiz-adv-x="1310" 
d="M123 -430v1864h409v-574h11q22 42 65 82q94 82 221 82q85 0 161 -36t133.5 -101.5t91.5 -165t34 -219.5t-34 -219.5t-91.5 -165t-133.5 -101.5t-161 -36q-128 0 -221 81q-43 40 -65 82h-11v-573h-409zM686 338q62 0 108 48t46 116t-46 116t-108 48t-108 -48t-46 -116
t46 -116t108 -48z" />
    <glyph glyph-name="ydieresis" unicode="&#xff;" horiz-adv-x="1136" 
d="M92 -389v348q14 -7 29 -10q33 -10 74 -10q65 0 99.5 25.5t53.5 76.5l-368 963h440l143 -553h10l144 553h440l-389 -1024q-80 -213 -189 -311.5t-282 -98.5q-67 0 -145 20q-31 8 -60 21zM317 1495q80 0 137.5 -55.5t57.5 -139.5t-57.5 -139t-137.5 -55t-137 55t-57 139
t57 139.5t137 55.5zM614 1300q0 84 57.5 139.5t137.5 55.5t137.5 -55.5t57.5 -139.5t-57.5 -139t-137.5 -55t-137.5 55t-57.5 139z" />
    <glyph glyph-name="Amacron" unicode="&#x100;" horiz-adv-x="1525" 
d="M645 594h236l-113 399h-10zM-20 0l522 1434h522l522 -1434h-491l-82 276h-420l-82 -276h-491zM410 1628v307h696v-307h-696z" />
    <glyph glyph-name="amacron" unicode="&#x101;" horiz-adv-x="1136" 
d="M614 0v133h-10q-29 -47 -63 -78q-83 -75 -203 -75q-122 0 -209.5 85t-87.5 201q0 241 317 318l267 61q-8 41 -41.5 66.5t-91.5 25.5q-65 0 -132 -47q-36 -28 -53 -45l-205 195q46 52 111 96q148 98 340 98q134 0 243 -57.5t168.5 -151t59.5 -200.5v-625h-410zM625 410v41
l-103 -31q-46 -13 -64 -31.5t-18 -50.5q0 -31 20.5 -51.5t49.5 -20.5q49 0 82 38.5t33 105.5zM225 1167v308h697v-308h-697z" />
    <glyph glyph-name="Abreve" unicode="&#x102;" horiz-adv-x="1525" 
d="M645 594h236l-113 399h-10zM-20 0l522 1434h522l522 -1434h-491l-82 276h-420l-82 -276h-491zM389 1935h287q0 -92 82 -92t82 92h286q0 -149 -104.5 -248.5t-263.5 -99.5t-264 100t-105 248z" />
    <glyph glyph-name="abreve" unicode="&#x103;" horiz-adv-x="1136" 
d="M614 0v133h-10q-29 -47 -63 -78q-83 -75 -203 -75q-122 0 -209.5 85t-87.5 201q0 241 317 318l267 61q-8 41 -41.5 66.5t-91.5 25.5q-65 0 -132 -47q-36 -28 -53 -45l-205 195q46 52 111 96q148 98 340 98q134 0 243 -57.5t168.5 -151t59.5 -200.5v-625h-410zM625 410v41
l-103 -31q-46 -13 -64 -31.5t-18 -50.5q0 -31 20.5 -51.5t49.5 -20.5q49 0 82 38.5t33 105.5zM205 1475h287q0 -93 81 -93q82 0 82 93h287q0 -149 -105 -249t-264 -100t-263.5 100t-104.5 249z" />
    <glyph glyph-name="Aogonek" unicode="&#x104;" horiz-adv-x="1525" 
d="M-20 0l522 1434h522l522 -1434h-338q-20 -40 -26 -63q-25 -70 -25 -132q0 -92 92 -92q23 0 56 11q3 1 26 10v-205q-17 -10 -51 -21q-66 -20 -143 -20q-121 0 -194 67t-73 169q0 101 93 198q42 45 92 78l-82 276h-420l-82 -276h-491zM645 594h236l-113 399h-10z" />
    <glyph glyph-name="aogonek" unicode="&#x105;" horiz-adv-x="1136" 
d="M614 0v133h-10q-29 -47 -63 -78q-83 -75 -203 -75q-122 0 -209.5 85t-87.5 201q0 241 317 318l267 61q-8 41 -41.5 66.5t-91.5 25.5q-65 0 -132 -47q-36 -28 -53 -45l-205 195q46 52 111 96q148 98 340 98q134 0 243 -57.5t168.5 -151t59.5 -200.5v-625h-256
q-22 -44 -27 -63q-24 -67 -24 -132q0 -92 92 -92q22 0 55 11q5 1 27 10v-205q-17 -10 -51 -21q-66 -20 -144 -20q-121 0 -193.5 67t-72.5 169t92 198q42 45 92 78zM625 410v41l-103 -31q-46 -13 -64 -31.5t-18 -50.5q0 -31 20.5 -51.5t49.5 -20.5q49 0 82 38.5t33 105.5z
" />
    <glyph glyph-name="Cacute" unicode="&#x106;" horiz-adv-x="1536" 
d="M1239 532l277 -296q-67 -79 -160 -140q-202 -137 -475 -137q-172 0 -323.5 59.5t-257.5 161.5t-167 241.5t-61 295.5t61 295.5t167 241.5t257.5 161.5t323.5 59.5q267 0 469 -140q91 -61 155 -137l-276 -297q-36 45 -88 82q-114 82 -250 82q-153 0 -256 -100t-103 -248
t103 -248t256 -100q136 0 254 82q62 44 94 81zM645 1587l184 348h431l-256 -348h-359z" />
    <glyph glyph-name="cacute" unicode="&#x107;" horiz-adv-x="1105" 
d="M850 430l235 -246q-48 -63 -110 -108q-144 -107 -340 -107q-121 0 -228.5 43t-183 115.5t-119 170.5t-43.5 204q0 142 74 264t206.5 195t293.5 73q195 0 340 -108q58 -42 110 -107l-235 -246q-19 22 -49 45q-69 48 -135 48q-84 0 -134.5 -46.5t-50.5 -117.5t50.5 -117.5
t134.5 -46.5q70 0 135 45q31 24 49 47zM420 1126l184 349h430l-256 -349h-358z" />
    <glyph glyph-name="Ccircumflex" unicode="&#x108;" horiz-adv-x="1536" 
d="M1239 532l277 -296q-67 -79 -160 -140q-202 -137 -475 -137q-172 0 -323.5 59.5t-257.5 161.5t-167 241.5t-61 295.5t61 295.5t167 241.5t257.5 161.5t323.5 59.5q267 0 469 -140q91 -61 155 -137l-276 -297q-36 45 -88 82q-114 82 -250 82q-153 0 -256 -100t-103 -248
t103 -248t256 -100q136 0 254 82q62 44 94 81zM379 1587l287 348h348l286 -348h-368l-92 133l-92 -133h-369z" />
    <glyph glyph-name="ccircumflex" unicode="&#x109;" horiz-adv-x="1105" 
d="M850 430l235 -246q-48 -63 -110 -108q-144 -107 -340 -107q-121 0 -228.5 43t-183 115.5t-119 170.5t-43.5 204q0 142 74 264t206.5 195t293.5 73q195 0 340 -108q58 -42 110 -107l-235 -246q-19 22 -49 45q-69 48 -135 48q-84 0 -134.5 -46.5t-50.5 -117.5t50.5 -117.5
t134.5 -46.5q70 0 135 45q31 24 49 47zM143 1126l287 349h348l287 -349h-369l-92 134l-92 -134h-369z" />
    <glyph glyph-name="Cdotaccent" unicode="&#x10a;" horiz-adv-x="1536" 
d="M1239 532l277 -296q-67 -79 -160 -140q-202 -137 -475 -137q-172 0 -323.5 59.5t-257.5 161.5t-167 241.5t-61 295.5t61 295.5t167 241.5t257.5 161.5t323.5 59.5q267 0 469 -140q91 -61 155 -137l-276 -297q-36 45 -88 82q-114 82 -250 82q-153 0 -256 -100t-103 -248
t103 -248t256 -100q136 0 254 82q62 44 94 81zM614 1761q0 87 63.5 146t162.5 59t162 -59t63 -146t-63 -146t-162 -59t-162.5 59t-63.5 146z" />
    <glyph glyph-name="cdotaccent" unicode="&#x10b;" horiz-adv-x="1105" 
d="M850 430l235 -246q-48 -63 -110 -108q-144 -107 -340 -107q-121 0 -228.5 43t-183 115.5t-119 170.5t-43.5 204q0 142 74 264t206.5 195t293.5 73q195 0 340 -108q58 -42 110 -107l-235 -246q-19 22 -49 45q-69 48 -135 48q-84 0 -134.5 -46.5t-50.5 -117.5t50.5 -117.5
t134.5 -46.5q70 0 135 45q31 24 49 47zM379 1300q0 87 63 146t162 59t162 -59t63 -146t-63 -145.5t-162 -58.5t-162 58.5t-63 145.5z" />
    <glyph glyph-name="Ccaron" unicode="&#x10c;" horiz-adv-x="1536" 
d="M1239 532l277 -296q-67 -79 -160 -140q-202 -137 -475 -137q-172 0 -323.5 59.5t-257.5 161.5t-167 241.5t-61 295.5t61 295.5t167 241.5t257.5 161.5t323.5 59.5q267 0 469 -140q91 -61 155 -137l-276 -297q-36 45 -88 82q-114 82 -250 82q-153 0 -256 -100t-103 -248
t103 -248t256 -100q136 0 254 82q62 44 94 81zM666 1587l-287 348h369l92 -133l92 133h368l-286 -348h-348z" />
    <glyph glyph-name="ccaron" unicode="&#x10d;" horiz-adv-x="1105" 
d="M850 430l235 -246q-48 -63 -110 -108q-144 -107 -340 -107q-121 0 -228.5 43t-183 115.5t-119 170.5t-43.5 204q0 142 74 264t206.5 195t293.5 73q195 0 340 -108q58 -42 110 -107l-235 -246q-19 22 -49 45q-69 48 -135 48q-84 0 -134.5 -46.5t-50.5 -117.5t50.5 -117.5
t134.5 -46.5q70 0 135 45q31 24 49 47zM430 1126l-287 349h369l92 -134l92 134h369l-287 -349h-348z" />
    <glyph glyph-name="Dcaron" unicode="&#x10e;" horiz-adv-x="1576" 
d="M154 0v1434h573q165 0 311 -58t247.5 -155.5t160.5 -228.5t59 -275t-59 -275t-160.5 -228.5t-247.5 -155.5t-311 -58h-573zM614 389h103q148 0 237.5 90t89.5 238t-89.5 237.5t-237.5 89.5h-103v-655zM604 1587l-287 348h369l92 -133l92 133h369l-287 -348h-348z" />
    <glyph glyph-name="dcaron" unicode="&#x10f;" horiz-adv-x="1525" 
d="M778 0v143h-10q-24 -41 -68 -82q-93 -81 -219 -81q-85 0 -161 36t-133.5 101.5t-91.5 165t-34 219.5t34 219.5t91.5 165t133.5 101.5t161 36q125 0 219 -82q44 -41 68 -82h10v574h410v-1434h-410zM625 338q62 0 107.5 48t45.5 116t-45.5 116t-107.5 48t-108 -48t-46 -116
t46 -116t108 -48zM1229 1085l112 349h390l-164 -349h-338z" />
    <glyph glyph-name="Dcroat" unicode="&#x110;" horiz-adv-x="1607" 
d="M184 0v655h-143v123h143v656h574q165 0 311 -58t247.5 -155.5t160.5 -228.5t59 -275t-59 -275t-160.5 -228.5t-247.5 -155.5t-311 -58h-574zM645 389h103q148 0 237.5 90t89.5 238t-89.5 237.5t-237.5 89.5h-103v-266h184v-123h-184v-266z" />
    <glyph glyph-name="dslash" unicode="&#x111;" horiz-adv-x="1331" 
d="M778 0v143h-10q-24 -41 -68 -82q-93 -81 -219 -81q-84 0 -160.5 35.5t-134 99.5t-91.5 159t-34 207q0 224 123 363t297 139q125 0 219 -82q44 -41 68 -82h10v307h-194v123h194v185h410v-185h143v-123h-143v-1126h-410zM471 481q0 -62 43 -102.5t111 -40.5t110.5 40.5
t42.5 102.5t-42.5 103t-110.5 41t-111 -41t-43 -103z" />
    <glyph glyph-name="Emacron" unicode="&#x112;" horiz-adv-x="1392" 
d="M154 0v1434h1136v-379h-676v-174h512v-328h-512v-174h697v-379h-1157zM369 1628v307h696v-307h-696z" />
    <glyph glyph-name="emacron" unicode="&#x113;" horiz-adv-x="1208" 
d="M901 358l143 -256q-47 -41 -106 -67q-144 -66 -303 -66q-121 0 -228.5 43t-183 115.5t-119 170.5t-43.5 204t43.5 204t117.5 170t176.5 115t215.5 43q149 0 274.5 -70t197 -185t71.5 -247q0 -54 -10 -92l-10 -30h-666q20 -54 75 -94t140 -40q88 0 158 41q25 13 57 41z
M471 594h277q-8 56 -45 94.5t-89 38.5q-59 0 -97 -38t-46 -95zM256 1167v308h696v-308h-696z" />
    <glyph glyph-name="Ebreve" unicode="&#x114;" horiz-adv-x="1392" 
d="M154 0v1434h1136v-379h-676v-174h512v-328h-512v-174h697v-379h-1157zM348 1935h287q0 -92 82 -92t82 92h286q0 -149 -104.5 -248.5t-263.5 -99.5t-264 100t-105 248z" />
    <glyph glyph-name="ebreve" unicode="&#x115;" horiz-adv-x="1208" 
d="M901 358l143 -256q-47 -41 -106 -67q-144 -66 -303 -66q-121 0 -228.5 43t-183 115.5t-119 170.5t-43.5 204t43.5 204t117.5 170t176.5 115t215.5 43q149 0 274.5 -70t197 -185t71.5 -247q0 -54 -10 -92l-10 -30h-666q20 -54 75 -94t140 -40q88 0 158 41q25 13 57 41z
M471 594h277q-8 56 -45 94.5t-89 38.5q-59 0 -97 -38t-46 -95zM236 1475h286q0 -93 82 -93t82 93h287q0 -149 -105 -249t-264 -100t-263.5 100t-104.5 249z" />
    <glyph glyph-name="Edotaccent" unicode="&#x116;" horiz-adv-x="1392" 
d="M154 0v1434h1136v-379h-676v-174h512v-328h-512v-174h697v-379h-1157zM492 1761q0 87 63 146t162 59t162 -59t63 -146t-63 -146t-162 -59t-162 59t-63 146z" />
    <glyph glyph-name="edotaccent" unicode="&#x117;" horiz-adv-x="1208" 
d="M901 358l143 -256q-47 -41 -106 -67q-144 -66 -303 -66q-121 0 -228.5 43t-183 115.5t-119 170.5t-43.5 204t43.5 204t117.5 170t176.5 115t215.5 43q149 0 274.5 -70t197 -185t71.5 -247q0 -54 -10 -92l-10 -30h-666q20 -54 75 -94t140 -40q88 0 158 41q25 13 57 41z
M471 594h277q-8 56 -45 94.5t-89 38.5q-59 0 -97 -38t-46 -95zM379 1300q0 87 63 146t162 59t162 -59t63 -146t-63 -145.5t-162 -58.5t-162 58.5t-63 145.5z" />
    <glyph glyph-name="Eogonek" unicode="&#x118;" horiz-adv-x="1392" 
d="M154 0v1434h1136v-379h-676v-174h512v-328h-512v-174h697v-379q-22 -44 -27 -63q-24 -67 -24 -132q0 -92 92 -92q22 0 55 11q5 1 27 10v-205q-15 -9 -52 -21q-66 -20 -143 -20q-121 0 -193.5 67t-72.5 169t92 198q42 45 92 78h-1003z" />
    <glyph glyph-name="eogonek" unicode="&#x119;" horiz-adv-x="1208" 
d="M870 -266v-205q-17 -10 -51 -21q-66 -20 -143 -20q-121 0 -193.5 67t-72.5 169q0 92 75 182q32 37 78 74q-134 12 -248 80t-184 185t-70 257q0 106 43.5 204t117.5 170t176.5 115t215.5 43q149 0 274.5 -70t197 -185t71.5 -247q0 -54 -10 -92l-10 -30h-666q20 -54 75 -94
t140 -40q88 0 158 41q25 13 57 41l143 -256q-43 -34 -77 -49q-106 -56 -230 -73q-6 -12 -20 -54q-21 -69 -21 -121q0 -92 92 -92q23 0 56 11q3 1 26 10zM471 594h277q-8 56 -45 94.5t-89 38.5q-59 0 -97 -38t-46 -95z" />
    <glyph glyph-name="Ecaron" unicode="&#x11a;" horiz-adv-x="1392" 
d="M154 0v1434h1136v-379h-676v-174h512v-328h-512v-174h697v-379h-1157zM543 1587l-287 348h369l92 -133l92 133h369l-287 -348h-348z" />
    <glyph glyph-name="ecaron" unicode="&#x11b;" horiz-adv-x="1208" 
d="M901 358l143 -256q-47 -41 -106 -67q-144 -66 -303 -66q-121 0 -228.5 43t-183 115.5t-119 170.5t-43.5 204t43.5 204t117.5 170t176.5 115t215.5 43q149 0 274.5 -70t197 -185t71.5 -247q0 -54 -10 -92l-10 -30h-666q20 -54 75 -94t140 -40q88 0 158 41q25 13 57 41z
M471 594h277q-8 56 -45 94.5t-89 38.5q-59 0 -97 -38t-46 -95zM430 1126l-287 349h369l92 -134l92 134h369l-287 -349h-348z" />
    <glyph glyph-name="Gcircumflex" unicode="&#x11c;" horiz-adv-x="1638" 
d="M860 543v256h666v-553q-69 -78 -166 -144q-216 -143 -479 -143q-172 0 -323.5 59.5t-257.5 161.5t-167 241.5t-61 295.5t61 295.5t167 241.5t257.5 161.5t323.5 59.5q267 0 469 -140q91 -61 155 -137l-276 -297q-36 45 -88 82q-114 82 -250 82q-153 0 -256 -100
t-103 -248t100.5 -248t248.5 -100q97 0 170 30q32 11 55 31v113h-246zM389 1587l287 348h348l287 -348h-369l-92 133l-92 -133h-369z" />
    <glyph glyph-name="gcircumflex" unicode="&#x11d;" horiz-adv-x="1300" 
d="M92 -215l225 225q20 -23 60 -47q76 -45 166 -45q107 0 171 60.5t64 154.5v72h-10q-24 -41 -68 -82q-94 -82 -219 -82q-84 0 -160.5 35.5t-134 98t-91.5 155.5t-34 202t34 202t91.5 156t134 98.5t160.5 35.5q125 0 219 -82q44 -41 68 -82h10v144h410v-881
q0 -114 -44.5 -215.5t-123 -176t-192 -118t-244.5 -43.5q-221 0 -375 106q-69 46 -117 109zM492 532q0 -62 41 -102.5t102 -40.5t102 40.5t41 102.5t-41 103t-102 41t-102 -41t-41 -103zM174 1126l287 349h348l287 -349h-369l-92 134l-92 -134h-369z" />
    <glyph glyph-name="Gbreve" unicode="&#x11e;" horiz-adv-x="1638" 
d="M860 543v256h666v-553q-69 -78 -166 -144q-216 -143 -479 -143q-172 0 -323.5 59.5t-257.5 161.5t-167 241.5t-61 295.5t61 295.5t167 241.5t257.5 161.5t323.5 59.5q267 0 469 -140q91 -61 155 -137l-276 -297q-36 45 -88 82q-114 82 -250 82q-153 0 -256 -100
t-103 -248t100.5 -248t248.5 -100q97 0 170 30q32 11 55 31v113h-246zM481 1935h287q0 -92 82 -92t82 92h287q0 -148 -105 -248t-264 -100t-264 100t-105 248z" />
    <glyph glyph-name="gbreve" unicode="&#x11f;" horiz-adv-x="1300" 
d="M92 -215l225 225q20 -23 60 -47q76 -45 166 -45q107 0 171 60.5t64 154.5v72h-10q-24 -41 -68 -82q-94 -82 -219 -82q-84 0 -160.5 35.5t-134 98t-91.5 155.5t-34 202t34 202t91.5 156t134 98.5t160.5 35.5q125 0 219 -82q44 -41 68 -82h10v144h410v-881
q0 -114 -44.5 -215.5t-123 -176t-192 -118t-244.5 -43.5q-221 0 -375 106q-69 46 -117 109zM492 532q0 -62 41 -102.5t102 -40.5t102 40.5t41 102.5t-41 103t-102 41t-102 -41t-41 -103zM266 1475h287q0 -93 82 -93t82 93h287q0 -149 -105 -249t-264 -100t-264 100t-105 249
z" />
    <glyph glyph-name="Gdotaccent" unicode="&#x120;" horiz-adv-x="1638" 
d="M860 543v256h666v-553q-69 -78 -166 -144q-216 -143 -479 -143q-172 0 -323.5 59.5t-257.5 161.5t-167 241.5t-61 295.5t61 295.5t167 241.5t257.5 161.5t323.5 59.5q267 0 469 -140q91 -61 155 -137l-276 -297q-36 45 -88 82q-114 82 -250 82q-153 0 -256 -100
t-103 -248t100.5 -248t248.5 -100q97 0 170 30q32 11 55 31v113h-246zM625 1761q0 87 63 146t162 59t162 -59t63 -146t-63 -146t-162 -59t-162 59t-63 146z" />
    <glyph glyph-name="gdotaccent" unicode="&#x121;" horiz-adv-x="1300" 
d="M92 -215l225 225q20 -23 60 -47q76 -45 166 -45q107 0 171 60.5t64 154.5v72h-10q-24 -41 -68 -82q-94 -82 -219 -82q-84 0 -160.5 35.5t-134 98t-91.5 155.5t-34 202t34 202t91.5 156t134 98.5t160.5 35.5q125 0 219 -82q44 -41 68 -82h10v144h410v-881
q0 -114 -44.5 -215.5t-123 -176t-192 -118t-244.5 -43.5q-221 0 -375 106q-69 46 -117 109zM492 532q0 -62 41 -102.5t102 -40.5t102 40.5t41 102.5t-41 103t-102 41t-102 -41t-41 -103zM410 1300q0 87 63 146t162 59t162 -59t63 -146t-63 -145.5t-162 -58.5t-162 58.5
t-63 145.5z" />
    <glyph glyph-name="Gcommaaccent" unicode="&#x122;" horiz-adv-x="1638" 
d="M860 543v256h666v-553q-69 -78 -166 -144q-216 -143 -479 -143q-172 0 -323.5 59.5t-257.5 161.5t-167 241.5t-61 295.5t61 295.5t167 241.5t257.5 161.5t323.5 59.5q267 0 469 -140q91 -61 155 -137l-276 -297q-36 45 -88 82q-114 82 -250 82q-153 0 -256 -100
t-103 -248t100.5 -248t248.5 -100q97 0 170 30q32 11 55 31v113h-246zM553 -512l113 348h389l-164 -348h-338z" />
    <glyph glyph-name="gcommaaccent" unicode="&#x123;" horiz-adv-x="1300" 
d="M420 1126l164 349h338l-113 -349h-389zM92 -215l225 225q20 -23 60 -47q76 -45 166 -45q107 0 171 60.5t64 154.5v72h-10q-24 -41 -68 -82q-94 -82 -219 -82q-84 0 -160.5 35.5t-134 98t-91.5 155.5t-34 202t34 202t91.5 156t134 98.5t160.5 35.5q125 0 219 -82
q44 -41 68 -82h10v144h410v-881q0 -114 -44.5 -215.5t-123 -176t-192 -118t-244.5 -43.5q-221 0 -375 106q-69 46 -117 109zM492 532q0 -62 41 -102.5t102 -40.5t102 40.5t41 102.5t-41 103t-102 41t-102 -41t-41 -103z" />
    <glyph glyph-name="Hcircumflex" unicode="&#x124;" horiz-adv-x="1658" 
d="M154 0v1434h460v-502h430v502h461v-1434h-461v522h-430v-522h-460zM369 1587l286 348h349l286 -348h-368l-93 133l-92 -133h-368z" />
    <glyph glyph-name="hcircumflex" unicode="&#x125;" horiz-adv-x="1280" 
d="M123 0v1434h409v-574h11q27 47 65 82q94 82 211 82q159 0 253.5 -108t94.5 -312v-604h-409v512q0 53 -32.5 88t-80.5 35t-80.5 -36.5t-32.5 -96.5v-502h-409zM174 1587l287 348h348l287 -348h-369l-92 133l-92 -133h-369z" />
    <glyph glyph-name="Hbar" unicode="&#x126;" horiz-adv-x="1658" 
d="M174 0v1116h-133v123h133v195h461v-195h389v195h461v-195h133v-123h-133v-1116h-461v522h-389v-522h-461zM635 932h389v184h-389v-184z" />
    <glyph glyph-name="hbar" unicode="&#x127;" horiz-adv-x="1300" 
d="M143 0v1126h-143v123h143v185h410v-185h195v-123h-195v-286h10q26 45 66 82q94 82 211 82q159 0 253.5 -108t94.5 -312v-584h-410v492q0 53 -32 87.5t-80 34.5t-80.5 -36.5t-32.5 -96.5v-481h-410z" />
    <glyph glyph-name="Imacron" unicode="&#x12a;" horiz-adv-x="768" 
d="M154 0v1434h460v-1434h-460zM31 1628v307h696v-307h-696z" />
    <glyph glyph-name="imacron" unicode="&#x12b;" horiz-adv-x="655" 
d="M123 0v1004h409v-1004h-409zM-20 1167v308h696v-308h-696z" />
    <glyph glyph-name="Ibreve" unicode="&#x12c;" horiz-adv-x="768" 
d="M154 0v1434h460v-1434h-460zM10 1935h287q0 -92 82 -92t82 92h287q0 -148 -105 -248t-264 -100t-264 100t-105 248z" />
    <glyph glyph-name="ibreve" unicode="&#x12d;" horiz-adv-x="655" 
d="M123 0v1004h409v-1004h-409zM-41 1475h287q0 -93 82 -93t82 93h286q0 -149 -104.5 -249t-263.5 -100t-264 100t-105 249z" />
    <glyph glyph-name="Iogonek" unicode="&#x12e;" horiz-adv-x="768" 
d="M154 0v1434h460v-1434h-307q-20 -40 -26 -63q-25 -70 -25 -132q0 -92 92 -92q22 0 55 11q5 1 27 10v-205q-17 -10 -51 -21q-66 -20 -143 -20q-121 0 -194 67t-73 169t92 198q41 44 93 78z" />
    <glyph glyph-name="iogonek" unicode="&#x12f;" horiz-adv-x="655" 
d="M123 0v1004h409v-1004h-256q-20 -40 -26 -63q-25 -70 -25 -132q0 -92 92 -92q23 0 56 11q3 1 26 10v-205q-17 -10 -51 -21q-66 -20 -143 -20q-121 0 -193.5 67t-72.5 169t92 198q42 45 92 78zM102 1300q0 87 63.5 146t162.5 59t162 -59t63 -146t-63 -145.5t-162 -58.5
t-162.5 58.5t-63.5 145.5z" />
    <glyph glyph-name="Idot" unicode="&#x130;" horiz-adv-x="768" 
d="M154 0v1434h460v-1434h-460zM164 1761q0 87 63 146t162 59t162 -59t63 -146t-63 -146t-162 -59t-162 59t-63 146z" />
    <glyph glyph-name="dotlessi" unicode="&#x131;" horiz-adv-x="655" 
d="M123 0v1004h409v-1004h-409z" />
    <glyph glyph-name="uni0132" unicode="&#x132;" horiz-adv-x="1792" 
d="M154 0v1434h460v-1434h-460zM645 143l287 297q11 -17 31 -30q45 -31 92 -31q62 0 102.5 42.5t40.5 110.5v902h461v-902q0 -268 -149 -420.5t-404 -152.5q-197 0 -346 92q-72 43 -115 92z" />
    <glyph glyph-name="uni0133" unicode="&#x133;" horiz-adv-x="1280" 
d="M123 0v1004h409v-1004h-409zM102 1300q0 87 63.5 146t162.5 59t162 -59t63 -146t-63 -145.5t-162 -58.5t-162.5 58.5t-63.5 145.5zM543 -399v368q16 -8 26 -10q30 -10 66 -10q113 0 113 123v932h409v-1014q0 -199 -104.5 -309.5t-284.5 -110.5q-94 0 -162 14
q-55 14 -63 17zM731 1300q0 88 61.5 146.5t159.5 58.5q99 0 162.5 -59t63.5 -146t-63.5 -145.5t-162.5 -58.5q-98 0 -159.5 58t-61.5 146z" />
    <glyph glyph-name="Jcircumflex" unicode="&#x134;" horiz-adv-x="1105" 
d="M-41 143l287 297q12 -18 30 -30q45 -31 93 -31q62 0 102.5 42.5t40.5 110.5v902h461v-902q0 -268 -149 -420.5t-404 -152.5q-197 0 -346 92q-72 43 -115 92zM276 1587l287 348h348l287 -348h-369l-92 133l-92 -133h-369z" />
    <glyph glyph-name="jcircumflex" unicode="&#x135;" horiz-adv-x="655" 
d="M-82 -399v368q15 -8 27 -10q30 -10 65 -10q113 0 113 123v932h409v-1014q0 -199 -104.5 -309.5t-284.5 -110.5q-93 0 -161 14q-60 16 -64 17zM-133 1126l287 349h348l286 -349h-368l-92 134l-92 -134h-369z" />
    <glyph glyph-name="Kcommaaccent" unicode="&#x136;" horiz-adv-x="1525" 
d="M154 0v1434h460v-492l400 492h512l-482 -594l523 -840h-523l-307 492l-123 -144v-348h-460zM492 -512l112 348h389l-164 -348h-337z" />
    <glyph glyph-name="kcommaaccent" unicode="&#x137;" horiz-adv-x="1208" 
d="M123 0v1434h409v-727l236 297h461l-338 -420l348 -584h-440l-195 338l-72 -82v-256h-409zM338 -512l113 348h389l-164 -348h-338z" />
    <glyph glyph-name="Lacute" unicode="&#x139;" horiz-adv-x="1249" 
d="M154 0v1434h460v-1004h594v-430h-1054zM184 1587l185 348h430l-256 -348h-359z" />
    <glyph glyph-name="lacute" unicode="&#x13a;" horiz-adv-x="655" 
d="M123 0v1434h409v-1434h-409zM154 1587l184 348h430l-256 -348h-358z" />
    <glyph glyph-name="Lcommaaccent" unicode="&#x13b;" horiz-adv-x="1249" 
d="M154 0v1434h460v-1004h594v-430h-1054zM389 -512l113 348h389l-164 -348h-338z" />
    <glyph glyph-name="lcommaaccent" unicode="&#x13c;" horiz-adv-x="655" 
d="M123 0v1434h409v-1434h-409zM20 -512l113 348h389l-164 -348h-338z" />
    <glyph glyph-name="Lcaron" unicode="&#x13d;" horiz-adv-x="1249" 
d="M154 0v1434h460v-1004h594v-430h-1054zM666 1085l112 349h389l-163 -349h-338z" />
    <glyph glyph-name="lcaron" unicode="&#x13e;" horiz-adv-x="870" 
d="M123 0v1434h409v-1434h-409zM573 1085l113 349h389l-164 -349h-338z" />
    <glyph glyph-name="Ldot" unicode="&#x13f;" horiz-adv-x="1249" 
d="M154 0v1434h460v-1004h594v-430h-1054zM696 850q0 87 63.5 146t162.5 59t162 -59t63 -146t-63 -146t-162 -59t-162.5 59t-63.5 146z" />
    <glyph glyph-name="ldot" unicode="&#x140;" horiz-adv-x="1054" 
d="M123 0v1434h409v-1434h-409zM584 727q0 87 63 146t162 59t162 -59t63 -146t-63 -146t-162 -59t-162 59t-63 146z" />
    <glyph glyph-name="Lslash" unicode="&#x141;" horiz-adv-x="1280" 
d="M184 0v539l-164 -88l-61 112l225 121v750h461v-504l174 94l62 -113l-236 -127v-354h594v-430h-1055z" />
    <glyph glyph-name="lslash" unicode="&#x142;" horiz-adv-x="757" 
d="M174 0v543l-154 -103l-61 113l215 133v748h410v-512l153 102l62 -113l-215 -133v-778h-410z" />
    <glyph glyph-name="Nacute" unicode="&#x143;" horiz-adv-x="1699" 
d="M154 0v1434h399l532 -686v686h461v-1434h-399l-533 686v-686h-460zM666 1587l184 348h430l-256 -348h-358z" />
    <glyph glyph-name="nacute" unicode="&#x144;" 
d="M113 0v1004h409v-144h10q26 45 66 82q94 82 211 82q159 0 253.5 -108t94.5 -312v-604h-409v512q0 53 -32.5 88t-80.5 35t-80.5 -36.5t-32.5 -96.5v-502h-409zM451 1126l184 349h430l-256 -349h-358z" />
    <glyph glyph-name="Ncommaaccent" unicode="&#x145;" horiz-adv-x="1699" 
d="M154 0v1434h399l532 -686v686h461v-1434h-399l-533 686v-686h-460zM573 -512l113 348h389l-164 -348h-338z" />
    <glyph glyph-name="ncommaaccent" unicode="&#x146;" 
d="M113 0v1004h409v-144h10q26 45 66 82q94 82 211 82q159 0 253.5 -108t94.5 -312v-604h-409v512q0 53 -32.5 88t-80.5 35t-80.5 -36.5t-32.5 -96.5v-502h-409zM328 -512l112 348h389l-163 -348h-338z" />
    <glyph glyph-name="Ncaron" unicode="&#x147;" horiz-adv-x="1699" 
d="M154 0v1434h399l532 -686v686h461v-1434h-399l-533 686v-686h-460zM676 1587l-287 348h369l92 -133l92 133h369l-287 -348h-348z" />
    <glyph glyph-name="ncaron" unicode="&#x148;" 
d="M113 0v1004h409v-144h10q26 45 66 82q94 82 211 82q159 0 253.5 -108t94.5 -312v-604h-409v512q0 53 -32.5 88t-80.5 35t-80.5 -36.5t-32.5 -96.5v-502h-409zM461 1126l-287 349h369l92 -134l92 134h369l-287 -349h-348z" />
    <glyph glyph-name="napostrophe" unicode="&#x149;" horiz-adv-x="1310" 
d="M154 0v1004h409v-144h10q26 45 66 82q94 82 211 82q159 0 253.5 -108t94.5 -312v-604h-410v512q0 54 -32 88.5t-80 34.5t-80.5 -36.5t-32.5 -96.5v-502h-409zM-82 1065l113 348h389l-164 -348h-338z" />
    <glyph glyph-name="Eng" unicode="&#x14a;" horiz-adv-x="1699" 
d="M154 0v1434h399l532 -686v686h461v-1424q0 -261 -149 -412t-404 -151q-197 0 -346 92q-72 43 -115 92l277 287q14 -17 39 -31q47 -30 94 -30q64 0 103.5 39t39.5 114v72l-471 604v-686h-460z" />
    <glyph glyph-name="eng" unicode="&#x14b;" 
d="M113 0v1004h409v-144h10q26 45 66 82q94 82 211 82q159 0 253.5 -108t94.5 -312v-645q0 -206 -104 -318t-285 -112q-69 0 -135 20q-29 10 -49 21v328l20 -11q23 -10 51 -10q39 0 66 28.5t27 74.5v532q0 53 -32.5 88t-80.5 35t-80.5 -36.5t-32.5 -96.5v-502h-409z" />
    <glyph glyph-name="Omacron" unicode="&#x14c;" horiz-adv-x="1761" 
d="M532 717q0 -148 100.5 -248t248.5 -100t248 100t100 248t-100 248t-248 100t-248.5 -100t-100.5 -248zM72 717q0 156 61 295.5t167 241.5t257.5 161.5t323.5 59.5t323.5 -59.5t257.5 -161.5t167 -241.5t61 -295.5t-61 -295.5t-167 -241.5t-257.5 -161.5t-323.5 -59.5
t-323.5 59.5t-257.5 161.5t-167 241.5t-61 295.5zM532 1628v307h697v-307h-697z" />
    <glyph glyph-name="omacron" unicode="&#x14d;" 
d="M481 502q0 -62 46.5 -108t107.5 -46t107 46t46 108t-46 107.5t-107 45.5q-62 0 -108 -46t-46 -107zM61 502q0 142 74 264t206.5 195t293.5 73q159 0 291.5 -73t207 -195t74.5 -264t-74.5 -264.5t-207 -195.5t-291.5 -73q-121 0 -228.5 43t-183 115.5t-119 170.5
t-43.5 204zM287 1167v308h696v-308h-696z" />
    <glyph glyph-name="Obreve" unicode="&#x14e;" horiz-adv-x="1761" 
d="M532 717q0 -148 100.5 -248t248.5 -100t248 100t100 248t-100 248t-248 100t-248.5 -100t-100.5 -248zM72 717q0 156 61 295.5t167 241.5t257.5 161.5t323.5 59.5t323.5 -59.5t257.5 -161.5t167 -241.5t61 -295.5t-61 -295.5t-167 -241.5t-257.5 -161.5t-323.5 -59.5
t-323.5 59.5t-257.5 161.5t-167 241.5t-61 295.5zM512 1935h287q0 -92 82 -92t82 92h286q0 -149 -104.5 -248.5t-263.5 -99.5t-264 100t-105 248z" />
    <glyph glyph-name="obreve" unicode="&#x14f;" 
d="M481 502q0 -62 46.5 -108t107.5 -46t107 46t46 108t-46 107.5t-107 45.5q-62 0 -108 -46t-46 -107zM61 502q0 142 74 264t206.5 195t293.5 73q159 0 291.5 -73t207 -195t74.5 -264t-74.5 -264.5t-207 -195.5t-291.5 -73q-121 0 -228.5 43t-183 115.5t-119 170.5
t-43.5 204zM266 1475h287q0 -93 82 -93t82 93h287q0 -149 -105 -249t-264 -100t-264 100t-105 249z" />
    <glyph glyph-name="Ohungarumlaut" unicode="&#x150;" horiz-adv-x="1761" 
d="M532 717q0 -148 100.5 -248t248.5 -100t248 100t100 248t-100 248t-248 100t-248.5 -100t-100.5 -248zM72 717q0 156 61 295.5t167 241.5t257.5 161.5t323.5 59.5t323.5 -59.5t257.5 -161.5t167 -241.5t61 -295.5t-61 -295.5t-167 -241.5t-257.5 -161.5t-323.5 -59.5
t-323.5 59.5t-257.5 161.5t-167 241.5t-61 295.5zM492 1587l194 348h369l-267 -348h-296zM952 1587l195 348h369l-267 -348h-297z" />
    <glyph glyph-name="ohungarumlaut" unicode="&#x151;" 
d="M481 502q0 -62 46.5 -108t107.5 -46t107 46t46 108t-46 107.5t-107 45.5q-62 0 -108 -46t-46 -107zM61 502q0 142 74 264t206.5 195t293.5 73q159 0 291.5 -73t207 -195t74.5 -264t-74.5 -264.5t-207 -195.5t-291.5 -73q-121 0 -228.5 43t-183 115.5t-119 170.5
t-43.5 204zM256 1126l195 349h368l-266 -349h-297zM717 1126l194 349h369l-266 -349h-297z" />
    <glyph glyph-name="OE" unicode="&#x152;" horiz-adv-x="2099" 
d="M1382 379h635v-379h-1167q-165 0 -311 58t-247.5 155.5t-160.5 228.5t-59 275t59 275t160.5 228.5t247.5 155.5t311 58h1147v-379h-615v-174h451v-328h-451v-174zM860 389h62v655h-62q-148 0 -238 -89.5t-90 -237.5t90 -238t238 -90z" />
    <glyph glyph-name="oe" unicode="&#x153;" horiz-adv-x="1914" 
d="M625 348q56 0 99.5 43.5t43.5 110.5q0 66 -43 109.5t-100 43.5t-100.5 -43.5t-43.5 -109.5t43.5 -110t100.5 -44zM1608 358l143 -256q-44 -39 -109 -67q-144 -66 -290 -66q-154 0 -269 76q-53 35 -90 78q-50 -47 -100 -78q-123 -76 -268 -76q-117 0 -222.5 43t-180 115.5
t-118 170.5t-43.5 204t43.5 204t118 170t180 115t222.5 43q138 0 264 -78q55 -36 94 -75q39 39 94 75q118 78 254 78q109 0 208 -41.5t170 -109.5t113 -160.5t42 -190.5q0 -50 -11 -92l-10 -30h-665q20 -54 75 -94t140 -40q87 0 157 41q28 14 58 41zM1178 594h276
q-8 56 -44.5 94.5t-88.5 38.5q-59 0 -97 -38t-46 -95z" />
    <glyph glyph-name="Racute" unicode="&#x154;" horiz-adv-x="1495" 
d="M154 0v1434h706q155 0 280 -68t194 -185t69 -259q0 -180 -113 -316q-51 -57 -112 -94l276 -512h-481l-205 410h-154v-410h-460zM614 799h195q61 0 97 34t36 89t-36 88.5t-97 33.5h-195v-245zM553 1587l184 348h430l-256 -348h-358z" />
    <glyph glyph-name="racute" unicode="&#x155;" horiz-adv-x="870" 
d="M113 0v1004h409v-134h10q19 36 60 74q78 74 196 74h41v-424l-28 10q-30 10 -84 10q-88 0 -141.5 -59t-53.5 -166v-389h-409zM266 1126l185 349h430l-256 -349h-359z" />
    <glyph glyph-name="Rcommaaccent" unicode="&#x156;" horiz-adv-x="1495" 
d="M154 0v1434h706q155 0 280 -68t194 -185t69 -259q0 -180 -113 -316q-51 -57 -112 -94l276 -512h-481l-205 410h-154v-410h-460zM614 799h195q61 0 97 34t36 89t-36 88.5t-97 33.5h-195v-245zM481 -512l113 348h389l-164 -348h-338z" />
    <glyph glyph-name="rcommaaccent" unicode="&#x157;" horiz-adv-x="870" 
d="M113 0v1004h409v-134h10q19 36 60 74q78 74 196 74h41v-424l-28 10q-30 10 -84 10q-88 0 -141.5 -59t-53.5 -166v-389h-409zM-10 -512l112 348h390l-164 -348h-338z" />
    <glyph glyph-name="Rcaron" unicode="&#x158;" horiz-adv-x="1495" 
d="M154 0v1434h706q155 0 280 -68t194 -185t69 -259q0 -180 -113 -316q-51 -57 -112 -94l276 -512h-481l-205 410h-154v-410h-460zM614 799h195q61 0 97 34t36 89t-36 88.5t-97 33.5h-195v-245zM563 1587l-287 348h369l92 -133l92 133h369l-287 -348h-348z" />
    <glyph glyph-name="rcaron" unicode="&#x159;" horiz-adv-x="870" 
d="M113 0v1004h409v-134h10q19 36 60 74q78 74 196 74h41v-424l-28 10q-30 10 -84 10q-88 0 -141.5 -59t-53.5 -166v-389h-409zM287 1126l-287 349h369l92 -134l92 134h369l-287 -349h-348z" />
    <glyph glyph-name="Sacute" unicode="&#x15a;" horiz-adv-x="1259" 
d="M20 205l267 276q42 -45 82 -71q94 -72 204 -72q74 0 109 25.5t35 66.5q0 32 -35.5 59t-92.5 49.5t-126 47.5t-137.5 62t-125.5 84.5t-92.5 122.5t-35.5 169q0 90 39.5 171t111.5 143.5t181.5 99.5t240.5 37q226 0 404 -103q82 -50 129 -102l-267 -277q-24 31 -53 51
q-81 52 -162 52q-59 0 -91 -20t-32 -52q0 -26 22 -48t59.5 -39.5t86 -35.5t102 -39.5t107 -47t102 -62t86 -80t59.5 -106t22 -136.5q0 -93 -41.5 -177.5t-116.5 -150t-188.5 -104.5t-247.5 -39q-246 0 -449 123q-95 56 -156 123zM440 1587l185 348h430l-256 -348h-359z" />
    <glyph glyph-name="sacute" unicode="&#x15b;" horiz-adv-x="1003" 
d="M20 174l185 195q20 -23 55 -47q70 -46 139 -46q72 0 72 41q0 20 -29.5 41t-74 39t-96 46.5t-96 62t-74 88.5t-29.5 123q0 131 117.5 224t322.5 93q181 0 332 -88q66 -39 108 -86l-184 -194q-8 8 -39 30q-55 31 -94 31q-72 0 -72 -41q0 -18 22 -35t57.5 -33.5t78 -35.5
t85 -46t78 -60t57.5 -82t22 -107q0 -63 -29.5 -119.5t-85 -101t-145.5 -71t-201 -26.5q-199 0 -361 103q-72 48 -121 102zM307 1126l185 349h430l-256 -349h-359z" />
    <glyph glyph-name="Scircumflex" unicode="&#x15c;" horiz-adv-x="1259" 
d="M20 205l267 276q42 -45 82 -71q94 -72 204 -72q74 0 109 25.5t35 66.5q0 32 -35.5 59t-92.5 49.5t-126 47.5t-137.5 62t-125.5 84.5t-92.5 122.5t-35.5 169q0 90 39.5 171t111.5 143.5t181.5 99.5t240.5 37q226 0 404 -103q82 -50 129 -102l-267 -277q-24 31 -53 51
q-81 52 -162 52q-59 0 -91 -20t-32 -52q0 -26 22 -48t59.5 -39.5t86 -35.5t102 -39.5t107 -47t102 -62t86 -80t59.5 -106t22 -136.5q0 -93 -41.5 -177.5t-116.5 -150t-188.5 -104.5t-247.5 -39q-246 0 -449 123q-95 56 -156 123zM164 1587l287 348h348l286 -348h-368
l-92 133l-93 -133h-368z" />
    <glyph glyph-name="scircumflex" unicode="&#x15d;" horiz-adv-x="1003" 
d="M20 174l185 195q20 -23 55 -47q70 -46 139 -46q72 0 72 41q0 20 -29.5 41t-74 39t-96 46.5t-96 62t-74 88.5t-29.5 123q0 131 117.5 224t322.5 93q181 0 332 -88q66 -39 108 -86l-184 -194q-8 8 -39 30q-55 31 -94 31q-72 0 -72 -41q0 -18 22 -35t57.5 -33.5t78 -35.5
t85 -46t78 -60t57.5 -82t22 -107q0 -63 -29.5 -119.5t-85 -101t-145.5 -71t-201 -26.5q-199 0 -361 103q-72 48 -121 102zM31 1126l286 349h349l286 -349h-368l-92 134l-93 -134h-368z" />
    <glyph glyph-name="Scedilla" unicode="&#x15e;" horiz-adv-x="1259" 
d="M338 -440l102 153q21 -17 41 -26q45 -25 92 -25q62 0 62 51t-62 51q-4 0 -28 -6q-2 -1 -5 -1.5t-5 -1t-3 -1.5l-71 82l61 133q-190 16 -370 129q-79 51 -132 107l267 276q42 -45 82 -71q94 -72 204 -72q74 0 109 25.5t35 66.5q0 32 -35.5 59t-92.5 49.5t-126 47.5
t-137.5 62t-125.5 84.5t-92.5 122.5t-35.5 169q0 90 39.5 171t111.5 143.5t181.5 99.5t240.5 37q226 0 404 -103q82 -50 129 -102l-267 -277q-24 31 -53 51q-81 52 -162 52q-59 0 -91 -20t-32 -52q0 -26 22 -48t59.5 -39.5t86 -35.5t102 -39.5t107 -47t102 -62t86 -80
t59.5 -106t22 -136.5q0 -182 -149.5 -318t-383.5 -153l-20 -41q60 -8 116 -37q119 -63 119 -188q0 -96 -80.5 -166t-206.5 -70q-113 0 -202 51q-22 12 -74 52z" />
    <glyph glyph-name="scedilla" unicode="&#x15f;" horiz-adv-x="1003" 
d="M205 -440l102 153q21 -17 41 -26q45 -25 92 -25q62 0 62 51t-62 51q-4 0 -28 -6q-2 -1 -5 -1.5t-5 -1t-3 -1.5l-71 82l71 144q-162 18 -282 108q-61 44 -97 86l185 195q20 -23 55 -47q70 -46 139 -46q72 0 72 41q0 20 -29.5 41t-74 39t-96 46.5t-96 62t-74 88.5
t-29.5 123q0 131 117.5 224t322.5 93q181 0 332 -88q66 -39 108 -86l-184 -194q-8 8 -39 30q-55 31 -94 31q-72 0 -72 -41q0 -18 22 -35t57.5 -33.5t78 -35.5t85 -46t78 -60t57.5 -82t22 -107q0 -122 -107 -211.5t-293 -106.5l-31 -51q62 -9 117 -37q119 -63 119 -188
q0 -96 -80.5 -166t-206.5 -70q-113 0 -202 51q-22 12 -74 52z" />
    <glyph glyph-name="Scaron" unicode="&#x160;" horiz-adv-x="1259" 
d="M20 205l267 276q42 -45 82 -71q94 -72 204 -72q74 0 109 25.5t35 66.5q0 32 -35.5 59t-92.5 49.5t-126 47.5t-137.5 62t-125.5 84.5t-92.5 122.5t-35.5 169q0 90 39.5 171t111.5 143.5t181.5 99.5t240.5 37q226 0 404 -103q82 -50 129 -102l-267 -277q-24 31 -53 51
q-81 52 -162 52q-59 0 -91 -20t-32 -52q0 -26 22 -48t59.5 -39.5t86 -35.5t102 -39.5t107 -47t102 -62t86 -80t59.5 -106t22 -136.5q0 -93 -41.5 -177.5t-116.5 -150t-188.5 -104.5t-247.5 -39q-246 0 -449 123q-95 56 -156 123zM451 1587l-287 348h368l93 -133l92 133h368
l-286 -348h-348z" />
    <glyph glyph-name="scaron" unicode="&#x161;" horiz-adv-x="1003" 
d="M20 174l185 195q20 -23 55 -47q70 -46 139 -46q72 0 72 41q0 20 -29.5 41t-74 39t-96 46.5t-96 62t-74 88.5t-29.5 123q0 131 117.5 224t322.5 93q181 0 332 -88q66 -39 108 -86l-184 -194q-8 8 -39 30q-55 31 -94 31q-72 0 -72 -41q0 -18 22 -35t57.5 -33.5t78 -35.5
t85 -46t78 -60t57.5 -82t22 -107q0 -63 -29.5 -119.5t-85 -101t-145.5 -71t-201 -26.5q-199 0 -361 103q-72 48 -121 102zM317 1126l-286 349h368l93 -134l92 134h368l-286 -349h-349z" />
    <glyph glyph-name="uni0162" unicode="&#x162;" horiz-adv-x="1300" 
d="M348 -440l103 153q21 -17 41 -26q45 -25 92 -25q61 0 61 51t-61 51q-5 0 -29 -6q-2 -1 -5 -1.5t-4.5 -1t-2.5 -1.5l-72 82l74 164h-125v1014h-379v420h1219v-420h-379v-1014h-162l-43 -82q62 -9 117 -37q118 -62 118 -188q0 -96 -80 -166t-206 -70q-114 0 -203 51
q-22 12 -74 52z" />
    <glyph glyph-name="uni0163" unicode="&#x163;" horiz-adv-x="901" 
d="M205 -440l102 153q21 -17 41 -26q45 -25 92 -25q62 0 62 51t-62 51q-4 0 -28 -6q-2 -1 -5 -1.5t-5 -1t-3 -1.5l-71 82l82 174q-102 31 -169 128.5t-67 260.5v236h-133v369h61q54 0 88.5 34t34.5 88v154h359v-276h204v-369h-204v-154q0 -123 112 -123q33 0 66 11
q10 2 26 10v-369q-11 -4 -34 -9.5t-29 -6.5q-72 -14 -162 -14l-31 -62q62 -9 117 -37q119 -63 119 -188q0 -96 -80.5 -166t-206.5 -70q-113 0 -202 51q-22 12 -74 52z" />
    <glyph glyph-name="Tcaron" unicode="&#x164;" horiz-adv-x="1300" 
d="M420 0v1014h-379v420h1219v-420h-379v-1014h-461zM471 1587l-287 348h369l92 -133l92 133h369l-287 -348h-348z" />
    <glyph glyph-name="tcaron" unicode="&#x165;" horiz-adv-x="1003" 
d="M174 399v236h-133v369h61q54 0 88.5 34t34.5 88v154h359v-276h204v-369h-204v-154q0 -123 112 -123q33 0 66 11q10 2 26 10v-369q-11 -4 -34 -9.5t-29 -6.5q-68 -14 -162 -14q-180 0 -284.5 110t-104.5 309zM707 1106l112 348h389l-164 -348h-337z" />
    <glyph glyph-name="Tbar" unicode="&#x166;" horiz-adv-x="1300" 
d="M420 0v625h-246v123h246v266h-379v420h1219v-420h-379v-266h245v-123h-245v-625h-461z" />
    <glyph glyph-name="tbar" unicode="&#x167;" horiz-adv-x="901" 
d="M41 481v123h133v82h-133v318h61q54 0 88.5 34t34.5 88v154h359v-276h194v-318h-194v-82h194v-123h-194v-20q0 -123 112 -123q36 0 66 10q10 2 26 10v-348q-11 -4 -34 -9.5t-29 -6.5q-68 -14 -162 -14q-180 0 -284.5 110t-104.5 309v82h-133z" />
    <glyph glyph-name="Umacron" unicode="&#x16a;" horiz-adv-x="1617" 
d="M133 604v830h461v-830q0 -93 64 -159t151 -66t151 66t64 159v830h461v-830q0 -137 -49.5 -256t-137.5 -205t-214.5 -135t-274.5 -49t-274.5 49t-214.5 135t-137.5 205t-49.5 256zM461 1628v307h696v-307h-696z" />
    <glyph glyph-name="umacron" unicode="&#x16b;" 
d="M113 399v605h409v-512q0 -53 32.5 -88t80.5 -35t80.5 36.5t32.5 96.5v502h409v-1004h-409v143h-11q-27 -47 -65 -82q-93 -81 -211 -81q-159 0 -253.5 107.5t-94.5 311.5zM287 1167v308h696v-308h-696z" />
    <glyph glyph-name="Ubreve" unicode="&#x16c;" horiz-adv-x="1617" 
d="M133 604v830h461v-830q0 -93 64 -159t151 -66t151 66t64 159v830h461v-830q0 -137 -49.5 -256t-137.5 -205t-214.5 -135t-274.5 -49t-274.5 49t-214.5 135t-137.5 205t-49.5 256zM440 1935h287q0 -92 82 -92t82 92h287q0 -148 -105 -248t-264 -100t-264 100t-105 248z
" />
    <glyph glyph-name="ubreve" unicode="&#x16d;" 
d="M113 399v605h409v-512q0 -53 32.5 -88t80.5 -35t80.5 36.5t32.5 96.5v502h409v-1004h-409v143h-11q-27 -47 -65 -82q-93 -81 -211 -81q-159 0 -253.5 107.5t-94.5 311.5zM266 1475h287q0 -93 82 -93t82 93h287q0 -149 -105 -249t-264 -100t-264 100t-105 249z" />
    <glyph glyph-name="Uring" unicode="&#x16e;" horiz-adv-x="1617" 
d="M133 604v830h461v-830q0 -93 64 -159t151 -66t151 66t64 159v830h461v-830q0 -137 -49.5 -256t-137.5 -205t-214.5 -135t-274.5 -49t-274.5 49t-214.5 135t-137.5 205t-49.5 256zM891 1792q0 33 -22.5 57.5t-59.5 24.5t-59.5 -24.5t-22.5 -57.5t22.5 -57.5t59.5 -24.5
t59.5 24.5t22.5 57.5zM809 2058q121 0 204 -79t83 -187t-83 -187t-204 -79t-204 79t-83 187t83 187t204 79z" />
    <glyph glyph-name="uring" unicode="&#x16f;" 
d="M113 399v605h409v-512q0 -53 32.5 -88t80.5 -35t80.5 36.5t32.5 96.5v502h409v-1004h-409v143h-11q-27 -47 -65 -82q-93 -81 -211 -81q-159 0 -253.5 107.5t-94.5 311.5zM717 1341q0 33 -22.5 57.5t-59.5 24.5t-59.5 -24.5t-22.5 -57.5q0 -32 22.5 -56.5t59.5 -24.5
t59.5 24.5t22.5 56.5zM635 1608q121 0 204 -79.5t83 -187.5t-83 -187t-204 -79t-204 79t-83 187t83 187.5t204 79.5z" />
    <glyph glyph-name="Uhungarumlaut" unicode="&#x170;" horiz-adv-x="1617" 
d="M133 604v830h461v-830q0 -93 64 -159t151 -66t151 66t64 159v830h461v-830q0 -137 -49.5 -256t-137.5 -205t-214.5 -135t-274.5 -49t-274.5 49t-214.5 135t-137.5 205t-49.5 256zM420 1587l194 348h369l-266 -348h-297zM881 1587l194 348h369l-266 -348h-297z" />
    <glyph glyph-name="uhungarumlaut" unicode="&#x171;" 
d="M113 399v605h409v-512q0 -53 32.5 -88t80.5 -35t80.5 36.5t32.5 96.5v502h409v-1004h-409v143h-11q-27 -47 -65 -82q-93 -81 -211 -81q-159 0 -253.5 107.5t-94.5 311.5zM256 1126l195 349h368l-266 -349h-297zM717 1126l194 349h369l-266 -349h-297z" />
    <glyph glyph-name="Uogonek" unicode="&#x172;" horiz-adv-x="1617" 
d="M133 604v830h461v-830q0 -93 64 -159t151 -66t151 66t64 159v830h461v-830q0 -170 -74.5 -309t-199.5 -222.5t-279 -103.5q-11 -24 -21 -55q-20 -66 -20 -109q0 -92 92 -92q22 0 55 11q5 1 27 10v-205q-17 -10 -51 -21q-66 -20 -144 -20q-121 0 -193.5 67t-72.5 169
q0 77 66 163q28 39 67 72q-271 30 -437.5 205t-166.5 440z" />
    <glyph glyph-name="uogonek" unicode="&#x173;" 
d="M113 399v605h409v-512q0 -53 32.5 -88t76.5 -35q51 0 84 36.5t33 96.5v502h409v-1004h-256q-22 -44 -27 -63q-24 -67 -24 -132q0 -92 92 -92q22 0 55 11q5 1 27 10v-205q-17 -10 -51 -21q-66 -20 -144 -20q-121 0 -193.5 67t-72.5 169t92 198q41 44 93 78v143h-11
q-27 -47 -65 -82q-93 -81 -211 -81q-159 0 -253.5 107.5t-94.5 311.5z" />
    <glyph glyph-name="Wcircumflex" unicode="&#x174;" horiz-adv-x="2170" 
d="M451 0l-471 1434h491l195 -789h10l225 789h369l225 -789h10l195 789h491l-471 -1434h-399l-231 758h-9l-231 -758h-399zM625 1587l286 348h349l286 -348h-368l-93 133l-92 -133h-368z" />
    <glyph glyph-name="wcircumflex" unicode="&#x175;" horiz-adv-x="1628" 
d="M328 0l-348 1004h430l112 -482h10l144 482h276l144 -482h10l113 482h430l-349 -1004h-337l-144 471h-10l-143 -471h-338zM358 1126l287 349h348l287 -349h-369l-92 134l-92 -134h-369z" />
    <glyph glyph-name="Ycircumflex" unicode="&#x176;" horiz-adv-x="1423" 
d="M481 0v512l-512 922h502l236 -543h10l235 543h502l-512 -922v-512h-461zM246 1587l286 348h349l286 -348h-368l-92 133l-93 -133h-368z" />
    <glyph glyph-name="ycircumflex" unicode="&#x177;" horiz-adv-x="1136" 
d="M92 -389v348q14 -7 29 -10q33 -10 74 -10q65 0 99.5 25.5t53.5 76.5l-368 963h440l143 -553h10l144 553h440l-389 -1024q-80 -213 -189 -311.5t-282 -98.5q-67 0 -145 20q-31 8 -60 21zM102 1126l287 349h348l287 -349h-369l-92 134l-92 -134h-369z" />
    <glyph glyph-name="Ydieresis" unicode="&#x178;" horiz-adv-x="1423" 
d="M481 0v512l-512 922h502l236 -543h10l235 543h502l-512 -922v-512h-461zM461 1956q80 0 137 -55.5t57 -139.5t-57 -139t-137 -55t-137.5 55t-57.5 139t57.5 139.5t137.5 55.5zM758 1761q0 84 57 139.5t137 55.5t137.5 -55.5t57.5 -139.5t-57.5 -139t-137.5 -55t-137 55
t-57 139z" />
    <glyph glyph-name="Zacute" unicode="&#x179;" horiz-adv-x="1361" 
d="M82 0v410l584 614h-553v410h1147v-410l-584 -614h604v-410h-1198zM492 1587l184 348h430l-256 -348h-358z" />
    <glyph glyph-name="zacute" unicode="&#x17a;" horiz-adv-x="1085" 
d="M72 0v338l379 328h-359v338h901v-338l-379 -328h400v-338h-942zM358 1126l185 349h430l-256 -349h-359z" />
    <glyph glyph-name="Zdotaccent" unicode="&#x17b;" horiz-adv-x="1361" 
d="M82 0v410l584 614h-553v410h1147v-410l-584 -614h604v-410h-1198zM461 1761q0 87 63 146t162 59t162 -59t63 -146t-63 -146t-162 -59t-162 59t-63 146z" />
    <glyph glyph-name="zdotaccent" unicode="&#x17c;" horiz-adv-x="1085" 
d="M72 0v338l379 328h-359v338h901v-338l-379 -328h400v-338h-942zM317 1300q0 87 63.5 146t162.5 59t162 -59t63 -146t-63 -145.5t-162 -58.5t-162.5 58.5t-63.5 145.5z" />
    <glyph glyph-name="Zcaron" unicode="&#x17d;" horiz-adv-x="1361" 
d="M82 0v410l584 614h-553v410h1147v-410l-584 -614h604v-410h-1198zM502 1587l-287 348h369l92 -133l92 133h369l-287 -348h-348z" />
    <glyph glyph-name="zcaron" unicode="&#x17e;" horiz-adv-x="1085" 
d="M72 0v338l379 328h-359v338h901v-338l-379 -328h400v-338h-942zM369 1126l-287 349h369l92 -134l92 134h369l-287 -349h-348z" />
    <glyph glyph-name="uni018F" unicode="&#x18f;" horiz-adv-x="1689" 
d="M72 829h1075q-27 101 -112 168.5t-216 67.5q-125 0 -237 -61q-43 -22 -90 -62l-256 318q72 62 155 106q198 109 438 109q170 0 317.5 -58.5t250.5 -159t162 -241t59 -299.5t-58.5 -299.5t-161 -241t-247.5 -159t-311 -58.5q-222 0 -400.5 99.5t-278.5 272.5t-100 386
q0 23 5 80zM1147 584h-615q28 -86 110 -150.5t198 -64.5t197.5 64.5t109.5 150.5z" />
    <glyph glyph-name="florin" unicode="&#x192;" horiz-adv-x="911" 
d="M-102 -389v328q19 -10 26 -11q30 -10 66 -10q102 0 123 102l102 523h-113v358h174l31 164q38 210 135 304.5t275 94.5q75 0 153 -20q36 -9 62 -21v-327q-5 1 -27 10q-27 10 -65 10q-102 0 -123 -102l-23 -113h156v-358h-225l-103 -574q-37 -209 -134 -304t-275 -95
q-76 0 -154 20q-33 9 -61 21z" />
    <glyph glyph-name="Aringacute" unicode="&#x1fa;" horiz-adv-x="1525" 
d="M-20 0l522 1434h92q-22 17 -47 49q-45 61 -45 125q0 101 76 173t190 72t190 -72t76 -173q0 -62 -47 -125q-23 -30 -45 -49h82l522 -1434h-491l-82 276h-420l-82 -276h-491zM584 1894l92 185h389l-123 -185h-358zM645 594h236l-113 399h-10zM686 1597q0 -32 22.5 -56.5
t59.5 -24.5t59.5 24.5t22.5 56.5q0 33 -22.5 57.5t-59.5 24.5t-59.5 -24.5t-22.5 -57.5z" />
    <glyph glyph-name="aringacute" unicode="&#x1fb;" horiz-adv-x="1136" 
d="M614 0v133h-10q-29 -47 -63 -78q-83 -75 -203 -75q-122 0 -209.5 85t-87.5 201q0 241 317 318l267 61q-8 41 -41.5 66.5t-91.5 25.5q-65 0 -132 -47q-36 -28 -53 -45l-205 195q34 39 91 80q115 84 258 104q-30 19 -58 53q-55 62 -55 152q0 101 81 178.5t195 77.5
t195.5 -77.5t81.5 -178.5q0 -102 -78 -180q-34 -34 -76 -56q78 -27 144 -80q143 -113 143 -288v-625h-410zM430 1516l102 184h390l-123 -184h-369zM625 410v41l-103 -31q-46 -13 -64 -31.5t-18 -50.5q0 -31 20.5 -51.5t49.5 -20.5q49 0 82 38.5t33 105.5zM532 1229
q0 -33 22.5 -57.5t59.5 -24.5t59.5 24.5t22.5 57.5t-22.5 57.5t-59.5 24.5t-59.5 -24.5t-22.5 -57.5z" />
    <glyph glyph-name="AEacute" unicode="&#x1fc;" horiz-adv-x="2109" 
d="M-123 0l799 1434h1331v-379h-614v-174h450v-328h-450v-174h635v-379h-1096v287h-430l-154 -287h-471zM676 604h256v461h-10zM1024 1587l184 348h430l-256 -348h-358z" />
    <glyph glyph-name="aeacute" unicode="&#x1fd;" horiz-adv-x="1761" 
d="M358 584l267 61q-8 41 -41.5 66.5t-91.5 25.5q-65 0 -132 -47q-36 -28 -53 -45l-205 195q51 54 113 96q144 98 297 98q142 0 244 -78q46 -34 73 -75q37 37 95 75q118 78 254 78q109 0 208 -41.5t169.5 -109.5t112.5 -160.5t42 -190.5q0 -54 -10 -92l-10 -30h-666
q20 -54 75 -94t140 -40q88 0 158 41q25 13 57 41l143 -256q-44 -38 -106 -67q-144 -66 -293 -66q-150 0 -276 86q-56 40 -93 88q-40 -46 -96 -82q-130 -81 -301 -81q-185 0 -288 82t-103 204q0 241 317 318zM1024 594h276q-8 56 -44.5 94.5t-88.5 38.5q-59 0 -97 -38
t-46 -95zM625 420v31l-103 -31q-46 -13 -64 -31.5t-18 -50.5q0 -31 20.5 -51.5t51.5 -20.5q50 0 81.5 39.5t31.5 114.5zM686 1126l184 349h430l-256 -349h-358z" />
    <glyph glyph-name="Oslashacute" unicode="&#x1fe;" horiz-adv-x="1761" 
d="M82 72l174 153q-51 57 -92 131q-92 164 -92 361q0 156 61 295.5t167 241.5t257.5 161.5t323.5 59.5q219 0 397 -93q82 -42 135 -92l174 164l92 -92l-174 -154q51 -57 92 -131q93 -166 93 -360q0 -156 -61 -295.5t-167 -241.5t-257.5 -161.5t-323.5 -59.5q-222 0 -398 92
q-82 42 -135 92l-174 -163zM1178 901l-502 -471q23 -20 55 -31q66 -30 150 -30q148 0 248 100t100 248q0 71 -27 135q-10 29 -24 49zM584 532l501 472l-57 30q-86 31 -147 31q-148 0 -248.5 -100t-100.5 -248q0 -76 25 -135q8 -23 27 -50zM696 1587l185 348h430l-256 -348
h-359z" />
    <glyph glyph-name="oslashacute" unicode="&#x1ff;" 
d="M72 61l112 113q-37 44 -61 90q-62 114 -62 238q0 142 74 264t206.5 195t293.5 73q144 0 260 -57q49 -21 98 -55l113 112l92 -92l-113 -113q40 -47 62 -90q61 -112 61 -237q0 -142 -74.5 -264.5t-207 -195.5t-291.5 -73q-146 0 -260 56q-60 26 -99 57l-112 -113zM809 584
l-266 -256q19 -10 26 -11q30 -10 66 -10q86 0 140 54.5t54 140.5q0 36 -10 59zM461 420l266 256q-5 1 -27 10q-27 10 -65 10q-86 0 -140.5 -54t-54.5 -140q0 -31 11 -60q3 -11 10 -22zM451 1126l184 349h430l-256 -349h-358z" />
    <glyph glyph-name="Scommaaccent" unicode="&#x218;" horiz-adv-x="1259" 
d="M20 205l267 276q42 -45 82 -71q94 -72 204 -72q74 0 109 25.5t35 66.5q0 32 -35.5 59t-92.5 49.5t-126 47.5t-137.5 62t-125.5 84.5t-92.5 122.5t-35.5 169q0 90 39.5 171t111.5 143.5t181.5 99.5t240.5 37q226 0 404 -103q82 -50 129 -102l-267 -277q-24 31 -53 51
q-81 52 -162 52q-59 0 -91 -20t-32 -52q0 -26 22 -48t59.5 -39.5t86 -35.5t102 -39.5t107 -47t102 -62t86 -80t59.5 -106t22 -136.5q0 -93 -41.5 -177.5t-116.5 -150t-188.5 -104.5t-247.5 -39q-246 0 -449 123q-95 56 -156 123zM348 -512l113 348h389l-164 -348h-338z" />
    <glyph glyph-name="scommaaccent" unicode="&#x219;" horiz-adv-x="1003" 
d="M20 174l185 195q20 -23 55 -47q70 -46 139 -46q72 0 72 41q0 20 -29.5 41t-74 39t-96 46.5t-96 62t-74 88.5t-29.5 123q0 131 117.5 224t322.5 93q181 0 332 -88q66 -39 108 -86l-184 -194q-8 8 -39 30q-55 31 -94 31q-72 0 -72 -41q0 -18 22 -35t57.5 -33.5t78 -35.5
t85 -46t78 -60t57.5 -82t22 -107q0 -63 -29.5 -119.5t-85 -101t-145.5 -71t-201 -26.5q-199 0 -361 103q-72 48 -121 102zM195 -512l112 348h389l-164 -348h-337z" />
    <glyph glyph-name="uni021A" unicode="&#x21a;" horiz-adv-x="1300" 
d="M420 0v1014h-379v420h1219v-420h-379v-1014h-461zM338 -512l113 348h389l-164 -348h-338z" />
    <glyph glyph-name="uni021B" unicode="&#x21b;" horiz-adv-x="901" 
d="M174 399v236h-133v369h61q54 0 88.5 34t34.5 88v154h359v-276h204v-369h-204v-154q0 -123 112 -123q33 0 66 11q10 2 26 10v-369q-11 -4 -34 -9.5t-29 -6.5q-68 -14 -162 -14q-180 0 -284.5 110t-104.5 309zM215 -512l113 348h389l-164 -348h-338z" />
    <glyph glyph-name="uni0232" unicode="&#x232;" horiz-adv-x="1423" 
d="M481 0v512l-512 922h502l236 -543h10l235 543h502l-512 -922v-512h-461zM358 1628v307h697v-307h-697z" />
    <glyph glyph-name="uni0233" unicode="&#x233;" horiz-adv-x="1136" 
d="M92 -389v348q14 -7 29 -10q33 -10 74 -10q65 0 99.5 25.5t53.5 76.5l-368 963h440l143 -553h10l144 553h440l-389 -1024q-80 -213 -189 -311.5t-282 -98.5q-67 0 -145 20q-31 8 -60 21zM215 1167v308h696v-308h-696z" />
    <glyph glyph-name="uni0244" unicode="&#x244;" horiz-adv-x="1638" 
d="M164 584v194h-144v123h144v533h461v-533h389v533h461v-533h143v-123h-143v-194q0 -279 -179.5 -452t-476.5 -173t-476 173t-179 452zM625 778v-194q0 -92 53.5 -148.5t140.5 -56.5t141 56.5t54 148.5v194h-389z" />
    <glyph glyph-name="uni0259" unicode="&#x259;" horiz-adv-x="1208" 
d="M72 594h665q-20 54 -75 93.5t-140 39.5q-87 0 -157 -41q-28 -14 -58 -41l-143 256q53 43 106 66q146 67 303 67q120 0 227 -43t182.5 -115t120 -170t44.5 -204q0 -142 -73.5 -264.5t-201.5 -195.5t-278 -73q-149 0 -274.5 69.5t-197 184.5t-71.5 248q0 54 10 92
q2 13 11 31zM737 410h-276q8 -56 44.5 -95t88.5 -39q59 0 97 38.5t46 95.5z" />
    <glyph glyph-name="uni0289" unicode="&#x289;" horiz-adv-x="1331" 
d="M143 399v174h-102v123h102v308h410v-308h225v308h410v-308h102v-123h-102v-573h-410v143h-10q-26 -45 -66 -82q-93 -81 -210 -81q-159 0 -254 108t-95 311zM553 573v-81q0 -53 32.5 -88t80.5 -35t80 36.5t32 96.5v71h-225z" />
    <glyph glyph-name="uni02BC" unicode="&#x2bc;" horiz-adv-x="624" 
d="M61 1116l113 348h389l-164 -348h-338z" />
    <glyph glyph-name="circumflex" unicode="&#x2c6;" horiz-adv-x="1044" 
d="M61 1116l287 348h348l287 -348h-369l-92 133l-92 -133h-369z" />
    <glyph glyph-name="caron" unicode="&#x2c7;" horiz-adv-x="1044" 
d="M348 1116l-287 348h369l92 -133l92 133h369l-287 -348h-348z" />
    <glyph glyph-name="breve" unicode="&#x2d8;" horiz-adv-x="860" 
d="M61 1464h287q0 -92 82 -92t82 92h287q0 -148 -105 -248t-264 -100t-264 100t-105 248z" />
    <glyph glyph-name="dotaccent" unicode="&#x2d9;" horiz-adv-x="573" 
d="M61 1311q0 87 63.5 146t162.5 59t162 -59t63 -146t-63 -146t-162 -59t-162.5 59t-63.5 146z" />
    <glyph glyph-name="ring" unicode="&#x2da;" horiz-adv-x="696" 
d="M430 1260q0 32 -22.5 56.5t-59.5 24.5t-59.5 -24.5t-22.5 -56.5q0 -33 22.5 -57.5t59.5 -24.5t59.5 24.5t22.5 57.5zM348 1526q121 0 204 -79t83 -187t-83 -187.5t-204 -79.5t-204 79.5t-83 187.5t83 187t204 79z" />
    <glyph glyph-name="ogonek" unicode="&#x2db;" horiz-adv-x="583" 
d="M246 0h153q-20 -40 -26 -63q-25 -70 -25 -132q0 -92 92 -92q23 0 56 11q3 1 26 10v-205q-17 -10 -51 -21q-66 -20 -143 -20q-121 0 -194 67t-73 169q0 101 93 198q42 45 92 78z" />
    <glyph glyph-name="tilde" unicode="&#x2dc;" horiz-adv-x="890" 
d="M61 1116v103q0 127 61.5 196.5t164.5 69.5q52 0 95 -20.5t74.5 -41t55.5 -20.5q31 0 51.5 22.5t20.5 59.5h245v-103q0 -128 -61.5 -197t-163.5 -69q-53 0 -95.5 20.5t-73.5 41t-56 20.5q-31 0 -51.5 -22.5t-20.5 -59.5h-246z" />
    <glyph glyph-name="hungarumlaut" unicode="&#x2dd;" horiz-adv-x="1146" 
d="M61 1116l195 348h369l-267 -348h-297zM522 1116l195 348h368l-266 -348h-297z" />
    <glyph glyph-name="acutecomb" unicode="&#x301;" horiz-adv-x="0" 
d="M-1014 1526l185 348h430l-256 -348h-359z" />
    <glyph glyph-name="uni0302" unicode="&#x302;" horiz-adv-x="0" 
d="M-1300 1526l286 348h348l287 -348h-369l-92 133l-92 -133h-368z" />
    <glyph glyph-name="uni0304" unicode="&#x304;" horiz-adv-x="0" 
d="M-1178 1597v308h697v-308h-697z" />
    <glyph glyph-name="uni0306" unicode="&#x306;" horiz-adv-x="0" 
d="M-1198 1874h287q0 -92 82 -92q81 0 81 92h287q0 -149 -104.5 -248.5t-263.5 -99.5t-264 100t-105 248z" />
    <glyph glyph-name="uni0307" unicode="&#x307;" horiz-adv-x="0" 
d="M-1044 1720q0 87 63 146t162 59t162 -59t63 -146t-63 -145.5t-162 -58.5t-162 58.5t-63 145.5z" />
    <glyph glyph-name="uni0308" unicode="&#x308;" horiz-adv-x="0" 
d="M-1075 1925q80 0 137 -55t57 -139t-57 -139.5t-137 -55.5t-137.5 55.5t-57.5 139.5t57.5 139t137.5 55zM-778 1731q0 84 57 139t137 55t137.5 -55t57.5 -139t-57.5 -139.5t-137.5 -55.5t-137 55.5t-57 139.5z" />
    <glyph glyph-name="uni030A" unicode="&#x30a;" horiz-adv-x="0" 
d="M-748 1741q0 33 -22 57.5t-59 24.5t-59.5 -24.5t-22.5 -57.5t22.5 -57.5t59.5 -24.5t59 24.5t22 57.5zM-829 2007q121 0 203.5 -79t82.5 -187t-82.5 -187t-203.5 -79t-204 79t-83 187t83 187t204 79z" />
    <glyph glyph-name="uni030C" unicode="&#x30c;" horiz-adv-x="0" 
d="M-1004 1526l-286 348h368l93 -133l92 133h368l-286 -348h-349z" />
    <glyph glyph-name="uni0326" unicode="&#x326;" horiz-adv-x="624" 
d="M61 -512l113 348h389l-164 -348h-338z" />
    <glyph glyph-name="Alphatonos" unicode="&#x386;" horiz-adv-x="1607" 
d="M727 594h236l-113 399h-10zM61 0l523 1434h522l522 -1434h-491l-82 276h-420l-82 -276h-492zM-123 1085l184 349h431l-256 -349h-359z" />
    <glyph glyph-name="Epsilontonos" unicode="&#x388;" horiz-adv-x="1710" 
d="M471 0v1434h1137v-379h-676v-174h512v-328h-512v-174h696v-379h-1157zM-164 1085l184 349h431l-256 -349h-359z" />
    <glyph glyph-name="Etatonos" unicode="&#x389;" horiz-adv-x="1976" 
d="M471 0v1434h461v-502h430v502h461v-1434h-461v522h-430v-522h-461zM-164 1085l184 349h431l-256 -349h-359z" />
    <glyph glyph-name="Iotatonos" unicode="&#x38a;" horiz-adv-x="1085" 
d="M471 0v1434h461v-1434h-461zM-164 1085l184 349h431l-256 -349h-359z" />
    <glyph glyph-name="Omicrontonos" unicode="&#x38c;" horiz-adv-x="1914" 
d="M686 717q0 -148 100 -248t248 -100t248 100t100 248t-100 248t-248 100t-248 -100t-100 -248zM225 717q0 156 61 295.5t167 241.5t257.5 161.5t323.5 59.5t323.5 -59.5t257.5 -161.5t167 -241.5t61 -295.5t-61 -295.5t-167 -241.5t-257.5 -161.5t-323.5 -59.5
t-323.5 59.5t-257.5 161.5t-167 241.5t-61 295.5zM-123 1085l184 349h431l-256 -349h-359z" />
    <glyph glyph-name="Upsilontonos" unicode="&#x38e;" horiz-adv-x="1822" 
d="M881 0v512l-512 922h501l236 -543h10l236 543h501l-512 -922v-512h-460zM-246 1085l185 349h430l-256 -349h-359z" />
    <glyph glyph-name="Omegatonos" unicode="&#x38f;" horiz-adv-x="1996" 
d="M276 0v338h226q-62 48 -113 117q-113 159 -113 354q0 135 57 256t159.5 212t256 144.5t336.5 53.5t336.5 -53.5t256 -144.5t159.5 -212t57 -256q0 -191 -112 -354q-54 -70 -113 -117h225v-338h-727v369q113 31 190 124t77 224q0 154 -97.5 251t-251.5 97t-251 -97
t-97 -251q0 -131 77 -224t190 -124v-369h-728zM-123 1085l184 349h431l-256 -349h-359z" />
    <glyph glyph-name="iotadieresistonos" unicode="&#x390;" horiz-adv-x="696" 
d="M133 1126l174 349h215l-256 -349h-133zM-31 1495q80 0 137.5 -55.5t57.5 -139.5t-57.5 -139t-137.5 -55t-137 55t-57 139t57 139.5t137 55.5zM471 1300q0 84 57.5 139.5t137.5 55.5t137 -55.5t57 -139.5t-57 -139t-137 -55t-137.5 55t-57.5 139zM113 358v646h409v-543
q0 -38 27 -65t65 -27q17 0 37 4l15 6v-369l-60 -16q-68 -14 -145 -14q-156 0 -252 101t-96 277z" />
    <glyph glyph-name="Alpha" unicode="&#x391;" horiz-adv-x="1525" 
d="M645 594h236l-113 399h-10zM-20 0l522 1434h522l522 -1434h-491l-82 276h-420l-82 -276h-491z" />
    <glyph glyph-name="Beta" unicode="&#x392;" horiz-adv-x="1474" 
d="M154 0v1434h665q122 0 223.5 -31.5t165 -84t98.5 -118t35 -135.5q0 -165 -122 -248q-51 -37 -123 -55v-8q84 -17 157 -62q160 -96 160 -293q0 -82 -35 -153.5t-102.5 -126.5t-174.5 -87t-241 -32h-706zM614 348h185q68 0 105.5 34t37.5 89t-37.5 89t-105.5 34h-185v-246z
M614 881h123q133 0 133 102t-133 102h-123v-204z" />
    <glyph glyph-name="Gamma" unicode="&#x393;" horiz-adv-x="1249" 
d="M154 0v1434h1054v-420h-594v-1014h-460z" />
    <glyph glyph-name="uni0394" unicode="&#x394;" horiz-adv-x="1525" 
d="M-31 0l533 1434h522l532 -1434h-1587zM563 389h400l-195 604h-10z" />
    <glyph glyph-name="Epsilon" unicode="&#x395;" horiz-adv-x="1392" 
d="M154 0v1434h1136v-379h-676v-174h512v-328h-512v-174h697v-379h-1157z" />
    <glyph glyph-name="Zeta" unicode="&#x396;" horiz-adv-x="1361" 
d="M82 0v410l584 614h-553v410h1147v-410l-584 -614h604v-410h-1198z" />
    <glyph glyph-name="Eta" unicode="&#x397;" horiz-adv-x="1658" 
d="M154 0v1434h460v-502h430v502h461v-1434h-461v522h-430v-522h-460z" />
    <glyph glyph-name="Theta" unicode="&#x398;" horiz-adv-x="1761" 
d="M635 655v123h491v-123h-491zM532 717q0 -148 100.5 -248t248.5 -100t248 100t100 248t-100 248t-248 100t-248.5 -100t-100.5 -248zM72 717q0 156 61 295.5t167 241.5t257.5 161.5t323.5 59.5t323.5 -59.5t257.5 -161.5t167 -241.5t61 -295.5t-61 -295.5t-167 -241.5
t-257.5 -161.5t-323.5 -59.5t-323.5 59.5t-257.5 161.5t-167 241.5t-61 295.5z" />
    <glyph glyph-name="Iota" unicode="&#x399;" horiz-adv-x="768" 
d="M154 0v1434h460v-1434h-460z" />
    <glyph glyph-name="Kappa" unicode="&#x39a;" horiz-adv-x="1525" 
d="M154 0v1434h460v-492l400 492h512l-482 -594l523 -840h-523l-307 492l-123 -144v-348h-460z" />
    <glyph glyph-name="Lambda" unicode="&#x39b;" horiz-adv-x="1525" 
d="M-20 0l522 1434h522l522 -1434h-491q-49 166 -287 993h-10l-287 -993h-491z" />
    <glyph glyph-name="Mu" unicode="&#x39c;" horiz-adv-x="1925" 
d="M154 0v1434h409l400 -512l399 512h410v-1434h-461v768l-348 -440l-349 440v-768h-460z" />
    <glyph glyph-name="Nu" unicode="&#x39d;" horiz-adv-x="1699" 
d="M154 0v1434h399l532 -686v686h461v-1434h-399l-533 686v-686h-460z" />
    <glyph glyph-name="Xi" unicode="&#x39e;" horiz-adv-x="1392" 
d="M82 0v369h1229v-369h-1229zM102 1065v369h1188v-369h-1188zM266 563v318h860v-318h-860z" />
    <glyph glyph-name="Omicron" unicode="&#x39f;" horiz-adv-x="1761" 
d="M532 717q0 -148 100.5 -248t248.5 -100t248 100t100 248t-100 248t-248 100t-248.5 -100t-100.5 -248zM72 717q0 156 61 295.5t167 241.5t257.5 161.5t323.5 59.5t323.5 -59.5t257.5 -161.5t167 -241.5t61 -295.5t-61 -295.5t-167 -241.5t-257.5 -161.5t-323.5 -59.5
t-323.5 59.5t-257.5 161.5t-167 241.5t-61 295.5z" />
    <glyph glyph-name="Pi" unicode="&#x3a0;" horiz-adv-x="1648" 
d="M154 0v1434h1341v-1434h-461v1014h-420v-1014h-460z" />
    <glyph glyph-name="Rho" unicode="&#x3a1;" horiz-adv-x="1443" 
d="M154 0v1434h675q121 0 224.5 -40t175.5 -110t112.5 -166.5t40.5 -206.5q0 -147 -69 -266t-196 -187.5t-288 -68.5h-215v-389h-460zM614 778h164q61 0 102.5 39t41.5 94t-41.5 94t-102.5 39h-164v-266z" />
    <glyph glyph-name="Sigma" unicode="&#x3a3;" horiz-adv-x="1310" 
d="M113 0v338l327 389l-327 369v338h1116v-410h-563l266 -297l-266 -317h563v-410h-1116z" />
    <glyph glyph-name="Tau" unicode="&#x3a4;" horiz-adv-x="1300" 
d="M420 0v1014h-379v420h1219v-420h-379v-1014h-461z" />
    <glyph glyph-name="Upsilon" unicode="&#x3a5;" horiz-adv-x="1423" 
d="M481 0v512l-512 922h502l236 -543h10l235 543h502l-512 -922v-512h-461z" />
    <glyph glyph-name="Phi" unicode="&#x3a6;" horiz-adv-x="1873" 
d="M717 451v553q-92 -18 -148.5 -88.5t-56.5 -188.5q0 -117 56.5 -187.5t148.5 -88.5zM707 -102v163q-187 24 -337 118t-234.5 237.5t-84.5 310.5t84.5 310.5t234.5 237.5t337 118v163h460v-163q187 -24 337 -118t234.5 -237.5t84.5 -310.5t-84.5 -310.5t-234.5 -237.5
t-337 -118v-163h-460zM1157 1004v-553q92 18 148.5 88.5t56.5 187.5q0 118 -56.5 188.5t-148.5 88.5z" />
    <glyph glyph-name="Chi" unicode="&#x3a7;" horiz-adv-x="1443" 
d="M-20 0l440 748l-400 686h502l195 -420h10l195 420h501l-399 -686l440 -748h-501l-236 481h-10l-236 -481h-501z" />
    <glyph glyph-name="Psi" unicode="&#x3a8;" horiz-adv-x="1894" 
d="M717 0v348q-303 31 -459 190.5t-156 444.5v451h451v-441q0 -98 43 -147.5t131 -57.5v646h440v-646q88 8 131 57.5t43 147.5v441h451v-451q0 -286 -155.5 -445t-458.5 -190v-348h-461z" />
    <glyph glyph-name="uni03A9" unicode="&#x3a9;" horiz-adv-x="1822" 
d="M102 0v338h226q-62 48 -113 117q-113 159 -113 354q0 135 57 256t159.5 212t256 144.5t336.5 53.5t336.5 -53.5t256 -144.5t159.5 -212t57 -256q0 -191 -112 -354q-54 -70 -113 -117h225v-338h-727v369q113 31 190 124t77 224q0 154 -97.5 251t-251.5 97t-251 -97
t-97 -251q0 -131 76.5 -224t189.5 -124v-369h-727z" />
    <glyph glyph-name="Iotadieresis" unicode="&#x3aa;" horiz-adv-x="768" 
d="M154 0v1434h460v-1434h-460zM133 1956q80 0 137.5 -55.5t57.5 -139.5t-57.5 -139t-137.5 -55t-137 55t-57 139t57 139.5t137 55.5zM430 1761q0 84 57.5 139.5t137.5 55.5t137 -55.5t57 -139.5t-57 -139t-137 -55t-137.5 55t-57.5 139z" />
    <glyph glyph-name="Upsilondieresis" unicode="&#x3ab;" horiz-adv-x="1423" 
d="M481 0v512l-512 922h502l236 -543h10l235 543h502l-512 -922v-512h-461zM461 1956q80 0 137 -55.5t57 -139.5t-57 -139t-137 -55t-137.5 55t-57.5 139t57.5 139.5t137.5 55.5zM758 1761q0 84 57 139.5t137 55.5t137.5 -55.5t57.5 -139.5t-57.5 -139t-137.5 -55t-137 55
t-57 139z" />
    <glyph glyph-name="alphatonos" unicode="&#x3ac;" horiz-adv-x="1320" 
d="M829 164h-10q-27 -48 -78 -92q-108 -92 -260 -92q-85 0 -161 36t-133.5 101.5t-91.5 165t-34 219.5t34 219.5t91.5 165t133.5 101.5t161 36q125 0 219 -82q44 -41 68 -82h10v144h410v-574q0 -61 51 -61q9 0 29 4l12 6v-359q-10 -7 -41 -20q-54 -20 -123 -20
q-147 0 -231 92q-39 42 -56 92zM625 338q62 0 107.5 48t45.5 116t-45.5 116t-107.5 48t-108 -48t-46 -116t46 -116t108 -48zM471 1126l184 349h430l-256 -349h-358z" />
    <glyph glyph-name="epsilontonos" unicode="&#x3ad;" horiz-adv-x="1003" 
d="M307 508v8q-56 10 -112 41q-113 65 -113 180q0 124 114.5 210.5t325.5 86.5q192 0 340 -82q69 -40 111 -82l-185 -194l-53 31q-71 30 -131 30q-45 0 -68.5 -18t-23.5 -43t24 -43.5t68 -18.5h92v-204h-92q-52 0 -77 -19.5t-25 -52.5t25 -52.5t77 -19.5q88 0 162 51
q28 17 63 52l185 -195q-46 -51 -123 -102q-166 -103 -369 -103q-111 0 -201 26t-145.5 70t-85 98t-29.5 113q0 125 123 189q56 29 123 43zM348 1126l184 349h431l-256 -349h-359z" />
    <glyph glyph-name="etatonos" unicode="&#x3ae;" 
d="M113 0v1004h409v-144h10q26 45 66 82q94 82 211 82q159 0 253.5 -108t94.5 -312v-604h-409v512q0 53 -32.5 88t-80.5 35t-80.5 -36.5t-32.5 -96.5v-502h-409zM451 1126l184 349h430l-256 -349h-358z" />
    <glyph glyph-name="iotatonos" unicode="&#x3af;" horiz-adv-x="696" 
d="M113 358v646h409v-543q0 -38 27 -65t65 -27q17 0 37 4l15 6v-369l-60 -16q-68 -14 -145 -14q-156 0 -252 101t-96 277zM143 1126l185 349h430l-256 -349h-359z" />
    <glyph glyph-name="upsilondieresistonos" unicode="&#x3b0;" 
d="M451 1126l174 349h215l-256 -349h-133zM92 1300q0 84 57.5 139.5t137.5 55.5t137 -55.5t57 -139.5t-57 -139t-137 -55t-137.5 55t-57.5 139zM788 1300q0 84 57.5 139.5t137.5 55.5t137.5 -55.5t57.5 -139.5t-57.5 -139t-137.5 -55t-137.5 55t-57.5 139zM113 461v543h409
v-523q0 -47 33 -79.5t80 -32.5t80 32.5t33 79.5v523h409v-543q0 -218 -139.5 -349.5t-382.5 -131.5t-382.5 131.5t-139.5 349.5z" />
    <glyph glyph-name="alpha" unicode="&#x3b1;" horiz-adv-x="1320" 
d="M829 164h-10q-27 -48 -78 -92q-108 -92 -260 -92q-85 0 -161 36t-133.5 101.5t-91.5 165t-34 219.5t34 219.5t91.5 165t133.5 101.5t161 36q125 0 219 -82q44 -41 68 -82h10v144h410v-574q0 -61 51 -61q9 0 29 4l12 6v-359q-10 -7 -41 -20q-54 -20 -123 -20
q-147 0 -231 92q-39 42 -56 92zM625 338q62 0 107.5 48t45.5 116t-45.5 116t-107.5 48t-108 -48t-46 -116t46 -116t108 -48z" />
    <glyph glyph-name="beta" unicode="&#x3b2;" horiz-adv-x="1290" 
d="M113 -430v1397q0 222 139 354.5t383 132.5q104 0 193.5 -32t149.5 -85.5t94 -124t34 -147.5q0 -125 -88 -221q-41 -44 -86 -66q76 -27 137 -73q139 -106 139 -275q0 -186 -145 -308t-399 -122h-142v-430h-409zM522 358h133q59 0 91 31.5t32 81.5t-32 81.5t-91 31.5h-61
v297h10q49 0 81 30t32 82t-26 82.5t-66 30.5q-103 0 -103 -133v-615z" />
    <glyph glyph-name="gamma" unicode="&#x3b3;" horiz-adv-x="1126" 
d="M358 -430v420l-378 1014h430l149 -553h8l150 553h430l-379 -1014v-420h-410z" />
    <glyph glyph-name="delta" unicode="&#x3b4;" horiz-adv-x="1249" 
d="M164 1106v328h901v-318h-410l246 -174q61 -43 107 -85t89.5 -99.5t67 -130t23.5 -156.5q0 -100 -42.5 -191.5t-115.5 -160t-179 -109.5t-226 -41t-226 41t-179.5 109.5t-116 160t-42.5 191.5q0 169 104.5 292.5t244.5 158.5q-133 108 -172 135zM481 471q0 -61 41 -102
t103 -41q61 0 102 41t41 102t-41 102t-102 41q-62 0 -103 -41t-41 -102z" />
    <glyph glyph-name="epsilon" unicode="&#x3b5;" horiz-adv-x="1003" 
d="M307 508v8q-56 10 -112 41q-113 65 -113 180q0 124 114.5 210.5t325.5 86.5q192 0 340 -82q69 -40 111 -82l-185 -194l-53 31q-71 30 -131 30q-45 0 -68.5 -18t-23.5 -43t24 -43.5t68 -18.5h92v-204h-92q-52 0 -77 -19.5t-25 -52.5t25 -52.5t77 -19.5q88 0 162 51
q28 17 63 52l185 -195q-46 -51 -123 -102q-166 -103 -369 -103q-111 0 -201 26t-145.5 70t-85 98t-29.5 113q0 125 123 189q56 29 123 43z" />
    <glyph glyph-name="zeta" unicode="&#x3b6;" horiz-adv-x="1105" 
d="M942 -276h-328q0 83 31 174q8 27 31 71l-29 -6q-36 -4 -74 -4q-232 0 -372 132t-140 329q0 225 179 454q81 101 180 181h-318v379h922v-308q-154 -82 -276 -182q-119 -92 -198 -202.5t-79 -219.5q0 -194 225 -194q87 0 154 24q23 6 61 27l185 -236q-38 -49 -74 -120
q-72 -140 -80 -299z" />
    <glyph glyph-name="eta" unicode="&#x3b7;" 
d="M113 0v1004h409v-144h10q26 45 66 82q94 82 211 82q159 0 253.5 -108t94.5 -312v-604h-409v512q0 53 -32.5 88t-80.5 35t-80.5 -36.5t-32.5 -96.5v-502h-409z" />
    <glyph glyph-name="theta" unicode="&#x3b8;" horiz-adv-x="1372" 
d="M686 -41q-124 0 -233 51.5t-192 146.5t-131 239.5t-48 320.5t48 320.5t131 239.5t192 146.5t233 51.5t233 -51.5t192 -146.5t131 -239.5t48 -320.5t-48 -320.5t-131 -239.5t-192 -146.5t-233 -51.5zM502 778h368q-7 166 -57.5 242t-126.5 76t-126.5 -76t-57.5 -242z
M870 655h-368q7 -166 57.5 -241.5t126.5 -75.5t126.5 75.5t57.5 241.5z" />
    <glyph glyph-name="iota" unicode="&#x3b9;" horiz-adv-x="706" 
d="M113 358v646h409v-543q0 -38 27 -65t65 -27q17 0 37 4l15 6v-369l-60 -16q-68 -14 -145 -14q-156 0 -252 101t-96 277z" />
    <glyph glyph-name="kappa" unicode="&#x3ba;" horiz-adv-x="1198" 
d="M113 0v1004h409v-297l236 297h461l-338 -420l348 -584h-441l-194 338l-72 -82v-256h-409z" />
    <glyph glyph-name="lambda" unicode="&#x3bb;" horiz-adv-x="1157" 
d="M-10 0l409 983q-45 92 -163 92q-51 0 -78 -10l-25 -10v368l57 15q78 16 158 16q175 0 286 -100.5t185 -319.5l348 -1034h-440l-123 532h-10l-164 -532h-440z" />
    <glyph glyph-name="uni03BC" unicode="&#x3bc;" 
d="M113 -430v1434h409v-512q0 -53 32.5 -88t80.5 -35t80.5 36.5t32.5 96.5v502h409v-1004h-409v143h-11q-17 -33 -49 -65q-70 -70 -166 -88v-420h-409z" />
    <glyph glyph-name="nu" unicode="&#x3bd;" horiz-adv-x="1136" 
d="M348 0l-368 1004h440l143 -553h10l144 553h440l-369 -1004h-440z" />
    <glyph glyph-name="xi" unicode="&#x3be;" horiz-adv-x="1064" 
d="M911 -276h-327q0 93 24 167q6 27 27 68h-21q-123 0 -228.5 37t-175.5 97.5t-109.5 137.5t-39.5 158q0 193 154 299q73 50 154 70v10q-70 19 -133 63q-134 93 -134 254q0 78 34.5 148t98 124t162 86t217.5 32q169 0 295 -62q55 -27 95 -61l-185 -287q-23 16 -49 25
q-58 26 -125 26q-59 0 -96 -31t-37 -71q0 -41 37 -72t96 -31h158v-348h-168q-75 0 -119.5 -36.5t-44.5 -86.5q0 -51 50.5 -87t144.5 -36q91 0 161 25q28 8 54 27l184 -226q-38 -49 -74 -120q-72 -140 -80 -299z" />
    <glyph glyph-name="omicron" unicode="&#x3bf;" 
d="M481 502q0 -62 46.5 -108t107.5 -46t107 46t46 108t-46 107.5t-107 45.5q-62 0 -108 -46t-46 -107zM61 502q0 142 74 264t206.5 195t293.5 73q159 0 291.5 -73t207 -195t74.5 -264t-74.5 -264.5t-207 -195.5t-291.5 -73q-121 0 -228.5 43t-183 115.5t-119 170.5
t-43.5 204z" />
    <glyph glyph-name="pi" unicode="&#x3c0;" 
d="M113 0v1004h1044v-1004h-409v635h-226v-635h-409z" />
    <glyph glyph-name="rho" unicode="&#x3c1;" horiz-adv-x="1290" 
d="M102 -430v932q0 142 71.5 261.5t199 190t282.5 70.5q124 0 232 -41.5t182.5 -112t117 -166t42.5 -202.5t-42.5 -202.5t-117 -166t-182.5 -112t-232 -41.5q-59 0 -104 10q-22 3 -39 10v-430h-410zM655 348q61 0 107.5 46t46.5 108q0 61 -46 107t-108 46q-61 0 -107 -45.5
t-46 -107.5t46 -108t107 -46z" />
    <glyph glyph-name="sigma1" unicode="&#x3c2;" horiz-adv-x="1095" 
d="M881 -276h-328q0 93 31 176q10 30 30 69q-155 5 -282.5 79t-199 194.5t-71.5 259.5q0 142 74 264t206.5 195t293.5 73q171 0 319 -82q69 -40 111 -82l-225 -276q-26 22 -49 35q-64 37 -125 37q-84 0 -134.5 -46.5t-50.5 -117.5q0 -73 55 -118.5t160 -45.5q57 0 111 20
q25 11 43 21l184 -236q-35 -45 -73 -120q-72 -140 -80 -299z" />
    <glyph glyph-name="sigma" unicode="&#x3c3;" horiz-adv-x="1341" 
d="M635 1004h686v-379h-133l10 -37q10 -38 10 -96q0 -137 -74.5 -257t-207 -193t-291.5 -73q-121 0 -228.5 43t-182.5 115t-119 167.5t-44 197.5q0 103 42.5 196.5t117 163t182.5 111t232 41.5zM481 492q0 -62 46.5 -108t107.5 -46t107 46t46 108t-46 107.5t-107 45.5
q-62 0 -108 -46t-46 -107z" />
    <glyph glyph-name="tau" unicode="&#x3c4;" horiz-adv-x="1044" 
d="M41 625v379h963v-379h-277v-164q0 -38 27 -65t65 -27q7 0 35 4l16 6v-359q-25 -11 -59 -20q-78 -20 -145 -20q-156 0 -252.5 101t-96.5 277v267h-276z" />
    <glyph glyph-name="upsilon" unicode="&#x3c5;" 
d="M113 461v543h409v-523q0 -47 33 -79.5t80 -32.5t80 32.5t33 79.5v523h409v-543q0 -218 -139.5 -349.5t-382.5 -131.5t-382.5 131.5t-139.5 349.5z" />
    <glyph glyph-name="phi" unicode="&#x3c6;" horiz-adv-x="1617" 
d="M604 -430v379q-237 29 -390 183t-153 360q0 89 28 168.5t77 139.5t107 105.5t126 77.5l174 -287q-46 -22 -84 -74.5t-38 -129.5q0 -82 47.5 -139.5t105.5 -65.5v757h307q138 0 260 -46t205.5 -122.5t131.5 -176.5t48 -207q0 -206 -152.5 -360t-389.5 -183v-379h-410z
M993 696v-409q72 8 123 65t51 140t-51 139.5t-123 64.5z" />
    <glyph glyph-name="chi" unicode="&#x3c7;" horiz-adv-x="1105" 
d="M-20 0l296 512l-286 492h440l119 -287h8l119 287h440l-287 -492l297 -512h-440l-129 307h-8l-129 -307h-440z" />
    <glyph glyph-name="psi" unicode="&#x3c8;" horiz-adv-x="1658" 
d="M625 -430v389q-250 31 -391.5 182.5t-141.5 401.5v461h400v-482q0 -90 36 -133t107 -51v666h389v-666q71 8 107 51t36 133v482h400v-461q0 -250 -141.5 -401.5t-391.5 -182.5v-389h-409z" />
    <glyph glyph-name="omega" unicode="&#x3c9;" horiz-adv-x="1689" 
d="M645 492v235h399v-235q0 -85 23.5 -124.5t58.5 -39.5t64 42.5t29 121.5q0 20 -1 38t-5 34t-6.5 27.5t-10.5 25t-11 20t-13.5 20t-13.5 17t-16 18t-16 17.5l174 315q57 -24 112 -69.5t105 -111t80.5 -157.5t30.5 -194q0 -116 -37.5 -216.5t-100.5 -169.5t-147 -108
t-176 -39q-158 0 -254 92q-45 39 -69 92q-26 -51 -70 -92q-96 -92 -252 -92q-92 0 -176 39t-147 108t-100.5 169.5t-37.5 216.5q0 102 30.5 194t80.5 157.5t105 111t112 69.5l174 -315q-1 -1 -15.5 -17t-16.5 -18.5t-13.5 -17t-13.5 -20t-10.5 -20t-10 -25.5t-6 -27
t-5.5 -34t-1 -38q0 -80 28.5 -122t63.5 -42t58.5 39.5t23.5 124.5z" />
    <glyph glyph-name="iotadieresis" unicode="&#x3ca;" horiz-adv-x="696" 
d="M113 358v646h409v-543q0 -38 27 -65t65 -27q17 0 37 4l15 6v-369l-60 -16q-68 -14 -145 -14q-156 0 -252 101t-96 277zM72 1495q80 0 137 -55.5t57 -139.5t-57 -139t-137 -55t-137.5 55t-57.5 139t57.5 139.5t137.5 55.5zM369 1300q0 84 57 139.5t137 55.5t137.5 -55.5
t57.5 -139.5t-57.5 -139t-137.5 -55t-137 55t-57 139z" />
    <glyph glyph-name="upsilondieresis" unicode="&#x3cb;" 
d="M113 461v543h409v-523q0 -47 33 -79.5t80 -32.5t80 32.5t33 79.5v523h409v-543q0 -218 -139.5 -349.5t-382.5 -131.5t-382.5 131.5t-139.5 349.5zM389 1495q80 0 137.5 -55.5t57.5 -139.5t-57.5 -139t-137.5 -55t-137 55t-57 139t57 139.5t137 55.5zM686 1300
q0 84 57.5 139.5t137.5 55.5t137 -55.5t57 -139.5t-57 -139t-137 -55t-137.5 55t-57.5 139z" />
    <glyph glyph-name="omicrontonos" unicode="&#x3cc;" 
d="M481 502q0 -62 46.5 -108t107.5 -46t107 46t46 108t-46 107.5t-107 45.5q-62 0 -108 -46t-46 -107zM61 502q0 142 74 264t206.5 195t293.5 73q159 0 291.5 -73t207 -195t74.5 -264t-74.5 -264.5t-207 -195.5t-291.5 -73q-121 0 -228.5 43t-183 115.5t-119 170.5
t-43.5 204zM451 1126l184 349h430l-256 -349h-358z" />
    <glyph glyph-name="upsilontonos" unicode="&#x3cd;" 
d="M113 461v543h409v-523q0 -47 33 -79.5t80 -32.5t80 32.5t33 79.5v523h409v-543q0 -218 -139.5 -349.5t-382.5 -131.5t-382.5 131.5t-139.5 349.5zM451 1126l184 349h430l-256 -349h-358z" />
    <glyph glyph-name="omegatonos" unicode="&#x3ce;" horiz-adv-x="1689" 
d="M645 492v235h399v-235q0 -85 23.5 -124.5t58.5 -39.5t64 42.5t29 121.5q0 20 -1 38t-5 34t-6.5 27.5t-10.5 25t-11 20t-13.5 20t-13.5 17t-16 18t-16 17.5l174 315q57 -24 112 -69.5t105 -111t80.5 -157.5t30.5 -194q0 -116 -37.5 -216.5t-100.5 -169.5t-147 -108
t-176 -39q-158 0 -254 92q-45 39 -69 92q-26 -51 -70 -92q-96 -92 -252 -92q-92 0 -176 39t-147 108t-100.5 169.5t-37.5 216.5q0 102 30.5 194t80.5 157.5t105 111t112 69.5l174 -315q-1 -1 -15.5 -17t-16.5 -18.5t-13.5 -17t-13.5 -20t-10.5 -20t-10 -25.5t-6 -27
t-5.5 -34t-1 -38q0 -80 28.5 -122t63.5 -42t58.5 39.5t23.5 124.5zM655 1126l185 349h430l-256 -349h-359z" />
    <glyph glyph-name="uni0400" unicode="&#x400;" horiz-adv-x="1392" 
d="M154 0v1434h1136v-379h-676v-174h512v-328h-512v-174h697v-379h-1157zM543 1587l-256 348h430l184 -348h-358z" />
    <glyph glyph-name="uni0401" unicode="&#x401;" horiz-adv-x="1392" 
d="M154 0v1434h1136v-379h-676v-174h512v-328h-512v-174h697v-379h-1157zM471 1956q80 0 137.5 -55.5t57.5 -139.5t-57.5 -139t-137.5 -55t-137.5 55t-57.5 139t57.5 139.5t137.5 55.5zM768 1761q0 84 57.5 139.5t137.5 55.5t137 -55.5t57 -139.5t-57 -139t-137 -55
t-137.5 55t-57.5 139z" />
    <glyph glyph-name="uni0402" unicode="&#x402;" horiz-adv-x="1576" 
d="M297 0v1044h-297v390h1044v-390h-286v-184q33 19 67 31q104 31 199 31q229 0 365.5 -132.5t136.5 -349.5q0 -225 -141 -358t-392 -133h-92v368q83 0 123.5 33t40.5 90q0 50 -39.5 81.5t-114.5 31.5q-50 0 -110 -31l-43 -30v-492h-461z" />
    <glyph glyph-name="uni0403" unicode="&#x403;" horiz-adv-x="1239" 
d="M154 0v1434h1054v-420h-594v-1014h-460zM481 1587l185 348h430l-256 -348h-359z" />
    <glyph glyph-name="uni0404" unicode="&#x404;" horiz-adv-x="1536" 
d="M563 891h492v-348h-492q31 -69 116.5 -127t211.5 -58q134 0 260 82q58 39 98 82l267 -286q-67 -79 -160 -140q-202 -137 -475 -137q-172 0 -323.5 59.5t-257.5 161.5t-167 241.5t-61 295.5t61 295.5t167 241.5t257.5 161.5t323.5 59.5q267 0 469 -140q91 -61 155 -137
l-266 -287q-34 39 -94 82q-118 82 -254 82q-126 0 -211.5 -57.5t-116.5 -126.5z" />
    <glyph glyph-name="uni0405" unicode="&#x405;" horiz-adv-x="1259" 
d="M20 205l267 276q42 -45 82 -71q94 -72 204 -72q74 0 109 25.5t35 66.5q0 32 -35.5 59t-92.5 49.5t-126 47.5t-137.5 62t-125.5 84.5t-92.5 122.5t-35.5 169q0 90 39.5 171t111.5 143.5t181.5 99.5t240.5 37q226 0 404 -103q82 -50 129 -102l-267 -277q-24 31 -53 51
q-81 52 -162 52q-59 0 -91 -20t-32 -52q0 -26 22 -48t59.5 -39.5t86 -35.5t102 -39.5t107 -47t102 -62t86 -80t59.5 -106t22 -136.5q0 -93 -41.5 -177.5t-116.5 -150t-188.5 -104.5t-247.5 -39q-246 0 -449 123q-95 56 -156 123z" />
    <glyph glyph-name="uni0406" unicode="&#x406;" horiz-adv-x="768" 
d="M154 0v1434h460v-1434h-460z" />
    <glyph glyph-name="uni0407" unicode="&#x407;" horiz-adv-x="768" 
d="M154 0v1434h460v-1434h-460zM133 1956q80 0 137.5 -55.5t57.5 -139.5t-57.5 -139t-137.5 -55t-137 55t-57 139t57 139.5t137 55.5zM430 1761q0 84 57.5 139.5t137.5 55.5t137 -55.5t57 -139.5t-57 -139t-137 -55t-137.5 55t-57.5 139z" />
    <glyph glyph-name="uni0408" unicode="&#x408;" horiz-adv-x="1105" 
d="M-41 143l287 297q12 -18 30 -30q45 -31 93 -31q62 0 102.5 42.5t40.5 110.5v902h461v-902q0 -268 -149 -420.5t-404 -152.5q-197 0 -346 92q-72 43 -115 92z" />
    <glyph glyph-name="uni0409" unicode="&#x409;" horiz-adv-x="2222" 
d="M0 0v420q10 -7 23 -10q29 -11 59 -11q39 0 70 14t61 52.5t50 101t32 165t12 239.5v463h1116v-410h195q121 0 224.5 -40t175.5 -108.5t112.5 -162.5t40.5 -201t-40.5 -201t-112.5 -162.5t-175.5 -108.5t-224.5 -40h-655v1014h-205q0 -243 -26.5 -427.5t-73 -302.5
t-116 -192t-148.5 -103.5t-179 -29.5q-76 0 -158 21q-36 9 -57 20zM1423 379h144q61 0 102 39t41 94t-41 94t-102 39h-144v-266z" />
    <glyph glyph-name="uni040A" unicode="&#x40a;" horiz-adv-x="2273" 
d="M154 0v1434h460v-410h400v410h461v-410h194q121 0 224.5 -40t175.5 -108.5t112.5 -162.5t40.5 -201t-40.5 -201t-112.5 -162.5t-175.5 -108.5t-224.5 -40h-655v614h-400v-614h-460zM1475 379h141q62 0 103.5 39t41.5 94t-41.5 94t-103.5 39h-141v-266z" />
    <glyph glyph-name="uni040B" unicode="&#x40b;" horiz-adv-x="1617" 
d="M297 0v1044h-297v390h1044v-390h-286v-184q33 19 67 31q104 31 199 31q229 0 365.5 -132.5t136.5 -349.5v-440h-461v410q0 62 -43 102.5t-111 40.5q-50 0 -110 -31l-43 -30v-492h-461z" />
    <glyph glyph-name="uni040C" unicode="&#x40c;" horiz-adv-x="1525" 
d="M154 0v1434h460v-492l400 492h512l-482 -594l523 -840h-523l-307 492l-123 -144v-348h-460zM604 1587l184 348h431l-256 -348h-359z" />
    <glyph glyph-name="uni040D" unicode="&#x40d;" horiz-adv-x="1699" 
d="M676 1587l-256 348h430l184 -348h-358zM154 0v1434h460v-707l543 707h389v-1434h-461v707l-542 -707h-389z" />
    <glyph glyph-name="uni040E" unicode="&#x40e;" horiz-adv-x="1341" 
d="M287 1946h286q0 -53 27.5 -83t75.5 -30t75 29.5t27 83.5h287q0 -155 -111 -262t-278 -107t-278 107t-111 262zM143 10v400q17 -9 31 -11q38 -10 92 -10q89 0 148 55q31 28 47 58l-492 932h502l221 -553h8l191 553h502l-441 -942q-85 -184 -167.5 -292.5t-188.5 -164
t-248 -55.5q-90 0 -151 14q-7 2 -19 5t-20.5 5.5t-14.5 5.5z" />
    <glyph glyph-name="uni040F" unicode="&#x40f;" horiz-adv-x="1658" 
d="M154 0v1434h460v-1014h430v1014h461v-1434h-450v-276h-451v276h-450z" />
    <glyph glyph-name="uni0410" unicode="&#x410;" horiz-adv-x="1525" 
d="M645 594h236l-113 399h-10zM-20 0l522 1434h522l522 -1434h-491l-82 276h-420l-82 -276h-491z" />
    <glyph glyph-name="uni0411" unicode="&#x411;" horiz-adv-x="1443" 
d="M614 358h185q53 0 88 32.5t35 80.5t-35 80.5t-88 32.5h-185v-226zM154 0v1434h1095v-379h-635v-133h236q240 0 386 -132t146 -329t-146 -329t-386 -132h-696z" />
    <glyph glyph-name="uni0412" unicode="&#x412;" horiz-adv-x="1474" 
d="M154 0v1434h665q122 0 223.5 -31.5t165 -84t98.5 -118t35 -135.5q0 -165 -122 -248q-51 -37 -123 -55v-8q84 -17 157 -62q160 -96 160 -293q0 -82 -35 -153.5t-102.5 -126.5t-174.5 -87t-241 -32h-706zM614 348h185q68 0 105.5 34t37.5 89t-37.5 89t-105.5 34h-185v-246z
M614 881h123q133 0 133 102t-133 102h-123v-204z" />
    <glyph glyph-name="uni0413" unicode="&#x413;" horiz-adv-x="1249" 
d="M154 0v1434h1054v-420h-594v-1014h-460z" />
    <glyph glyph-name="uni0414" unicode="&#x414;" horiz-adv-x="1576" 
d="M0 -276v696h72q51 48 96 127q98 176 98 426v461h1127v-1014h153v-696h-461v276h-624v-276h-461zM532 410h400v624h-215v-61q0 -256 -92 -432q-39 -77 -93 -131z" />
    <glyph glyph-name="uni0415" unicode="&#x415;" horiz-adv-x="1392" 
d="M154 0v1434h1136v-379h-676v-174h512v-328h-512v-174h697v-379h-1157z" />
    <glyph glyph-name="uni0416" unicode="&#x416;" horiz-adv-x="2222" 
d="M-41 0l533 840l-492 594h510l371 -461v461h460v-461l371 461h510l-491 -594l532 -840h-512l-317 512l-93 -113v-399h-460v399l-93 113l-317 -512h-512z" />
    <glyph glyph-name="uni0417" unicode="&#x417;" 
d="M0 205l256 276q39 -42 82 -67q102 -66 205 -66q75 0 114 31.5t39 81.5t-39 81t-114 31h-164v308h143q68 0 106 27t38 75t-38 75t-106 27q-73 0 -153 -51q-28 -17 -62 -51l-256 277q59 62 137 106q182 109 416 109q130 0 238.5 -35t178 -93t108 -131t38.5 -151
q0 -148 -129 -244q-49 -36 -127 -59v-8q79 -20 148 -70q149 -111 149 -285q0 -85 -40.5 -163.5t-115.5 -140.5t-191.5 -99t-256.5 -37q-257 0 -452 123q-86 51 -152 123z" />
    <glyph glyph-name="uni0418" unicode="&#x418;" horiz-adv-x="1699" 
d="M154 0v1434h460v-707l543 707h389v-1434h-461v707l-542 -707h-389z" />
    <glyph glyph-name="uni0419" unicode="&#x419;" horiz-adv-x="1699" 
d="M461 1956h287q0 -54 27 -83.5t75 -29.5t75 29.5t27 83.5h287q0 -155 -111 -262t-278 -107t-278 107t-111 262zM154 0v1434h460v-707l543 707h389v-1434h-461v707l-542 -707h-389z" />
    <glyph glyph-name="uni041A" unicode="&#x41a;" horiz-adv-x="1525" 
d="M154 0v1434h460v-492l400 492h512l-482 -594l523 -840h-523l-307 492l-123 -144v-348h-460z" />
    <glyph glyph-name="uni041B" unicode="&#x41b;" horiz-adv-x="1617" 
d="M0 0v420q10 -7 23 -10q29 -11 59 -11q39 0 70 14t61 52.5t50 101t32 165t12 239.5v463h1157v-1434h-460v1014h-246q0 -243 -26.5 -427.5t-73 -302.5t-116 -192t-148.5 -103.5t-179 -29.5q-76 0 -158 21q-36 9 -57 20z" />
    <glyph glyph-name="uni041C" unicode="&#x41c;" horiz-adv-x="1925" 
d="M154 0v1434h409l400 -512l399 512h410v-1434h-461v768l-348 -440l-349 440v-768h-460z" />
    <glyph glyph-name="uni041D" unicode="&#x41d;" horiz-adv-x="1658" 
d="M154 0v1434h460v-502h430v502h461v-1434h-461v522h-430v-522h-460z" />
    <glyph glyph-name="uni041E" unicode="&#x41e;" horiz-adv-x="1761" 
d="M532 717q0 -148 100.5 -248t248.5 -100t248 100t100 248t-100 248t-248 100t-248.5 -100t-100.5 -248zM72 717q0 156 61 295.5t167 241.5t257.5 161.5t323.5 59.5t323.5 -59.5t257.5 -161.5t167 -241.5t61 -295.5t-61 -295.5t-167 -241.5t-257.5 -161.5t-323.5 -59.5
t-323.5 59.5t-257.5 161.5t-167 241.5t-61 295.5z" />
    <glyph glyph-name="uni041F" unicode="&#x41f;" horiz-adv-x="1648" 
d="M154 0v1434h1341v-1434h-461v1014h-420v-1014h-460z" />
    <glyph glyph-name="uni0420" unicode="&#x420;" horiz-adv-x="1443" 
d="M154 0v1434h675q121 0 224.5 -40t175.5 -110t112.5 -166.5t40.5 -206.5q0 -147 -69 -266t-196 -187.5t-288 -68.5h-215v-389h-460zM614 778h164q61 0 102.5 39t41.5 94t-41.5 94t-102.5 39h-164v-266z" />
    <glyph glyph-name="uni0421" unicode="&#x421;" horiz-adv-x="1536" 
d="M1239 532l277 -296q-67 -79 -160 -140q-202 -137 -475 -137q-172 0 -323.5 59.5t-257.5 161.5t-167 241.5t-61 295.5t61 295.5t167 241.5t257.5 161.5t323.5 59.5q267 0 469 -140q91 -61 155 -137l-276 -297q-36 45 -88 82q-114 82 -250 82q-153 0 -256 -100t-103 -248
t103 -248t256 -100q136 0 254 82q62 44 94 81z" />
    <glyph glyph-name="uni0422" unicode="&#x422;" horiz-adv-x="1300" 
d="M420 0v1014h-379v420h1219v-420h-379v-1014h-461z" />
    <glyph glyph-name="uni0423" unicode="&#x423;" horiz-adv-x="1341" 
d="M143 10v400q17 -9 31 -11q38 -10 92 -10q89 0 148 55q31 28 47 58l-492 932h502l221 -553h8l191 553h502l-441 -942q-85 -184 -167.5 -292.5t-188.5 -164t-248 -55.5q-90 0 -151 14q-7 2 -19 5t-20.5 5.5t-14.5 5.5z" />
    <glyph glyph-name="uni0424" unicode="&#x424;" horiz-adv-x="1873" 
d="M717 502v471q-88 -8 -146.5 -73t-58.5 -163t58.5 -162.5t146.5 -72.5zM707 -41v174q-190 11 -340.5 94.5t-233 217.5t-82.5 292t82.5 292t233 217.5t340.5 94.5v154h460v-154q190 -11 340.5 -94.5t233 -217.5t82.5 -292t-82.5 -292t-233 -217.5t-340.5 -94.5v-174h-460z
M1157 973v-471q88 8 146.5 72.5t58.5 162.5t-58.5 163t-146.5 73z" />
    <glyph glyph-name="uni0425" unicode="&#x425;" horiz-adv-x="1443" 
d="M-20 0l440 748l-400 686h502l195 -420h10l195 420h501l-399 -686l440 -748h-501l-236 481h-10l-236 -481h-501z" />
    <glyph glyph-name="uni0426" unicode="&#x426;" horiz-adv-x="1658" 
d="M154 0v1434h460v-1014h400v1014h461v-1014h153v-696h-461v276h-1013z" />
    <glyph glyph-name="uni0427" unicode="&#x427;" horiz-adv-x="1566" 
d="M952 0v440q-44 -19 -75 -26q-84 -25 -191 -25q-256 0 -404.5 157t-148.5 437v451h461v-441q0 -92 48.5 -143t135.5 -51q72 0 125 24q21 7 49 27v584h461v-1434h-461z" />
    <glyph glyph-name="uni0428" unicode="&#x428;" horiz-adv-x="2242" 
d="M154 0v1434h460v-1014h277v1014h461v-1014h276v1014h461v-1434h-1935z" />
    <glyph glyph-name="uni0429" unicode="&#x429;" horiz-adv-x="2273" 
d="M154 0v1434h460v-1014h277v1014h461v-1014h276v1014h461v-1014h154v-696h-461v276h-1628z" />
    <glyph glyph-name="uni042A" unicode="&#x42a;" horiz-adv-x="1556" 
d="M297 0v1024h-297v410h758v-390h194q161 0 288 -68.5t196 -187.5t69 -266t-69 -266t-196 -187.5t-288 -68.5h-655zM758 389h143q61 0 102 39t41 94t-41 94t-102 39h-143v-266z" />
    <glyph glyph-name="uni042B" unicode="&#x42b;" horiz-adv-x="2099" 
d="M1485 0v1434h461v-1434h-461zM154 0v1434h460v-390h195q161 0 288 -68.5t196 -187.5t69 -266t-69 -266t-196 -187.5t-288 -68.5h-655zM614 389h144q61 0 102 39t41 94t-41 94t-102 39h-144v-266z" />
    <glyph glyph-name="uni042C" unicode="&#x42c;" horiz-adv-x="1433" 
d="M154 0v1434h460v-390h215q161 0 288 -68.5t196 -187.5t69 -266t-69 -266t-196 -187.5t-288 -68.5h-675zM614 389h164q61 0 102.5 39t41.5 94t-41.5 94t-102.5 39h-164v-266z" />
    <glyph glyph-name="uni042D" unicode="&#x42d;" horiz-adv-x="1536" 
d="M20 236l267 286q40 -43 98 -82q126 -82 260 -82q126 0 211.5 58t116.5 127h-492v348h492q-31 69 -116.5 126.5t-211.5 57.5q-136 0 -254 -82q-60 -43 -94 -82l-266 287q64 76 155 137q202 140 469 140q172 0 323.5 -59.5t257.5 -161.5t167 -241.5t61 -295.5t-61 -295.5
t-167 -241.5t-257.5 -161.5t-323.5 -59.5q-273 0 -475 137q-93 61 -160 140z" />
    <glyph glyph-name="uni042E" unicode="&#x42e;" horiz-adv-x="2304" 
d="M1485 369q119 0 203 96.5t84 251.5t-84 251.5t-203 96.5t-203 -96.5t-84 -251.5t84 -251.5t203 -96.5zM154 0v1434h460v-502h144q27 105 90 201.5t154 173t217 122.5t266 46q159 0 297.5 -57t237.5 -156.5t155.5 -240.5t56.5 -304t-56.5 -304t-155.5 -240.5
t-237.5 -156.5t-297.5 -57q-141 0 -266.5 46t-216.5 124.5t-154 179t-90 213.5h-144v-522h-460z" />
    <glyph glyph-name="uni042F" unicode="&#x42f;" horiz-adv-x="1495" 
d="M41 0l276 512q-64 37 -112 94q-113 131 -113 316q0 142 69 259t194 185t280 68h706v-1434h-460v410h-154l-205 -410h-481zM686 799h195v245h-195q-61 0 -97 -33.5t-36 -88.5t36 -89t97 -34z" />
    <glyph glyph-name="uni0430" unicode="&#x430;" horiz-adv-x="1136" 
d="M614 0v133h-10q-29 -47 -63 -78q-83 -75 -203 -75q-122 0 -209.5 85t-87.5 201q0 241 317 318l267 61q-8 41 -41.5 66.5t-91.5 25.5q-65 0 -132 -47q-36 -28 -53 -45l-205 195q46 52 111 96q148 98 340 98q134 0 243 -57.5t168.5 -151t59.5 -200.5v-625h-410zM625 410v41
l-103 -31q-46 -13 -64 -31.5t-18 -50.5q0 -31 20.5 -51.5t49.5 -20.5q49 0 82 38.5t33 105.5z" />
    <glyph glyph-name="uni0431" unicode="&#x431;" horiz-adv-x="1259" 
d="M952 1536l185 -297q-31 -25 -84 -49q-94 -50 -285 -94q-133 -29 -206 -91t-81 -135q24 22 66 45q90 48 190 48q194 0 327.5 -139.5t133.5 -352.5q0 -137 -69 -251.5t-194 -182.5t-280 -68q-126 0 -233 45.5t-184.5 129.5t-121.5 210.5t-44 280.5q0 166 42 304t116 232
t165.5 154.5t198.5 87.5q143 37 256 82zM502 471q0 -61 41 -102t102 -41t102 41t41 102t-41 102t-102 41t-102 -41t-41 -102z" />
    <glyph glyph-name="uni0432" unicode="&#x432;" horiz-adv-x="1157" 
d="M113 0v1004h553q198 0 298.5 -77t100.5 -200q0 -102 -82 -164q-37 -26 -82 -41q50 -13 103 -47q102 -70 102 -178q0 -130 -107 -213.5t-313 -83.5h-573zM512 246h92q92 0 92 82t-92 82h-92v-164zM512 614h72q37 0 59.5 20.5t22.5 51.5t-22.5 51.5t-59.5 20.5h-72v-144z
" />
    <glyph glyph-name="uni0433" unicode="&#x433;" horiz-adv-x="942" 
d="M113 0v1004h798v-379h-389v-625h-409z" />
    <glyph glyph-name="uni0434" unicode="&#x434;" horiz-adv-x="1228" 
d="M0 -215v573h61q32 35 72 109q72 152 72 332v205h870v-646h123v-573h-410v215h-378v-215h-410zM461 348h205v328h-113q0 -122 -47 -238q-17 -43 -45 -90z" />
    <glyph glyph-name="uni0435" unicode="&#x435;" horiz-adv-x="1208" 
d="M901 358l143 -256q-47 -41 -106 -67q-144 -66 -303 -66q-121 0 -228.5 43t-183 115.5t-119 170.5t-43.5 204t43.5 204t117.5 170t176.5 115t215.5 43q149 0 274.5 -70t197 -185t71.5 -247q0 -54 -10 -92l-10 -30h-666q20 -54 75 -94t140 -40q88 0 158 41q25 13 57 41z
M471 594h277q-8 56 -45 94.5t-89 38.5q-59 0 -97 -38t-46 -95z" />
    <glyph glyph-name="uni0436" unicode="&#x436;" horiz-adv-x="1720" 
d="M-20 0l348 584l-338 420h461l204 -267v267h410v-267l205 267h461l-338 -420l348 -584h-441l-194 348l-41 -51v-297h-410v297l-41 51l-194 -348h-440z" />
    <glyph glyph-name="uni0437" unicode="&#x437;" horiz-adv-x="1003" 
d="M0 174l184 195q32 -36 58 -52q74 -51 157 -51q52 0 77.5 19.5t25.5 52.5t-25.5 52.5t-77.5 19.5h-92v204h92q45 0 69 18.5t24 43.5t-24 43t-69 18q-59 0 -125 -30q-25 -14 -49 -31l-184 194q38 44 104 82q144 82 336 82q211 0 326 -86.5t115 -210.5q0 -112 -113 -180
q-59 -31 -113 -41v-8q67 -14 123 -43q123 -64 123 -189q0 -59 -29.5 -113t-85 -98t-145.5 -70t-201 -26q-202 0 -364 103q-76 50 -117 102z" />
    <glyph glyph-name="uni0438" unicode="&#x438;" 
d="M113 0v1004h409v-400h10l287 400h338v-1004h-409v399h-11l-286 -399h-338z" />
    <glyph glyph-name="uni0439" unicode="&#x439;" 
d="M266 1475h287q0 -93 82 -93t82 93h287q0 -149 -105 -249t-264 -100t-264 100t-105 249zM113 0v1004h409v-400h10l287 400h338v-1004h-409v399h-11l-286 -399h-338z" />
    <glyph glyph-name="uni043A" unicode="&#x43a;" horiz-adv-x="1198" 
d="M113 0v1004h409v-297l236 297h461l-338 -420l348 -584h-441l-194 338l-72 -82v-256h-409z" />
    <glyph glyph-name="uni043B" unicode="&#x43b;" horiz-adv-x="1228" 
d="M0 0v369l18 -7q28 -4 43 -4q38 0 63.5 16.5t47.5 61.5t32.5 135t10.5 228v205h901v-1004h-409v635h-123q0 -144 -20.5 -258t-56 -189.5t-86.5 -125.5t-109.5 -71.5t-127.5 -21.5t-131 15q-8 3 -26 8t-27 8z" />
    <glyph glyph-name="uni043C" unicode="&#x43c;" horiz-adv-x="1433" 
d="M113 0v1004h358l246 -308l246 308h358v-1004h-410v461l-194 -246l-195 246v-461h-409z" />
    <glyph glyph-name="uni043D" unicode="&#x43d;" horiz-adv-x="1259" 
d="M113 0v1004h409v-318h215v318h410v-1004h-410v317h-215v-317h-409z" />
    <glyph glyph-name="uni043E" unicode="&#x43e;" 
d="M481 502q0 -62 46.5 -108t107.5 -46t107 46t46 108t-46 107.5t-107 45.5q-62 0 -108 -46t-46 -107zM61 502q0 142 74 264t206.5 195t293.5 73q159 0 291.5 -73t207 -195t74.5 -264t-74.5 -264.5t-207 -195.5t-291.5 -73q-121 0 -228.5 43t-183 115.5t-119 170.5
t-43.5 204z" />
    <glyph glyph-name="uni043F" unicode="&#x43f;" horiz-adv-x="1259" 
d="M113 0v1004h1034v-1004h-410v635h-215v-635h-409z" />
    <glyph glyph-name="uni0440" unicode="&#x440;" horiz-adv-x="1300" 
d="M676 338q62 0 107.5 48t45.5 116t-45.5 116t-107.5 48t-108 -48t-46 -116t46 -116t108 -48zM113 -430v1434h409v-144h10q21 40 66 82q94 82 221 82q85 0 161 -36t133.5 -101.5t91.5 -165t34 -219.5t-34 -219.5t-91.5 -165t-133.5 -101.5t-161 -36q-128 0 -221 81
q-45 42 -66 82h-10v-573h-409z" />
    <glyph glyph-name="uni0441" unicode="&#x441;" horiz-adv-x="1105" 
d="M850 430l235 -246q-48 -63 -110 -108q-144 -107 -340 -107q-121 0 -228.5 43t-183 115.5t-119 170.5t-43.5 204q0 142 74 264t206.5 195t293.5 73q195 0 340 -108q58 -42 110 -107l-235 -246q-19 22 -49 45q-69 48 -135 48q-84 0 -134.5 -46.5t-50.5 -117.5t50.5 -117.5
t134.5 -46.5q70 0 135 45q31 24 49 47z" />
    <glyph glyph-name="uni0442" unicode="&#x442;" horiz-adv-x="1044" 
d="M317 0v625h-276v379h963v-379h-277v-625h-410z" />
    <glyph glyph-name="uni0443" unicode="&#x443;" horiz-adv-x="1136" 
d="M92 -389v348q14 -7 29 -10q33 -10 74 -10q65 0 99.5 25.5t53.5 76.5l-368 963h440l143 -553h10l144 553h440l-389 -1024q-80 -213 -189 -311.5t-282 -98.5q-67 0 -145 20q-31 8 -60 21z" />
    <glyph glyph-name="uni0444" unicode="&#x444;" horiz-adv-x="1617" 
d="M614 287v409q-65 -8 -109 -62t-44 -142t44 -142.5t109 -62.5zM604 -430v389q-150 16 -275 92t-196.5 192.5t-71.5 248.5t71.5 248.5t196.5 192t275 91.5v410h410v-410q150 -16 274.5 -91.5t196 -192t71.5 -248.5t-71.5 -248.5t-196 -192.5t-274.5 -92v-389h-410z
M1004 696v-409q65 8 109 62.5t44 142.5t-44 142t-109 62z" />
    <glyph glyph-name="uni0445" unicode="&#x445;" horiz-adv-x="1105" 
d="M-20 0l296 512l-286 492h440l119 -287h8l119 287h440l-287 -492l297 -512h-440l-129 307h-8l-129 -307h-440z" />
    <glyph glyph-name="uni0446" unicode="&#x446;" horiz-adv-x="1259" 
d="M113 0v1004h409v-646h174v646h410v-635h123v-584h-410v215h-706z" />
    <glyph glyph-name="uni0447" unicode="&#x447;" horiz-adv-x="1187" 
d="M666 0v274q-28 -16 -60 -24q-70 -25 -145 -25q-163 0 -266 110.5t-103 299.5v369h410v-328q0 -92 82 -92q37 0 59 14q3 2 11.5 7.5t11.5 8.5v390h409v-1004h-409z" />
    <glyph glyph-name="uni0448" unicode="&#x448;" horiz-adv-x="1730" 
d="M113 0v1004h409v-646h144v646h399v-646h143v646h410v-1004h-1505z" />
    <glyph glyph-name="uni0449" unicode="&#x449;" horiz-adv-x="1771" 
d="M113 0v1004h409v-646h144v646h399v-646h143v646h410v-635h123v-584h-410v215h-1218z" />
    <glyph glyph-name="uni044A" unicode="&#x44a;" horiz-adv-x="1208" 
d="M225 0v625h-205v379h615v-287h102q195 0 312.5 -104t117.5 -255t-117.5 -254.5t-312.5 -103.5h-512zM614 266h52q46 0 74 26.5t28 65.5t-28 66t-74 27h-52v-185z" />
    <glyph glyph-name="uni044B" unicode="&#x44b;" horiz-adv-x="1669" 
d="M1147 0v1004h409v-1004h-409zM502 266h51q46 0 74 26.5t28 65.5t-28 66t-74 27h-51v-185zM113 0v1004h409v-287h103q195 0 312.5 -104t117.5 -255t-117.5 -254.5t-312.5 -103.5h-512z" />
    <glyph glyph-name="uni044C" unicode="&#x44c;" horiz-adv-x="1116" 
d="M502 266h71q46 0 74.5 26.5t28.5 65.5t-28.5 66t-74.5 27h-71v-185zM113 0v1004h409v-287h123q195 0 312.5 -104t117.5 -255t-117.5 -254.5t-312.5 -103.5h-532z" />
    <glyph glyph-name="uni044D" unicode="&#x44d;" horiz-adv-x="1105" 
d="M20 184l185 195q22 -31 59 -57q70 -56 166 -56q94 0 160 62q33 33 45 61h-307v225h307q-13 30 -45 62q-65 61 -160 61q-94 0 -166 -57q-34 -24 -59 -55l-185 194q50 63 111 107q145 108 340 108q159 0 291.5 -73t207 -195t74.5 -264t-74.5 -264.5t-207 -195.5t-291.5 -73
q-196 0 -340 107q-65 46 -111 108z" />
    <glyph glyph-name="uni044E" unicode="&#x44e;" horiz-adv-x="1740" 
d="M113 0v1004h409v-328h82q23 72 67 135t108 113.5t153.5 80t193.5 29.5q236 0 394.5 -154t158.5 -378q0 -147 -71.5 -269t-198.5 -193t-283 -71q-104 0 -193.5 29.5t-153.5 80.5t-108 114t-67 135h-82v-328h-409zM1126 338q62 0 108 48t46 116t-46 116t-108 48t-107.5 -48
t-45.5 -116t45.5 -116t107.5 -48z" />
    <glyph glyph-name="uni044F" unicode="&#x44f;" horiz-adv-x="1167" 
d="M41 0l215 358q-37 22 -82 70q-82 94 -82 217q0 151 117.5 255t312.5 104h533v-1004h-410v266h-51l-133 -266h-420zM594 543h72v184h-72q-46 0 -74 -26.5t-28 -65.5t28 -65.5t74 -26.5z" />
    <glyph glyph-name="uni0450" unicode="&#x450;" horiz-adv-x="1208" 
d="M901 358l143 -256q-47 -41 -106 -67q-144 -66 -303 -66q-121 0 -228.5 43t-183 115.5t-119 170.5t-43.5 204t43.5 204t117.5 170t176.5 115t215.5 43q149 0 274.5 -70t197 -185t71.5 -247q0 -54 -10 -92l-10 -30h-666q20 -54 75 -94t140 -40q88 0 158 41q25 13 57 41z
M471 594h277q-8 56 -45 94.5t-89 38.5q-59 0 -97 -38t-46 -95zM430 1126l-256 349h430l184 -349h-358z" />
    <glyph glyph-name="uni0451" unicode="&#x451;" horiz-adv-x="1208" 
d="M901 358l143 -256q-47 -41 -106 -67q-144 -66 -303 -66q-121 0 -228.5 43t-183 115.5t-119 170.5t-43.5 204t43.5 204t117.5 170t176.5 115t215.5 43q149 0 274.5 -70t197 -185t71.5 -247q0 -54 -10 -92l-10 -30h-666q20 -54 75 -94t140 -40q88 0 158 41q25 13 57 41z
M471 594h277q-8 56 -45 94.5t-89 38.5q-59 0 -97 -38t-46 -95zM358 1495q80 0 137.5 -55.5t57.5 -139.5t-57.5 -139t-137.5 -55t-137 55t-57 139t57 139.5t137 55.5zM655 1300q0 84 57.5 139.5t137.5 55.5t137 -55.5t57 -139.5t-57 -139t-137 -55t-137.5 55t-57.5 139z" />
    <glyph glyph-name="uni0452" unicode="&#x452;" horiz-adv-x="1259" 
d="M143 0v1126h-143v123h143v185h410v-185h195v-123h-195v-286h10q26 45 66 82q94 82 211 82q146 0 247 -127.5t101 -354.5q0 -277 -128.5 -425t-342.5 -148h-62v389q55 0 89 37.5t34 105.5q0 60 -32 96.5t-80 36.5t-80.5 -36.5t-32.5 -96.5v-481h-410z" />
    <glyph glyph-name="uni0453" unicode="&#x453;" horiz-adv-x="962" 
d="M317 1126l185 349h430l-256 -349h-359zM113 0v1004h798v-379h-389v-625h-409z" />
    <glyph glyph-name="uni0454" unicode="&#x454;" horiz-adv-x="1105" 
d="M471 614h307v-225h-307q12 -28 45 -61q66 -62 160 -62q96 0 166 56q37 26 59 57l184 -195q-48 -63 -110 -108q-144 -107 -340 -107q-121 0 -228.5 43t-183 115.5t-119 170.5t-43.5 204q0 142 74 264t206.5 195t293.5 73q195 0 340 -108q58 -42 110 -107l-184 -194
q-25 31 -59 55q-72 57 -166 57q-95 0 -160 -61q-32 -32 -45 -62z" />
    <glyph glyph-name="uni0455" unicode="&#x455;" horiz-adv-x="1003" 
d="M20 174l185 195q20 -23 55 -47q70 -46 139 -46q72 0 72 41q0 20 -29.5 41t-74 39t-96 46.5t-96 62t-74 88.5t-29.5 123q0 131 117.5 224t322.5 93q181 0 332 -88q66 -39 108 -86l-184 -194q-8 8 -39 30q-55 31 -94 31q-72 0 -72 -41q0 -18 22 -35t57.5 -33.5t78 -35.5
t85 -46t78 -60t57.5 -82t22 -107q0 -63 -29.5 -119.5t-85 -101t-145.5 -71t-201 -26.5q-199 0 -361 103q-72 48 -121 102z" />
    <glyph glyph-name="uni0456" unicode="&#x456;" horiz-adv-x="655" 
d="M123 0v1004h409v-1004h-409zM102 1300q0 87 63.5 146t162.5 59t162 -59t63 -146t-63 -145.5t-162 -58.5t-162.5 58.5t-63.5 145.5z" />
    <glyph glyph-name="uni0457" unicode="&#x457;" horiz-adv-x="655" 
d="M82 1495q80 0 137 -55.5t57 -139.5t-57 -139t-137 -55t-137.5 55t-57.5 139t57.5 139.5t137.5 55.5zM379 1300q0 84 57 139.5t137 55.5t137.5 -55.5t57.5 -139.5t-57.5 -139t-137.5 -55t-137 55t-57 139zM123 0v1004h409v-1004h-409z" />
    <glyph glyph-name="uni0458" unicode="&#x458;" horiz-adv-x="655" 
d="M-82 -399v368q15 -8 27 -10q30 -10 65 -10q113 0 113 123v932h409v-1014q0 -199 -104.5 -309.5t-284.5 -110.5q-93 0 -161 14q-60 16 -64 17zM106 1300q0 88 62 146.5t160 58.5q99 0 162 -59t63 -146t-63 -145.5t-162 -58.5q-98 0 -160 58t-62 146z" />
    <glyph glyph-name="uni0459" unicode="&#x459;" horiz-adv-x="1679" 
d="M1085 266h52q46 0 74 26.5t28 65.5t-28 66t-74 27h-52v-185zM0 0v369l18 -7q28 -4 43 -4q38 0 63.5 16.5t47.5 61.5t32.5 135t10.5 228v205h891v-287h102q195 0 312.5 -104t117.5 -255t-117.5 -254.5t-312.5 -103.5h-512v635h-112q0 -144 -20.5 -258t-56 -189.5
t-86.5 -125.5t-109.5 -71.5t-127.5 -21.5t-131 15q-8 3 -26 8t-27 8z" />
    <glyph glyph-name="uni045A" unicode="&#x45a;" horiz-adv-x="1689" 
d="M113 0v1004h409v-287h185v287h409v-287h103q195 0 312.5 -104t117.5 -255t-117.5 -254.5t-312.5 -103.5h-512v358h-185v-358h-409zM1096 266h51q46 0 74 26.5t28 65.5t-28 66t-74 27h-51v-185z" />
    <glyph glyph-name="uni045B" unicode="&#x45b;" horiz-adv-x="1300" 
d="M143 0v1126h-143v123h143v185h410v-185h195v-123h-195v-286h10q26 45 66 82q94 82 211 82q159 0 253.5 -108t94.5 -312v-584h-410v492q0 53 -32 87.5t-80 34.5t-80.5 -36.5t-32.5 -96.5v-481h-410z" />
    <glyph glyph-name="uni045C" unicode="&#x45c;" horiz-adv-x="1198" 
d="M440 1126l185 349h430l-256 -349h-359zM113 0v1004h409v-297l236 297h461l-338 -420l348 -584h-441l-194 338l-72 -82v-256h-409z" />
    <glyph glyph-name="uni045D" unicode="&#x45d;" 
d="M461 1126l-256 349h430l184 -349h-358zM113 0v1004h409v-400h10l287 400h338v-1004h-409v399h-11l-286 -399h-338z" />
    <glyph glyph-name="uni045E" unicode="&#x45e;" horiz-adv-x="1136" 
d="M92 -389v348q14 -7 29 -10q33 -10 74 -10q65 0 99.5 25.5t53.5 76.5l-368 963h440l143 -553h10l144 553h440l-389 -1024q-80 -213 -189 -311.5t-282 -98.5q-67 0 -145 20q-31 8 -60 21zM195 1475h286q0 -93 82 -93t82 93h287q0 -149 -105 -249t-264 -100t-263.5 100
t-104.5 249z" />
    <glyph glyph-name="uni045F" unicode="&#x45f;" horiz-adv-x="1259" 
d="M113 0v1004h409v-635h215v635h410v-1004h-318v-215h-399v215h-317z" />
    <glyph glyph-name="uni0462" unicode="&#x462;" horiz-adv-x="1505" 
d="M225 0v1167h-235v123h235v144h461v-144h379v-123h-379v-123h215q161 0 288 -68.5t196 -187.5t69 -266t-69 -266t-196 -187.5t-288 -68.5h-676zM686 389h164q61 0 102 39t41 94t-41 94t-102 39h-164v-266z" />
    <glyph glyph-name="uni0463" unicode="&#x463;" horiz-adv-x="1198" 
d="M195 0v881h-195v123h195v430h409v-430h256v-123h-256v-164h123q195 0 312.5 -104t117.5 -255t-117.5 -254.5t-312.5 -103.5h-532zM584 266h71q46 0 74.5 26.5t28.5 65.5t-28.5 66t-74.5 27h-71v-185z" />
    <glyph glyph-name="uni046A" unicode="&#x46a;" horiz-adv-x="1894" 
d="M92 0v276q0 432 389 574l-368 328v256h1669v-256l-369 -328q389 -142 389 -574v-276h-450v276q0 98 -52.5 157t-132.5 59v-492h-440v492q-80 0 -132 -59t-52 -157v-276h-451zM717 1116l225 -205h10l226 205h-461z" />
    <glyph glyph-name="uni046B" unicode="&#x46b;" horiz-adv-x="1546" 
d="M61 0v51q0 204 87 320t251 172l-276 266v195h1300v-195l-276 -266q164 -58 251 -173t87 -319v-51h-379v82q0 88 -39 137t-104 57v-276h-379v276q-65 -8 -104.5 -57t-39.5 -137v-82h-379zM573 768l195 -184h10l195 184h-400z" />
    <glyph glyph-name="uni0472" unicode="&#x472;" horiz-adv-x="1761" 
d="M532 768q96 41 185 41q68 0 173 -30.5t165 -30.5q74 0 164 40q-26 122 -114.5 199.5t-223.5 77.5q-136 0 -226.5 -81t-122.5 -216zM72 717q0 156 61 295.5t167 241.5t257.5 161.5t323.5 59.5t323.5 -59.5t257.5 -161.5t167 -241.5t61 -295.5t-61 -295.5t-167 -241.5
t-257.5 -161.5t-323.5 -59.5t-323.5 59.5t-257.5 161.5t-167 241.5t-61 295.5zM543 645q26 -122 114.5 -199t223.5 -77t225.5 81t122.5 216q-96 -41 -185 -41q-67 0 -172.5 30.5t-164.5 30.5q-72 0 -164 -41z" />
    <glyph glyph-name="uni0473" unicode="&#x473;" 
d="M809 573q-19 52 -64 87.5t-110 35.5q-66 0 -111 -39t-63 -104l26 14q34 17 66 17q37 0 91 -20.5t83 -20.5q52 0 82 30zM61 502q0 142 74 264t206.5 195t293.5 73q159 0 291.5 -73t207 -195t74.5 -264t-74.5 -264.5t-207 -195.5t-291.5 -73q-121 0 -228.5 43t-183 115.5
t-119 170.5t-43.5 204zM461 430q19 -52 64 -87.5t110 -35.5q66 0 111 39.5t63 104.5l-27 -17q-25 -14 -65 -14q-37 0 -91 20.5t-83 20.5q-51 0 -82 -31z" />
    <glyph glyph-name="uni0474" unicode="&#x474;" horiz-adv-x="1536" 
d="M471 0l-491 1434h491l256 -973h10l154 604q46 190 170 300t311 110q81 0 176 -31l70 -31l-113 -399q-10 2 -26 10q-27 10 -56 10q-47 0 -75 -25.5t-48 -86.5l-307 -922h-522z" />
    <glyph glyph-name="uni0475" unicode="&#x475;" horiz-adv-x="1198" 
d="M348 0l-368 1004h440l143 -553h10l62 235q86 338 389 338q81 0 172 -31q36 -14 64 -30l-93 -287q-2 1 -16 10q-17 10 -45 10q-37 0 -60.5 -22t-41.5 -70l-216 -604h-440z" />
    <glyph glyph-name="uni048A" unicode="&#x48a;" horiz-adv-x="1730" 
d="M154 0v1434h460v-707l543 707h389v-1024h205v-62l-195 -624h-337l51 276h-185v707l-542 -707h-389zM461 1956h287q0 -54 27 -83.5t75 -29.5t75 29.5t27 83.5h287q0 -155 -111 -262t-278 -107t-278 107t-111 262z" />
    <glyph glyph-name="uni048B" unicode="&#x48b;" horiz-adv-x="1300" 
d="M113 0v1004h409v-400h10l287 400h338v-646h154v-61l-164 -512h-328l41 215h-112v399h-11l-286 -399h-338zM266 1475h287q0 -93 82 -93t82 93h287q0 -149 -105 -249t-264 -100t-264 100t-105 249z" />
    <glyph glyph-name="uni048C" unicode="&#x48c;" horiz-adv-x="1505" 
d="M225 0v1167h-235v123h235v144h461v-144h379v-123h-379v-123h215q161 0 288 -68.5t196 -187.5t69 -266t-69 -266t-196 -187.5t-288 -68.5h-676zM686 389h164q61 0 102 39t41 94t-41 94t-102 39h-164v-266z" />
    <glyph glyph-name="uni048D" unicode="&#x48d;" horiz-adv-x="1198" 
d="M195 0v881h-195v123h195v430h409v-430h256v-123h-256v-164h123q195 0 312.5 -104t117.5 -255t-117.5 -254.5t-312.5 -103.5h-532zM584 266h71q46 0 74.5 26.5t28.5 65.5t-28.5 66t-74.5 27h-71v-185z" />
    <glyph glyph-name="uni048E" unicode="&#x48e;" horiz-adv-x="1443" 
d="M154 0v1434h675q121 0 224.5 -40t175.5 -110t112.5 -166.5t40.5 -206.5q0 -209 -139 -348q-57 -60 -137 -102l102 -154l-102 -71l-113 174q-32 -9 -47 -11q-52 -10 -117 -10h-215v-389h-460zM614 778h144l-51 72l102 72l72 -103q11 8 20 23q21 29 21 69q0 55 -41.5 94
t-102.5 39h-164v-266z" />
    <glyph glyph-name="uni048F" unicode="&#x48f;" horiz-adv-x="1310" 
d="M113 -430v1434h409v-144h10q21 40 66 82q94 82 221 82q85 0 161 -36t133.5 -101.5t91.5 -165t34 -219.5q0 -186 -78 -322q-32 -54 -76 -98l103 -154l-113 -71l-102 153q-8 -3 -24 -8t-23 -8q-54 -14 -107 -14q-128 0 -221 81q-45 42 -66 82h-10v-573h-409zM707 338
l-62 82l113 72l51 -72l10 22q10 23 10 60q0 68 -45.5 116t-107.5 48t-108 -48t-46 -116t46 -116t108 -48h31z" />
    <glyph glyph-name="uni0490" unicode="&#x490;" horiz-adv-x="1239" 
d="M154 0v1434h594v256h460v-676h-594v-1014h-460z" />
    <glyph glyph-name="uni0491" unicode="&#x491;" horiz-adv-x="942" 
d="M113 0v1004h389v194h409v-573h-389v-625h-409z" />
    <glyph glyph-name="uni0492" unicode="&#x492;" horiz-adv-x="1259" 
d="M164 0v614h-164v123h164v697h1055v-420h-594v-277h338v-123h-338v-614h-461z" />
    <glyph glyph-name="uni0493" unicode="&#x493;" horiz-adv-x="962" 
d="M133 0v348h-133v123h133v533h799v-359h-389v-174h235v-123h-235v-348h-410z" />
    <glyph glyph-name="uni0494" unicode="&#x494;" horiz-adv-x="1443" 
d="M154 0v1434h1054v-410h-594v-225q26 14 66 24q83 27 190 27q241 0 387 -155.5t146 -428.5q0 -288 -178 -456t-498 -168v430q92 0 148.5 54t56.5 140q0 78 -48 126t-126 48q-57 0 -103 -26q-23 -10 -41 -25v-389h-460z" />
    <glyph glyph-name="uni0495" unicode="&#x495;" horiz-adv-x="1187" 
d="M113 0v1004h798v-349h-389v-153q13 7 51 20q69 21 144 21q202 0 326 -131t124 -351q0 -249 -149.5 -390.5t-423.5 -141.5v369q77 0 120.5 41.5t43.5 111.5q0 54 -39.5 93.5t-93.5 39.5q-46 0 -78 -20q-17 -10 -25 -21v-143h-409z" />
    <glyph glyph-name="uni0496" unicode="&#x496;" horiz-adv-x="2263" 
d="M-41 0l533 840l-492 594h510l371 -461v461h460v-461l371 461h510l-491 -594l266 -420h287v-696h-461v276h-72l-317 512l-93 -113v-399h-460v399l-93 113l-317 -512h-512z" />
    <glyph glyph-name="uni0497" unicode="&#x497;" horiz-adv-x="1771" 
d="M-20 0l348 584l-338 420h461l204 -267v267h410v-267l205 267h461l-338 -420l133 -226h246v-573h-410v215h-62l-194 348l-41 -51v-297h-410v297l-41 51l-194 -348h-440z" />
    <glyph glyph-name="uni0498" unicode="&#x498;" 
d="M369 -276v266q-153 39 -277 131q-57 44 -92 84l256 276q39 -42 82 -67q102 -66 205 -66q75 0 114 31.5t39 81.5t-39 81t-114 31h-164v308h143q68 0 106 27t38 75t-38 75t-106 27q-73 0 -153 -51q-28 -17 -62 -51l-256 277q59 62 137 106q182 109 416 109q130 0 238.5 -35
t178 -93t108 -131t38.5 -151q0 -148 -129 -244q-49 -36 -127 -59v-8q79 -20 148 -70q149 -111 149 -285q0 -144 -107.5 -258t-271.5 -151v-266h-460z" />
    <glyph glyph-name="uni0499" unicode="&#x499;" horiz-adv-x="1003" 
d="M287 -215v215q-127 33 -215 106q-50 42 -72 68l184 195q32 -36 58 -52q74 -51 157 -51q52 0 77.5 19.5t25.5 52.5t-25.5 52.5t-77.5 19.5h-92v204h92q45 0 69 18.5t24 43.5t-24 43t-69 18q-59 0 -125 -30q-25 -14 -49 -31l-184 194q38 44 104 82q144 82 336 82
q211 0 326 -86.5t115 -210.5q0 -112 -113 -180q-59 -31 -113 -41v-8q67 -14 123 -43q123 -64 123 -189q0 -98 -67.5 -171.5t-178.5 -104.5v-215h-409z" />
    <glyph glyph-name="uni049A" unicode="&#x49a;" horiz-adv-x="1566" 
d="M154 0v1434h460v-492l400 492h512l-482 -594l267 -430h276v-686h-461v276h-82l-307 492l-123 -144v-348h-460z" />
    <glyph glyph-name="uni049B" unicode="&#x49b;" horiz-adv-x="1249" 
d="M113 0v1004h409v-297l236 297h461l-338 -420l133 -226h235v-573h-409v215h-52l-194 338l-72 -82v-256h-409z" />
    <glyph glyph-name="uni049C" unicode="&#x49c;" horiz-adv-x="1617" 
d="M154 0v1434h460v-523h82v226h123v-226h21l297 523h491l-399 -676l430 -758h-492l-317 573h-31v-256h-123v256h-82v-573h-460z" />
    <glyph glyph-name="uni049D" unicode="&#x49d;" horiz-adv-x="1361" 
d="M113 0v1004h409v-338h51v194h123v-194h31l215 338h430l-328 -502l349 -502h-430l-236 348h-31v-205h-123v205h-51v-348h-409z" />
    <glyph glyph-name="uni049E" unicode="&#x49e;" horiz-adv-x="1536" 
d="M164 0v1188h-164v123h164v123h461v-123h143v-123h-143v-246l399 492h512l-481 -594l522 -840h-522l-307 492l-123 -144v-348h-461z" />
    <glyph glyph-name="uni049F" unicode="&#x49f;" horiz-adv-x="1228" 
d="M143 0v1137h-143v123h143v174h410v-174h184v-123h-184v-430l235 297h461l-338 -420l349 -584h-441l-194 338l-72 -82v-256h-410z" />
    <glyph glyph-name="uni04A0" unicode="&#x4a0;" horiz-adv-x="1669" 
d="M297 0v1024h-297v410h758v-492l399 492h512l-481 -594l522 -840h-522l-307 492l-123 -144v-348h-461z" />
    <glyph glyph-name="uni04A1" unicode="&#x4a1;" horiz-adv-x="1280" 
d="M195 0v625h-175v379h584v-297l236 297h460l-337 -420l348 -584h-441l-194 338l-72 -82v-256h-409z" />
    <glyph glyph-name="uni04A2" unicode="&#x4a2;" horiz-adv-x="1689" 
d="M154 0v1434h460v-502h430v502h461v-1024h154v-686h-461v276h-154v522h-430v-522h-460z" />
    <glyph glyph-name="uni04A3" unicode="&#x4a3;" horiz-adv-x="1290" 
d="M113 0v1004h409v-318h215v318h410v-646h123v-573h-410v215h-123v317h-215v-317h-409z" />
    <glyph glyph-name="uni04A4" unicode="&#x4a4;" horiz-adv-x="2007" 
d="M154 0v1434h460v-502h390v502h962v-420h-502v-1014h-460v522h-390v-522h-460z" />
    <glyph glyph-name="uni04A5" unicode="&#x4a5;" horiz-adv-x="1525" 
d="M113 0v1004h409v-318h215v318h758v-379h-348v-625h-410v317h-215v-317h-409z" />
    <glyph glyph-name="uni04A6" unicode="&#x4a6;" horiz-adv-x="2324" 
d="M154 0v1434h1341v-635q26 14 66 24q83 27 190 27q241 0 387 -155.5t146 -428.5q0 -287 -178 -455.5t-498 -168.5v430q92 0 148 53.5t56 140.5q0 78 -48 126t-126 48q-56 0 -102 -26q-23 -10 -41 -25v-389h-461v1014h-420v-1014h-460z" />
    <glyph glyph-name="uni04A7" unicode="&#x4a7;" horiz-adv-x="1812" 
d="M113 0v1004h1034v-502q13 7 51 20q69 21 143 21q202 0 326.5 -131t124.5 -351q0 -249 -149.5 -390.5t-423.5 -141.5v369q77 0 120 41.5t43 111.5q0 54 -39.5 93.5t-93.5 39.5q-46 0 -78 -20q-15 -9 -24 -21v-143h-410v635h-215v-635h-409z" />
    <glyph glyph-name="uni04A8" unicode="&#x4a8;" horiz-adv-x="2027" 
d="M1260 451q32 25 61 75q61 108 61 252q0 94 -35.5 144.5t-86.5 50.5t-87 -50.5t-36 -144.5q0 -144 61 -252q28 -49 62 -75zM829 358l11 11q-45 45 -78 104q-76 140 -76 305q0 276 156.5 440t417.5 164t417 -164t156 -440q0 -161 -78 -305q-32 -56 -76 -104l11 -11
q88 17 155 68q18 14 49 45l256 -328q-53 -47 -137 -92q-172 -92 -375 -92q-161 0 -284 45q-54 21 -94 47q-45 -26 -103 -47q-133 -45 -287 -45q-175 0 -326 60.5t-257 165.5t-166 251t-60 312q0 294 180 488t476 239v-390q-74 -21 -134.5 -108.5t-60.5 -228.5
q0 -163 85 -263.5t222 -126.5z" />
    <glyph glyph-name="uni04A9" unicode="&#x4a9;" horiz-adv-x="1730" 
d="M614 276l11 11q-27 45 -37 69q-35 84 -35 176q0 204 126 322.5t355 118.5t355.5 -118.5t126.5 -322.5q0 -88 -37 -176q-3 -8 -35 -69l10 -11q50 11 133 54q35 22 41 28l195 -245q-49 -43 -117 -78q-148 -76 -334 -76q-147 0 -254 35q-44 13 -84 37q-38 -23 -84 -37
q-111 -35 -254 -35q-150 0 -273 43t-204 118.5t-124.5 177t-43.5 218.5q0 130 67.5 242.5t185 183.5t259.5 82v-307q-39 -9 -75.5 -65t-36.5 -140q0 -121 81 -190q41 -33 82 -46zM1034 338q12 17 31 51q31 73 31 143q0 57 -18 85t-44 28t-43.5 -28t-17.5 -85q0 -79 31 -143
q15 -33 30 -51z" />
    <glyph glyph-name="uni04AA" unicode="&#x4aa;" horiz-adv-x="1536" 
d="M625 -276v276q-106 22 -204.5 84.5t-176.5 153.5t-125 216.5t-47 262.5q0 156 61 295.5t167 241.5t257.5 161.5t323.5 59.5q267 0 469 -140q91 -61 155 -137l-276 -297q-36 45 -88 82q-114 82 -250 82q-153 0 -256 -100t-103 -248t103 -248t256 -100q136 0 254 82
q62 44 94 81l277 -296q-48 -54 -109 -101q-148 -113 -322 -155v-256h-460z" />
    <glyph glyph-name="uni04AB" unicode="&#x4ab;" horiz-adv-x="1105" 
d="M420 -215v225q-143 40 -251 175.5t-108 316.5q0 142 74 264t206.5 195t293.5 73q195 0 340 -108q58 -42 110 -107l-235 -246q-19 22 -49 45q-69 48 -135 48q-84 0 -134.5 -46.5t-50.5 -117.5t50.5 -117.5t134.5 -46.5q70 0 135 45q31 24 49 47l235 -246q-31 -39 -63 -69
q-85 -77 -193 -115v-215h-409z" />
    <glyph glyph-name="uni04AC" unicode="&#x4ac;" horiz-adv-x="1300" 
d="M573 -276v276h-153v1014h-379v420h1219v-420h-379v-604h153v-686h-461z" />
    <glyph glyph-name="uni04AD" unicode="&#x4ad;" horiz-adv-x="1044" 
d="M440 -215v215h-123v625h-276v379h963v-379h-277v-267h123v-573h-410z" />
    <glyph glyph-name="uni04AE" unicode="&#x4ae;" horiz-adv-x="1423" 
d="M481 0v512l-512 922h502l236 -543h10l235 543h502l-512 -922v-512h-461z" />
    <glyph glyph-name="uni04AF" unicode="&#x4af;" horiz-adv-x="1126" 
d="M358 -430v420l-378 1014h430l149 -553h8l150 553h430l-379 -1014v-420h-410z" />
    <glyph glyph-name="uni04B0" unicode="&#x4b0;" horiz-adv-x="1423" 
d="M481 0v399h-266v123h266l-512 912h502l236 -543h10l235 543h502l-512 -912h266v-123h-266v-399h-461z" />
    <glyph glyph-name="uni04B1" unicode="&#x4b1;" horiz-adv-x="1126" 
d="M358 -430v287h-194v123h194v10l-378 1014h430l149 -553h8l150 553h430l-379 -1014v-10h195v-123h-195v-287h-410z" />
    <glyph glyph-name="uni04B2" unicode="&#x4b2;" horiz-adv-x="1474" 
d="M-20 0l440 748l-400 686h502l195 -420h10l195 420h501l-399 -686l195 -338h276v-686h-461v276h-71l-236 481h-10l-236 -481h-501z" />
    <glyph glyph-name="uni04B3" unicode="&#x4b3;" horiz-adv-x="1157" 
d="M-20 0l296 512l-286 492h440l119 -287h8l119 287h440l-287 -492l93 -154h235v-573h-409v215h-62l-129 307h-8l-129 -307h-440z" />
    <glyph glyph-name="uni04B4" unicode="&#x4b4;" horiz-adv-x="1904" 
d="M399 0v1014h-358v420h1106v-420h-287v-594h400v1014h460v-1014h154v-696h-461v276h-1014z" />
    <glyph glyph-name="uni04B5" unicode="&#x4b5;" horiz-adv-x="1525" 
d="M307 0v625h-266v379h809v-379h-143v-256h256v635h409v-635h123v-584h-410v215h-778z" />
    <glyph glyph-name="uni04B6" unicode="&#x4b6;" horiz-adv-x="1587" 
d="M1106 -276v276h-154v440q-44 -19 -75 -26q-84 -25 -191 -25q-256 0 -404.5 157t-148.5 437v451h461v-441q0 -92 48.5 -143t135.5 -51q72 0 125 24q21 7 49 27v584h461v-1024h154v-686h-461z" />
    <glyph glyph-name="uni04B7" unicode="&#x4b7;" horiz-adv-x="1218" 
d="M788 -215v215h-122v274q-28 -16 -60 -24q-70 -25 -145 -25q-163 0 -266 110.5t-103 299.5v369h410v-328q0 -92 82 -92q37 0 59 14q3 2 11.5 7.5t11.5 8.5v390h409v-646h123v-573h-410z" />
    <glyph glyph-name="uni04B8" unicode="&#x4b8;" horiz-adv-x="1566" 
d="M707 205v184h-21q-256 0 -404.5 157t-148.5 437v451h461v-441q0 -143 113 -184v215h122v-225q60 10 89 28q11 5 34 23v584h461v-1434h-461v440q-8 -5 -34 -16q-55 -19 -89 -25v-194h-122z" />
    <glyph glyph-name="uni04B9" unicode="&#x4b9;" horiz-adv-x="1187" 
d="M451 102v123q-165 8 -262 115t-97 295v369h410v-328q0 -92 82 -92q37 0 59 14q3 2 11.5 7.5t11.5 8.5v390h409v-1004h-409v276l-27 -16q-31 -16 -66 -24v-134h-122z" />
    <glyph glyph-name="uni04BA" unicode="&#x4ba;" horiz-adv-x="1536" 
d="M154 0v1434h460v-441q38 17 76 25q87 26 191 26q256 0 404.5 -156.5t148.5 -436.5v-451h-461v440q0 92 -49 143.5t-136 51.5q-64 0 -124 -27q-31 -10 -50 -24v-584h-460z" />
    <glyph glyph-name="uni04BB" unicode="&#x4bb;" horiz-adv-x="1280" 
d="M123 0v1434h409v-574h11q27 47 65 82q94 82 211 82q159 0 253.5 -108t94.5 -312v-604h-409v512q0 53 -32.5 88t-80.5 35t-80.5 -36.5t-32.5 -96.5v-502h-409z" />
    <glyph glyph-name="uni04BC" unicode="&#x4bc;" horiz-adv-x="2017" 
d="M406 604h-17q-201 0 -300 81t-99 226q0 59 20 121q11 25 21 43h317q-7 -18 -10 -37q-10 -42 -10 -86q0 -102 82 -102q45 273 257 449t511 176q166 0 311 -58.5t247.5 -159t161 -241t58.5 -299.5q0 -11 -6 -80l-4 -33h-1076q27 -100 112.5 -167.5t215.5 -67.5
q126 0 238 61q43 22 90 62l256 -318q-68 -62 -156 -108q-195 -107 -438 -107q-311 0 -525.5 180t-256.5 465zM870 850h615q-28 86 -109.5 150.5t-197.5 64.5t-198 -64.5t-110 -150.5z" />
    <glyph glyph-name="uni04BD" unicode="&#x4bd;" horiz-adv-x="1413" 
d="M0 717h215v-51q0 -72 61 -72q30 184 179.5 312t363.5 128q149 0 274.5 -70t197 -185t71.5 -247q0 -54 -10 -92l-11 -30h-665q20 -54 75 -94t140 -40q88 0 158 41q25 13 57 41l143 -256q-47 -41 -106 -67q-144 -66 -303 -66q-116 0 -217.5 37t-172.5 99t-116.5 141
t-57.5 164q-144 0 -215 61.5t-71 173.5q0 23 4 51zM676 594h276q-8 56 -44.5 94.5t-88.5 38.5q-59 0 -97 -38t-46 -95z" />
    <glyph glyph-name="uni04BE" unicode="&#x4be;" horiz-adv-x="2017" 
d="M942 -276v266q-222 69 -361.5 229.5t-174.5 384.5h-17q-201 0 -300 81t-99 226q0 59 20 121q11 25 21 43h317q-7 -18 -10 -37q-10 -42 -10 -86q0 -102 82 -102q45 273 257 449t511 176q166 0 311 -58.5t247.5 -159t161 -241t58.5 -299.5q0 -11 -6 -80l-4 -33h-1076
q27 -100 112.5 -167.5t215.5 -67.5q126 0 238 61q43 22 90 62l256 -318q-38 -33 -99 -74q-114 -74 -280 -116v-260h-461zM870 850h615q-28 86 -109.5 150.5t-197.5 64.5t-198 -64.5t-110 -150.5z" />
    <glyph glyph-name="uni04BF" unicode="&#x4bf;" horiz-adv-x="1413" 
d="M604 -215v225q-123 48 -213.5 153.5t-114.5 246.5q-144 0 -215 61.5t-71 173.5q0 23 4 51l6 21h215v-51q0 -72 61 -72q30 184 179.5 312t363.5 128q149 0 274.5 -70t197 -185t71.5 -247q0 -54 -10 -92l-11 -30h-665q20 -54 75 -94t140 -40q88 0 158 41q25 13 57 41
l143 -256q-19 -17 -59 -41q-62 -36 -176 -71v-205h-410zM676 594h276q-8 56 -44.5 94.5t-88.5 38.5q-59 0 -97 -38t-46 -95z" />
    <glyph glyph-name="uni04C0" unicode="&#x4c0;" horiz-adv-x="768" 
d="M154 0v1434h460v-1434h-460z" />
    <glyph glyph-name="uni04C1" unicode="&#x4c1;" horiz-adv-x="2222" 
d="M-41 0l533 840l-492 594h510l371 -461v461h460v-461l371 461h510l-491 -594l532 -840h-512l-317 512l-93 -113v-399h-460v399l-93 113l-317 -512h-512zM717 1956h287q0 -54 27 -83.5t75 -29.5t75 29.5t27 83.5h287q0 -155 -111 -262t-278 -107t-278 107t-111 262z" />
    <glyph glyph-name="uni04C2" unicode="&#x4c2;" horiz-adv-x="1720" 
d="M-20 0l348 584l-338 420h461l204 -267v267h410v-267l205 267h461l-338 -420l348 -584h-441l-194 348l-41 -51v-297h-410v297l-41 51l-194 -348h-440zM492 1475h286q0 -93 82 -93t82 93h287q0 -149 -105 -249t-264 -100t-263.5 100t-104.5 249z" />
    <glyph glyph-name="uni04C3" unicode="&#x4c3;" horiz-adv-x="1566" 
d="M154 0v1434h460v-492l400 492h512l-522 -625q244 -45 383 -202t139 -412q0 -146 -51 -268.5t-145.5 -210.5t-236 -137.5t-315.5 -49.5v410q145 0 221 68t76 188q0 117 -69.5 186.5t-186.5 69.5q-87 0 -149 -41q-31 -16 -56 -41v-369h-460z" />
    <glyph glyph-name="uni04C4" unicode="&#x4c4;" horiz-adv-x="1259" 
d="M113 0v1004h409v-297l236 297h461l-379 -461q174 -38 286.5 -168.5t112.5 -319.5q0 -231 -153.5 -373.5t-419.5 -142.5v359q79 0 131.5 51.5t52.5 132.5q0 78 -53 131t-131 53q-57 0 -107 -20q-23 -10 -37 -21v-225h-409z" />
    <glyph glyph-name="uni04C5" unicode="&#x4c5;" horiz-adv-x="1648" 
d="M0 0v420q10 -7 23 -10q29 -11 59 -11q39 0 70 14t61 52.5t50 101t32 165t12 239.5v463h1157v-1024h205v-62l-194 -624h-338l51 276h-184v1014h-246q0 -243 -26.5 -427.5t-73 -302.5t-116 -192t-148.5 -103.5t-179 -29.5q-76 0 -158 21q-36 9 -57 20z" />
    <glyph glyph-name="uni04C6" unicode="&#x4c6;" horiz-adv-x="1259" 
d="M0 0v369l18 -7q28 -4 43 -4q38 0 63.5 16.5t47.5 61.5t32.5 135t10.5 228v205h901v-646h154v-61l-164 -512h-328l41 215h-112v635h-123q0 -144 -20.5 -258t-56 -189.5t-86.5 -125.5t-109.5 -71.5t-127.5 -21.5t-131 15q-8 3 -26 8t-27 8z" />
    <glyph glyph-name="uni04C7" unicode="&#x4c7;" horiz-adv-x="1658" 
d="M154 0v1434h460v-502h430v502h461v-1434q0 -229 -113 -350t-317 -121q-78 0 -172 20q-38 8 -74 21v379q14 -7 29 -10q37 -11 74 -11q112 0 112 123v471h-430v-522h-460z" />
    <glyph glyph-name="uni04C8" unicode="&#x4c8;" horiz-adv-x="1259" 
d="M113 0v1004h409v-318h215v318h410v-1035q0 -205 -102.5 -317.5t-276.5 -112.5q-63 0 -145 21q-36 9 -60 20v318q13 -8 23 -11q27 -10 59 -10q39 0 65.5 28.5t26.5 74.5v337h-215v-317h-409z" />
    <glyph glyph-name="uni04C9" unicode="&#x4c9;" horiz-adv-x="1689" 
d="M154 0v1434h460v-502h430v502h461v-1024h205v-62l-194 -624h-338l51 276h-185v522h-430v-522h-460z" />
    <glyph glyph-name="uni04CA" unicode="&#x4ca;" horiz-adv-x="1290" 
d="M113 0v1004h409v-318h215v318h410v-646h153v-61l-163 -512h-328l41 215h-113v317h-215v-317h-409z" />
    <glyph glyph-name="uni04CB" unicode="&#x4cb;" horiz-adv-x="1566" 
d="M799 -276v593h153v123q-44 -19 -75 -26q-84 -25 -191 -25q-256 0 -404.5 157t-148.5 437v451h461v-441q0 -92 48.5 -143t135.5 -51q72 0 125 24q21 7 49 27v584h461v-1434h-153v-276h-461z" />
    <glyph glyph-name="uni04CC" unicode="&#x4cc;" horiz-adv-x="1187" 
d="M543 -215v389h123v100q-28 -16 -60 -24q-70 -25 -145 -25q-163 0 -266 110.5t-103 299.5v369h410v-328q0 -92 82 -92q37 0 59 14q3 2 11.5 7.5t11.5 8.5v390h409v-1004h-123v-215h-409z" />
    <glyph glyph-name="uni04CD" unicode="&#x4cd;" horiz-adv-x="1955" 
d="M154 0v1434h409l400 -512l399 512h410v-1024h204v-62l-194 -624h-338l51 276h-184v768l-348 -440l-349 440v-768h-460z" />
    <glyph glyph-name="uni04CE" unicode="&#x4ce;" horiz-adv-x="1464" 
d="M113 0v1004h358l246 -308l246 308h358v-646h154v-61l-164 -512h-328l41 215h-113v461l-194 -246l-195 246v-461h-409z" />
    <glyph glyph-name="uni04CF" unicode="&#x4cf;" horiz-adv-x="655" 
d="M123 0v1434h409v-1434h-409z" />
    <glyph glyph-name="uni04D0" unicode="&#x4d0;" horiz-adv-x="1525" 
d="M645 594h236l-113 399h-10zM-20 0l522 1434h522l522 -1434h-491l-82 276h-420l-82 -276h-491zM369 1956h286q0 -53 27.5 -83t75.5 -30t75 29.5t27 83.5h287q0 -155 -111 -262t-278 -107t-278 107t-111 262z" />
    <glyph glyph-name="uni04D1" unicode="&#x4d1;" horiz-adv-x="1136" 
d="M614 0v133h-10q-29 -47 -63 -78q-83 -75 -203 -75q-122 0 -209.5 85t-87.5 201q0 241 317 318l267 61q-8 41 -41.5 66.5t-91.5 25.5q-65 0 -132 -47q-36 -28 -53 -45l-205 195q46 52 111 96q148 98 340 98q134 0 243 -57.5t168.5 -151t59.5 -200.5v-625h-410zM625 410v41
l-103 -31q-46 -13 -64 -31.5t-18 -50.5q0 -31 20.5 -51.5t49.5 -20.5q49 0 82 38.5t33 105.5zM205 1475h287q0 -93 81 -93q82 0 82 93h287q0 -149 -105 -249t-264 -100t-263.5 100t-104.5 249z" />
    <glyph glyph-name="uni04D2" unicode="&#x4d2;" horiz-adv-x="1525" 
d="M645 594h236l-113 399h-10zM-20 0l522 1434h522l522 -1434h-491l-82 276h-420l-82 -276h-491zM512 1956q80 0 137.5 -55.5t57.5 -139.5t-57.5 -139t-137.5 -55t-137.5 55t-57.5 139t57.5 139.5t137.5 55.5zM809 1761q0 84 57.5 139.5t137.5 55.5t137 -55.5t57 -139.5
t-57 -139t-137 -55t-137.5 55t-57.5 139z" />
    <glyph glyph-name="uni04D3" unicode="&#x4d3;" horiz-adv-x="1136" 
d="M614 0v133h-10q-29 -47 -63 -78q-83 -75 -203 -75q-122 0 -209.5 85t-87.5 201q0 241 317 318l267 61q-8 41 -41.5 66.5t-91.5 25.5q-65 0 -132 -47q-36 -28 -53 -45l-205 195q46 52 111 96q148 98 340 98q134 0 243 -57.5t168.5 -151t59.5 -200.5v-625h-410zM625 410v41
l-103 -31q-46 -13 -64 -31.5t-18 -50.5q0 -31 20.5 -51.5t49.5 -20.5q49 0 82 38.5t33 105.5zM328 1495q80 0 137 -55.5t57 -139.5t-57 -139t-137 -55t-137.5 55t-57.5 139t57.5 139.5t137.5 55.5zM625 1300q0 84 57 139.5t137 55.5t137.5 -55.5t57.5 -139.5t-57.5 -139
t-137.5 -55t-137 55t-57 139z" />
    <glyph glyph-name="uni04D6" unicode="&#x4d6;" horiz-adv-x="1392" 
d="M154 0v1434h1136v-379h-676v-174h512v-328h-512v-174h697v-379h-1157zM317 1956h287q0 -53 27.5 -83t75.5 -30t75 29.5t27 83.5h287q0 -155 -111 -262t-278 -107t-278.5 107t-111.5 262z" />
    <glyph glyph-name="uni04D7" unicode="&#x4d7;" horiz-adv-x="1208" 
d="M901 358l143 -256q-47 -41 -106 -67q-144 -66 -303 -66q-121 0 -228.5 43t-183 115.5t-119 170.5t-43.5 204t43.5 204t117.5 170t176.5 115t215.5 43q149 0 274.5 -70t197 -185t71.5 -247q0 -54 -10 -92l-10 -30h-666q20 -54 75 -94t140 -40q88 0 158 41q25 13 57 41z
M471 594h277q-8 56 -45 94.5t-89 38.5q-59 0 -97 -38t-46 -95zM236 1475h286q0 -93 82 -93t82 93h287q0 -149 -105 -249t-264 -100t-263.5 100t-104.5 249z" />
    <glyph glyph-name="uni04D8" unicode="&#x4d8;" horiz-adv-x="1689" 
d="M72 829h1075q-27 101 -112 168.5t-216 67.5q-125 0 -237 -61q-43 -22 -90 -62l-256 318q72 62 155 106q198 109 438 109q170 0 317.5 -58.5t250.5 -159t162 -241t59 -299.5t-58.5 -299.5t-161 -241t-247.5 -159t-311 -58.5q-222 0 -400.5 99.5t-278.5 272.5t-100 386
q0 23 5 80zM1147 584h-615q28 -86 110 -150.5t198 -64.5t197.5 64.5t109.5 150.5z" />
    <glyph glyph-name="uni04D9" unicode="&#x4d9;" horiz-adv-x="1208" 
d="M72 594h665q-20 54 -75 93.5t-140 39.5q-87 0 -157 -41q-28 -14 -58 -41l-143 256q53 43 106 66q146 67 303 67q120 0 227 -43t182.5 -115t120 -170t44.5 -204q0 -142 -73.5 -264.5t-201.5 -195.5t-278 -73q-149 0 -274.5 69.5t-197 184.5t-71.5 248q0 54 10 92
q2 13 11 31zM737 410h-276q8 -56 44.5 -95t88.5 -39q59 0 97 38.5t46 95.5z" />
    <glyph glyph-name="uni04DA" unicode="&#x4da;" horiz-adv-x="1689" 
d="M72 829h1075q-27 101 -112 168.5t-216 67.5q-125 0 -237 -61q-43 -22 -90 -62l-256 318q72 62 155 106q198 109 438 109q170 0 317.5 -58.5t250.5 -159t162 -241t59 -299.5t-58.5 -299.5t-161 -241t-247.5 -159t-311 -58.5q-222 0 -400.5 99.5t-278.5 272.5t-100 386
q0 23 5 80zM1147 584h-615q28 -86 110 -150.5t198 -64.5t197.5 64.5t109.5 150.5zM614 1956q80 0 137.5 -55.5t57.5 -139.5t-57.5 -139t-137.5 -55t-137 55t-57 139t57 139.5t137 55.5zM911 1761q0 84 57.5 139.5t137.5 55.5t137 -55.5t57 -139.5t-57 -139t-137 -55
t-137.5 55t-57.5 139z" />
    <glyph glyph-name="uni04DB" unicode="&#x4db;" horiz-adv-x="1208" 
d="M72 594h665q-20 54 -75 93.5t-140 39.5q-87 0 -157 -41q-28 -14 -58 -41l-143 256q53 43 106 66q146 67 303 67q120 0 227 -43t182.5 -115t120 -170t44.5 -204q0 -142 -73.5 -264.5t-201.5 -195.5t-278 -73q-149 0 -274.5 69.5t-197 184.5t-71.5 248q0 54 10 92
q2 13 11 31zM737 410h-276q8 -56 44.5 -95t88.5 -39q59 0 97 38.5t46 95.5zM358 1495q80 0 137.5 -55.5t57.5 -139.5t-57.5 -139t-137.5 -55t-137 55t-57 139t57 139.5t137 55.5zM655 1300q0 84 57.5 139.5t137.5 55.5t137 -55.5t57 -139.5t-57 -139t-137 -55t-137.5 55
t-57.5 139z" />
    <glyph glyph-name="uni04DC" unicode="&#x4dc;" horiz-adv-x="2222" 
d="M-41 0l533 840l-492 594h510l371 -461v461h460v-461l371 461h510l-491 -594l532 -840h-512l-317 512l-93 -113v-399h-460v399l-93 113l-317 -512h-512zM860 1956q80 0 137.5 -55.5t57.5 -139.5t-57.5 -139t-137.5 -55t-137 55t-57 139t57 139.5t137 55.5zM1157 1761
q0 84 57.5 139.5t137.5 55.5t137 -55.5t57 -139.5t-57 -139t-137 -55t-137.5 55t-57.5 139z" />
    <glyph glyph-name="uni04DD" unicode="&#x4dd;" horiz-adv-x="1720" 
d="M-20 0l348 584l-338 420h461l204 -267v267h410v-267l205 267h461l-338 -420l348 -584h-441l-194 348l-41 -51v-297h-410v297l-41 51l-194 -348h-440zM614 1495q80 0 137.5 -55.5t57.5 -139.5t-57.5 -139t-137.5 -55t-137 55t-57 139t57 139.5t137 55.5zM911 1300
q0 84 57.5 139.5t137.5 55.5t137 -55.5t57 -139.5t-57 -139t-137 -55t-137.5 55t-57.5 139z" />
    <glyph glyph-name="uni04DE" unicode="&#x4de;" 
d="M0 205l256 276q39 -42 82 -67q102 -66 205 -66q75 0 114 31.5t39 81.5t-39 81t-114 31h-164v308h143q68 0 106 27t38 75t-38 75t-106 27q-73 0 -153 -51q-28 -17 -62 -51l-256 277q59 62 137 106q182 109 416 109q130 0 238.5 -35t178 -93t108 -131t38.5 -151
q0 -148 -129 -244q-49 -36 -127 -59v-8q79 -20 148 -70q149 -111 149 -285q0 -85 -40.5 -163.5t-115.5 -140.5t-191.5 -99t-256.5 -37q-257 0 -452 123q-86 51 -152 123zM379 1956q80 0 137 -55.5t57 -139.5t-57 -139t-137 -55t-137.5 55t-57.5 139t57.5 139.5t137.5 55.5z
M676 1761q0 84 57 139.5t137 55.5t137.5 -55.5t57.5 -139.5t-57.5 -139t-137.5 -55t-137 55t-57 139z" />
    <glyph glyph-name="uni04DF" unicode="&#x4df;" horiz-adv-x="1003" 
d="M0 174l184 195q32 -36 58 -52q74 -51 157 -51q52 0 77.5 19.5t25.5 52.5t-25.5 52.5t-77.5 19.5h-92v204h92q45 0 69 18.5t24 43.5t-24 43t-69 18q-59 0 -125 -30q-25 -14 -49 -31l-184 194q38 44 104 82q144 82 336 82q211 0 326 -86.5t115 -210.5q0 -112 -113 -180
q-59 -31 -113 -41v-8q67 -14 123 -43q123 -64 123 -189q0 -59 -29.5 -113t-85 -98t-145.5 -70t-201 -26q-202 0 -364 103q-76 50 -117 102zM246 1505q80 0 137 -55t57 -139t-57 -139.5t-137 -55.5t-137.5 55.5t-57.5 139.5t57.5 139t137.5 55zM543 1311q0 84 57 139t137 55
t137.5 -55t57.5 -139t-57.5 -139.5t-137.5 -55.5t-137 55.5t-57 139.5z" />
    <glyph glyph-name="uni04E0" unicode="&#x4e0;" horiz-adv-x="1290" 
d="M0 215l246 266q41 -41 86 -67q110 -66 211 -66q88 0 131 31t43 82q0 50 -43 81t-131 31h-174v256l245 215h-512v390h1065v-338l-286 -256q152 -38 250 -149.5t98 -260.5q0 -93 -42 -177.5t-119.5 -150t-197.5 -104.5t-266 -39q-238 0 -448 127q-95 60 -156 129z" />
    <glyph glyph-name="uni04E1" unicode="&#x4e1;" horiz-adv-x="1105" 
d="M0 -236l215 256q34 -34 64 -51q77 -51 165 -51q87 0 128.5 33t41.5 90t-42.5 90t-131.5 33h-174v215l246 256h-420v369h891v-328l-246 -256q123 -39 215 -150.5t92 -249.5q0 -191 -149.5 -320.5t-402.5 -129.5q-220 0 -377 96q-68 42 -115 98z" />
    <glyph glyph-name="uni04E2" unicode="&#x4e2;" horiz-adv-x="1699" 
d="M502 1618v307h696v-307h-696zM154 0v1434h460v-707l543 707h389v-1434h-461v707l-542 -707h-389z" />
    <glyph glyph-name="uni04E3" unicode="&#x4e3;" 
d="M287 1167v308h696v-308h-696zM113 0v1004h409v-400h10l287 400h338v-1004h-409v399h-11l-286 -399h-338z" />
    <glyph glyph-name="uni04E4" unicode="&#x4e4;" horiz-adv-x="1699" 
d="M154 0v1434h460v-707l543 707h389v-1434h-461v707l-542 -707h-389zM604 1956q80 0 137.5 -55.5t57.5 -139.5t-57.5 -139t-137.5 -55t-137 55t-57 139t57 139.5t137 55.5zM901 1761q0 84 57.5 139.5t137.5 55.5t137 -55.5t57 -139.5t-57 -139t-137 -55t-137.5 55
t-57.5 139z" />
    <glyph glyph-name="uni04E5" unicode="&#x4e5;" 
d="M113 0v1004h409v-400h10l287 400h338v-1004h-409v399h-11l-286 -399h-338zM389 1495q80 0 137.5 -55.5t57.5 -139.5t-57.5 -139t-137.5 -55t-137 55t-57 139t57 139.5t137 55.5zM686 1300q0 84 57.5 139.5t137.5 55.5t137 -55.5t57 -139.5t-57 -139t-137 -55t-137.5 55
t-57.5 139z" />
    <glyph glyph-name="uni04E6" unicode="&#x4e6;" horiz-adv-x="1761" 
d="M532 717q0 -148 100.5 -248t248.5 -100t248 100t100 248t-100 248t-248 100t-248.5 -100t-100.5 -248zM72 717q0 156 61 295.5t167 241.5t257.5 161.5t323.5 59.5t323.5 -59.5t257.5 -161.5t167 -241.5t61 -295.5t-61 -295.5t-167 -241.5t-257.5 -161.5t-323.5 -59.5
t-323.5 59.5t-257.5 161.5t-167 241.5t-61 295.5zM635 1956q80 0 137 -55.5t57 -139.5t-57 -139t-137 -55t-137.5 55t-57.5 139t57.5 139.5t137.5 55.5zM932 1761q0 84 57 139.5t137 55.5t137.5 -55.5t57.5 -139.5t-57.5 -139t-137.5 -55t-137 55t-57 139z" />
    <glyph glyph-name="uni04E7" unicode="&#x4e7;" 
d="M481 502q0 -62 46.5 -108t107.5 -46t107 46t46 108t-46 107.5t-107 45.5q-62 0 -108 -46t-46 -107zM61 502q0 142 74 264t206.5 195t293.5 73q159 0 291.5 -73t207 -195t74.5 -264t-74.5 -264.5t-207 -195.5t-291.5 -73q-121 0 -228.5 43t-183 115.5t-119 170.5
t-43.5 204zM379 1495q80 0 137 -55.5t57 -139.5t-57 -139t-137 -55t-137.5 55t-57.5 139t57.5 139.5t137.5 55.5zM676 1300q0 84 57 139.5t137 55.5t137.5 -55.5t57.5 -139.5t-57.5 -139t-137.5 -55t-137 55t-57 139z" />
    <glyph glyph-name="uni04E8" unicode="&#x4e8;" horiz-adv-x="1761" 
d="M532 778h697q-32 129 -122.5 208t-225.5 79t-226 -79.5t-123 -207.5zM72 717q0 156 61 295.5t167 241.5t257.5 161.5t323.5 59.5t323.5 -59.5t257.5 -161.5t167 -241.5t61 -295.5t-61 -295.5t-167 -241.5t-257.5 -161.5t-323.5 -59.5t-323.5 59.5t-257.5 161.5
t-167 241.5t-61 295.5zM1229 655h-697q32 -128 123 -207t226 -79t225.5 79t122.5 207z" />
    <glyph glyph-name="uni04E9" unicode="&#x4e9;" 
d="M459 563h352q-19 58 -64.5 95.5t-113.5 37.5q-64 0 -110 -37.5t-64 -95.5zM811 440h-352q18 -58 64 -95.5t110 -37.5q68 0 113.5 37.5t64.5 95.5zM61 502q0 142 74 264t206.5 195t293.5 73q159 0 291.5 -73t207 -195t74.5 -264t-74.5 -264.5t-207 -195.5t-291.5 -73
q-121 0 -228.5 43t-183 115.5t-119 170.5t-43.5 204z" />
    <glyph glyph-name="uni04EA" unicode="&#x4ea;" horiz-adv-x="1761" 
d="M532 778h697q-32 129 -122.5 208t-225.5 79t-226 -79.5t-123 -207.5zM72 717q0 156 61 295.5t167 241.5t257.5 161.5t323.5 59.5t323.5 -59.5t257.5 -161.5t167 -241.5t61 -295.5t-61 -295.5t-167 -241.5t-257.5 -161.5t-323.5 -59.5t-323.5 59.5t-257.5 161.5
t-167 241.5t-61 295.5zM1229 655h-697q32 -128 123 -207t226 -79t225.5 79t122.5 207zM635 1956q80 0 137 -55.5t57 -139.5t-57 -139t-137 -55t-137.5 55t-57.5 139t57.5 139.5t137.5 55.5zM932 1761q0 84 57 139.5t137 55.5t137.5 -55.5t57.5 -139.5t-57.5 -139t-137.5 -55
t-137 55t-57 139z" />
    <glyph glyph-name="uni04EB" unicode="&#x4eb;" 
d="M459 563h352q-19 58 -64.5 95.5t-113.5 37.5q-64 0 -110 -37.5t-64 -95.5zM811 440h-352q18 -58 64 -95.5t110 -37.5q68 0 113.5 37.5t64.5 95.5zM61 502q0 142 74 264t206.5 195t293.5 73q159 0 291.5 -73t207 -195t74.5 -264t-74.5 -264.5t-207 -195.5t-291.5 -73
q-121 0 -228.5 43t-183 115.5t-119 170.5t-43.5 204zM389 1495q80 0 137.5 -55.5t57.5 -139.5t-57.5 -139t-137.5 -55t-137 55t-57 139t57 139.5t137 55.5zM686 1300q0 84 57.5 139.5t137.5 55.5t137 -55.5t57 -139.5t-57 -139t-137 -55t-137.5 55t-57.5 139z" />
    <glyph glyph-name="uni04EC" unicode="&#x4ec;" horiz-adv-x="1536" 
d="M20 236l267 286q40 -43 98 -82q126 -82 260 -82q126 0 211.5 58t116.5 127h-492v348h492q-31 69 -116.5 126.5t-211.5 57.5q-136 0 -254 -82q-60 -43 -94 -82l-266 287q64 76 155 137q202 140 469 140q172 0 323.5 -59.5t257.5 -161.5t167 -241.5t61 -295.5t-61 -295.5
t-167 -241.5t-257.5 -161.5t-323.5 -59.5q-273 0 -475 137q-93 61 -160 140zM461 1956q80 0 137 -55.5t57 -139.5t-57 -139t-137 -55t-137.5 55t-57.5 139t57.5 139.5t137.5 55.5zM758 1761q0 84 57 139.5t137 55.5t137.5 -55.5t57.5 -139.5t-57.5 -139t-137.5 -55t-137 55
t-57 139z" />
    <glyph glyph-name="uni04ED" unicode="&#x4ed;" horiz-adv-x="1105" 
d="M20 184l185 195q22 -31 59 -57q70 -56 166 -56q94 0 160 62q33 33 45 61h-307v225h307q-13 30 -45 62q-65 61 -160 61q-94 0 -166 -57q-34 -24 -59 -55l-185 194q50 63 111 107q145 108 340 108q159 0 291.5 -73t207 -195t74.5 -264t-74.5 -264.5t-207 -195.5t-291.5 -73
q-196 0 -340 107q-65 46 -111 108zM287 1495q80 0 137 -55.5t57 -139.5t-57 -139t-137 -55t-137.5 55t-57.5 139t57.5 139.5t137.5 55.5zM584 1300q0 84 57 139.5t137 55.5t137.5 -55.5t57.5 -139.5t-57.5 -139t-137.5 -55t-137 55t-57 139z" />
    <glyph glyph-name="uni04EE" unicode="&#x4ee;" horiz-adv-x="1341" 
d="M143 10v400q17 -9 31 -11q38 -10 92 -10q89 0 148 55q31 28 47 58l-492 932h502l221 -553h8l191 553h502l-441 -942q-85 -184 -167.5 -292.5t-188.5 -164t-248 -55.5q-90 0 -151 14q-7 2 -19 5t-20.5 5.5t-14.5 5.5zM328 1628v307h696v-307h-696z" />
    <glyph glyph-name="uni04EF" unicode="&#x4ef;" horiz-adv-x="1136" 
d="M92 -389v348q14 -7 29 -10q33 -10 74 -10q65 0 99.5 25.5t53.5 76.5l-368 963h440l143 -553h10l144 553h440l-389 -1024q-80 -213 -189 -311.5t-282 -98.5q-67 0 -145 20q-31 8 -60 21zM215 1167v308h696v-308h-696z" />
    <glyph glyph-name="uni04F0" unicode="&#x4f0;" horiz-adv-x="1341" 
d="M143 10v400q17 -9 31 -11q38 -10 92 -10q89 0 148 55q31 28 47 58l-492 932h502l221 -553h8l191 553h502l-441 -942q-85 -184 -167.5 -292.5t-188.5 -164t-248 -55.5q-90 0 -151 14q-7 2 -19 5t-20.5 5.5t-14.5 5.5zM430 1956q80 0 137.5 -55.5t57.5 -139.5t-57.5 -139
t-137.5 -55t-137 55t-57 139t57 139.5t137 55.5zM727 1761q0 84 57.5 139.5t137.5 55.5t137 -55.5t57 -139.5t-57 -139t-137 -55t-137.5 55t-57.5 139z" />
    <glyph glyph-name="uni04F1" unicode="&#x4f1;" horiz-adv-x="1136" 
d="M92 -389v348q14 -7 29 -10q33 -10 74 -10q65 0 99.5 25.5t53.5 76.5l-368 963h440l143 -553h10l144 553h440l-389 -1024q-80 -213 -189 -311.5t-282 -98.5q-67 0 -145 20q-31 8 -60 21zM317 1495q80 0 137.5 -55.5t57.5 -139.5t-57.5 -139t-137.5 -55t-137 55t-57 139
t57 139.5t137 55.5zM614 1300q0 84 57.5 139.5t137.5 55.5t137.5 -55.5t57.5 -139.5t-57.5 -139t-137.5 -55t-137.5 55t-57.5 139z" />
    <glyph glyph-name="uni04F2" unicode="&#x4f2;" horiz-adv-x="1341" 
d="M143 10v400q17 -9 31 -11q38 -10 92 -10q89 0 148 55q31 28 47 58l-492 932h502l221 -553h8l191 553h502l-441 -942q-85 -184 -167.5 -292.5t-188.5 -164t-248 -55.5q-90 0 -151 14q-7 2 -19 5t-20.5 5.5t-14.5 5.5zM297 1587l195 348h368l-266 -348h-297zM758 1587
l194 348h369l-266 -348h-297z" />
    <glyph glyph-name="uni04F3" unicode="&#x4f3;" horiz-adv-x="1136" 
d="M92 -389v348q14 -7 29 -10q33 -10 74 -10q65 0 99.5 25.5t53.5 76.5l-368 963h440l143 -553h10l144 553h440l-389 -1024q-80 -213 -189 -311.5t-282 -98.5q-67 0 -145 20q-31 8 -60 21zM184 1126l195 349h369l-267 -349h-297zM645 1126l195 349h368l-266 -349h-297z" />
    <glyph glyph-name="uni04F4" unicode="&#x4f4;" horiz-adv-x="1566" 
d="M952 0v440q-44 -19 -75 -26q-84 -25 -191 -25q-256 0 -404.5 157t-148.5 437v451h461v-441q0 -92 48.5 -143t135.5 -51q72 0 125 24q21 7 49 27v584h461v-1434h-461zM522 1956q80 0 137.5 -55.5t57.5 -139.5t-57.5 -139t-137.5 -55t-137 55t-57 139t57 139.5t137 55.5z
M819 1761q0 84 57.5 139.5t137.5 55.5t137 -55.5t57 -139.5t-57 -139t-137 -55t-137.5 55t-57.5 139z" />
    <glyph glyph-name="uni04F5" unicode="&#x4f5;" horiz-adv-x="1187" 
d="M666 0v274q-28 -16 -60 -24q-70 -25 -145 -25q-163 0 -266 110.5t-103 299.5v369h410v-328q0 -92 82 -92q37 0 59 14q3 2 11.5 7.5t11.5 8.5v390h409v-1004h-409zM338 1495q80 0 137 -55.5t57 -139.5t-57 -139t-137 -55t-137.5 55t-57.5 139t57.5 139.5t137.5 55.5z
M635 1300q0 84 57 139.5t137 55.5t137.5 -55.5t57.5 -139.5t-57.5 -139t-137.5 -55t-137 55t-57 139z" />
    <glyph glyph-name="uni04F6" unicode="&#x4f6;" horiz-adv-x="1249" 
d="M307 -276v276h-153v1434h1054v-420h-594v-604h154v-686h-461z" />
    <glyph glyph-name="uni04F7" unicode="&#x4f7;" horiz-adv-x="942" 
d="M236 -215v215h-123v1004h798v-379h-389v-267h123v-573h-409z" />
    <glyph glyph-name="uni04F8" unicode="&#x4f8;" horiz-adv-x="2099" 
d="M1485 0v1434h461v-1434h-461zM154 0v1434h460v-390h195q161 0 288 -68.5t196 -187.5t69 -266t-69 -266t-196 -187.5t-288 -68.5h-655zM614 389h144q61 0 102 39t41 94t-41 94t-102 39h-144v-266zM799 1958q80 0 137 -55.5t57 -139.5t-57 -139t-137 -55t-137.5 55
t-57.5 139t57.5 139.5t137.5 55.5zM1096 1763q0 84 57 139.5t137 55.5t137.5 -55.5t57.5 -139.5t-57.5 -139t-137.5 -55t-137 55t-57 139z" />
    <glyph glyph-name="uni04F9" unicode="&#x4f9;" horiz-adv-x="1669" 
d="M1147 0v1004h409v-1004h-409zM502 266h51q46 0 74 26.5t28 65.5t-28 66t-74 27h-51v-185zM113 0v1004h409v-287h103q195 0 312.5 -104t117.5 -255t-117.5 -254.5t-312.5 -103.5h-512zM584 1495q80 0 137 -55.5t57 -139.5t-57 -139t-137 -55t-137.5 55t-57.5 139
t57.5 139.5t137.5 55.5zM881 1300q0 84 57 139.5t137 55.5t137.5 -55.5t57.5 -139.5t-57.5 -139t-137.5 -55t-137 55t-57 139z" />
    <glyph glyph-name="uni04FA" unicode="&#x4fa;" horiz-adv-x="1259" 
d="M102 -440v338q17 -9 29 -11q33 -10 74 -10q112 0 112 113v10h-153v645h-164v123h164v666h1055v-420h-594v-246h338v-123h-338v-235h153v-420q0 -235 -112 -358.5t-308 -123.5q-102 0 -186 25q-29 6 -70 27z" />
    <glyph glyph-name="uni04FB" unicode="&#x4fb;" horiz-adv-x="962" 
d="M102 -420v297l21 -10q23 -10 51 -10q82 0 82 96v47h-123v410h-133v122h133v472h799v-359h-389v-113h235v-122h-235v-113h123v-338q0 -206 -97.5 -313t-271.5 -107q-74 0 -143 21q-41 14 -52 20z" />
    <glyph glyph-name="uni04FC" unicode="&#x4fc;" horiz-adv-x="1423" 
d="M-20 0l440 748l-400 686h502l195 -420h10l195 420h501l-399 -686l256 -431q35 -61 55 -110q58 -127 58 -258q0 -193 -115 -306.5t-315 -113.5q-78 0 -172 20q-38 8 -74 21v369q18 -9 28 -11q33 -10 74 -10q54 0 83.5 27t29.5 75q0 31 -17 80l-14 33l-174 348h-10
l-236 -481h-501z" />
    <glyph glyph-name="uni04FD" unicode="&#x4fd;" horiz-adv-x="1116" 
d="M-20 0l296 512l-286 492h440l119 -287h8l119 287h440l-287 -492l205 -348q27 -56 35 -78q37 -97 37 -178q0 -160 -106 -264.5t-273 -104.5q-65 0 -139 21q-40 12 -56 20v307l21 -10q23 -10 51 -10q82 0 82 82q0 39 -10 69q-7 17 -10 33l-109 256h-8l-129 -307h-440z" />
    <glyph glyph-name="uni04FE" unicode="&#x4fe;" horiz-adv-x="1443" 
d="M-20 0l409 686h-246v123h246l-369 625h502l195 -420h10l195 420h501l-368 -625h245v-123h-245l409 -686h-501l-236 481h-10l-236 -481h-501z" />
    <glyph glyph-name="uni04FF" unicode="&#x4ff;" horiz-adv-x="1105" 
d="M-20 0l256 451h-164v122h164l-246 431h440l119 -287h8l119 287h440l-246 -431h164v-122h-164l256 -451h-440l-129 307h-8l-129 -307h-440z" />
    <glyph glyph-name="uni0510" unicode="&#x510;" horiz-adv-x="1249" 
d="M358 754v8q-79 23 -129 59q-127 95 -127 244q0 78 38.5 151t108.5 131t178.5 93t238.5 35q231 0 413 -109q78 -44 140 -106l-256 -277q-34 34 -62 51q-80 51 -153 51q-68 0 -106 -27t-38 -75t38 -75t106 -27h143v-308h-164q-75 0 -114.5 -31t-39.5 -81t39.5 -81.5
t114.5 -31.5q103 0 205 66q43 25 82 67l256 -276q-66 -72 -152 -123q-195 -123 -452 -123q-140 0 -257 37t-191.5 99t-115.5 140.5t-41 163.5q0 175 148 285q69 50 149 70z" />
    <glyph glyph-name="uni0511" unicode="&#x511;" horiz-adv-x="983" 
d="M307 508v8q-56 10 -112 41q-113 65 -113 180q0 124 114.5 210.5t325.5 86.5q192 0 336 -82q68 -40 105 -82l-185 -194q-24 17 -49 31q-66 30 -125 30q-45 0 -68.5 -18t-23.5 -43t24 -43.5t68 -18.5h92v-204h-92q-52 0 -77 -19.5t-25 -52.5t25 -52.5t77 -19.5q84 0 158 51
q23 14 57 52l185 -195q-45 -53 -119 -102q-162 -103 -363 -103q-111 0 -201 26t-145.5 70t-85 98t-29.5 113q0 125 123 189q56 29 123 43z" />
    <glyph glyph-name="uni0512" unicode="&#x512;" horiz-adv-x="1617" 
d="M0 0v420q10 -7 23 -10q29 -11 59 -11q39 0 70 14t61 52.5t50 101t32 165t12 239.5v463h1157v-1434q0 -229 -113 -350t-317 -121q-78 0 -172 20q-38 8 -74 21v379q14 -7 29 -10q37 -11 74 -11q113 0 113 123v963h-246q0 -243 -26.5 -427.5t-73 -302.5t-116 -192
t-148.5 -103.5t-179 -29.5q-76 0 -158 21q-36 9 -57 20z" />
    <glyph glyph-name="uni0513" unicode="&#x513;" horiz-adv-x="1228" 
d="M0 0v369l18 -7q28 -4 43 -4q38 0 63.5 16.5t47.5 61.5t32.5 135t10.5 228v205h901v-1035q0 -205 -102.5 -317.5t-276.5 -112.5q-63 0 -145 21q-36 9 -60 20v318q13 -8 23 -11q27 -10 59 -10q39 0 66 28.5t27 74.5v655h-123q0 -144 -20.5 -258t-56 -189.5t-86.5 -125.5
t-109.5 -71.5t-127.5 -21.5t-131 15q-8 3 -26 8t-27 8z" />
    <glyph glyph-name="Wgrave" unicode="&#x1e80;" horiz-adv-x="2170" 
d="M451 0l-471 1434h491l195 -789h10l225 789h369l225 -789h10l195 789h491l-471 -1434h-399l-231 758h-9l-231 -758h-399zM911 1587l-256 348h430l185 -348h-359z" />
    <glyph glyph-name="wgrave" unicode="&#x1e81;" horiz-adv-x="1628" 
d="M328 0l-348 1004h430l112 -482h10l144 482h276l144 -482h10l113 482h430l-349 -1004h-337l-144 471h-10l-143 -471h-338zM645 1126l-256 349h430l185 -349h-359z" />
    <glyph glyph-name="Wacute" unicode="&#x1e82;" horiz-adv-x="2170" 
d="M451 0l-471 1434h491l195 -789h10l225 789h369l225 -789h10l195 789h491l-471 -1434h-399l-231 758h-9l-231 -758h-399zM901 1587l184 348h431l-256 -348h-359z" />
    <glyph glyph-name="wacute" unicode="&#x1e83;" horiz-adv-x="1628" 
d="M328 0l-348 1004h430l112 -482h10l144 482h276l144 -482h10l113 482h430l-349 -1004h-337l-144 471h-10l-143 -471h-338zM635 1126l184 349h430l-256 -349h-358z" />
    <glyph glyph-name="Wdieresis" unicode="&#x1e84;" horiz-adv-x="2170" 
d="M451 0l-471 1434h491l195 -789h10l225 789h369l225 -789h10l195 789h491l-471 -1434h-399l-231 758h-9l-231 -758h-399zM840 1956q80 0 137 -55.5t57 -139.5t-57 -139t-137 -55t-137.5 55t-57.5 139t57.5 139.5t137.5 55.5zM1137 1761q0 84 57 139.5t137 55.5
t137.5 -55.5t57.5 -139.5t-57.5 -139t-137.5 -55t-137 55t-57 139z" />
    <glyph glyph-name="wdieresis" unicode="&#x1e85;" horiz-adv-x="1628" 
d="M328 0l-348 1004h430l112 -482h10l144 482h276l144 -482h10l113 482h430l-349 -1004h-337l-144 471h-10l-143 -471h-338zM573 1495q80 0 137.5 -55.5t57.5 -139.5t-57.5 -139t-137.5 -55t-137 55t-57 139t57 139.5t137 55.5zM870 1300q0 84 57.5 139.5t137.5 55.5
t137.5 -55.5t57.5 -139.5t-57.5 -139t-137.5 -55t-137.5 55t-57.5 139z" />
    <glyph glyph-name="uni1E9E" unicode="&#x1e9e;" horiz-adv-x="1566" 
d="M133 0v911q0 225 157 374t406 149h727v-379l-194 -215v-11q72 -32 137 -88q139 -122 139 -301q0 -89 -37.5 -168.5t-105 -140t-169.5 -96t-224 -35.5h-170v348h92q62 0 97.5 29.5t35.5 83.5q0 53 -35.5 82.5t-97.5 29.5h-92v277l174 194h-205q-174 0 -174 -174v-870h-461
z" />
    <glyph glyph-name="Ygrave" unicode="&#x1ef2;" horiz-adv-x="1423" 
d="M481 0v512l-512 922h502l236 -543h10l235 543h502l-512 -922v-512h-461zM532 1587l-256 348h431l184 -348h-359z" />
    <glyph glyph-name="ygrave" unicode="&#x1ef3;" horiz-adv-x="1136" 
d="M92 -389v348q14 -7 29 -10q33 -10 74 -10q65 0 99.5 25.5t53.5 76.5l-368 963h440l143 -553h10l144 553h440l-389 -1024q-80 -213 -189 -311.5t-282 -98.5q-67 0 -145 20q-31 8 -60 21zM399 1126l-256 349h430l185 -349h-359z" />
    <glyph glyph-name="endash" unicode="&#x2013;" horiz-adv-x="1136" 
d="M82 430v338h973v-338h-973z" />
    <glyph glyph-name="emdash" unicode="&#x2014;" horiz-adv-x="1628" 
d="M82 430v338h1464v-338h-1464z" />
    <glyph glyph-name="quoteleft" unicode="&#x2018;" horiz-adv-x="645" 
d="M41 993l307 482l256 -144l-246 -522z" />
    <glyph glyph-name="quoteright" unicode="&#x2019;" horiz-adv-x="645" 
d="M41 952l246 523l317 -185l-307 -481z" />
    <glyph glyph-name="quotesinglbase" unicode="&#x201a;" horiz-adv-x="593" 
d="M-31 -123l246 522l317 -184l-307 -481z" />
    <glyph glyph-name="quotedblleft" unicode="&#x201c;" horiz-adv-x="1105" 
d="M532 993l308 482l225 -134l-236 -522zM41 993l307 482l225 -134l-235 -522z" />
    <glyph glyph-name="quotedblright" unicode="&#x201d;" horiz-adv-x="1105" 
d="M41 952l235 523l297 -175l-307 -481zM532 952l236 523l297 -175l-307 -481z" />
    <glyph glyph-name="quotedblbase" unicode="&#x201e;" horiz-adv-x="1054" 
d="M-31 -133l236 522l297 -174l-307 -481zM461 -133l235 522l297 -174l-307 -481z" />
    <glyph glyph-name="dagger" unicode="&#x2020;" horiz-adv-x="1034" 
d="M338 236v624h-246v318h246v256h358v-256h246v-318h-246v-624h-358z" />
    <glyph glyph-name="daggerdbl" unicode="&#x2021;" horiz-adv-x="1034" 
d="M92 440v318h246v153h-246v318h246v205h358v-205h246v-318h-246v-153h246v-318h-246v-204h-358v204h-246z" />
    <glyph glyph-name="bullet" unicode="&#x2022;" horiz-adv-x="1105" 
d="M246 553q0 125 89 216t218 91t218 -91t89 -216t-89 -216t-218 -91t-218 91t-89 216z" />
    <glyph glyph-name="ellipsis" unicode="&#x2026;" horiz-adv-x="1781" 
d="M297 389q99 0 162 -59t63 -146t-63 -145.5t-162 -58.5t-162 58.5t-63 145.5t63 146t162 59zM891 389q99 0 162 -59t63 -146t-63 -145.5t-162 -58.5t-162 58.5t-63 145.5t63 146t162 59zM1485 389q99 0 162 -59t63 -146t-63 -145.5t-162 -58.5t-162 58.5t-63 145.5t63 146
t162 59z" />
    <glyph glyph-name="perthousand" unicode="&#x2030;" horiz-adv-x="2641" 
d="M317 1096q0 -40 29 -71.5t74 -31.5t73.5 31t28.5 72q0 40 -28.5 71t-73.5 31t-74 -31t-29 -71zM31 1096q0 153 113.5 260.5t275.5 107.5t275.5 -107.5t113.5 -260.5q0 -154 -114 -261.5t-275 -107.5t-275 107.5t-114 261.5zM287 0l901 1434h368l-901 -1434h-368z
M1300 338q0 -40 29 -71t74 -31t73.5 31t28.5 71t-28.5 71t-73.5 31t-74 -31t-29 -71zM1014 338q0 154 114 261.5t275 107.5t275 -107.5t114 -261.5t-114 -261.5t-275 -107.5t-275 107.5t-114 261.5zM2120 338q0 -40 28.5 -71t73.5 -31t73.5 31t28.5 71t-28.5 71t-73.5 31
t-73.5 -31t-28.5 -71zM1833 338q0 154 114 261.5t275 107.5t275 -107.5t114 -261.5t-114 -261.5t-275 -107.5t-275 107.5t-114 261.5z" />
    <glyph glyph-name="guilsinglleft" unicode="&#x2039;" horiz-adv-x="808" 
d="M338 113l-277 379l277 378h410l-277 -378l277 -379h-410z" />
    <glyph glyph-name="guilsinglright" unicode="&#x203a;" horiz-adv-x="808" 
d="M61 113l277 379l-277 378h410l277 -378l-277 -379h-410z" />
    <glyph glyph-name="uni203D" unicode="&#x203d;" horiz-adv-x="1167" 
d="M348 573v400l-348 153q48 98 127 174q75 75 190.5 125t266.5 50q127 0 235 -37t178.5 -99t110 -141t39.5 -164t-34 -152.5t-86 -114t-106 -86.5t-103.5 -91.5t-69.5 -108.5h-379q-10 24 -11 31q-10 33 -10 61zM328 184q0 87 63 146t162 59t162 -59t63 -146t-63 -145.5
t-162 -58.5t-162 58.5t-63 145.5zM471 1055v-277q24 24 73.5 60.5t75 64.5t25.5 60q0 48 -29.5 75t-83.5 27q-1 0 -43 -6z" />
    <glyph glyph-name="fraction" unicode="&#x2044;" horiz-adv-x="532" 
d="M-369 0l901 1434h369l-901 -1434h-369z" />
    <glyph glyph-name="uni2070" unicode="&#x2070;" horiz-adv-x="778" 
d="M389 1126q34 0 58 35.5t24 108.5t-23 108t-59 35q-34 0 -58 -35t-24 -108t24 -108.5t58 -35.5zM389 891q-149 0 -248.5 106.5t-99.5 272.5t99.5 272.5t248.5 106.5t248.5 -106.5t99.5 -272.5t-99.5 -272.5t-248.5 -106.5z" />
    <glyph glyph-name="uni2074" unicode="&#x2074;" horiz-adv-x="716" 
d="M20 1014v215l328 409h256v-409h72v-215h-72v-113h-276v113h-308zM236 1219h112v153z" />
    <glyph glyph-name="uni2075" unicode="&#x2075;" horiz-adv-x="686" 
d="M20 1014l134 143q18 -22 34 -31q43 -30 88 -30q38 0 60 20t22 51q0 25 -22.5 43.5t-59.5 18.5q-20 0 -43 -10q-15 -10 -18 -11h-143l51 430h481v-194h-266l-10 -72l24 4q42 6 58 6q116 0 180.5 -62.5t64.5 -172.5q0 -113 -84 -184.5t-233 -71.5q-132 0 -240 61
q-49 28 -78 62z" />
    <glyph glyph-name="uni2076" unicode="&#x2076;" horiz-adv-x="696" 
d="M92 1352l215 286h287l-154 -204q56 -16 113 -54q113 -80 113 -213q0 -111 -91 -193.5t-227 -82.5t-226.5 82.5t-90.5 193.5q0 69 30 131q14 31 31 54zM348 1096q31 0 51.5 20t20.5 51t-20.5 51.5t-51.5 20.5t-51.5 -20.5t-20.5 -51.5t20.5 -51t51.5 -20z" />
    <glyph glyph-name="uni2077" unicode="&#x2077;" horiz-adv-x="624" 
d="M102 901l226 502h-308v235h584v-225l-225 -512h-277z" />
    <glyph glyph-name="uni2078" unicode="&#x2078;" horiz-adv-x="696" 
d="M348 1208q-32 0 -52 -18t-20 -43t20.5 -43.5t51.5 -18.5t51.5 18.5t20.5 43.5t-20 43t-52 18zM348 1464q-24 0 -42.5 -14.5t-18.5 -36.5t18.5 -36.5t42.5 -14.5t43 14.5t19 36.5t-19 36.5t-43 14.5zM348 891q-153 0 -240.5 67t-87.5 158q0 87 72 137q31 22 72 37
q-31 11 -62 35q-61 49 -61 119q0 86 79.5 145.5t227.5 59.5q147 0 227 -59.5t80 -145.5q0 -70 -61 -119q-31 -24 -62 -35q29 -11 72 -37q72 -56 72 -137q0 -91 -87.5 -158t-240.5 -67z" />
    <glyph glyph-name="uni2079" unicode="&#x2079;" horiz-adv-x="696" 
d="M102 901l154 205q-62 17 -113 53q-112 77 -112 213q0 110 91 193.5t226 83.5t226.5 -84t91.5 -193q0 -58 -31 -131l-31 -53l-215 -287h-287zM276 1372q0 -31 20.5 -51.5t51.5 -20.5t51.5 20.5t20.5 51.5t-20.5 51.5t-51.5 20.5t-51.5 -20.5t-20.5 -51.5z" />
    <glyph glyph-name="uni2080" unicode="&#x2080;" horiz-adv-x="778" 
d="M389 20q34 0 58 35.5t24 108.5t-23 108t-59 35q-34 0 -58 -35t-24 -108t24 -108.5t58 -35.5zM389 -215q-149 0 -248.5 106.5t-99.5 272.5t99.5 272.5t248.5 106.5t248.5 -106.5t99.5 -272.5t-99.5 -272.5t-248.5 -106.5z" />
    <glyph glyph-name="uni2081" unicode="&#x2081;" horiz-adv-x="512" 
d="M154 -205v441h-123v194q70 8 119 57q19 19 34 45h256v-737h-286z" />
    </font>
</defs>
</svg>
