<?xml version="1.0" standalone="no"?>
<!DOCTYPE svg PUBLIC "-//W3C//DTD SVG 1.1//EN" "http://www.w3.org/Graphics/SVG/1.1/DTD/svg11.dtd" >
<svg xmlns="http://www.w3.org/2000/svg" xmlns:xlink="http://www.w3.org/1999/xlink" version="1.1">
<metadata>
Created by FontForge 20201107 at Mon Jun  2 13:31:30 2025
 By 
Copyright (c) 2016-2019 by TypeType. Designers Ivan Gladkikh, Pavel Emelyanov. Technical designers Vika Usmanova, Olexa Volochay, Nadyr Rakhimov. All rights reserved. |DCNT
</metadata>
<defs>
<font id="TTNormsPro-Medium" horiz-adv-x="1187" >
  <font-face 
    font-family="TT Norms Pro Medium"
    font-weight="500"
    font-stretch="normal"
    units-per-em="2048"
    panose-1="2 0 8 3 3 0 0 2 0 4"
    ascent="1638"
    descent="-410"
    x-height="983"
    cap-height="1434"
    bbox="-1116 -461 2945 2048"
    underline-thickness="102"
    underline-position="-204"
    unicode-range="U+000D-FB06"
  />
<missing-glyph horiz-adv-x="0" 
 />
    <glyph glyph-name="f_f" unicode="ff" horiz-adv-x="1331" 
d="M215 0v788h-154v195h154v102q0 160 79 244t228 84q57 0 111 -16q19 -8 43 -15v-194l-33 14q-49 17 -80 17q-143 0 -143 -154v-82h409v143q0 160 79.5 244t228.5 84q56 0 110 -16q19 -8 43 -15v-194l-33 14q-49 17 -79 17q-144 0 -144 -154v-123h236v-195h-236v-788h-205
v788h-409v-788h-205z" />
    <glyph glyph-name="uniFB01" unicode="fi" 
d="M215 0v788h-154v195h154v143q0 160 79 244t228 84q57 0 111 -16q19 -8 43 -15v-194l-33 14q-49 17 -80 17q-143 0 -143 -154v-123h614v-983h-205v788h-409v-788h-205zM809 1290q0 52 37 87.5t86 35.5t86 -35.5t37 -87.5t-37 -87.5t-86 -35.5t-86 35.5t-37 87.5z" />
    <glyph glyph-name="f_f_i" unicode="ffi" horiz-adv-x="1802" 
d="M215 0v788h-154v195h154v102q0 160 79 244t228 84q57 0 111 -16q19 -8 43 -15v-194l-33 14q-49 17 -80 17q-143 0 -143 -154v-82h409v143q0 160 79.5 244t228.5 84q56 0 110 -16q19 -8 43 -15v-194l-33 14q-49 17 -79 17q-144 0 -144 -154v-123h615v-983h-205v788h-410
v-788h-205v788h-409v-788h-205zM1423 1290q0 52 37 87.5t86 35.5t86 -35.5t37 -87.5t-37 -87.5t-86 -35.5t-86 35.5t-37 87.5z" />
    <glyph glyph-name=".notdef" horiz-adv-x="0" 
 />
    <glyph glyph-name=".null" horiz-adv-x="0" 
 />
    <glyph glyph-name="nonmarkingreturn" horiz-adv-x="682" 
 />
    <glyph glyph-name="NULL" horiz-adv-x="0" 
 />
    <glyph glyph-name="NULL" horiz-adv-x="0" 
 />
    <glyph glyph-name="CR" unicode="&#xd;" horiz-adv-x="0" 
 />
    <glyph glyph-name="space" unicode=" " horiz-adv-x="430" 
 />
    <glyph glyph-name="exclam" unicode="!" horiz-adv-x="634" 
d="M236 389l-41 1045h245l-41 -1045h-163zM184 113q0 54 39.5 93.5t93.5 39.5t94 -39.5t40 -93.5t-40 -93.5t-94 -39.5t-93.5 39.5t-39.5 93.5z" />
    <glyph glyph-name="quotedbl" unicode="&#x22;" horiz-adv-x="778" 
d="M123 973v461h184v-461h-184zM471 973v461h184v-461h-184z" />
    <glyph glyph-name="numbersign" unicode="#" horiz-adv-x="1474" 
d="M246 0l82 410h-308l31 153h307l62 307h-297l31 154h297l81 410h175l-82 -410h348l82 410h174l-82 -410h307l-31 -154h-307l-61 -307h297l-31 -153h-297l-82 -410h-174l82 410h-348l-82 -410h-174zM532 563h349l61 307h-348z" />
    <glyph glyph-name="dollar" unicode="$" horiz-adv-x="1167" 
d="M61 195l154 153q32 -44 86 -82q118 -82 272 -82q134 0 210.5 62t76.5 153q0 50 -26 88t-70 61.5t-100.5 42.5t-119.5 37t-126 38.5t-119.5 52.5t-100.5 74.5t-70 109.5t-26 152q0 153 104.5 258.5t274.5 130.5v205h205v-199q152 -23 268 -104q58 -41 90 -76l-153 -154
q-40 44 -76 66q-99 67 -221 67q-125 0 -195.5 -56t-70.5 -138q0 -50 26 -88t69.5 -61.5t100.5 -42.5t119.5 -37t125.5 -38.5t120 -52.5t100.5 -74.5t69.5 -109.5t26 -152q0 -161 -110 -272.5t-289 -136.5v-205h-205v201q-168 18 -317 116q-64 42 -103 93z" />
    <glyph glyph-name="percent" unicode="%" horiz-adv-x="1617" 
d="M82 1137q0 130 95.5 223.5t232.5 93.5t232 -93.5t95 -223.5t-95 -224t-232 -94t-232.5 94t-95.5 224zM246 1137q0 -69 47.5 -116.5t116.5 -47.5t116 47.5t47 116.5t-47 116t-116 47t-116.5 -47t-47.5 -116zM266 0l901 1434h185l-901 -1434h-185zM881 297q0 130 95 223.5
t232 93.5t232.5 -93.5t95.5 -223.5t-95.5 -223.5t-232.5 -93.5t-232 93.5t-95 223.5zM1208 133q69 0 116.5 47.5t47.5 116.5t-47.5 116.5t-116.5 47.5t-116.5 -47.5t-47.5 -116.5t47.5 -116.5t116.5 -47.5z" />
    <glyph glyph-name="ampersand" unicode="&#x26;" horiz-adv-x="1269" 
d="M625 748l276 -338q30 54 41 82q41 91 41 204h184q0 -151 -67 -313q-23 -60 -66 -127q19 -24 45 -47q61 -45 109 -45q15 0 43 4l18 6v-184l-18 -6q-28 -4 -74 -4q-102 0 -180 71q-39 31 -66 72q-43 -43 -102 -78q-133 -76 -287 -76q-188 0 -304 106t-116 263
q0 179 138 309q65 62 139 101q-59 59 -103 120q-102 144 -102 258q0 140 99.5 234t258.5 94q151 0 250 -92.5t99 -224.5t-129 -279q-51 -57 -127 -110zM788 256l-296 369q-52 -35 -93 -78q-92 -96 -92 -199q0 -79 64 -136.5t161 -57.5q108 0 189 51q27 15 67 51zM522 870
q41 38 82 86q82 98 82 170q0 62 -43 103t-111 41q-76 0 -119.5 -40.5t-43.5 -103.5q0 -76 75 -170q31 -39 78 -86z" />
    <glyph glyph-name="quotesingle" unicode="'" horiz-adv-x="430" 
d="M123 973v461h184v-461h-184z" />
    <glyph glyph-name="parenleft" unicode="(" horiz-adv-x="665" 
d="M635 -358l-156 -103q-101 113 -178 264q-178 336 -178 709q0 369 178 709q77 148 178 264l156 -103q-88 -111 -154 -243q-153 -298 -153 -627t153 -627q66 -132 154 -243z" />
    <glyph glyph-name="parenright" unicode=")" horiz-adv-x="665" 
d="M186 -461l-155 103q85 108 153 243q154 316 154 627t-154 627q-68 135 -153 243l155 103q100 -119 179 -264q178 -340 178 -709t-178 -709q-79 -149 -179 -264z" />
    <glyph glyph-name="asterisk" unicode="*" horiz-adv-x="819" 
d="M143 850l164 205l-246 61l52 154l235 -92l-20 256h164l-21 -256l236 92l51 -154l-246 -61l164 -205l-123 -102l-143 225l-144 -225z" />
    <glyph glyph-name="plus" unicode="+" horiz-adv-x="1054" 
d="M72 512v184h368v369h174v-369h369v-184h-369v-369h-174v369h-368z" />
    <glyph glyph-name="comma" unicode="," horiz-adv-x="450" 
d="M-20 -195l204 441l185 -103l-256 -409z" />
    <glyph glyph-name="hyphen" unicode="-" horiz-adv-x="839" 
d="M92 512v184h656v-184h-656z" />
    <glyph glyph-name="period" unicode="." horiz-adv-x="450" 
d="M225 -20q-54 0 -93.5 39.5t-39.5 93.5t39.5 93.5t93.5 39.5t93.5 -39.5t39.5 -93.5t-39.5 -93.5t-93.5 -39.5z" />
    <glyph glyph-name="slash" unicode="/" horiz-adv-x="798" 
d="M0 -430l614 1884h185l-615 -1884h-184z" />
    <glyph glyph-name="zero" unicode="0" horiz-adv-x="1413" 
d="M1075 717q0 130 -30 233.5t-81 167.5t-117 97.5t-140 33.5q-156 0 -262.5 -138.5t-106.5 -393.5q0 -130 30 -233.5t81.5 -168t117.5 -98t140 -33.5t140 33.5t117 98t81 168t30 233.5zM707 -20q-123 0 -231 50t-189 142t-127.5 232.5t-46.5 312.5t46.5 312.5t127.5 232.5
t189 142t231 50t231 -50t188.5 -142t127 -232.5t46.5 -312.5t-46.5 -312.5t-127 -232.5t-188.5 -142t-231 -50z" />
    <glyph glyph-name="one" unicode="1" horiz-adv-x="757" 
d="M328 0v1096h-256v143q130 16 198.5 64t108.5 131h174v-1434h-225z" />
    <glyph glyph-name="two" unicode="2" horiz-adv-x="1146" 
d="M338 215h696v-215h-962q0 103 25 192.5t68 155.5t98 123.5t116 102t122.5 85.5t116.5 80.5t98 79.5t68 89.5t25 105.5q0 102 -67.5 163.5t-188.5 61.5q-133 0 -219 -98q-36 -42 -58 -97l-184 82q27 90 88 164q136 164 373 164q212 0 346.5 -126.5t134.5 -313.5
q0 -86 -29.5 -159.5t-80 -128t-112.5 -103t-131.5 -94t-132.5 -90t-120 -103t-90 -121.5z" />
    <glyph glyph-name="three" unicode="3" horiz-adv-x="1157" 
d="M41 195l154 153q32 -44 86 -82q114 -82 262 -82q135 0 210.5 66t75.5 170q0 97 -76 161t-210 64h-154v215h154q114 0 174.5 53t60.5 142t-60.5 141.5t-174.5 52.5q-116 0 -228 -71q-48 -36 -79 -72l-154 154q54 54 119 96q160 98 342 98q209 0 335 -110t126 -269
q0 -151 -109 -248q-41 -39 -107 -69q76 -28 134 -74q133 -111 133 -274q0 -184 -140 -307t-372 -123q-215 0 -377 106q-69 44 -125 109z" />
    <glyph glyph-name="four" unicode="4" horiz-adv-x="1208" 
d="M61 287v245l656 902h266v-942h184v-205h-184v-287h-225v287h-697zM276 492h482v665z" />
    <glyph glyph-name="five" unicode="5" horiz-adv-x="1208" 
d="M82 195l154 153q32 -44 86 -82q114 -82 262 -82q138 0 217.5 76t79.5 201t-79.5 200.5t-217.5 75.5q-104 0 -199 -71q-46 -39 -68 -72l-163 20l51 820h809v-215h-615l-20 -349q34 22 65 35q88 37 181 37q209 0 345 -136t136 -345q0 -212 -143.5 -346.5t-378.5 -134.5
q-215 0 -377 106q-69 44 -125 109z" />
    <glyph glyph-name="six" unicode="6" horiz-adv-x="1208" 
d="M195 778l419 656h246l-328 -502l23 4q42 6 70 6q206 0 348.5 -140.5t142.5 -340.5q0 -202 -146 -341.5t-366 -139.5t-366 139.5t-146 341.5q0 108 51 219q11 27 52 98zM317 461q0 -116 82.5 -196.5t204.5 -80.5t204.5 80.5t82.5 196.5t-82.5 196t-204.5 80t-204.5 -80
t-82.5 -196z" />
    <glyph glyph-name="seven" unicode="7" horiz-adv-x="1064" 
d="M164 0l594 1219h-697v215h943v-205l-594 -1229h-246z" />
    <glyph glyph-name="eight" unicode="8" horiz-adv-x="1228" 
d="M328 420q0 -104 75.5 -170t210.5 -66t211 66.5t76 169.5t-76 169t-211 66t-210.5 -66t-75.5 -169zM389 1055q0 -88 59 -141.5t166 -53.5t166.5 53.5t59.5 141.5t-59.5 141t-166.5 53t-166 -53t-59 -141zM102 410q0 167 123 278q53 50 123 80q-51 26 -92 70
q-92 96 -92 237q0 159 124.5 269t325.5 110q134 0 238 -52t158.5 -138t54.5 -189q0 -141 -92 -237q-41 -44 -92 -70q70 -30 123 -80q122 -110 122 -278q0 -184 -140 -307t-372 -123t-372 123t-140 307z" />
    <glyph glyph-name="nine" unicode="9" horiz-adv-x="1208" 
d="M348 0l328 502l-23 -6q-32 -4 -69 -4q-206 0 -349 140.5t-143 340.5q0 202 146 341.5t366 139.5t366 -139.5t146 -341.5q0 -101 -51 -221q-17 -42 -51 -97l-420 -655h-246zM317 973q0 -116 82.5 -196.5t204.5 -80.5t204.5 80.5t82.5 196.5t-82.5 196t-204.5 80
t-204.5 -80t-82.5 -196z" />
    <glyph glyph-name="colon" unicode=":" horiz-adv-x="450" 
d="M92 113q0 54 39.5 93.5t93.5 39.5t93.5 -39.5t39.5 -93.5t-39.5 -93.5t-93.5 -39.5t-93.5 39.5t-39.5 93.5zM92 870q0 54 39.5 94t93.5 40t93.5 -40t39.5 -94t-39.5 -93.5t-93.5 -39.5t-93.5 39.5t-39.5 93.5z" />
    <glyph glyph-name="semicolon" unicode=";" horiz-adv-x="460" 
d="M-20 -195l204 441l185 -103l-256 -409zM113 870q0 54 39.5 94t93.5 40t93.5 -40t39.5 -94t-39.5 -93.5t-93.5 -39.5t-93.5 39.5t-39.5 93.5z" />
    <glyph glyph-name="less" unicode="&#x3c;" horiz-adv-x="1024" 
d="M82 440v123l860 441v-205l-584 -297l584 -297v-205z" />
    <glyph glyph-name="equal" unicode="=" horiz-adv-x="1003" 
d="M82 317v185h840v-185h-840zM82 707v184h840v-184h-840z" />
    <glyph glyph-name="greater" unicode="&#x3e;" horiz-adv-x="1024" 
d="M82 0v205l584 297l-584 297v205l860 -441v-123z" />
    <glyph glyph-name="question" unicode="?" horiz-adv-x="1095" 
d="M614 389h-204l-7 27q-4 32 -4 65q0 61 21.5 112t56 87.5t76 69.5t82.5 64t75.5 63t56 74.5t21.5 92.5q0 89 -65.5 147t-179.5 58q-144 0 -238 -102q-37 -43 -59 -103l-185 72q26 90 91 168q146 170 391 170q104 0 193.5 -32t149.5 -85.5t94 -124t34 -147.5
q0 -79 -22 -143.5t-57.5 -107.5t-78 -80.5t-85 -71t-78 -69t-57.5 -85t-22 -109.5v-10zM379 113q0 54 39.5 93.5t93.5 39.5t93.5 -39.5t39.5 -93.5t-39.5 -93.5t-93.5 -39.5t-93.5 39.5t-39.5 93.5z" />
    <glyph glyph-name="at" unicode="@" horiz-adv-x="1812" 
d="M891 276q87 0 146 63.5t59 162.5t-59 162t-146 63t-146 -63t-59 -162t59 -162.5t146 -63.5zM1290 10l92 -112q-47 -49 -116 -88q-160 -86 -355 -86q-162 0 -308 61.5t-251.5 167t-167 251.5t-61.5 308t61.5 308t167 251.5t251.5 167t308 61.5q170 0 317.5 -58t250.5 -158
t162 -237.5t59 -293.5q0 -207 -91.5 -318.5t-236.5 -111.5q-116 0 -188 72q-39 34 -58 71q-21 -41 -59 -71q-76 -72 -197 -72q-140 0 -244 110t-104 269t104 269t244 110q101 0 174 -58q31 -25 52 -55v102h164v-471q0 -54 32 -88.5t80 -34.5q68 0 116 70t48 207
q0 168 -78.5 303t-222 213t-324.5 78q-172 0 -315.5 -83.5t-226 -229.5t-82.5 -322t82.5 -322t226 -229.5t315.5 -83.5q159 0 285 66q53 26 94 67z" />
    <glyph glyph-name="A" unicode="A" horiz-adv-x="1433" 
d="M20 0l574 1434h246l573 -1434h-235l-144 369h-635l-143 -369h-236zM481 573h471l-235 594z" />
    <glyph glyph-name="B" unicode="B" horiz-adv-x="1392" 
d="M205 0v1434h573q188 0 309 -111t121 -268q0 -128 -88 -224q-36 -39 -86 -63q68 -26 123 -78q123 -107 123 -270q0 -172 -134 -296t-337 -124h-604zM430 195h379q108 0 177 67t69 168t-69 168.5t-177 67.5h-379v-471zM430 850h348q92 0 148.5 54t56.5 140q0 87 -56.5 141
t-148.5 54h-348v-389z" />
    <glyph glyph-name="C" unicode="C" horiz-adv-x="1525" 
d="M1321 410l143 -144q-65 -81 -151 -143q-199 -143 -443 -143q-158 0 -299 58t-241 156.5t-158.5 234.5t-58.5 288t58.5 288t158.5 234.5t241 156.5t299 58q250 0 439 -139q87 -65 145 -137l-143 -144q-46 61 -109 107q-145 108 -332 108q-146 0 -268.5 -70.5t-193 -193
t-70.5 -268.5t70.5 -268.5t193 -193.5t268.5 -71q185 0 336 113q71 52 115 113z" />
    <glyph glyph-name="D" unicode="D" horiz-adv-x="1546" 
d="M205 0v1434h481q154 0 293.5 -58t238.5 -155t157.5 -229t58.5 -275t-58.5 -275t-157.5 -229t-238.5 -155t-293.5 -58h-481zM430 205h256q146 0 266 68t188 185t68 259t-68 259t-188 185t-266 68h-256v-1024z" />
    <glyph glyph-name="E" unicode="E" horiz-adv-x="1331" 
d="M205 0v1434h1014v-215h-789v-369h625v-215h-625v-420h809v-215h-1034z" />
    <glyph glyph-name="F" unicode="F" horiz-adv-x="1280" 
d="M205 0v1434h1003v-215h-778v-410h614v-215h-614v-594h-225z" />
    <glyph glyph-name="G" unicode="G" horiz-adv-x="1648" 
d="M963 553v205h522v-502q-64 -76 -158 -139q-198 -137 -457 -137q-158 0 -299 58t-241 156.5t-158.5 234.5t-58.5 288t58.5 288t158.5 234.5t241 156.5t299 58q250 0 439 -139q87 -65 145 -137l-143 -144q-46 61 -109 107q-145 108 -332 108q-146 0 -268.5 -70.5t-193 -193
t-70.5 -268.5t70.5 -268.5t193 -193.5t268.5 -71q162 0 291 76q59 34 99 78v215h-297z" />
    <glyph glyph-name="H" unicode="H" horiz-adv-x="1566" 
d="M205 0v1434h225v-605h707v605h225v-1434h-225v625h-707v-625h-225z" />
    <glyph glyph-name="I" unicode="I" horiz-adv-x="634" 
d="M205 0v1434h225v-1434h-225z" />
    <glyph glyph-name="J" unicode="J" horiz-adv-x="1024" 
d="M0 143l143 144q28 -32 60 -51q75 -52 176 -52q110 0 172.5 67t62.5 189v994h226v-994q0 -209 -126 -334.5t-335 -125.5q-161 0 -285 81q-55 37 -94 82z" />
    <glyph glyph-name="K" unicode="K" horiz-adv-x="1402" 
d="M205 0v1434h225v-697l645 697h287l-553 -594l594 -840h-277l-471 676l-225 -246v-430h-225z" />
    <glyph glyph-name="L" unicode="L" horiz-adv-x="1167" 
d="M205 0v1434h225v-1219h696v-215h-921z" />
    <glyph glyph-name="M" unicode="M" horiz-adv-x="1904" 
d="M205 0v1434h205l542 -697l543 697h205v-1434h-225v1055l-523 -666l-522 666v-1055h-225z" />
    <glyph glyph-name="N" unicode="N" horiz-adv-x="1628" 
d="M205 0v1434h205l788 -1055v1055h225v-1434h-204l-789 1055v-1055h-225z" />
    <glyph glyph-name="O" unicode="O" horiz-adv-x="1740" 
d="M338 717q0 -146 70.5 -268.5t193 -193.5t268.5 -71t268.5 71t193.5 193.5t71 268.5t-71 268.5t-193.5 193t-268.5 70.5t-268.5 -70.5t-193 -193t-70.5 -268.5zM113 717q0 152 58.5 288t158.5 234.5t241 156.5t299 58t299 -58t241.5 -156.5t159 -235t58.5 -287.5
t-58.5 -287.5t-159 -235t-241.5 -156.5t-299 -58t-299 58t-241 156.5t-158.5 234.5t-58.5 288z" />
    <glyph glyph-name="P" unicode="P" horiz-adv-x="1351" 
d="M205 0v1434h573q207 0 344.5 -133.5t137.5 -327.5t-137.5 -327.5t-344.5 -133.5h-348v-512h-225zM430 717h348q107 0 181.5 74.5t74.5 181.5t-74.5 181.5t-181.5 74.5h-348v-512z" />
    <glyph glyph-name="Q" unicode="Q" horiz-adv-x="1740" 
d="M1669 -113v-194l-29 -6q-36 -4 -73 -4q-252 0 -428 153q-81 66 -135 154l-43 -6q-54 -4 -91 -4q-158 0 -299 58t-241 156.5t-158.5 234.5t-58.5 288t58.5 288t158.5 234.5t241 156.5t299 58t299 -58t241.5 -156.5t159 -235t58.5 -287.5q0 -303 -205 -508
q-89 -92 -204 -148q34 -52 86 -92q115 -92 272 -92q33 0 65 4zM338 717q0 -146 70.5 -268.5t193 -193.5t268.5 -71t268.5 71t193.5 193.5t71 268.5t-71 268.5t-193.5 193t-268.5 70.5t-268.5 -70.5t-193 -193t-70.5 -268.5z" />
    <glyph glyph-name="R" unicode="R" horiz-adv-x="1413" 
d="M205 0v1434h594q205 0 338 -129.5t133 -321.5q0 -197 -137 -324q-62 -56 -138 -86l326 -573h-256l-297 532h-338v-532h-225zM430 737h369q109 0 177 68.5t68 177.5t-68 177.5t-177 68.5h-369v-492z" />
    <glyph glyph-name="S" unicode="S" horiz-adv-x="1167" 
d="M61 195l154 153q32 -44 86 -82q118 -82 272 -82q134 0 210.5 62t76.5 153q0 50 -26 88t-70 61.5t-100.5 42.5t-119.5 37t-126 38.5t-119.5 52.5t-100.5 74.5t-70 109.5t-26 152q0 167 135 283t357 116q187 0 336 -92q69 -42 114 -92l-153 -154q-40 44 -76 66
q-99 67 -221 67q-125 0 -195.5 -56t-70.5 -138q0 -50 26 -88t69.5 -61.5t100.5 -42.5t119.5 -37t125.5 -38.5t120 -52.5t100.5 -74.5t69.5 -109.5t26 -152q0 -113 -61 -208t-179 -153t-272 -58q-225 0 -387 106q-69 44 -125 109z" />
    <glyph glyph-name="T" unicode="T" horiz-adv-x="1167" 
d="M471 0v1219h-430v215h1085v-215h-430v-1219h-225z" />
    <glyph glyph-name="U" unicode="U" horiz-adv-x="1576" 
d="M184 573v861h226v-861q0 -168 108 -278.5t270 -110.5q155 0 267 114.5t112 274.5v861h226v-861q0 -262 -168.5 -427.5t-436.5 -165.5t-436 165.5t-168 427.5z" />
    <glyph glyph-name="V" unicode="V" horiz-adv-x="1413" 
d="M584 0l-553 1434h235l441 -1147l440 1147h235l-553 -1434h-245z" />
    <glyph glyph-name="W" unicode="W" horiz-adv-x="2150" 
d="M512 0l-471 1434h235l349 -1076l338 1076h225l338 -1076l348 1076h235l-471 -1434h-225l-338 1075l-338 -1075h-225z" />
    <glyph glyph-name="X" unicode="X" horiz-adv-x="1351" 
d="M20 0l512 748l-471 686h267l348 -523l348 523h266l-471 -686l512 -748h-266l-389 584l-389 -584h-267z" />
    <glyph glyph-name="Y" unicode="Y" horiz-adv-x="1331" 
d="M553 0v512l-543 922h256l400 -697l399 697h256l-543 -922v-512h-225z" />
    <glyph glyph-name="Z" unicode="Z" horiz-adv-x="1269" 
d="M92 0v215l799 1004h-768v215h1034v-215l-799 -1004h820v-215h-1086z" />
    <glyph glyph-name="bracketleft" unicode="[" horiz-adv-x="686" 
d="M164 -430v1884h471v-194h-266v-1496h266v-194h-471z" />
    <glyph glyph-name="backslash" unicode="\" horiz-adv-x="798" 
d="M614 -430l-614 1884h184l615 -1884h-185z" />
    <glyph glyph-name="bracketright" unicode="]" horiz-adv-x="686" 
d="M51 -430v194h266v1496h-266v194h471v-1884h-471z" />
    <glyph glyph-name="asciicircum" unicode="^" horiz-adv-x="839" 
d="M72 840l276 594h144l276 -594h-184l-164 368l-164 -368h-184z" />
    <glyph glyph-name="underscore" unicode="_" horiz-adv-x="696" 
d="M-20 -379v184h737v-184h-737z" />
    <glyph glyph-name="grave" unicode="`" horiz-adv-x="491" 
d="M276 1147l-215 287h215l154 -287h-154z" />
    <glyph glyph-name="a" unicode="a" horiz-adv-x="1064" 
d="M717 0v143q-26 -40 -78 -82q-109 -81 -240 -81q-144 0 -235.5 83.5t-91.5 202.5q0 122 77 202.5t209 104.5l359 62q0 79 -57 131.5t-148 52.5t-186 -67q-37 -25 -70 -66l-133 133q40 52 98 92q131 93 291 93q182 0 296 -108t114 -271v-625h-205zM717 440v31l-287 -51
q-76 -13 -115 -48.5t-39 -84.5q0 -56 44.5 -94.5t119.5 -38.5q116 0 196.5 82t80.5 204z" />
    <glyph glyph-name="b" unicode="b" horiz-adv-x="1239" 
d="M154 0v1434h204v-594q27 42 80 82q110 82 258 82q122 0 227.5 -65t169.5 -183.5t64 -263.5t-64 -263.5t-169.5 -183.5t-227.5 -65q-149 0 -258 81q-53 40 -80 82v-143h-204zM655 174q125 0 211 90t86 228t-86 227.5t-211 89.5t-211 -89.5t-86 -227.5t86 -228t211 -90z
" />
    <glyph glyph-name="c" unicode="c" horiz-adv-x="1064" 
d="M870 317l144 -133q-42 -53 -107 -102q-144 -102 -313 -102q-215 0 -363.5 148.5t-148.5 363.5t148.5 363.5t363.5 148.5q172 0 309 -99q63 -47 101 -96l-144 -133q-28 39 -67 65q-97 68 -199 68q-132 0 -219.5 -89.5t-87.5 -227.5t88 -228t219 -90q116 0 203 72
q34 25 73 71z" />
    <glyph glyph-name="d" unicode="d" horiz-adv-x="1239" 
d="M881 0v143q-27 -42 -80 -82q-109 -81 -258 -81q-122 0 -227.5 65t-169.5 183.5t-64 263.5t64 263.5t169.5 183.5t227.5 65q148 0 258 -82q53 -40 80 -82v594h204v-1434h-204zM584 174q125 0 211 90t86 228t-86 227.5t-211 89.5t-211 -89.5t-86 -227.5t86 -228t211 -90z
" />
    <glyph glyph-name="e" unicode="e" horiz-adv-x="1146" 
d="M891 307l123 -143q-38 -49 -103 -92q-141 -92 -317 -92q-215 0 -363.5 148.5t-148.5 363.5q0 141 67.5 259t183 185.5t251.5 67.5q209 0 345 -136.5t136 -345.5q0 -19 -6 -73l-4 -29h-758q18 -104 102 -175t205 -71q111 0 209 66q44 28 78 67zM297 594h553
q-24 103 -92.5 164t-173.5 61q-112 0 -183.5 -60t-103.5 -165z" />
    <glyph glyph-name="f" unicode="f" horiz-adv-x="716" 
d="M215 0v788h-154v195h154v143q0 160 79 244t228 84q57 0 111 -16q19 -8 43 -15v-194l-33 14q-49 17 -80 17q-143 0 -143 -154v-123h235v-195h-235v-788h-205z" />
    <glyph glyph-name="g" unicode="g" 
d="M113 -225l143 133q40 -47 74 -72q87 -72 202 -72q140 0 224 85.5t84 232.5v92q-28 -41 -78 -78q-107 -76 -240 -76q-181 0 -310.5 140.5t-129.5 351.5t129.5 351.5t310.5 140.5q130 0 240 -78q48 -36 78 -76v133h204v-901q0 -223 -144.5 -367.5t-367.5 -144.5
q-169 0 -313 102q-60 46 -106 103zM563 215q117 0 197 84t80 213t-80 213t-197 84t-196.5 -84t-79.5 -213t79.5 -213t196.5 -84z" />
    <glyph glyph-name="h" unicode="h" horiz-adv-x="1198" 
d="M154 0v1434h204v-594q28 43 76 82q102 82 232 82q172 0 280.5 -116.5t108.5 -314.5v-573h-205v573q0 108 -62 172t-163 64q-116 0 -191.5 -77.5t-75.5 -199.5v-532h-204z" />
    <glyph glyph-name="i" unicode="i" horiz-adv-x="512" 
d="M154 0v983h204v-983h-204zM133 1290q0 52 37 87.5t86 35.5t86 -35.5t37 -87.5t-37 -87.5t-86 -35.5t-86 35.5t-37 87.5z" />
    <glyph glyph-name="j" unicode="j" horiz-adv-x="512" 
d="M-102 -399v194l32 -16q34 -15 80 -15q144 0 144 154v1065h204v-1085q0 -160 -79 -244t-228 -84q-63 0 -110 14zM133 1290q0 52 37 87.5t86 35.5t86 -35.5t37 -87.5t-37 -87.5t-86 -35.5t-86 35.5t-37 87.5z" />
    <glyph glyph-name="k" unicode="k" horiz-adv-x="1064" 
d="M154 0v1434h204v-902l420 451h256l-379 -399l410 -584h-236l-307 440l-164 -174v-266h-204z" />
    <glyph glyph-name="l" unicode="l" horiz-adv-x="512" 
d="M154 0v1434h204v-1434h-204z" />
    <glyph glyph-name="m" unicode="m" horiz-adv-x="1781" 
d="M143 0v983h205v-143q21 40 66 82q94 82 221 82q135 0 233 -82q48 -41 74 -82q23 39 76 82q110 82 262 82q150 0 254 -116.5t104 -303.5v-584h-204v584q0 105 -58 165t-147 60q-102 0 -169 -72.5t-67 -193.5v-543h-205v584q0 106 -57.5 165.5t-146.5 59.5
q-102 0 -169 -72.5t-67 -193.5v-543h-205z" />
    <glyph glyph-name="n" unicode="n" 
d="M143 0v983h205v-143q28 43 76 82q102 82 231 82q172 0 280.5 -116.5t108.5 -314.5v-573h-204v573q0 108 -62.5 172t-163.5 64q-116 0 -191 -77.5t-75 -199.5v-532h-205z" />
    <glyph glyph-name="o" unicode="o" 
d="M82 492q0 215 148.5 363.5t363.5 148.5t363.5 -148.5t148.5 -363.5t-148.5 -363.5t-363.5 -148.5t-363.5 148.5t-148.5 363.5zM594 174q131 0 219 90t88 228t-87.5 227.5t-219.5 89.5t-219.5 -89.5t-87.5 -227.5t88 -228t219 -90z" />
    <glyph glyph-name="p" unicode="p" horiz-adv-x="1228" 
d="M143 -430v1413h205v-143q27 42 80 82q110 82 258 82q122 0 227.5 -65t169.5 -183.5t64 -263.5t-64 -263.5t-169.5 -183.5t-227.5 -65q-149 0 -258 81q-53 40 -80 82v-573h-205zM645 174q125 0 211 90t86 228t-86 227.5t-211 89.5t-211 -89.5t-86 -227.5t86 -228t211 -90z
" />
    <glyph glyph-name="q" unicode="q" horiz-adv-x="1228" 
d="M881 -430v573q-27 -42 -80 -82q-109 -81 -258 -81q-122 0 -227.5 65t-169.5 183.5t-64 263.5t64 263.5t169.5 183.5t227.5 65q148 0 258 -82q53 -40 80 -82v143h204v-1413h-204zM584 174q125 0 211 90t86 228t-86 227.5t-211 89.5t-211 -89.5t-86 -227.5t86 -228t211 -90
z" />
    <glyph glyph-name="r" unicode="r" horiz-adv-x="737" 
d="M143 0v983h205v-133q41 48 76 76q98 78 221 78h51v-216l-26 5q-48 6 -56 6q-108 0 -187 -84.5t-79 -212.5v-502h-205z" />
    <glyph glyph-name="s" unicode="s" horiz-adv-x="890" 
d="M51 164l133 133q31 -42 70 -68q93 -65 186 -65q82 0 128 36t46 87q0 33 -29 56.5t-75 39.5t-101.5 31.5t-111 38.5t-101.5 54t-75 85t-29 125q0 120 98.5 203.5t260.5 83.5q145 0 262 -68q48 -25 86 -66l-133 -133q-30 27 -58 41q-70 41 -157 41q-73 0 -113.5 -30
t-40.5 -72q0 -33 29 -57t75 -39.5t101.5 -31.5t111 -39t101.5 -54t75 -84.5t29 -124.5q0 -128 -103.5 -217.5t-275.5 -89.5q-161 0 -290 92q-60 42 -99 92z" />
    <glyph glyph-name="t" unicode="t" horiz-adv-x="808" 
d="M246 307v481h-185v195h113q48 0 70 26t22 87v215h185v-328h225v-195h-225v-460q0 -154 143 -154q40 0 80 14l33 17v-195l-43 -16q-47 -14 -111 -14q-149 0 -228 83.5t-79 243.5z" />
    <glyph glyph-name="u" unicode="u" 
d="M143 410v573h205v-573q0 -108 62 -172t163 -64q116 0 191.5 77.5t75.5 199.5v532h204v-983h-204v143q-35 -48 -78 -82q-101 -81 -230 -81q-172 0 -280.5 116t-108.5 314z" />
    <glyph glyph-name="v" unicode="v" horiz-adv-x="1044" 
d="M410 0l-390 983h226l276 -727l277 727h225l-389 -983h-225z" />
    <glyph glyph-name="w" unicode="w" horiz-adv-x="1556" 
d="M369 0l-349 983h226l225 -666l215 666h184l215 -666l226 666h225l-348 -983h-195l-215 655l-215 -655h-194z" />
    <glyph glyph-name="x" unicode="x" horiz-adv-x="1024" 
d="M20 0l369 512l-338 471h236l225 -317l225 317h236l-338 -471l369 -512h-236l-256 358l-256 -358h-236z" />
    <glyph glyph-name="y" unicode="y" horiz-adv-x="1044" 
d="M82 -399v194q6 -4 35 -16q43 -15 88 -15q120 0 174 134l41 102l-400 983h226l276 -727l277 727h225l-430 -1096q-63 -158 -150 -237.5t-208 -79.5q-64 0 -111 14z" />
    <glyph glyph-name="z" unicode="z" horiz-adv-x="993" 
d="M82 0v195l543 593h-523v195h789v-195l-543 -593h563v-195h-829z" />
    <glyph glyph-name="braceleft" unicode="{" horiz-adv-x="716" 
d="M225 -123v410q0 61 -35.5 97t-97.5 36h-31v184h31q62 0 97.5 36t35.5 97v410q0 140 85.5 223.5t232.5 83.5h123v-194h-103q-61 0 -97 -36t-36 -98v-389q0 -118 -72 -186q-41 -32 -71 -39q30 -7 71 -39q72 -68 72 -186v-389q0 -62 36 -98t97 -36h103v-194h-123
q-147 0 -232.5 83.5t-85.5 223.5z" />
    <glyph glyph-name="bar" unicode="|" horiz-adv-x="696" 
d="M246 -430v1884h205v-1884h-205z" />
    <glyph glyph-name="braceright" unicode="}" horiz-adv-x="716" 
d="M51 -430v194h103q61 0 97 36t36 98v389q0 126 71 186q34 31 72 39q-38 8 -72 39q-71 60 -71 186v389q0 62 -36 98t-97 36h-103v194h123q147 0 232.5 -83.5t85.5 -223.5v-410q0 -61 36 -97t97 -36h30v-184h-30q-61 0 -97 -36t-36 -97v-410q0 -140 -85.5 -223.5
t-232.5 -83.5h-123z" />
    <glyph glyph-name="asciitilde" unicode="~" horiz-adv-x="1116" 
d="M195 471l-123 92q28 54 67 96q95 99 230 99q59 0 115.5 -22.5t93 -49.5t83 -49.5t87.5 -22.5q71 0 133 62q28 32 41 61l122 -92q-27 -55 -67 -98q-92 -96 -229 -96q-59 0 -115.5 22.5t-93.5 49t-83.5 49t-86.5 22.5q-71 0 -133 -62q-28 -32 -41 -61z" />
    <glyph glyph-name="nbspace" unicode="&#xa0;" horiz-adv-x="430" 
 />
    <glyph glyph-name="exclamdown" unicode="&#xa1;" horiz-adv-x="593" 
d="M174 -430l41 1024h164l41 -1024h-246zM164 870q0 54 39.5 94t93.5 40t93.5 -40t39.5 -94t-39.5 -93.5t-93.5 -39.5t-93.5 39.5t-39.5 93.5z" />
    <glyph glyph-name="cent" unicode="&#xa2;" horiz-adv-x="1064" 
d="M481 -225v215q-169 38 -284 174.5t-115 327.5t115 326.5t284 174.5v215h185v-211q135 -18 249 -104q56 -43 89 -84l-144 -133q-28 39 -67 65q-97 68 -199 68q-132 0 -219.5 -89.5t-87.5 -227.5t88 -228t219 -90q116 0 203 72q34 25 73 71l144 -133q-38 -50 -90 -90
q-113 -90 -258 -108v-211h-185z" />
    <glyph glyph-name="sterling" unicode="&#xa3;" horiz-adv-x="1116" 
d="M82 0v205q143 0 143 143v225h-133v185h133v235q0 208 124.5 334.5t326.5 126.5q156 0 291 -88q58 -37 98 -86l-143 -143q-25 31 -62 55q-75 57 -184 57q-110 0 -178 -70t-68 -186v-235h399v-185h-399v-225q0 -66 -27 -110q-9 -21 -24 -33h696v-205h-993z" />
    <glyph glyph-name="currency" unicode="&#xa4;" horiz-adv-x="1064" 
d="M317 686q0 -92 61.5 -153.5t153.5 -61.5t154 61.5t62 153.5t-62 153.5t-154 61.5t-153.5 -61.5t-61.5 -153.5zM102 379l115 117q-20 32 -27 53q-26 61 -26 137t26 137q8 23 27 54l-115 116l123 123l115 -117q18 13 53 27q73 29 139 29q68 0 140 -29q35 -14 53 -27
l115 117l123 -123l-115 -116q7 -11 26 -54q27 -64 27 -137t-27 -137q-18 -39 -26 -53l115 -117l-123 -123l-115 117q-25 -18 -53 -29q-68 -27 -140 -27t-139 27q-28 11 -53 29l-115 -117z" />
    <glyph glyph-name="yen" unicode="&#xa5;" horiz-adv-x="1331" 
d="M236 215v174h317v123h-317v174h215l-441 748h256l400 -697l399 697h256l-440 -748h215v-174h-318v-123h318v-174h-318v-215h-225v215h-317z" />
    <glyph glyph-name="brokenbar" unicode="&#xa6;" horiz-adv-x="696" 
d="M246 -430v778h205v-778h-205zM246 676v778h205v-778h-205z" />
    <glyph glyph-name="section" unicode="&#xa7;" horiz-adv-x="1085" 
d="M113 -41l133 133q30 -40 73 -67q98 -66 213 -66q96 0 145.5 39.5t49.5 103.5q0 33 -21.5 60t-57.5 47.5t-83 40t-99 39t-103.5 42t-98.5 53t-83 67.5t-57.5 89t-21.5 115q0 114 93 207q41 41 92 70q-39 24 -62 53q-61 69 -61 162q0 128 103.5 217.5t275.5 89.5
q147 0 268 -72q62 -41 90 -71l-133 -133q-24 21 -63 45q-80 47 -162 47q-89 0 -131.5 -33t-42.5 -90q0 -41 34 -73.5t88 -56t119.5 -47t131 -54.5t119.5 -69.5t88 -101t34 -141.5q0 -115 -92 -207q-45 -45 -92 -69q36 -23 65 -60q68 -80 68 -166q0 -134 -111 -230.5
t-289 -96.5q-176 0 -317 92q-63 42 -102 92zM307 655q0 -54 45.5 -94t122.5 -76q70 -33 170 -55q38 15 66 37q67 55 67 137q0 91 -170 170q-71 34 -168 55q-40 -15 -67 -36q-66 -54 -66 -138z" />
    <glyph glyph-name="dieresis" unicode="&#xa8;" horiz-adv-x="778" 
d="M61 1290q0 52 37 87.5t86 35.5t86 -35.5t37 -87.5t-37 -87.5t-86 -35.5t-86 35.5t-37 87.5zM471 1290q0 52 37 87.5t86 35.5t86 -35.5t37 -87.5t-37 -87.5t-86 -35.5t-86 35.5t-37 87.5z" />
    <glyph glyph-name="copyright" unicode="&#xa9;" horiz-adv-x="1761" 
d="M881 123q161 0 298 79.5t216.5 216.5t79.5 298t-79.5 298t-216.5 216.5t-298 79.5t-298 -79.5t-216.5 -216.5t-79.5 -298t79.5 -298t216.5 -216.5t298 -79.5zM123 717q0 151 58.5 287.5t159 235t241.5 156.5t299 58t299 -58t241 -156.5t158.5 -234.5t58.5 -288
t-58.5 -288t-158.5 -234.5t-241 -156.5t-299 -58t-299 58t-241.5 156.5t-159 235t-58.5 287.5zM1106 584l102 -103q-28 -41 -78 -78q-106 -75 -239 -75q-168 0 -283.5 113.5t-115.5 275.5t115.5 275.5t283.5 113.5q129 0 239 -78q48 -36 78 -76l-102 -102q-20 29 -53 55
q-73 58 -162 58q-100 0 -173 -73t-73 -173t73 -173t173 -73q93 0 162 55q34 28 53 58z" />
    <glyph glyph-name="ordfeminine" unicode="&#xaa;" horiz-adv-x="696" 
d="M471 829v82q-20 -30 -47 -51q-62 -51 -148 -51q-90 0 -147 51.5t-57 122.5q0 77 50 126.5t144 68.5l205 41q0 48 -34.5 80t-88.5 32q-70 0 -115 -41q-22 -19 -38 -41l-93 82q19 32 58 62q77 61 188 61q122 0 194 -68t72 -178v-379h-143zM471 1096v20l-184 -41
q-31 -6 -51.5 -28t-20.5 -48q0 -77 92 -77q62 0 113 53t51 121z" />
    <glyph glyph-name="guillemotleft" unicode="&#xab;" horiz-adv-x="1034" 
d="M328 143l-246 349l246 348h215l-246 -348l246 -349h-215zM737 143l-245 349l245 348h215l-245 -348l245 -349h-215z" />
    <glyph glyph-name="logicalnot" unicode="&#xac;" horiz-adv-x="962" 
d="M82 635v184h799v-461h-205v277h-594z" />
    <glyph glyph-name="uni00AD" unicode="&#xad;" horiz-adv-x="839" 
d="M92 512v184h656v-184h-656z" />
    <glyph glyph-name="registered" unicode="&#xae;" horiz-adv-x="1761" 
d="M614 338v758h308q114 0 190 -72.5t76 -173.5q0 -92 -72 -160q-44 -35 -72 -45l175 -307h-164l-144 266h-143v-266h-154zM768 748h154q53 0 82.5 27t29.5 75t-29.5 75t-82.5 27h-154v-204zM881 123q161 0 298 79.5t216.5 216.5t79.5 298t-79.5 298t-216.5 216.5t-298 79.5
t-298 -79.5t-216.5 -216.5t-79.5 -298t79.5 -298t216.5 -216.5t298 -79.5zM123 717q0 151 58.5 287.5t159 235t241.5 156.5t299 58t299 -58t241 -156.5t158.5 -234.5t58.5 -288t-58.5 -288t-158.5 -234.5t-241 -156.5t-299 -58t-299 58t-241.5 156.5t-159 235t-58.5 287.5z
" />
    <glyph glyph-name="overscore" unicode="&#xaf;" horiz-adv-x="737" 
d="M61 1290v144h615v-144h-615z" />
    <glyph glyph-name="degree" unicode="&#xb0;" horiz-adv-x="737" 
d="M72 1167q0 116 87.5 201.5t209.5 85.5t209.5 -85.5t87.5 -201.5t-87.5 -201t-209.5 -85t-209.5 85t-87.5 201zM225 1167q0 -61 41 -102t103 -41q61 0 102 41t41 102q0 62 -41 103t-102 41t-102.5 -41.5t-41.5 -102.5z" />
    <glyph glyph-name="plusminus" unicode="&#xb1;" horiz-adv-x="1054" 
d="M72 696v185h368v368h174v-368h369v-185h-369v-368h-174v368h-368zM72 20v185h911v-185h-911z" />
    <glyph glyph-name="uni00B2" unicode="&#xb2;" horiz-adv-x="624" 
d="M61 922v20q0 62 19 114.5t50 88.5t68 66.5t74.5 55t68.5 47.5t50 50.5t19 58.5q0 39 -28.5 66t-74.5 27q-44 0 -92 -48q-20 -24 -31 -45l-123 41q12 54 45 92q69 93 201 93q115 0 180.5 -62t65.5 -164q0 -55 -23.5 -100.5t-62 -78.5t-79.5 -59.5t-84.5 -58t-67.5 -61.5
h317v-143h-492z" />
    <glyph glyph-name="uni00B3" unicode="&#xb3;" horiz-adv-x="634" 
d="M20 1024l93 92q24 -24 45 -37q60 -35 129 -35q66 0 99.5 26t33.5 67t-33.5 66.5t-99.5 25.5h-82v133h82q52 0 77 19.5t25 52.5q0 82 -102 82q-56 0 -111 -37q-13 -9 -43 -35l-92 92q26 33 61 55q77 58 185 58q114 0 179.5 -58t65.5 -147q0 -71 -40 -111q-16 -19 -41 -33
q32 -16 55 -36q57 -50 57 -138q0 -90 -75 -152.5t-201 -62.5q-125 0 -203 56q-39 25 -64 57z" />
    <glyph glyph-name="acute" unicode="&#xb4;" horiz-adv-x="491" 
d="M61 1147l154 287h215l-215 -287h-154z" />
    <glyph glyph-name="uni00B5" unicode="&#xb5;" horiz-adv-x="1198" 
d="M143 -430v1413h205v-573q0 -108 62 -172t163 -64q110 0 178 70t68 186v553h205v-727q0 -37 20.5 -59.5t51.5 -22.5q17 0 37 4l14 6v-194l-21 -6q-28 -4 -51 -4q-121 0 -190 81q-31 39 -45 82q-35 -48 -78 -82q-101 -81 -230 -81q-86 0 -139 24q-21 7 -45 27v-461h-205z
" />
    <glyph glyph-name="paragraph" unicode="&#xb6;" horiz-adv-x="1177" 
d="M430 -205v942q-148 0 -248 100t-100 248t100 248.5t248 100.5h563v-1639h-184v1444h-195v-1444h-184z" />
    <glyph glyph-name="middot" unicode="&#xb7;" horiz-adv-x="430" 
d="M215 379q-54 0 -93.5 39.5t-39.5 93.5t39.5 93.5t93.5 39.5t93.5 -39.5t39.5 -93.5t-39.5 -93.5t-93.5 -39.5z" />
    <glyph glyph-name="cedilla" unicode="&#xb8;" horiz-adv-x="522" 
d="M61 -369l52 93q23 -19 41 -27q45 -25 102 -25q38 0 60 19t22 49q0 27 -21 46t-51 19t-47 -10l-14 -10l-62 61l93 195h133l-72 -143q42 -3 82 -25q82 -46 82 -139q0 -73 -54.5 -123.5t-150.5 -50.5q-81 0 -143 34q-34 19 -52 37z" />
    <glyph glyph-name="uni00B9" unicode="&#xb9;" horiz-adv-x="481" 
d="M215 922v512h-133v112q64 0 110 29t54 63h112v-716h-143z" />
    <glyph glyph-name="ordmasculine" unicode="&#xba;" horiz-adv-x="778" 
d="M61 1124q0 139 95 234.5t233 95.5t233 -95.5t95 -234.5q0 -135 -95 -230t-233 -95t-233 95t-95 230zM215 1126q0 -79 48.5 -131.5t125.5 -52.5t125.5 52.5t48.5 131.5t-48.5 132t-125.5 53t-125.5 -53t-48.5 -132z" />
    <glyph glyph-name="guillemotright" unicode="&#xbb;" horiz-adv-x="1034" 
d="M492 143l245 349l-245 348h215l245 -348l-245 -349h-215zM82 143l246 349l-246 348h215l246 -348l-246 -349h-215z" />
    <glyph glyph-name="onequarter" unicode="&#xbc;" horiz-adv-x="1402" 
d="M123 0l891 1434h184l-891 -1434h-184zM195 717v512h-134v112q64 0 110 29.5t54 63.5h113v-717h-143zM778 143v144l318 430h164v-430h81v-144h-81v-143h-144v143h-338zM932 287h184v245z" />
    <glyph glyph-name="onehalf" unicode="&#xbd;" horiz-adv-x="1464" 
d="M123 0l891 1434h184l-891 -1434h-184zM195 717v512h-134v112q64 0 110 29.5t54 63.5h113v-717h-143zM891 0v20q0 62 19 114.5t50 88.5t68 66.5t74 55t68 48t50 51t19 58.5q0 39 -28 65.5t-74 26.5t-93 -47q-18 -21 -30 -45l-123 41q12 54 45 92q69 92 201 92
q115 0 180 -61.5t65 -163.5q0 -55 -23.5 -101t-62.5 -78.5t-79.5 -59t-84 -58.5t-67.5 -62h317v-143h-491z" />
    <glyph glyph-name="threequarters" unicode="&#xbe;" horiz-adv-x="1525" 
d="M246 0l891 1434h184l-891 -1434h-184zM41 819l92 92q24 -24 45 -37q59 -34 129 -34q66 0 99.5 25.5t33.5 66.5t-33.5 66.5t-99.5 25.5h-82v133h82q52 0 77.5 19.5t25.5 52.5q0 82 -103 82q-55 0 -110 -37q-13 -9 -43 -35l-93 92q25 31 62 55q77 58 184 58q114 0 180 -58
t66 -147q0 -70 -41 -111q-14 -17 -41 -32q30 -15 55 -37q58 -51 58 -137q0 -90 -75.5 -152.5t-201.5 -62.5q-127 0 -203 55q-37 24 -63 57zM901 143v144l318 430h163v-430h82v-144h-82v-143h-143v143h-338zM1055 287h184v245z" />
    <glyph glyph-name="questiondown" unicode="&#xbf;" horiz-adv-x="952" 
d="M809 -41l184 -72q-27 -95 -90 -170q-144 -168 -391 -168q-140 0 -249 55t-165.5 143.5t-56.5 191.5q0 79 22 142t57 104.5t77.5 76.5t85.5 66.5t78 65t57 82t22 108.5v10h205l4 -27q6 -48 6 -65q0 -60 -21.5 -110t-56 -85t-76 -66t-82.5 -60t-75.5 -59.5t-56 -72
t-21.5 -90.5q0 -89 66 -147t180 -58q143 0 238 103q38 44 59 102zM410 870q0 54 39.5 94t93.5 40t93.5 -40t39.5 -94t-39.5 -93.5t-93.5 -39.5t-93.5 39.5t-39.5 93.5z" />
    <glyph glyph-name="Agrave" unicode="&#xc0;" horiz-adv-x="1433" 
d="M20 0l574 1434h246l573 -1434h-235l-144 369h-635l-143 -369h-236zM481 573h471l-235 594zM625 1618l-215 287h215l153 -287h-153z" />
    <glyph glyph-name="Aacute" unicode="&#xc1;" horiz-adv-x="1433" 
d="M20 0l574 1434h246l573 -1434h-235l-144 369h-635l-143 -369h-236zM481 573h471l-235 594zM645 1618l154 287h215l-215 -287h-154z" />
    <glyph glyph-name="Acircumflex" unicode="&#xc2;" horiz-adv-x="1433" 
d="M20 0l574 1434h246l573 -1434h-235l-144 369h-635l-143 -369h-236zM481 573h471l-235 594zM389 1618l236 287h184l235 -287h-184l-143 174l-144 -174h-184z" />
    <glyph glyph-name="Atilde" unicode="&#xc3;" horiz-adv-x="1433" 
d="M20 0l574 1434h246l573 -1434h-235l-144 369h-635l-143 -369h-236zM481 573h471l-235 594zM512 1618h-133q0 142 54 209t151 67q45 0 86 -19t66.5 -42t56 -42t57.5 -19q40 0 61 28t21 94h133q0 -142 -54 -209t-151 -67q-45 0 -86 19t-66.5 42.5t-56 42.5t-57.5 19
q-40 0 -61 -28.5t-21 -94.5z" />
    <glyph glyph-name="Adieresis" unicode="&#xc4;" horiz-adv-x="1433" 
d="M20 0l574 1434h246l573 -1434h-235l-144 369h-635l-143 -369h-236zM481 573h471l-235 594zM389 1741q0 52 37 87.5t86 35.5t86 -35.5t37 -87.5t-37 -87.5t-86 -35.5t-86 35.5t-37 87.5zM799 1741q0 52 37 87.5t86 35.5t85.5 -35t36.5 -88t-36.5 -88t-85.5 -35t-86 35.5
t-37 87.5z" />
    <glyph glyph-name="Aring" unicode="&#xc5;" horiz-adv-x="1433" 
d="M20 0l574 1434h246l573 -1434h-235l-144 369h-635l-143 -369h-236zM481 573h471l-235 594zM502 1782q0 85 62 145t153 60t153 -60t62 -145t-62 -145t-153 -60t-153 60t-62 145zM809 1782q0 38 -27 65t-65 27t-65 -27t-27 -65t27 -65t65 -27t65 27t27 65z" />
    <glyph glyph-name="AE" unicode="&#xc6;" horiz-adv-x="1996" 
d="M-51 0l799 1434h1136v-215h-706v-369h542v-215h-542v-420h727v-215h-953v389h-542l-215 -389h-246zM522 594h430v625h-82z" />
    <glyph glyph-name="Ccedilla" unicode="&#xc7;" horiz-adv-x="1525" 
d="M635 -369l51 93q23 -19 41 -27q45 -25 102 -25q38 0 60 19t22 49q0 27 -20.5 46t-50.5 19t-47 -10l-15 -10l-61 61l61 134q-141 22 -263 86t-211 159t-140 222.5t-51 269.5q0 152 58.5 288t158.5 234.5t241 156.5t299 58q250 0 439 -139q87 -65 145 -137l-143 -144
q-46 61 -109 107q-145 108 -332 108q-146 0 -268.5 -70.5t-193 -193t-70.5 -268.5t70.5 -268.5t193 -193.5t268.5 -71q185 0 336 113q71 52 115 113l143 -144q-58 -74 -141 -135q-184 -138 -412 -151l-41 -82q42 -3 82 -25q82 -46 82 -139q0 -73 -54.5 -123.5t-150.5 -50.5
q-81 0 -143 34q-32 17 -51 37z" />
    <glyph glyph-name="Egrave" unicode="&#xc8;" horiz-adv-x="1331" 
d="M205 0v1434h1014v-215h-789v-369h625v-215h-625v-420h809v-215h-1034zM655 1618l-215 287h215l154 -287h-154z" />
    <glyph glyph-name="Eacute" unicode="&#xc9;" horiz-adv-x="1331" 
d="M205 0v1434h1014v-215h-789v-369h625v-215h-625v-420h809v-215h-1034zM645 1618l154 287h215l-215 -287h-154z" />
    <glyph glyph-name="Ecircumflex" unicode="&#xca;" horiz-adv-x="1331" 
d="M205 0v1434h1014v-215h-789v-369h625v-215h-625v-420h809v-215h-1034zM399 1618l236 287h184l236 -287h-185l-143 174l-143 -174h-185z" />
    <glyph glyph-name="Edieresis" unicode="&#xcb;" horiz-adv-x="1331" 
d="M205 0v1434h1014v-215h-789v-369h625v-215h-625v-420h809v-215h-1034zM399 1741q0 52 37 87.5t86 35.5t86 -35.5t37 -87.5t-37 -87.5t-86 -35.5t-86 35.5t-37 87.5zM809 1741q0 52 37 87.5t86 35.5t86 -35.5t37 -87.5t-37 -87.5t-86 -35.5t-86 35.5t-37 87.5z" />
    <glyph glyph-name="Igrave" unicode="&#xcc;" horiz-adv-x="634" 
d="M205 0v1434h225v-1434h-225zM236 1618l-216 287h216l153 -287h-153z" />
    <glyph glyph-name="Iacute" unicode="&#xcd;" horiz-adv-x="634" 
d="M205 0v1434h225v-1434h-225zM256 1618l154 287h215l-215 -287h-154z" />
    <glyph glyph-name="Icircumflex" unicode="&#xce;" horiz-adv-x="634" 
d="M205 0v1434h225v-1434h-225zM-10 1618l235 287h185l235 -287h-184l-144 174l-143 -174h-184z" />
    <glyph glyph-name="Idieresis" unicode="&#xcf;" horiz-adv-x="634" 
d="M205 0v1434h225v-1434h-225zM-10 1741q0 52 37 87.5t86 35.5t86 -35.5t37 -87.5t-37 -87.5t-86 -35.5t-86 35.5t-37 87.5zM399 1741q0 52 37 87.5t86 35.5t86 -35.5t37 -87.5t-37 -87.5t-86 -35.5t-86 35.5t-37 87.5z" />
    <glyph glyph-name="Eth" unicode="&#xd0;" horiz-adv-x="1566" 
d="M225 0v614h-184v205h184v615h482q154 0 293.5 -58t238.5 -155t157 -229t58 -275t-58 -275t-157 -229t-238.5 -155t-293.5 -58h-482zM451 205h256q146 0 266 68t188 185t68 259t-68 259t-188 185t-266 68h-256v-410h317v-205h-317v-409z" />
    <glyph glyph-name="Ntilde" unicode="&#xd1;" horiz-adv-x="1628" 
d="M205 0v1434h205l788 -1055v1055h225v-1434h-204l-789 1055v-1055h-225zM604 1618h-133q0 142 54 209t151 67q45 0 86 -19t66.5 -42t56 -42t57.5 -19q40 0 61 28t21 94h133q0 -142 -54 -209t-151 -67q-45 0 -86 19t-66.5 42.5t-56 42.5t-57.5 19q-40 0 -61 -28.5
t-21 -94.5z" />
    <glyph glyph-name="Ograve" unicode="&#xd2;" horiz-adv-x="1740" 
d="M338 717q0 -146 70.5 -268.5t193 -193.5t268.5 -71t268.5 71t193.5 193.5t71 268.5t-71 268.5t-193.5 193t-268.5 70.5t-268.5 -70.5t-193 -193t-70.5 -268.5zM113 717q0 152 58.5 288t158.5 234.5t241 156.5t299 58t299 -58t241.5 -156.5t159 -235t58.5 -287.5
t-58.5 -287.5t-159 -235t-241.5 -156.5t-299 -58t-299 58t-241 156.5t-158.5 234.5t-58.5 288zM797 1618l-215 287h215l153 -287h-153z" />
    <glyph glyph-name="Oacute" unicode="&#xd3;" horiz-adv-x="1740" 
d="M338 717q0 -146 70.5 -268.5t193 -193.5t268.5 -71t268.5 71t193.5 193.5t71 268.5t-71 268.5t-193.5 193t-268.5 70.5t-268.5 -70.5t-193 -193t-70.5 -268.5zM113 717q0 152 58.5 288t158.5 234.5t241 156.5t299 58t299 -58t241.5 -156.5t159 -235t58.5 -287.5
t-58.5 -287.5t-159 -235t-241.5 -156.5t-299 -58t-299 58t-241 156.5t-158.5 234.5t-58.5 288zM786 1618l154 287h215l-215 -287h-154z" />
    <glyph glyph-name="Ocircumflex" unicode="&#xd4;" horiz-adv-x="1740" 
d="M338 717q0 -146 70.5 -268.5t193 -193.5t268.5 -71t268.5 71t193.5 193.5t71 268.5t-71 268.5t-193.5 193t-268.5 70.5t-268.5 -70.5t-193 -193t-70.5 -268.5zM113 717q0 152 58.5 288t158.5 234.5t241 156.5t299 58t299 -58t241.5 -156.5t159 -235t58.5 -287.5
t-58.5 -287.5t-159 -235t-241.5 -156.5t-299 -58t-299 58t-241 156.5t-158.5 234.5t-58.5 288zM541 1618l235 287h185l235 -287h-184l-144 174l-143 -174h-184z" />
    <glyph glyph-name="Otilde" unicode="&#xd5;" horiz-adv-x="1740" 
d="M338 717q0 -146 70.5 -268.5t193 -193.5t268.5 -71t268.5 71t193.5 193.5t71 268.5t-71 268.5t-193.5 193t-268.5 70.5t-268.5 -70.5t-193 -193t-70.5 -268.5zM113 717q0 152 58.5 288t158.5 234.5t241 156.5t299 58t299 -58t241.5 -156.5t159 -235t58.5 -287.5
t-58.5 -287.5t-159 -235t-241.5 -156.5t-299 -58t-299 58t-241 156.5t-158.5 234.5t-58.5 288zM659 1618h-133q0 142 54 209t151 67q45 0 86 -19t66.5 -42t56 -42t57.5 -19q40 0 61 28t21 94h133q0 -276 -204 -276q-37 0 -70.5 12.5t-58 31t-47 36.5t-46 30.5t-45.5 12.5
q-40 0 -61 -28.5t-21 -94.5z" />
    <glyph glyph-name="Odieresis" unicode="&#xd6;" horiz-adv-x="1740" 
d="M338 717q0 -146 70.5 -268.5t193 -193.5t268.5 -71t268.5 71t193.5 193.5t71 268.5t-71 268.5t-193.5 193t-268.5 70.5t-268.5 -70.5t-193 -193t-70.5 -268.5zM113 717q0 152 58.5 288t158.5 234.5t241 156.5t299 58t299 -58t241.5 -156.5t159 -235t58.5 -287.5
t-58.5 -287.5t-159 -235t-241.5 -156.5t-299 -58t-299 58t-241 156.5t-158.5 234.5t-58.5 288zM543 1741q0 52 37 87.5t86 35.5t85.5 -35t36.5 -88t-36.5 -88t-85.5 -35t-86 35.5t-37 87.5zM952 1741q0 52 37 87.5t86 35.5t86 -35.5t37 -87.5t-37 -87.5t-86 -35.5t-86 35.5
t-37 87.5z" />
    <glyph glyph-name="multiply" unicode="&#xd7;" horiz-adv-x="1024" 
d="M113 358l276 277l-276 276l123 123l276 -276l276 276l123 -123l-276 -276l276 -277l-123 -122l-276 276l-276 -276z" />
    <glyph glyph-name="Oslash" unicode="&#xd8;" horiz-adv-x="1740" 
d="M430 420l748 737q-46 27 -88 45q-112 47 -220 47q-146 0 -268.5 -70.5t-193 -193t-70.5 -268.5q0 -117 45 -217q21 -47 47 -80zM82 82l184 184q-42 51 -78 121q-75 154 -75 330q0 152 58.5 288t158.5 234.5t241 156.5t299 58q169 0 334 -72q83 -41 127 -71l185 184
l143 -143l-184 -185q41 -53 75 -120q78 -160 78 -330q0 -151 -58.5 -287.5t-159 -235t-241.5 -156.5t-299 -58q-187 0 -333 71q-60 25 -127 72l-185 -184zM1311 1014l-748 -738q40 -27 88 -47q108 -45 219 -45q146 0 268.5 71t193.5 193.5t71 268.5q0 113 -47 217
q-20 44 -45 80z" />
    <glyph glyph-name="Ugrave" unicode="&#xd9;" horiz-adv-x="1576" 
d="M184 573v861h226v-861q0 -168 108 -278.5t270 -110.5q155 0 267 114.5t112 274.5v861h226v-861q0 -262 -168.5 -427.5t-436.5 -165.5t-436 165.5t-168 427.5zM717 1618l-215 287h215l153 -287h-153z" />
    <glyph glyph-name="Uacute" unicode="&#xda;" horiz-adv-x="1576" 
d="M184 573v861h226v-861q0 -168 108 -278.5t270 -110.5q155 0 267 114.5t112 274.5v861h226v-861q0 -262 -168.5 -427.5t-436.5 -165.5t-436 165.5t-168 427.5zM707 1618l153 287h215l-215 -287h-153z" />
    <glyph glyph-name="Ucircumflex" unicode="&#xdb;" horiz-adv-x="1576" 
d="M184 573v861h226v-861q0 -168 108 -278.5t270 -110.5q155 0 267 114.5t112 274.5v861h226v-861q0 -262 -168.5 -427.5t-436.5 -165.5t-436 165.5t-168 427.5zM461 1618l235 287h185l235 -287h-184l-144 174l-143 -174h-184z" />
    <glyph glyph-name="Udieresis" unicode="&#xdc;" horiz-adv-x="1576" 
d="M184 573v861h226v-861q0 -168 108 -278.5t270 -110.5q155 0 267 114.5t112 274.5v861h226v-861q0 -262 -168.5 -427.5t-436.5 -165.5t-436 165.5t-168 427.5zM461 1741q0 52 37 87.5t86 35.5t86 -35.5t37 -87.5t-37 -87.5t-86 -35.5t-86 35.5t-37 87.5zM870 1741
q0 52 37 87.5t86 35.5t86 -35.5t37 -87.5t-37 -87.5t-86 -35.5t-86 35.5t-37 87.5z" />
    <glyph glyph-name="Yacute" unicode="&#xdd;" horiz-adv-x="1331" 
d="M553 0v512l-543 922h256l400 -697l399 697h256l-543 -922v-512h-225zM584 1618l153 287h215l-215 -287h-153z" />
    <glyph glyph-name="Thorn" unicode="&#xde;" horiz-adv-x="1484" 
d="M205 0v1434h225v-256h471q219 0 355.5 -126.5t136.5 -314.5t-136.5 -314t-355.5 -126h-471v-297h-225zM430 502h471q121 0 193.5 66.5t72.5 168.5t-72.5 169t-193.5 67h-471v-471z" />
    <glyph glyph-name="germandbls" unicode="&#xdf;" horiz-adv-x="1208" 
d="M143 0v1024q0 193 121 311.5t320 118.5q181 0 305.5 -116t124.5 -273q0 -117 -78 -211q-30 -35 -76 -66q73 -31 127 -79q129 -117 129 -279q0 -187 -127 -308.5t-334 -121.5h-102v205h102q113 0 184.5 64.5t71.5 160.5q0 93 -71.5 159t-184.5 66h-102v205h31q99 0 162 59
t63 146q0 79 -64 137t-161 58q-109 0 -172.5 -63.5t-63.5 -172.5v-1024h-205z" />
    <glyph glyph-name="agrave" unicode="&#xe0;" horiz-adv-x="1064" 
d="M717 0v143q-26 -40 -78 -82q-109 -81 -240 -81q-144 0 -235.5 83.5t-91.5 202.5q0 122 77 202.5t209 104.5l359 62q0 79 -57 131.5t-148 52.5t-186 -67q-37 -25 -70 -66l-133 133q40 52 98 92q131 93 291 93q182 0 296 -108t114 -271v-625h-205zM717 440v31l-287 -51
q-76 -13 -115 -48.5t-39 -84.5q0 -56 44.5 -94.5t119.5 -38.5q116 0 196.5 82t80.5 204zM461 1147l-215 287h215l153 -287h-153z" />
    <glyph glyph-name="aacute" unicode="&#xe1;" horiz-adv-x="1064" 
d="M717 0v143q-26 -40 -78 -82q-109 -81 -240 -81q-144 0 -235.5 83.5t-91.5 202.5q0 122 77 202.5t209 104.5l359 62q0 79 -57 131.5t-148 52.5t-186 -67q-37 -25 -70 -66l-133 133q40 52 98 92q131 93 291 93q182 0 296 -108t114 -271v-625h-205zM717 440v31l-287 -51
q-76 -13 -115 -48.5t-39 -84.5q0 -56 44.5 -94.5t119.5 -38.5q116 0 196.5 82t80.5 204zM471 1147l154 287h215l-215 -287h-154z" />
    <glyph glyph-name="acircumflex" unicode="&#xe2;" horiz-adv-x="1064" 
d="M717 0v143q-26 -40 -78 -82q-109 -81 -240 -81q-144 0 -235.5 83.5t-91.5 202.5q0 122 77 202.5t209 104.5l359 62q0 79 -57 131.5t-148 52.5t-186 -67q-37 -25 -70 -66l-133 133q40 52 98 92q131 93 291 93q182 0 296 -108t114 -271v-625h-205zM717 440v31l-287 -51
q-76 -13 -115 -48.5t-39 -84.5q0 -56 44.5 -94.5t119.5 -38.5q116 0 196.5 82t80.5 204zM215 1147l236 287h184l235 -287h-184l-143 174l-144 -174h-184z" />
    <glyph glyph-name="atilde" unicode="&#xe3;" horiz-adv-x="1064" 
d="M717 0v143q-26 -40 -78 -82q-109 -81 -240 -81q-144 0 -235.5 83.5t-91.5 202.5q0 122 77 202.5t209 104.5l359 62q0 79 -57 131.5t-148 52.5t-186 -67q-37 -25 -70 -66l-133 133q40 52 98 92q131 93 291 93q182 0 296 -108t114 -271v-625h-205zM717 440v31l-287 -51
q-76 -13 -115 -48.5t-39 -84.5q0 -56 44.5 -94.5t119.5 -38.5q116 0 196.5 82t80.5 204zM338 1157h-133q0 142 54 209.5t151 67.5q45 0 86 -19t66.5 -42.5t56 -42.5t57.5 -19q40 0 61 28.5t21 94.5h133q0 -142 -54 -209.5t-151 -67.5q-45 0 -86 19t-66.5 42.5t-56 42.5
t-57.5 19q-40 0 -61 -28.5t-21 -94.5z" />
    <glyph glyph-name="adieresis" unicode="&#xe4;" horiz-adv-x="1064" 
d="M717 0v143q-26 -40 -78 -82q-109 -81 -240 -81q-144 0 -235.5 83.5t-91.5 202.5q0 122 77 202.5t209 104.5l359 62q0 79 -57 131.5t-148 52.5t-186 -67q-37 -25 -70 -66l-133 133q40 52 98 92q131 93 291 93q182 0 296 -108t114 -271v-625h-205zM717 440v31l-287 -51
q-76 -13 -115 -48.5t-39 -84.5q0 -56 44.5 -94.5t119.5 -38.5q116 0 196.5 82t80.5 204zM215 1290q0 52 37 87.5t86 35.5t86 -35.5t37 -87.5t-37 -87.5t-86 -35.5t-86 35.5t-37 87.5zM625 1290q0 52 37 87.5t86 35.5t85.5 -35t36.5 -88t-36.5 -88t-85.5 -35t-86 35.5
t-37 87.5z" />
    <glyph glyph-name="aring" unicode="&#xe5;" horiz-adv-x="1064" 
d="M717 0v143q-26 -40 -78 -82q-109 -81 -240 -81q-144 0 -235.5 83.5t-91.5 202.5q0 122 77 202.5t209 104.5l359 62q0 79 -57 131.5t-148 52.5t-186 -67q-37 -25 -70 -66l-133 133q40 52 98 92q131 93 291 93q182 0 296 -108t114 -271v-625h-205zM717 440v31l-287 -51
q-76 -13 -115 -48.5t-39 -84.5q0 -56 44.5 -94.5t119.5 -38.5q116 0 196.5 82t80.5 204zM328 1311q0 85 62 145t153 60t153 -60t62 -145t-62 -145t-153 -60t-153 60t-62 145zM635 1311q0 38 -27 65t-65 27t-65 -27t-27 -65t27 -65t65 -27t65 27t27 65z" />
    <glyph glyph-name="ae" unicode="&#xe6;" horiz-adv-x="1761" 
d="M256 686l-133 133q40 52 98 92q131 93 291 93q134 0 248 -89q46 -37 80 -86q40 49 92 86q130 89 276 89q202 0 336.5 -137t134.5 -345q0 -19 -6 -73l-4 -29h-737q18 -103 100.5 -174.5t196.5 -71.5q100 0 198 66q44 28 78 67l123 -143q-38 -49 -100 -92
q-133 -92 -309 -92q-172 0 -299 106q-61 49 -101 109q-44 -67 -94 -109q-121 -106 -285 -106q-172 0 -270 86t-98 221q0 131 112.5 219t317.5 88h215q0 107 -55.5 166t-149.5 59q-91 0 -186 -67q-37 -25 -70 -66zM932 594h532q-24 102 -91 163.5t-165 61.5
q-105 0 -174.5 -60t-101.5 -165zM717 430h-215q-117 0 -171.5 -38.5t-54.5 -104.5q0 -56 44.5 -94.5t119.5 -38.5q116 0 196.5 80.5t80.5 195.5z" />
    <glyph glyph-name="ccedilla" unicode="&#xe7;" horiz-adv-x="1064" 
d="M369 -369l51 93q23 -19 41 -27q45 -25 102 -25q38 0 60 19t22 49q0 27 -21 46t-51 19t-47 -10l-14 -10l-61 61l61 134q-184 30 -307 171t-123 341q0 215 148.5 363.5t363.5 148.5q172 0 309 -99q63 -47 101 -96l-144 -133q-28 39 -67 65q-97 68 -199 68
q-132 0 -219.5 -89.5t-87.5 -227.5t88 -228t219 -90q116 0 203 72q34 25 73 71l144 -133q-37 -47 -96 -94q-125 -97 -273 -110l-41 -82q42 -3 82 -25q82 -46 82 -139q0 -73 -54.5 -123.5t-150.5 -50.5q-81 0 -143 34q-32 17 -51 37z" />
    <glyph glyph-name="egrave" unicode="&#xe8;" horiz-adv-x="1146" 
d="M891 307l123 -143q-38 -49 -103 -92q-141 -92 -317 -92q-215 0 -363.5 148.5t-148.5 363.5q0 141 67.5 259t183 185.5t251.5 67.5q209 0 345 -136.5t136 -345.5q0 -19 -6 -73l-4 -29h-758q18 -104 102 -175t205 -71q111 0 209 66q44 28 78 67zM297 594h553
q-24 103 -92.5 164t-173.5 61q-112 0 -183.5 -60t-103.5 -165zM502 1147l-215 287h215l153 -287h-153z" />
    <glyph glyph-name="eacute" unicode="&#xe9;" horiz-adv-x="1146" 
d="M891 307l123 -143q-38 -49 -103 -92q-141 -92 -317 -92q-215 0 -363.5 148.5t-148.5 363.5q0 141 67.5 259t183 185.5t251.5 67.5q209 0 345 -136.5t136 -345.5q0 -19 -6 -73l-4 -29h-758q18 -104 102 -175t205 -71q111 0 209 66q44 28 78 67zM297 594h553
q-24 103 -92.5 164t-173.5 61q-112 0 -183.5 -60t-103.5 -165zM492 1147l153 287h215l-215 -287h-153z" />
    <glyph glyph-name="ecircumflex" unicode="&#xea;" horiz-adv-x="1146" 
d="M891 307l123 -143q-38 -49 -103 -92q-141 -92 -317 -92q-215 0 -363.5 148.5t-148.5 363.5q0 141 67.5 259t183 185.5t251.5 67.5q209 0 345 -136.5t136 -345.5q0 -19 -6 -73l-4 -29h-758q18 -104 102 -175t205 -71q111 0 209 66q44 28 78 67zM297 594h553
q-24 103 -92.5 164t-173.5 61q-112 0 -183.5 -60t-103.5 -165zM256 1147l236 287h184l235 -287h-184l-143 174l-144 -174h-184z" />
    <glyph glyph-name="edieresis" unicode="&#xeb;" horiz-adv-x="1146" 
d="M891 307l123 -143q-38 -49 -103 -92q-141 -92 -317 -92q-215 0 -363.5 148.5t-148.5 363.5q0 141 67.5 259t183 185.5t251.5 67.5q209 0 345 -136.5t136 -345.5q0 -19 -6 -73l-4 -29h-758q18 -104 102 -175t205 -71q111 0 209 66q44 28 78 67zM297 594h553
q-24 103 -92.5 164t-173.5 61q-112 0 -183.5 -60t-103.5 -165zM256 1290q0 52 37 87.5t86 35.5t86 -35.5t37 -87.5t-37 -87.5t-86 -35.5t-86 35.5t-37 87.5zM666 1290q0 53 36.5 88t85.5 35t86 -35.5t37 -87.5t-37 -87.5t-86 -35.5t-85.5 35t-36.5 88z" />
    <glyph glyph-name="igrave" unicode="&#xec;" horiz-adv-x="512" 
d="M154 0v983h204v-983h-204zM174 1147l-215 287h215l154 -287h-154z" />
    <glyph glyph-name="iacute" unicode="&#xed;" horiz-adv-x="512" 
d="M154 0v983h204v-983h-204zM184 1147l154 287h215l-215 -287h-154z" />
    <glyph glyph-name="icircumflex" unicode="&#xee;" horiz-adv-x="512" 
d="M154 0v983h204v-983h-204zM-72 1147l236 287h184l236 -287h-185l-143 174l-143 -174h-185z" />
    <glyph glyph-name="idieresis" unicode="&#xef;" horiz-adv-x="512" 
d="M154 0v983h204v-983h-204zM-72 1290q0 52 37 87.5t86 35.5t86 -35.5t37 -87.5t-37 -87.5t-86 -35.5t-86 35.5t-37 87.5zM338 1290q0 52 37 87.5t86 35.5t86 -35.5t37 -87.5t-37 -87.5t-86 -35.5t-86 35.5t-37 87.5z" />
    <glyph glyph-name="eth" unicode="&#xf0;" horiz-adv-x="1208" 
d="M369 1126l-103 103l226 112q-38 38 -66 60q-69 58 -150 104l185 82q108 -77 139 -104q30 -24 55 -49l205 102l103 -102l-205 -103q103 -99 174 -217q174 -281 174 -602q0 -151 -68 -273t-185 -190.5t-259 -68.5q-141 0 -259 66.5t-185.5 179.5t-67.5 245t66.5 245.5
t179.5 180t245 66.5q113 0 197 -37q34 -14 59 -35h11q-41 128 -146 248q-44 52 -100 102zM287 471q0 -124 88.5 -210.5t218.5 -86.5t218.5 86.5t88.5 210.5t-88.5 210.5t-218.5 86.5t-218.5 -86.5t-88.5 -210.5z" />
    <glyph glyph-name="ntilde" unicode="&#xf1;" 
d="M143 0v983h205v-143q28 43 76 82q102 82 231 82q172 0 280.5 -116.5t108.5 -314.5v-573h-204v573q0 108 -62.5 172t-163.5 64q-116 0 -191 -77.5t-75 -199.5v-532h-205zM399 1157h-133q0 142 54 209.5t151 67.5q45 0 86 -19t66.5 -42.5t56 -42.5t57.5 -19q40 0 61 28.5
t21 94.5h133q0 -142 -53.5 -209.5t-150.5 -67.5q-37 0 -70.5 12.5t-58 30.5t-47 36.5t-46 31t-45.5 12.5q-40 0 -61 -28.5t-21 -94.5z" />
    <glyph glyph-name="ograve" unicode="&#xf2;" 
d="M82 492q0 215 148.5 363.5t363.5 148.5t363.5 -148.5t148.5 -363.5t-148.5 -363.5t-363.5 -148.5t-363.5 148.5t-148.5 363.5zM594 174q131 0 219 90t88 228t-87.5 227.5t-219.5 89.5t-219.5 -89.5t-87.5 -227.5t88 -228t219 -90zM522 1147l-215 287h215l154 -287h-154z
" />
    <glyph glyph-name="oacute" unicode="&#xf3;" 
d="M82 492q0 215 148.5 363.5t363.5 148.5t363.5 -148.5t148.5 -363.5t-148.5 -363.5t-363.5 -148.5t-363.5 148.5t-148.5 363.5zM594 174q131 0 219 90t88 228t-87.5 227.5t-219.5 89.5t-219.5 -89.5t-87.5 -227.5t88 -228t219 -90zM512 1147l154 287h215l-215 -287h-154z
" />
    <glyph glyph-name="ocircumflex" unicode="&#xf4;" 
d="M82 492q0 215 148.5 363.5t363.5 148.5t363.5 -148.5t148.5 -363.5t-148.5 -363.5t-363.5 -148.5t-363.5 148.5t-148.5 363.5zM594 174q131 0 219 90t88 228t-87.5 227.5t-219.5 89.5t-219.5 -89.5t-87.5 -227.5t88 -228t219 -90zM266 1147l236 287h184l236 -287h-185
l-143 174l-143 -174h-185z" />
    <glyph glyph-name="otilde" unicode="&#xf5;" 
d="M82 492q0 215 148.5 363.5t363.5 148.5t363.5 -148.5t148.5 -363.5t-148.5 -363.5t-363.5 -148.5t-363.5 148.5t-148.5 363.5zM594 174q131 0 219 90t88 228t-87.5 227.5t-219.5 89.5t-219.5 -89.5t-87.5 -227.5t88 -228t219 -90zM389 1157h-133q0 142 54 209.5t151 67.5
q45 0 86 -19t66.5 -42.5t56 -42.5t57.5 -19q40 0 61 28.5t21 94.5h133q0 -142 -54 -209.5t-151 -67.5q-45 0 -86 19t-66.5 42.5t-56 42.5t-57.5 19q-40 0 -61 -28.5t-21 -94.5z" />
    <glyph glyph-name="odieresis" unicode="&#xf6;" 
d="M82 492q0 215 148.5 363.5t363.5 148.5t363.5 -148.5t148.5 -363.5t-148.5 -363.5t-363.5 -148.5t-363.5 148.5t-148.5 363.5zM594 174q131 0 219 90t88 228t-87.5 227.5t-219.5 89.5t-219.5 -89.5t-87.5 -227.5t88 -228t219 -90zM266 1290q0 52 37 87.5t86 35.5
t86 -35.5t37 -87.5t-37 -87.5t-86 -35.5t-86 35.5t-37 87.5zM676 1290q0 52 37 87.5t86 35.5t86 -35.5t37 -87.5t-37 -87.5t-86 -35.5t-86 35.5t-37 87.5z" />
    <glyph glyph-name="divide" unicode="&#xf7;" horiz-adv-x="1044" 
d="M389 225q0 54 39.5 93.5t93.5 39.5t93.5 -39.5t39.5 -93.5t-39.5 -93.5t-93.5 -39.5t-93.5 39.5t-39.5 93.5zM72 512v184h901v-184h-901zM389 983q0 54 39.5 93.5t93.5 39.5t93.5 -39.5t39.5 -93.5t-39.5 -93.5t-93.5 -39.5t-93.5 39.5t-39.5 93.5z" />
    <glyph glyph-name="oslash" unicode="&#xf8;" 
d="M328 338l420 430q-11 6 -43 20q-57 21 -111 21q-129 0 -218 -87.5t-89 -229.5q0 -65 20 -115q12 -27 21 -39zM61 51l123 133q-35 49 -51 84q-51 104 -51 224q0 215 148.5 363.5t363.5 148.5q107 0 209 -48q43 -21 78 -45l123 133l122 -112l-122 -133q35 -49 51 -84
q51 -112 51 -223q0 -215 -148.5 -363.5t-363.5 -148.5q-113 0 -209 45q-47 23 -78 47l-123 -133zM860 645l-420 -430q11 -6 43 -20q57 -21 111 -21q129 0 218 88t89 230q0 60 -20 114q-12 27 -21 39z" />
    <glyph glyph-name="ugrave" unicode="&#xf9;" 
d="M143 410v573h205v-573q0 -108 62 -172t163 -64q116 0 191.5 77.5t75.5 199.5v532h204v-983h-204v143q-35 -48 -78 -82q-101 -81 -230 -81q-172 0 -280.5 116t-108.5 314zM512 1147l-215 287h215l154 -287h-154z" />
    <glyph glyph-name="uacute" unicode="&#xfa;" 
d="M143 410v573h205v-573q0 -108 62 -172t163 -64q116 0 191.5 77.5t75.5 199.5v532h204v-983h-204v143q-35 -48 -78 -82q-101 -81 -230 -81q-172 0 -280.5 116t-108.5 314zM522 1147l154 287h215l-215 -287h-154z" />
    <glyph glyph-name="ucircumflex" unicode="&#xfb;" 
d="M143 410v573h205v-573q0 -108 62 -172t163 -64q116 0 191.5 77.5t75.5 199.5v532h204v-983h-204v143q-35 -48 -78 -82q-101 -81 -230 -81q-172 0 -280.5 116t-108.5 314zM266 1147l236 287h184l236 -287h-185l-143 174l-143 -174h-185z" />
    <glyph glyph-name="udieresis" unicode="&#xfc;" 
d="M143 410v573h205v-573q0 -108 62 -172t163 -64q116 0 191.5 77.5t75.5 199.5v532h204v-983h-204v143q-35 -48 -78 -82q-101 -81 -230 -81q-172 0 -280.5 116t-108.5 314zM266 1290q0 52 37 87.5t86 35.5t86 -35.5t37 -87.5t-37 -87.5t-86 -35.5t-86 35.5t-37 87.5z
M676 1290q0 52 37 87.5t86 35.5t86 -35.5t37 -87.5t-37 -87.5t-86 -35.5t-86 35.5t-37 87.5z" />
    <glyph glyph-name="yacute" unicode="&#xfd;" horiz-adv-x="1044" 
d="M82 -399v194q6 -4 35 -16q43 -15 88 -15q120 0 174 134l41 102l-400 983h226l276 -727l277 727h225l-430 -1096q-63 -158 -150 -237.5t-208 -79.5q-64 0 -111 14zM440 1147l154 287h215l-215 -287h-154z" />
    <glyph glyph-name="thorn" unicode="&#xfe;" horiz-adv-x="1239" 
d="M154 -430v1864h204v-594q27 42 80 82q110 82 258 82q122 0 227.5 -65t169.5 -183.5t64 -263.5t-64 -263.5t-169.5 -183.5t-227.5 -65q-149 0 -258 81q-53 40 -80 82v-573h-204zM655 174q125 0 211 90t86 228t-86 227.5t-211 89.5t-211 -89.5t-86 -227.5t86 -228t211 -90z
" />
    <glyph glyph-name="ydieresis" unicode="&#xff;" horiz-adv-x="1044" 
d="M82 -399v194q6 -4 35 -16q43 -15 88 -15q120 0 174 134l41 102l-400 983h226l276 -727l277 727h225l-430 -1096q-63 -158 -150 -237.5t-208 -79.5q-64 0 -111 14zM195 1290q0 53 36.5 88t85.5 35t86 -35.5t37 -87.5t-37 -87.5t-86 -35.5t-85.5 35t-36.5 88zM604 1290
q0 52 37 87.5t86 35.5t86 -35.5t37 -87.5t-37 -87.5t-86 -35.5t-86 35.5t-37 87.5z" />
    <glyph glyph-name="Amacron" unicode="&#x100;" horiz-adv-x="1433" 
d="M20 0l574 1434h246l573 -1434h-235l-144 369h-635l-143 -369h-236zM481 573h471l-235 594zM410 1690v143h614v-143h-614z" />
    <glyph glyph-name="amacron" unicode="&#x101;" horiz-adv-x="1064" 
d="M717 0v143q-26 -40 -78 -82q-109 -81 -240 -81q-144 0 -235.5 83.5t-91.5 202.5q0 122 77 202.5t209 104.5l359 62q0 79 -57 131.5t-148 52.5t-186 -67q-37 -25 -70 -66l-133 133q40 52 98 92q131 93 291 93q182 0 296 -108t114 -271v-625h-205zM717 440v31l-287 -51
q-76 -13 -115 -48.5t-39 -84.5q0 -56 44.5 -94.5t119.5 -38.5q116 0 196.5 82t80.5 204zM236 1239v143h614v-143h-614z" />
    <glyph glyph-name="Abreve" unicode="&#x102;" horiz-adv-x="1433" 
d="M20 0l574 1434h246l573 -1434h-235l-144 369h-635l-143 -369h-236zM481 573h471l-235 594zM420 1905h153q0 -61 41.5 -102.5t102.5 -41.5t102 41t41 103h154q0 -124 -83.5 -205.5t-213.5 -81.5t-213.5 81.5t-83.5 205.5z" />
    <glyph glyph-name="abreve" unicode="&#x103;" horiz-adv-x="1064" 
d="M717 0v143q-26 -40 -78 -82q-109 -81 -240 -81q-144 0 -235.5 83.5t-91.5 202.5q0 122 77 202.5t209 104.5l359 62q0 79 -57 131.5t-148 52.5t-186 -67q-37 -25 -70 -66l-133 133q40 52 98 92q131 93 291 93q182 0 296 -108t114 -271v-625h-205zM717 440v31l-287 -51
q-76 -13 -115 -48.5t-39 -84.5q0 -56 44.5 -94.5t119.5 -38.5q116 0 196.5 82t80.5 204zM246 1434h153q0 -62 41.5 -103t102.5 -41t102 41t41 103h154q0 -124 -83.5 -205.5t-213.5 -81.5t-213.5 81.5t-83.5 205.5z" />
    <glyph glyph-name="Aogonek" unicode="&#x104;" horiz-adv-x="1433" 
d="M20 0l574 1434h246l573 -1434h-113q-25 -35 -47 -74q-45 -84 -45 -143q0 -38 28.5 -64t74.5 -26q36 0 69 10q16 3 33 10v-123q-7 -3 -21 -8.5t-20 -7.5q-47 -14 -102 -14q-92 0 -148.5 54t-56.5 140q0 89 55 172q23 39 58 74l-144 369h-635l-143 -369h-236zM481 573h471
l-235 594z" />
    <glyph glyph-name="aogonek" unicode="&#x105;" horiz-adv-x="1064" 
d="M952 -287v-123q-7 -3 -21 -8.5t-20 -7.5q-47 -14 -102 -14q-92 0 -148.5 54t-56.5 140q0 89 55 172q23 39 58 74v143q-26 -40 -78 -82q-109 -81 -240 -81q-144 0 -235.5 83.5t-91.5 202.5q0 122 77 202.5t209 104.5l359 62q0 79 -57 131.5t-148 52.5t-186 -67
q-37 -25 -70 -66l-133 133q40 52 98 92q131 93 291 93q182 0 296 -108t114 -271v-625h-82q-25 -35 -47 -74q-45 -84 -45 -143q0 -38 28 -64t74 -26q37 0 70 10q14 3 32 10zM717 440v31l-287 -51q-76 -13 -115 -48.5t-39 -84.5q0 -56 44.5 -94.5t119.5 -38.5q116 0 196.5 82
t80.5 204z" />
    <glyph glyph-name="Cacute" unicode="&#x106;" horiz-adv-x="1525" 
d="M1321 410l143 -144q-65 -81 -151 -143q-199 -143 -443 -143q-158 0 -299 58t-241 156.5t-158.5 234.5t-58.5 288t58.5 288t158.5 234.5t241 156.5t299 58q250 0 439 -139q87 -65 145 -137l-143 -144q-46 61 -109 107q-145 108 -332 108q-146 0 -268.5 -70.5t-193 -193
t-70.5 -268.5t70.5 -268.5t193 -193.5t268.5 -71q185 0 336 113q71 52 115 113zM768 1618l154 287h215l-215 -287h-154z" />
    <glyph glyph-name="cacute" unicode="&#x107;" horiz-adv-x="1064" 
d="M870 317l144 -133q-42 -53 -107 -102q-144 -102 -313 -102q-215 0 -363.5 148.5t-148.5 363.5t148.5 363.5t363.5 148.5q172 0 309 -99q63 -47 101 -96l-144 -133q-28 39 -67 65q-97 68 -199 68q-132 0 -219.5 -89.5t-87.5 -227.5t88 -228t219 -90q116 0 203 72
q34 25 73 71zM502 1147l153 287h215l-215 -287h-153z" />
    <glyph glyph-name="Ccircumflex" unicode="&#x108;" horiz-adv-x="1525" 
d="M1321 410l143 -144q-65 -81 -151 -143q-199 -143 -443 -143q-158 0 -299 58t-241 156.5t-158.5 234.5t-58.5 288t58.5 288t158.5 234.5t241 156.5t299 58q250 0 439 -139q87 -65 145 -137l-143 -144q-46 61 -109 107q-145 108 -332 108q-146 0 -268.5 -70.5t-193 -193
t-70.5 -268.5t70.5 -268.5t193 -193.5t268.5 -71q185 0 336 113q71 52 115 113zM522 1618l236 287h184l236 -287h-185l-143 174l-143 -174h-185z" />
    <glyph glyph-name="ccircumflex" unicode="&#x109;" horiz-adv-x="1064" 
d="M870 317l144 -133q-42 -53 -107 -102q-144 -102 -313 -102q-215 0 -363.5 148.5t-148.5 363.5t148.5 363.5t363.5 148.5q172 0 309 -99q63 -47 101 -96l-144 -133q-28 39 -67 65q-97 68 -199 68q-132 0 -219.5 -89.5t-87.5 -227.5t88 -228t219 -90q116 0 203 72
q34 25 73 71zM256 1147l236 287h184l235 -287h-184l-143 174l-144 -174h-184z" />
    <glyph glyph-name="Cdotaccent" unicode="&#x10a;" horiz-adv-x="1525" 
d="M1321 410l143 -144q-65 -81 -151 -143q-199 -143 -443 -143q-158 0 -299 58t-241 156.5t-158.5 234.5t-58.5 288t58.5 288t158.5 234.5t241 156.5t299 58q250 0 439 -139q87 -65 145 -137l-143 -144q-46 61 -109 107q-145 108 -332 108q-146 0 -268.5 -70.5t-193 -193
t-70.5 -268.5t70.5 -268.5t193 -193.5t268.5 -71q185 0 336 113q71 52 115 113zM727 1741q0 52 37 87.5t86 35.5t86 -35.5t37 -87.5t-37 -87.5t-86 -35.5t-86 35.5t-37 87.5z" />
    <glyph glyph-name="cdotaccent" unicode="&#x10b;" horiz-adv-x="1064" 
d="M870 317l144 -133q-42 -53 -107 -102q-144 -102 -313 -102q-215 0 -363.5 148.5t-148.5 363.5t148.5 363.5t363.5 148.5q172 0 309 -99q63 -47 101 -96l-144 -133q-28 39 -67 65q-97 68 -199 68q-132 0 -219.5 -89.5t-87.5 -227.5t88 -228t219 -90q116 0 203 72
q34 25 73 71zM461 1290q0 52 37 87.5t86 35.5t86 -35.5t37 -87.5t-37 -87.5t-86 -35.5t-86 35.5t-37 87.5z" />
    <glyph glyph-name="Ccaron" unicode="&#x10c;" horiz-adv-x="1525" 
d="M1321 410l143 -144q-65 -81 -151 -143q-199 -143 -443 -143q-158 0 -299 58t-241 156.5t-158.5 234.5t-58.5 288t58.5 288t158.5 234.5t241 156.5t299 58q250 0 439 -139q87 -65 145 -137l-143 -144q-46 61 -109 107q-145 108 -332 108q-146 0 -268.5 -70.5t-193 -193
t-70.5 -268.5t70.5 -268.5t193 -193.5t268.5 -71q185 0 336 113q71 52 115 113zM758 1618l-236 287h185l143 -174l143 174h185l-236 -287h-184z" />
    <glyph glyph-name="ccaron" unicode="&#x10d;" horiz-adv-x="1064" 
d="M870 317l144 -133q-42 -53 -107 -102q-144 -102 -313 -102q-215 0 -363.5 148.5t-148.5 363.5t148.5 363.5t363.5 148.5q172 0 309 -99q63 -47 101 -96l-144 -133q-28 39 -67 65q-97 68 -199 68q-132 0 -219.5 -89.5t-87.5 -227.5t88 -228t219 -90q116 0 203 72
q34 25 73 71zM492 1147l-236 287h184l144 -174l143 174h184l-235 -287h-184z" />
    <glyph glyph-name="Dcaron" unicode="&#x10e;" horiz-adv-x="1546" 
d="M205 0v1434h481q154 0 293.5 -58t238.5 -155t157.5 -229t58.5 -275t-58.5 -275t-157.5 -229t-238.5 -155t-293.5 -58h-481zM430 205h256q146 0 266 68t188 185t68 259t-68 259t-188 185t-266 68h-256v-1024zM676 1618l-236 287h185l143 -174l143 174h185l-236 -287h-184z
" />
    <glyph glyph-name="dcaron" unicode="&#x10f;" horiz-adv-x="1341" 
d="M881 0v143q-27 -42 -80 -82q-109 -81 -258 -81q-122 0 -227.5 65t-169.5 183.5t-64 263.5t64 263.5t169.5 183.5t227.5 65q148 0 258 -82q53 -40 80 -82v594h204v-1434h-204zM584 174q125 0 211 90t86 228t-86 227.5t-211 89.5t-211 -89.5t-86 -227.5t86 -228t211 -90z
M1188 1147l92 287h195l-134 -287h-153z" />
    <glyph glyph-name="Dcroat" unicode="&#x110;" horiz-adv-x="1566" 
d="M225 0v614h-184v205h184v615h482q154 0 293.5 -58t238.5 -155t157 -229t58 -275t-58 -275t-157 -229t-238.5 -155t-293.5 -58h-482zM451 205h256q146 0 266 68t188 185t68 259t-68 259t-188 185t-266 68h-256v-410h317v-205h-317v-409z" />
    <glyph glyph-name="dslash" unicode="&#x111;" horiz-adv-x="1239" 
d="M860 0v143q-32 -44 -80 -82q-109 -81 -248 -81q-91 0 -174 36.5t-143.5 100.5t-96.5 156.5t-36 197.5q0 212 131.5 352t318.5 140q138 0 248 -82q48 -38 80 -82v286h-246v195h246v154h205v-154h174v-195h-174v-1085h-205zM573 174q124 0 205.5 83.5t81.5 213.5
t-81.5 213.5t-205.5 83.5t-205 -83.5t-81 -213.5t81 -213.5t205 -83.5z" />
    <glyph glyph-name="Emacron" unicode="&#x112;" horiz-adv-x="1331" 
d="M205 0v1434h1014v-215h-789v-369h625v-215h-625v-420h809v-215h-1034zM420 1690v143h614v-143h-614z" />
    <glyph glyph-name="emacron" unicode="&#x113;" horiz-adv-x="1146" 
d="M891 307l123 -143q-38 -49 -103 -92q-141 -92 -317 -92q-215 0 -363.5 148.5t-148.5 363.5q0 141 67.5 259t183 185.5t251.5 67.5q209 0 345 -136.5t136 -345.5q0 -19 -6 -73l-4 -29h-758q18 -104 102 -175t205 -71q111 0 209 66q44 28 78 67zM297 594h553
q-24 103 -92.5 164t-173.5 61q-112 0 -183.5 -60t-103.5 -165zM276 1239v143h615v-143h-615z" />
    <glyph glyph-name="Ebreve" unicode="&#x114;" horiz-adv-x="1331" 
d="M205 0v1434h1014v-215h-789v-369h625v-215h-625v-420h809v-215h-1034zM430 1905h154q0 -62 41 -103t102 -41t102 41t41 103h154q0 -124 -83.5 -205.5t-213.5 -81.5t-213.5 81.5t-83.5 205.5z" />
    <glyph glyph-name="ebreve" unicode="&#x115;" horiz-adv-x="1146" 
d="M891 307l123 -143q-38 -49 -103 -92q-141 -92 -317 -92q-215 0 -363.5 148.5t-148.5 363.5q0 141 67.5 259t183 185.5t251.5 67.5q209 0 345 -136.5t136 -345.5q0 -19 -6 -73l-4 -29h-758q18 -104 102 -175t205 -71q111 0 209 66q44 28 78 67zM297 594h553
q-24 103 -92.5 164t-173.5 61q-112 0 -183.5 -60t-103.5 -165zM287 1434h153q0 -62 41 -103t103 -41q61 0 102 41t41 103h154q0 -124 -83.5 -205.5t-213.5 -81.5t-213.5 81.5t-83.5 205.5z" />
    <glyph glyph-name="Edotaccent" unicode="&#x116;" horiz-adv-x="1331" 
d="M205 0v1434h1014v-215h-789v-369h625v-215h-625v-420h809v-215h-1034zM604 1741q0 52 37 87.5t86 35.5t86 -35.5t37 -87.5t-37 -87.5t-86 -35.5t-86 35.5t-37 87.5z" />
    <glyph glyph-name="edotaccent" unicode="&#x117;" horiz-adv-x="1146" 
d="M891 307l123 -143q-38 -49 -103 -92q-141 -92 -317 -92q-215 0 -363.5 148.5t-148.5 363.5q0 141 67.5 259t183 185.5t251.5 67.5q209 0 345 -136.5t136 -345.5q0 -19 -6 -73l-4 -29h-758q18 -104 102 -175t205 -71q111 0 209 66q44 28 78 67zM297 594h553
q-24 103 -92.5 164t-173.5 61q-112 0 -183.5 -60t-103.5 -165zM461 1290q0 52 37 87.5t86 35.5t86 -35.5t37 -87.5t-37 -87.5t-86 -35.5t-86 35.5t-37 87.5z" />
    <glyph glyph-name="Eogonek" unicode="&#x118;" horiz-adv-x="1331" 
d="M205 0v1434h1014v-215h-789v-369h625v-215h-625v-420h809v-215q-25 -35 -47 -74q-45 -84 -45 -143q0 -38 28 -64t74 -26q37 0 70 10q16 3 33 10v-123q-7 -3 -21 -8.5t-20 -7.5q-47 -14 -103 -14q-92 0 -148 53.5t-56 140.5q0 89 55 172q25 42 57 74h-911z" />
    <glyph glyph-name="eogonek" unicode="&#x119;" horiz-adv-x="1146" 
d="M788 -287v-123q-7 -3 -21 -8.5t-19 -7.5q-47 -14 -103 -14q-92 0 -148.5 54t-56.5 140t45 162q26 43 47 64q-119 12 -221.5 79.5t-165.5 182.5t-63 250q0 141 67.5 259t183 185.5t251.5 67.5q209 0 345 -136.5t136 -345.5q0 -19 -6 -73l-4 -29h-758q18 -104 102 -175
t205 -71q111 0 209 66q44 28 78 67l123 -143q-31 -40 -88 -80q-119 -87 -271 -104q-8 -12 -20 -31.5t-31.5 -71.5t-19.5 -94q0 -38 28 -64t74 -26q37 0 70 10q14 3 32 10zM297 594h553q-24 103 -92.5 164t-173.5 61q-112 0 -183.5 -60t-103.5 -165z" />
    <glyph glyph-name="Ecaron" unicode="&#x11a;" horiz-adv-x="1331" 
d="M205 0v1434h1014v-215h-789v-369h625v-215h-625v-420h809v-215h-1034zM635 1618l-236 287h185l143 -174l143 174h185l-236 -287h-184z" />
    <glyph glyph-name="ecaron" unicode="&#x11b;" horiz-adv-x="1146" 
d="M891 307l123 -143q-38 -49 -103 -92q-141 -92 -317 -92q-215 0 -363.5 148.5t-148.5 363.5q0 141 67.5 259t183 185.5t251.5 67.5q209 0 345 -136.5t136 -345.5q0 -19 -6 -73l-4 -29h-758q18 -104 102 -175t205 -71q111 0 209 66q44 28 78 67zM297 594h553
q-24 103 -92.5 164t-173.5 61q-112 0 -183.5 -60t-103.5 -165zM492 1147l-236 287h184l144 -174l143 174h184l-235 -287h-184z" />
    <glyph glyph-name="Gcircumflex" unicode="&#x11c;" horiz-adv-x="1648" 
d="M963 553v205h522v-502q-64 -76 -158 -139q-198 -137 -457 -137q-158 0 -299 58t-241 156.5t-158.5 234.5t-58.5 288t58.5 288t158.5 234.5t241 156.5t299 58q250 0 439 -139q87 -65 145 -137l-143 -144q-46 61 -109 107q-145 108 -332 108q-146 0 -268.5 -70.5t-193 -193
t-70.5 -268.5t70.5 -268.5t193 -193.5t268.5 -71q162 0 291 76q59 34 99 78v215h-297zM512 1618l236 287h184l235 -287h-184l-143 174l-144 -174h-184z" />
    <glyph glyph-name="gcircumflex" unicode="&#x11d;" 
d="M113 -225l143 133q40 -47 74 -72q87 -72 202 -72q140 0 224 85.5t84 232.5v92q-28 -41 -78 -78q-107 -76 -240 -76q-181 0 -310.5 140.5t-129.5 351.5t129.5 351.5t310.5 140.5q130 0 240 -78q48 -36 78 -76v133h204v-901q0 -223 -144.5 -367.5t-367.5 -144.5
q-169 0 -313 102q-60 46 -106 103zM563 215q117 0 197 84t80 213t-80 213t-197 84t-196.5 -84t-79.5 -213t79.5 -213t196.5 -84zM256 1147l236 287h184l235 -287h-184l-143 174l-144 -174h-184z" />
    <glyph glyph-name="Gbreve" unicode="&#x11e;" horiz-adv-x="1648" 
d="M963 553v205h522v-502q-64 -76 -158 -139q-198 -137 -457 -137q-158 0 -299 58t-241 156.5t-158.5 234.5t-58.5 288t58.5 288t158.5 234.5t241 156.5t299 58q250 0 439 -139q87 -65 145 -137l-143 -144q-46 61 -109 107q-145 108 -332 108q-146 0 -268.5 -70.5t-193 -193
t-70.5 -268.5t70.5 -268.5t193 -193.5t268.5 -71q162 0 291 76q59 34 99 78v215h-297zM543 1905h153q0 -61 41 -102.5t103 -41.5q61 0 102 41t41 103h154q0 -124 -83.5 -205.5t-213.5 -81.5t-213.5 81.5t-83.5 205.5z" />
    <glyph glyph-name="gbreve" unicode="&#x11f;" 
d="M113 -225l143 133q40 -47 74 -72q87 -72 202 -72q140 0 224 85.5t84 232.5v92q-28 -41 -78 -78q-107 -76 -240 -76q-181 0 -310.5 140.5t-129.5 351.5t129.5 351.5t310.5 140.5q130 0 240 -78q48 -36 78 -76v133h204v-901q0 -223 -144.5 -367.5t-367.5 -144.5
q-169 0 -313 102q-60 46 -106 103zM563 215q117 0 197 84t80 213t-80 213t-197 84t-196.5 -84t-79.5 -213t79.5 -213t196.5 -84zM287 1434h153q0 -62 41 -103t103 -41q61 0 102 41t41 103h154q0 -124 -83.5 -205.5t-213.5 -81.5t-213.5 81.5t-83.5 205.5z" />
    <glyph glyph-name="Gdotaccent" unicode="&#x120;" horiz-adv-x="1648" 
d="M963 553v205h522v-502q-64 -76 -158 -139q-198 -137 -457 -137q-158 0 -299 58t-241 156.5t-158.5 234.5t-58.5 288t58.5 288t158.5 234.5t241 156.5t299 58q250 0 439 -139q87 -65 145 -137l-143 -144q-46 61 -109 107q-145 108 -332 108q-146 0 -268.5 -70.5t-193 -193
t-70.5 -268.5t70.5 -268.5t193 -193.5t268.5 -71q162 0 291 76q59 34 99 78v215h-297zM727 1741q0 52 37 87.5t86 35.5t86 -35.5t37 -87.5t-37 -87.5t-86 -35.5t-86 35.5t-37 87.5z" />
    <glyph glyph-name="gdotaccent" unicode="&#x121;" 
d="M113 -225l143 133q40 -47 74 -72q87 -72 202 -72q140 0 224 85.5t84 232.5v92q-28 -41 -78 -78q-107 -76 -240 -76q-181 0 -310.5 140.5t-129.5 351.5t129.5 351.5t310.5 140.5q130 0 240 -78q48 -36 78 -76v133h204v-901q0 -223 -144.5 -367.5t-367.5 -144.5
q-169 0 -313 102q-60 46 -106 103zM563 215q117 0 197 84t80 213t-80 213t-197 84t-196.5 -84t-79.5 -213t79.5 -213t196.5 -84zM461 1290q0 52 37 87.5t86 35.5t86 -35.5t37 -87.5t-37 -87.5t-86 -35.5t-86 35.5t-37 87.5z" />
    <glyph glyph-name="Gcommaaccent" unicode="&#x122;" horiz-adv-x="1648" 
d="M963 553v205h522v-502q-64 -76 -158 -139q-198 -137 -457 -137q-158 0 -299 58t-241 156.5t-158.5 234.5t-58.5 288t58.5 288t158.5 234.5t241 156.5t299 58q250 0 439 -139q87 -65 145 -137l-143 -144q-46 61 -109 107q-145 108 -332 108q-146 0 -268.5 -70.5t-193 -193
t-70.5 -268.5t70.5 -268.5t193 -193.5t268.5 -71q162 0 291 76q59 34 99 78v215h-297zM666 -451l92 287h194l-133 -287h-153z" />
    <glyph glyph-name="gcommaaccent" unicode="&#x123;" 
d="M471 1147l133 287h144l-93 -287h-184zM113 -225l143 133q40 -47 74 -72q87 -72 202 -72q140 0 224 85.5t84 232.5v92q-28 -41 -78 -78q-107 -76 -240 -76q-181 0 -310.5 140.5t-129.5 351.5t129.5 351.5t310.5 140.5q130 0 240 -78q48 -36 78 -76v133h204v-901
q0 -223 -144.5 -367.5t-367.5 -144.5q-169 0 -313 102q-60 46 -106 103zM563 215q117 0 197 84t80 213t-80 213t-197 84t-196.5 -84t-79.5 -213t79.5 -213t196.5 -84z" />
    <glyph glyph-name="Hcircumflex" unicode="&#x124;" horiz-adv-x="1566" 
d="M205 0v1434h225v-605h707v605h225v-1434h-225v625h-707v-625h-225zM451 1618l235 287h184l236 -287h-184l-144 174l-143 -174h-184z" />
    <glyph glyph-name="hcircumflex" unicode="&#x125;" horiz-adv-x="1198" 
d="M154 0v1434h204v-594q28 43 76 82q102 82 232 82q172 0 280.5 -116.5t108.5 -314.5v-573h-205v573q0 108 -62 172t-163 64q-116 0 -191.5 -77.5t-75.5 -199.5v-532h-204zM266 1618l236 287h184l236 -287h-185l-143 174l-143 -174h-185z" />
    <glyph glyph-name="Hbar" unicode="&#x126;" horiz-adv-x="1587" 
d="M236 0v1004h-195v194h195v236h225v-236h665v236h226v-236h194v-194h-194v-1004h-226v573h-665v-573h-225zM461 778h665v226h-665v-226z" />
    <glyph glyph-name="hbar" unicode="&#x127;" horiz-adv-x="1218" 
d="M174 0v1085h-174v195h174v154h205v-154h266v-195h-266v-297q28 43 76 82q102 82 231 82q172 0 280.5 -116t108.5 -314v-522h-205v522q0 108 -62 172t-163 64q-116 0 -191 -77.5t-75 -199.5v-481h-205z" />
    <glyph glyph-name="Imacron" unicode="&#x12a;" horiz-adv-x="634" 
d="M205 0v1434h225v-1434h-225zM10 1690v143h615v-143h-615z" />
    <glyph glyph-name="imacron" unicode="&#x12b;" horiz-adv-x="512" 
d="M154 0v983h204v-983h-204zM-51 1270v143h614v-143h-614z" />
    <glyph glyph-name="Ibreve" unicode="&#x12c;" horiz-adv-x="634" 
d="M205 0v1434h225v-1434h-225zM20 1905h154q0 -62 41 -103t102 -41t102.5 41.5t41.5 102.5h153q0 -124 -83.5 -205.5t-213.5 -81.5t-213.5 81.5t-83.5 205.5z" />
    <glyph glyph-name="ibreve" unicode="&#x12d;" horiz-adv-x="512" 
d="M154 0v983h204v-983h-204zM-41 1434h154q0 -62 41 -103t102 -41t102 41t41 103h154q0 -124 -83.5 -205.5t-213.5 -81.5t-213.5 81.5t-83.5 205.5z" />
    <glyph glyph-name="Iogonek" unicode="&#x12e;" horiz-adv-x="634" 
d="M440 -287v-123q-7 -3 -21 -8.5t-20 -7.5q-47 -14 -102 -14q-92 0 -148.5 54t-56.5 140q0 89 55 172q23 39 58 74v1434h225v-1434h-102q-25 -35 -47 -74q-45 -84 -45 -143q0 -38 28 -64t74 -26q37 0 70 10q14 3 32 10z" />
    <glyph glyph-name="iogonek" unicode="&#x12f;" horiz-adv-x="512" 
d="M389 -287v-123q-7 -3 -21 -8.5t-20 -7.5q-47 -14 -102 -14q-92 0 -148.5 54t-56.5 140q0 89 55 172q23 39 58 74v983h204v-983h-82q-25 -35 -47 -74q-45 -84 -45 -143q0 -38 28.5 -64t74.5 -26q36 0 69 10q16 3 33 10zM133 1290q0 52 37 87.5t86 35.5t86 -35.5t37 -87.5
t-37 -87.5t-86 -35.5t-86 35.5t-37 87.5z" />
    <glyph glyph-name="Idot" unicode="&#x130;" horiz-adv-x="634" 
d="M205 0v1434h225v-1434h-225zM195 1741q0 53 36.5 88t85.5 35t86 -35.5t37 -87.5t-37 -87.5t-86 -35.5t-85.5 35t-36.5 88z" />
    <glyph glyph-name="dotlessi" unicode="&#x131;" horiz-adv-x="512" 
d="M154 0v983h204v-983h-204z" />
    <glyph glyph-name="uni0132" unicode="&#x132;" horiz-adv-x="1536" 
d="M205 0v1434h225v-1434h-225zM512 143l143 144q28 -32 60 -51q75 -52 176 -52q110 0 172.5 67t62.5 189v994h226v-994q0 -209 -126 -334.5t-335 -125.5q-161 0 -285 81q-55 37 -94 82z" />
    <glyph glyph-name="uni0133" unicode="&#x133;" horiz-adv-x="1003" 
d="M154 0v983h204v-983h-204zM133 1290q0 52 37 87.5t86 35.5t86 -35.5t37 -87.5t-37 -87.5t-86 -35.5t-86 35.5t-37 87.5zM389 -399v194l33 -16q34 -15 80 -15q143 0 143 154v1065h205v-1085q0 -160 -79 -244t-228 -84q-64 0 -111 14zM625 1290q0 52 37 87.5t86 35.5
t85.5 -35t36.5 -88t-36.5 -88t-85.5 -35t-86 35.5t-37 87.5z" />
    <glyph glyph-name="Jcircumflex" unicode="&#x134;" horiz-adv-x="1024" 
d="M0 143l143 144q28 -32 60 -51q75 -52 176 -52q110 0 172.5 67t62.5 189v994h226v-994q0 -209 -126 -334.5t-335 -125.5q-161 0 -285 81q-55 37 -94 82zM399 1618l236 287h184l236 -287h-185l-143 174l-143 -174h-185z" />
    <glyph glyph-name="jcircumflex" unicode="&#x135;" horiz-adv-x="512" 
d="M-102 -399v194l32 -16q34 -15 80 -15q144 0 144 154v1065h204v-1085q0 -160 -79 -244t-228 -84q-63 0 -110 14zM-72 1147l236 287h184l236 -287h-185l-143 174l-143 -174h-185z" />
    <glyph glyph-name="Kcommaaccent" unicode="&#x136;" horiz-adv-x="1402" 
d="M205 0v1434h225v-697l645 697h287l-553 -594l594 -840h-277l-471 676l-225 -246v-430h-225zM573 -451l93 287h194l-133 -287h-154z" />
    <glyph glyph-name="kcommaaccent" unicode="&#x137;" horiz-adv-x="1064" 
d="M154 0v1434h204v-902l420 451h256l-379 -399l410 -584h-236l-307 440l-164 -174v-266h-204zM399 -451l93 287h194l-133 -287h-154z" />
    <glyph glyph-name="Lacute" unicode="&#x139;" horiz-adv-x="1167" 
d="M205 0v1434h225v-1219h696v-215h-921zM246 1618l153 287h215l-215 -287h-153z" />
    <glyph glyph-name="lacute" unicode="&#x13a;" horiz-adv-x="512" 
d="M154 0v1434h204v-1434h-204zM184 1618l154 287h215l-215 -287h-154z" />
    <glyph glyph-name="Lcommaaccent" unicode="&#x13b;" horiz-adv-x="1167" 
d="M205 0v1434h225v-1219h696v-215h-921zM492 -451l92 287h194l-133 -287h-153z" />
    <glyph glyph-name="lcommaaccent" unicode="&#x13c;" horiz-adv-x="512" 
d="M154 0v1434h204v-1434h-204zM72 -451l92 287h194l-133 -287h-153z" />
    <glyph glyph-name="Lcaron" unicode="&#x13d;" horiz-adv-x="1167" 
d="M205 0v1434h225v-1219h696v-215h-921zM573 1147l93 287h194l-133 -287h-154z" />
    <glyph glyph-name="lcaron" unicode="&#x13e;" horiz-adv-x="614" 
d="M154 0v1434h204v-1434h-204zM461 1147l92 287h195l-134 -287h-153z" />
    <glyph glyph-name="Ldot" unicode="&#x13f;" horiz-adv-x="1167" 
d="M205 0v1434h225v-1219h696v-215h-921zM645 758q0 52 37 87.5t86 35.5t86 -35.5t37 -87.5t-37 -87.5t-86 -35.5t-86 35.5t-37 87.5z" />
    <glyph glyph-name="ldot" unicode="&#x140;" horiz-adv-x="768" 
d="M154 0v1434h204v-1434h-204zM481 717q0 52 37 87.5t86 35.5t86 -35.5t37 -87.5t-37 -87.5t-86 -35.5t-86 35.5t-37 87.5z" />
    <glyph glyph-name="Lslash" unicode="&#x141;" horiz-adv-x="1280" 
d="M317 0v543l-225 -133l-92 163l317 185v676h226v-553l245 143l93 -164l-338 -194v-451h696v-215h-922z" />
    <glyph glyph-name="lslash" unicode="&#x142;" horiz-adv-x="757" 
d="M276 0v567l-225 -137l-92 154l317 194v656h205v-537l226 137l92 -153l-318 -195v-686h-205z" />
    <glyph glyph-name="Nacute" unicode="&#x143;" horiz-adv-x="1628" 
d="M205 0v1434h205l788 -1055v1055h225v-1434h-204l-789 1055v-1055h-225zM748 1618l153 287h215l-215 -287h-153z" />
    <glyph glyph-name="nacute" unicode="&#x144;" 
d="M143 0v983h205v-143q28 43 76 82q102 82 231 82q172 0 280.5 -116.5t108.5 -314.5v-573h-204v573q0 108 -62.5 172t-163.5 64q-116 0 -191 -77.5t-75 -199.5v-532h-205zM522 1147l154 287h215l-215 -287h-154z" />
    <glyph glyph-name="Ncommaaccent" unicode="&#x145;" horiz-adv-x="1628" 
d="M205 0v1434h205l788 -1055v1055h225v-1434h-204l-789 1055v-1055h-225zM655 -451l93 287h194l-133 -287h-154z" />
    <glyph glyph-name="ncommaaccent" unicode="&#x146;" 
d="M143 0v983h205v-143q28 43 76 82q102 82 231 82q172 0 280.5 -116.5t108.5 -314.5v-573h-204v573q0 108 -62.5 172t-163.5 64q-116 0 -191 -77.5t-75 -199.5v-532h-205zM420 -451l92 287h195l-134 -287h-153z" />
    <glyph glyph-name="Ncaron" unicode="&#x147;" horiz-adv-x="1628" 
d="M205 0v1434h205l788 -1055v1055h225v-1434h-204l-789 1055v-1055h-225zM727 1618l-235 287h184l143 -174l144 174h184l-236 -287h-184z" />
    <glyph glyph-name="ncaron" unicode="&#x148;" 
d="M143 0v983h205v-143q28 43 76 82q102 82 231 82q172 0 280.5 -116.5t108.5 -314.5v-573h-204v573q0 108 -62.5 172t-163.5 64q-116 0 -191 -77.5t-75 -199.5v-532h-205zM512 1147l-236 287h185l143 -174l144 174h184l-236 -287h-184z" />
    <glyph glyph-name="napostrophe" unicode="&#x149;" 
d="M143 0v983h205v-143q28 43 76 82q102 82 231 82q172 0 280.5 -116.5t108.5 -314.5v-573h-204v573q0 108 -62.5 172t-163.5 64q-116 0 -191 -77.5t-75 -199.5v-532h-205zM-51 1106l92 287h195l-134 -287h-153z" />
    <glyph glyph-name="Eng" unicode="&#x14a;" horiz-adv-x="1628" 
d="M205 0v1434h205l788 -1055v1055h225v-1434q0 -207 -121.5 -334t-308.5 -127q-159 0 -268 72q-50 28 -90 72l153 153q19 -19 52 -41q59 -41 143 -41q102 0 158.5 62.5t56.5 183.5v31l-768 1024v-1055h-225z" />
    <glyph glyph-name="eng" unicode="&#x14b;" 
d="M143 0v983h205v-143q28 43 76 82q102 82 231 82q172 0 280.5 -116.5t108.5 -314.5v-696q0 -317 -286 -317q-59 0 -103 14q-6 2 -20 7.5t-21 8.5v195q17 -7 33 -10q37 -11 70 -11q55 0 89 36.5t34 97.5v675q0 108 -62.5 172t-163.5 64q-116 0 -191 -77.5t-75 -199.5v-532
h-205z" />
    <glyph glyph-name="Omacron" unicode="&#x14c;" horiz-adv-x="1740" 
d="M338 717q0 -146 70.5 -268.5t193 -193.5t268.5 -71t268.5 71t193.5 193.5t71 268.5t-71 268.5t-193.5 193t-268.5 70.5t-268.5 -70.5t-193 -193t-70.5 -268.5zM113 717q0 152 58.5 288t158.5 234.5t241 156.5t299 58t299 -58t241.5 -156.5t159 -235t58.5 -287.5
t-58.5 -287.5t-159 -235t-241.5 -156.5t-299 -58t-299 58t-241 156.5t-158.5 234.5t-58.5 288zM561 1690v143h615v-143h-615z" />
    <glyph glyph-name="omacron" unicode="&#x14d;" 
d="M82 492q0 215 148.5 363.5t363.5 148.5t363.5 -148.5t148.5 -363.5t-148.5 -363.5t-363.5 -148.5t-363.5 148.5t-148.5 363.5zM594 174q131 0 219 90t88 228t-87.5 227.5t-219.5 89.5t-219.5 -89.5t-87.5 -227.5t88 -228t219 -90zM287 1239v143h614v-143h-614z" />
    <glyph glyph-name="Obreve" unicode="&#x14e;" horiz-adv-x="1740" 
d="M338 717q0 -146 70.5 -268.5t193 -193.5t268.5 -71t268.5 71t193.5 193.5t71 268.5t-71 268.5t-193.5 193t-268.5 70.5t-268.5 -70.5t-193 -193t-70.5 -268.5zM113 717q0 152 58.5 288t158.5 234.5t241 156.5t299 58t299 -58t241.5 -156.5t159 -235t58.5 -287.5
t-58.5 -287.5t-159 -235t-241.5 -156.5t-299 -58t-299 58t-241 156.5t-158.5 234.5t-58.5 288zM571 1905h154q0 -62 41 -103t102 -41q62 0 103 41.5t41 102.5h153q0 -124 -83.5 -205.5t-213.5 -81.5t-213.5 81.5t-83.5 205.5z" />
    <glyph glyph-name="obreve" unicode="&#x14f;" 
d="M82 492q0 215 148.5 363.5t363.5 148.5t363.5 -148.5t148.5 -363.5t-148.5 -363.5t-363.5 -148.5t-363.5 148.5t-148.5 363.5zM594 174q131 0 219 90t88 228t-87.5 227.5t-219.5 89.5t-219.5 -89.5t-87.5 -227.5t88 -228t219 -90zM297 1434h154q0 -62 41 -103t102 -41
t102 41t41 103h154q0 -124 -83.5 -205.5t-213.5 -81.5t-213.5 81.5t-83.5 205.5z" />
    <glyph glyph-name="Ohungarumlaut" unicode="&#x150;" horiz-adv-x="1740" 
d="M338 717q0 -146 70.5 -268.5t193 -193.5t268.5 -71t268.5 71t193.5 193.5t71 268.5t-71 268.5t-193.5 193t-268.5 70.5t-268.5 -70.5t-193 -193t-70.5 -268.5zM113 717q0 152 58.5 288t158.5 234.5t241 156.5t299 58t299 -58t241.5 -156.5t159 -235t58.5 -287.5
t-58.5 -287.5t-159 -235t-241.5 -156.5t-299 -58t-299 58t-241 156.5t-158.5 234.5t-58.5 288zM612 1618l154 287h215l-215 -287h-154zM971 1618l153 287h215l-215 -287h-153z" />
    <glyph glyph-name="ohungarumlaut" unicode="&#x151;" 
d="M82 492q0 215 148.5 363.5t363.5 148.5t363.5 -148.5t148.5 -363.5t-148.5 -363.5t-363.5 -148.5t-363.5 148.5t-148.5 363.5zM594 174q131 0 219 90t88 228t-87.5 227.5t-219.5 89.5t-219.5 -89.5t-87.5 -227.5t88 -228t219 -90zM338 1147l154 287h215l-215 -287h-154z
M696 1147l154 287h215l-215 -287h-154z" />
    <glyph glyph-name="OE" unicode="&#x152;" horiz-adv-x="2078" 
d="M1260 215h727v-215h-1127q-154 0 -293.5 58t-238.5 155t-157 229t-58 275t58 275t157 229t238.5 155t293.5 58h1106v-215h-706v-369h542v-215h-542v-420zM860 215h174v1004h-174q-142 0 -261.5 -65t-190 -180.5t-70.5 -256.5t70.5 -256.5t190 -180.5t261.5 -65z" />
    <glyph glyph-name="oe" unicode="&#x153;" horiz-adv-x="1914" 
d="M1659 307l123 -143q-37 -47 -101 -92q-133 -92 -309 -92q-164 0 -291 106q-55 44 -98 109q-45 -69 -96 -109q-127 -106 -303 -106q-136 0 -251.5 67.5t-183 185.5t-67.5 259t67.5 259t183 185.5t251.5 67.5q162 0 299 -103q59 -47 100 -102q36 51 96 102q127 103 283 103
q202 0 336.5 -137t134.5 -345q0 -19 -6 -73l-4 -29h-738q18 -103 100.5 -174.5t196.5 -71.5q101 0 199 66q44 28 78 67zM584 174q125 0 211 90t86 228t-86 227.5t-211 89.5t-211 -89.5t-86 -227.5t86 -228t211 -90zM1085 594h533q-24 102 -91 163.5t-165 61.5
q-105 0 -175 -60.5t-102 -164.5z" />
    <glyph glyph-name="Racute" unicode="&#x154;" horiz-adv-x="1413" 
d="M205 0v1434h594q205 0 338 -129.5t133 -321.5q0 -197 -137 -324q-62 -56 -138 -86l326 -573h-256l-297 532h-338v-532h-225zM430 737h369q109 0 177 68.5t68 177.5t-68 177.5t-177 68.5h-369v-492zM625 1618l153 287h215l-215 -287h-153z" />
    <glyph glyph-name="racute" unicode="&#x155;" horiz-adv-x="737" 
d="M143 0v983h205v-133q41 48 76 76q98 78 221 78h51v-216l-26 5q-48 6 -56 6q-108 0 -187 -84.5t-79 -212.5v-502h-205zM338 1147l154 287h215l-215 -287h-154z" />
    <glyph glyph-name="Rcommaaccent" unicode="&#x156;" horiz-adv-x="1413" 
d="M205 0v1434h594q205 0 338 -129.5t133 -321.5q0 -197 -137 -324q-62 -56 -138 -86l326 -573h-256l-297 532h-338v-532h-225zM430 737h369q109 0 177 68.5t68 177.5t-68 177.5t-177 68.5h-369v-492zM563 -451l92 287h195l-133 -287h-154z" />
    <glyph glyph-name="rcommaaccent" unicode="&#x157;" horiz-adv-x="737" 
d="M143 0v983h205v-133q41 48 76 76q98 78 221 78h51v-216l-26 5q-48 6 -56 6q-108 0 -187 -84.5t-79 -212.5v-502h-205zM51 -451l92 287h195l-133 -287h-154z" />
    <glyph glyph-name="Rcaron" unicode="&#x158;" horiz-adv-x="1413" 
d="M205 0v1434h594q205 0 338 -129.5t133 -321.5q0 -197 -137 -324q-62 -56 -138 -86l326 -573h-256l-297 532h-338v-532h-225zM430 737h369q109 0 177 68.5t68 177.5t-68 177.5t-177 68.5h-369v-492zM635 1618l-236 287h185l143 -174l143 174h185l-236 -287h-184z" />
    <glyph glyph-name="rcaron" unicode="&#x159;" horiz-adv-x="737" 
d="M143 0v983h205v-133q41 48 76 76q98 78 221 78h51v-216l-26 5q-48 6 -56 6q-108 0 -187 -84.5t-79 -212.5v-502h-205zM317 1147l-235 287h184l144 -174l143 174h184l-235 -287h-185z" />
    <glyph glyph-name="Sacute" unicode="&#x15a;" horiz-adv-x="1167" 
d="M61 195l154 153q32 -44 86 -82q118 -82 272 -82q134 0 210.5 62t76.5 153q0 50 -26 88t-70 61.5t-100.5 42.5t-119.5 37t-126 38.5t-119.5 52.5t-100.5 74.5t-70 109.5t-26 152q0 167 135 283t357 116q187 0 336 -92q69 -42 114 -92l-153 -154q-40 44 -76 66
q-99 67 -221 67q-125 0 -195.5 -56t-70.5 -138q0 -50 26 -88t69.5 -61.5t100.5 -42.5t119.5 -37t125.5 -38.5t120 -52.5t100.5 -74.5t69.5 -109.5t26 -152q0 -113 -61 -208t-179 -153t-272 -58q-225 0 -387 106q-69 44 -125 109zM502 1618l153 287h215l-215 -287h-153z" />
    <glyph glyph-name="sacute" unicode="&#x15b;" horiz-adv-x="890" 
d="M51 164l133 133q31 -42 70 -68q93 -65 186 -65q82 0 128 36t46 87q0 33 -29 56.5t-75 39.5t-101.5 31.5t-111 38.5t-101.5 54t-75 85t-29 125q0 120 98.5 203.5t260.5 83.5q145 0 262 -68q48 -25 86 -66l-133 -133q-30 27 -58 41q-70 41 -157 41q-73 0 -113.5 -30
t-40.5 -72q0 -33 29 -57t75 -39.5t101.5 -31.5t111 -39t101.5 -54t75 -84.5t29 -124.5q0 -128 -103.5 -217.5t-275.5 -89.5q-161 0 -290 92q-60 42 -99 92zM369 1147l153 287h215l-215 -287h-153z" />
    <glyph glyph-name="Scircumflex" unicode="&#x15c;" horiz-adv-x="1167" 
d="M61 195l154 153q32 -44 86 -82q118 -82 272 -82q134 0 210.5 62t76.5 153q0 50 -26 88t-70 61.5t-100.5 42.5t-119.5 37t-126 38.5t-119.5 52.5t-100.5 74.5t-70 109.5t-26 152q0 167 135 283t357 116q187 0 336 -92q69 -42 114 -92l-153 -154q-40 44 -76 66
q-99 67 -221 67q-125 0 -195.5 -56t-70.5 -138q0 -50 26 -88t69.5 -61.5t100.5 -42.5t119.5 -37t125.5 -38.5t120 -52.5t100.5 -74.5t69.5 -109.5t26 -152q0 -113 -61 -208t-179 -153t-272 -58q-225 0 -387 106q-69 44 -125 109zM256 1618l236 287h184l235 -287h-184
l-143 174l-144 -174h-184z" />
    <glyph glyph-name="scircumflex" unicode="&#x15d;" horiz-adv-x="890" 
d="M51 164l133 133q31 -42 70 -68q93 -65 186 -65q82 0 128 36t46 87q0 33 -29 56.5t-75 39.5t-101.5 31.5t-111 38.5t-101.5 54t-75 85t-29 125q0 120 98.5 203.5t260.5 83.5q145 0 262 -68q48 -25 86 -66l-133 -133q-30 27 -58 41q-70 41 -157 41q-73 0 -113.5 -30
t-40.5 -72q0 -33 29 -57t75 -39.5t101.5 -31.5t111 -39t101.5 -54t75 -84.5t29 -124.5q0 -128 -103.5 -217.5t-275.5 -89.5q-161 0 -290 92q-60 42 -99 92zM123 1147l235 287h185l235 -287h-184l-143 174l-144 -174h-184z" />
    <glyph glyph-name="Scedilla" unicode="&#x15e;" horiz-adv-x="1167" 
d="M358 -369l52 93q23 -19 41 -27q45 -25 102 -25q38 0 60 19t22 49q0 27 -21 46t-51 19t-47 -10l-14 -10l-62 61l62 134q-179 17 -332 118q-65 44 -109 97l154 153q32 -44 86 -82q118 -82 272 -82q134 0 210.5 62t76.5 153q0 50 -26 88t-70 61.5t-100.5 42.5t-119.5 37
t-126 38.5t-119.5 52.5t-100.5 74.5t-70 109.5t-26 152q0 167 135 283t357 116q187 0 336 -92q69 -42 114 -92l-153 -154q-40 44 -76 66q-99 67 -221 67q-125 0 -195.5 -56t-70.5 -138q0 -50 26 -88t69.5 -61.5t100.5 -42.5t119.5 -37t125.5 -38.5t120 -52.5t100.5 -74.5
t69.5 -109.5t26 -152q0 -163 -122.5 -278.5t-327.5 -140.5l-41 -82q42 -3 82 -25q82 -46 82 -139q0 -73 -54.5 -123.5t-150.5 -50.5q-81 0 -143 34q-34 19 -52 37z" />
    <glyph glyph-name="scedilla" unicode="&#x15f;" horiz-adv-x="890" 
d="M225 -369l51 93q23 -19 41 -27q45 -25 103 -25q38 0 60 19t22 49q0 27 -21 46t-51 19t-47 -10l-14 -10l-62 61l62 134q-124 17 -236 104q-51 42 -82 80l133 133q31 -42 70 -68q93 -65 186 -65q82 0 128 36t46 87q0 33 -29 56.5t-75 39.5t-101.5 31.5t-111 38.5t-101.5 54
t-75 85t-29 125q0 120 98.5 203.5t260.5 83.5q145 0 262 -68q48 -25 86 -66l-133 -133q-30 27 -58 41q-70 41 -157 41q-73 0 -113.5 -30t-40.5 -72q0 -33 29 -57t75 -39.5t101.5 -31.5t111 -39t101.5 -54t75 -84.5t29 -124.5q0 -124 -85.5 -207t-231.5 -100l-41 -82
q42 -3 82 -25q82 -46 82 -139q0 -73 -54.5 -123.5t-150.5 -50.5q-82 0 -144 34q-32 17 -51 37z" />
    <glyph glyph-name="Scaron" unicode="&#x160;" horiz-adv-x="1167" 
d="M61 195l154 153q32 -44 86 -82q118 -82 272 -82q134 0 210.5 62t76.5 153q0 50 -26 88t-70 61.5t-100.5 42.5t-119.5 37t-126 38.5t-119.5 52.5t-100.5 74.5t-70 109.5t-26 152q0 167 135 283t357 116q187 0 336 -92q69 -42 114 -92l-153 -154q-40 44 -76 66
q-99 67 -221 67q-125 0 -195.5 -56t-70.5 -138q0 -50 26 -88t69.5 -61.5t100.5 -42.5t119.5 -37t125.5 -38.5t120 -52.5t100.5 -74.5t69.5 -109.5t26 -152q0 -113 -61 -208t-179 -153t-272 -58q-225 0 -387 106q-69 44 -125 109zM492 1618l-236 287h184l144 -174l143 174
h184l-235 -287h-184z" />
    <glyph glyph-name="scaron" unicode="&#x161;" horiz-adv-x="890" 
d="M51 164l133 133q31 -42 70 -68q93 -65 186 -65q82 0 128 36t46 87q0 33 -29 56.5t-75 39.5t-101.5 31.5t-111 38.5t-101.5 54t-75 85t-29 125q0 120 98.5 203.5t260.5 83.5q145 0 262 -68q48 -25 86 -66l-133 -133q-30 27 -58 41q-70 41 -157 41q-73 0 -113.5 -30
t-40.5 -72q0 -33 29 -57t75 -39.5t101.5 -31.5t111 -39t101.5 -54t75 -84.5t29 -124.5q0 -128 -103.5 -217.5t-275.5 -89.5q-161 0 -290 92q-60 42 -99 92zM358 1147l-235 287h184l144 -174l143 174h184l-235 -287h-185z" />
    <glyph glyph-name="uni0162" unicode="&#x162;" horiz-adv-x="1167" 
d="M379 -369l51 93q23 -19 41 -27q45 -25 102 -25q38 0 60 19t22 49q0 27 -20.5 46t-50.5 19t-47 -10l-15 -10l-61 61l71 154h-61v1219h-430v215h1085v-215h-430v-1219h-30l-52 -102q42 -3 82 -25q82 -46 82 -139q0 -73 -54.5 -123.5t-150.5 -50.5q-81 0 -143 34
q-31 17 -51 37z" />
    <glyph glyph-name="uni0163" unicode="&#x163;" horiz-adv-x="808" 
d="M276 -369l52 93q23 -19 41 -27q45 -25 102 -25q38 0 60 19t22 49q0 27 -21 46t-51 19t-47 -10l-14 -10l-62 61l72 154q-52 12 -92 49q-92 84 -92 258v481h-185v195h113q48 0 70 26t22 87v215h185v-328h225v-195h-225v-460q0 -154 143 -154q40 0 80 14l33 17v-195
q-8 -3 -24.5 -8t-23.5 -8q-54 -14 -106 -14l-41 -82q42 -3 82 -25q82 -46 82 -139q0 -73 -54.5 -123.5t-150.5 -50.5q-81 0 -143 34q-34 19 -52 37z" />
    <glyph glyph-name="Tcaron" unicode="&#x164;" horiz-adv-x="1167" 
d="M471 0v1219h-430v215h1085v-215h-430v-1219h-225zM492 1618l-236 287h184l144 -174l143 174h184l-235 -287h-184z" />
    <glyph glyph-name="tcaron" unicode="&#x165;" horiz-adv-x="808" 
d="M246 307v481h-185v195h113q48 0 70 26t22 87v215h185v-328h225v-195h-225v-460q0 -154 143 -154q40 0 80 14l33 17v-195l-43 -16q-47 -14 -111 -14q-149 0 -228 83.5t-79 243.5zM655 1147l93 287h194l-133 -287h-154z" />
    <glyph glyph-name="Tbar" unicode="&#x166;" horiz-adv-x="1167" 
d="M471 0v707h-307v194h307v318h-430v215h1085v-215h-430v-318h308v-194h-308v-707h-225z" />
    <glyph glyph-name="tbar" unicode="&#x167;" horiz-adv-x="808" 
d="M61 440v185h185v174h-185v184h113q48 0 70 26t22 87v215h185v-328h225v-184h-225v-174h225v-185h-225v-112q0 -154 143 -154q40 0 80 14l33 17v-195l-43 -16q-47 -14 -111 -14q-149 0 -228 83.5t-79 243.5v133h-185z" />
    <glyph glyph-name="Umacron" unicode="&#x16a;" horiz-adv-x="1576" 
d="M184 573v861h226v-861q0 -168 108 -278.5t270 -110.5q155 0 267 114.5t112 274.5v861h226v-861q0 -262 -168.5 -427.5t-436.5 -165.5t-436 165.5t-168 427.5zM481 1690v143h615v-143h-615z" />
    <glyph glyph-name="umacron" unicode="&#x16b;" 
d="M143 410v573h205v-573q0 -108 62 -172t163 -64q116 0 191.5 77.5t75.5 199.5v532h204v-983h-204v143q-35 -48 -78 -82q-101 -81 -230 -81q-172 0 -280.5 116t-108.5 314zM287 1239v143h614v-143h-614z" />
    <glyph glyph-name="Ubreve" unicode="&#x16c;" horiz-adv-x="1576" 
d="M184 573v861h226v-861q0 -168 108 -278.5t270 -110.5q155 0 267 114.5t112 274.5v861h226v-861q0 -262 -168.5 -427.5t-436.5 -165.5t-436 165.5t-168 427.5zM492 1905h153q0 -62 41 -103t102 -41q62 0 103 41.5t41 102.5h153q0 -124 -83.5 -205.5t-213.5 -81.5
t-213 81.5t-83 205.5z" />
    <glyph glyph-name="ubreve" unicode="&#x16d;" 
d="M143 410v573h205v-573q0 -108 62 -172t163 -64q116 0 191.5 77.5t75.5 199.5v532h204v-983h-204v143q-35 -48 -78 -82q-101 -81 -230 -81q-172 0 -280.5 116t-108.5 314zM297 1434h154q0 -62 41 -103t102 -41t102 41t41 103h154q0 -124 -83.5 -205.5t-213.5 -81.5
t-213.5 81.5t-83.5 205.5z" />
    <glyph glyph-name="Uring" unicode="&#x16e;" horiz-adv-x="1576" 
d="M184 573v861h226v-861q0 -168 108 -278.5t270 -110.5q155 0 267 114.5t112 274.5v861h226v-861q0 -262 -168.5 -427.5t-436.5 -165.5t-436 165.5t-168 427.5zM573 1782q0 85 62 145t153 60q92 0 154 -60t62 -145t-62 -145t-154 -60q-91 0 -153 60t-62 145zM881 1782
q0 38 -27.5 65t-65.5 27t-65 -27t-27 -65t27 -65t65 -27t65.5 27t27.5 65z" />
    <glyph glyph-name="uring" unicode="&#x16f;" 
d="M143 410v573h205v-573q0 -108 62 -172t163 -64q116 0 191.5 77.5t75.5 199.5v532h204v-983h-204v143q-35 -48 -78 -82q-101 -81 -230 -81q-172 0 -280.5 116t-108.5 314zM379 1311q0 85 62 145t153 60t153 -60t62 -145t-62 -145t-153 -60t-153 60t-62 145zM686 1311
q0 38 -27 65t-65 27t-65 -27t-27 -65t27 -65t65 -27t65 27t27 65z" />
    <glyph glyph-name="Uhungarumlaut" unicode="&#x170;" horiz-adv-x="1576" 
d="M184 573v861h226v-861q0 -168 108 -278.5t270 -110.5q155 0 267 114.5t112 274.5v861h226v-861q0 -262 -168.5 -427.5t-436.5 -165.5t-436 165.5t-168 427.5zM532 1618l154 287h215l-215 -287h-154zM891 1618l153 287h216l-216 -287h-153z" />
    <glyph glyph-name="uhungarumlaut" unicode="&#x171;" 
d="M143 410v573h205v-573q0 -108 62 -172t163 -64q116 0 191.5 77.5t75.5 199.5v532h204v-983h-204v143q-35 -48 -78 -82q-101 -81 -230 -81q-172 0 -280.5 116t-108.5 314zM338 1147l154 287h215l-215 -287h-154zM696 1147l154 287h215l-215 -287h-154z" />
    <glyph glyph-name="Uogonek" unicode="&#x172;" horiz-adv-x="1576" 
d="M184 573v861h226v-861q0 -168 108 -278.5t270 -110.5q155 0 267 114.5t112 274.5v861h226v-861q0 -238 -141.5 -400t-374.5 -187q-2 -4 -17 -29.5t-27 -49t-23 -59t-11 -65.5q0 -38 28 -64t74 -26q37 0 70 10q16 3 33 10v-123q-7 -3 -21 -8.5t-20 -7.5q-47 -14 -103 -14
q-92 0 -148.5 54t-56.5 140q0 37 9.5 73.5t21.5 61.5t27 48t22.5 31.5t12.5 13.5q-252 12 -408 175.5t-156 415.5z" />
    <glyph glyph-name="uogonek" unicode="&#x173;" 
d="M143 410v573h205v-573q0 -108 62 -172t163 -64q116 0 191.5 77.5t75.5 199.5v532h204v-983h-81q-30 -41 -48 -74q-45 -84 -45 -143q0 -38 28.5 -64t74.5 -26q36 0 69 10q16 3 33 10v-123q-7 -3 -21 -8.5t-20 -7.5q-47 -14 -102 -14q-92 0 -148.5 54t-56.5 140
q0 89 55 172q23 39 58 74v143q-35 -48 -78 -82q-101 -81 -230 -81q-172 0 -280.5 116t-108.5 314z" />
    <glyph glyph-name="Wcircumflex" unicode="&#x174;" horiz-adv-x="2150" 
d="M512 0l-471 1434h235l349 -1076l338 1076h225l338 -1076l348 1076h235l-471 -1434h-225l-338 1075l-338 -1075h-225zM748 1618l235 287h184l236 -287h-184l-144 174l-143 -174h-184z" />
    <glyph glyph-name="wcircumflex" unicode="&#x175;" horiz-adv-x="1556" 
d="M369 0l-349 983h226l225 -666l215 666h184l215 -666l226 666h225l-348 -983h-195l-215 655l-215 -655h-194zM451 1147l235 287h184l236 -287h-184l-144 174l-143 -174h-184z" />
    <glyph glyph-name="Ycircumflex" unicode="&#x176;" horiz-adv-x="1331" 
d="M553 0v512l-543 922h256l400 -697l399 697h256l-543 -922v-512h-225zM338 1618l235 287h185l235 -287h-184l-143 174l-144 -174h-184z" />
    <glyph glyph-name="ycircumflex" unicode="&#x177;" horiz-adv-x="1044" 
d="M82 -399v194q6 -4 35 -16q43 -15 88 -15q120 0 174 134l41 102l-400 983h226l276 -727l277 727h225l-430 -1096q-63 -158 -150 -237.5t-208 -79.5q-64 0 -111 14zM195 1147l235 287h184l236 -287h-184l-144 174l-143 -174h-184z" />
    <glyph glyph-name="Ydieresis" unicode="&#x178;" horiz-adv-x="1331" 
d="M553 0v512l-543 922h256l400 -697l399 697h256l-543 -922v-512h-225zM338 1741q0 52 37 87.5t86 35.5t86 -35.5t37 -87.5t-37 -87.5t-86 -35.5t-86 35.5t-37 87.5zM748 1741q0 53 36.5 88t85.5 35t86 -35.5t37 -87.5t-37 -87.5t-86 -35.5t-85.5 35t-36.5 88z" />
    <glyph glyph-name="Zacute" unicode="&#x179;" horiz-adv-x="1269" 
d="M92 0v215l799 1004h-768v215h1034v-215l-799 -1004h820v-215h-1086zM553 1618l154 287h215l-215 -287h-154z" />
    <glyph glyph-name="zacute" unicode="&#x17a;" horiz-adv-x="993" 
d="M82 0v195l543 593h-523v195h789v-195l-543 -593h563v-195h-829zM410 1147l153 287h215l-215 -287h-153z" />
    <glyph glyph-name="Zdotaccent" unicode="&#x17b;" horiz-adv-x="1269" 
d="M92 0v215l799 1004h-768v215h1034v-215l-799 -1004h820v-215h-1086zM512 1741q0 52 37 87.5t86 35.5t86 -35.5t37 -87.5t-37 -87.5t-86 -35.5t-86 35.5t-37 87.5z" />
    <glyph glyph-name="zdotaccent" unicode="&#x17c;" horiz-adv-x="993" 
d="M82 0v195l543 593h-523v195h789v-195l-543 -593h563v-195h-829zM369 1290q0 52 37 87.5t86 35.5t85.5 -35t36.5 -88t-36.5 -88t-85.5 -35t-86 35.5t-37 87.5z" />
    <glyph glyph-name="Zcaron" unicode="&#x17d;" horiz-adv-x="1269" 
d="M92 0v215l799 1004h-768v215h1034v-215l-799 -1004h820v-215h-1086zM543 1618l-236 287h185l143 -174l143 174h185l-236 -287h-184z" />
    <glyph glyph-name="zcaron" unicode="&#x17e;" horiz-adv-x="993" 
d="M82 0v195l543 593h-523v195h789v-195l-543 -593h563v-195h-829zM410 1147l-236 287h184l144 -174l143 174h184l-235 -287h-184z" />
    <glyph glyph-name="uni018F" unicode="&#x18f;" horiz-adv-x="1628" 
d="M102 717v51h1188q-17 211 -156 346t-346 135q-182 0 -327 -92q-71 -45 -113 -92l-143 143q66 72 149 123q191 123 434 123q208 0 374 -93.5t260 -262t94 -381.5q0 -159 -54.5 -297t-149 -234t-225 -151t-278.5 -55t-278.5 55t-225 151t-149 234t-54.5 297zM1270 573h-922
q18 -153 150 -271t311 -118t311 118t150 271z" />
    <glyph glyph-name="florin" unicode="&#x192;" horiz-adv-x="788" 
d="M-164 -399v184q18 -7 37 -10q46 -11 76 -11q76 0 113 31.5t51 102.5l143 757h-154v185h189l57 286q36 173 114 250.5t224 77.5q48 0 102 -16q14 -6 41 -15v-184l-36 10q-42 11 -76 11q-76 0 -113 -31.5t-51 -102.5l-57 -286h221v-185h-256l-144 -757q-33 -172 -112 -250
t-225 -78q-59 0 -103 14q-4 2 -19 8t-22 9z" />
    <glyph glyph-name="Aringacute" unicode="&#x1fa;" horiz-adv-x="1433" 
d="M20 0l564 1393q-20 14 -41 39q-41 48 -41 124q0 85 62 145t153 60t153 -60t62 -145q0 -76 -41 -124q-21 -25 -41 -39l563 -1393h-235l-144 369h-635l-143 -369h-236zM481 573h471l-235 594zM635 1792l143 256h205l-184 -256h-164zM717 1464q38 0 65 27t27 65t-27 65.5
t-65 27.5t-65 -27.5t-27 -65.5t27 -65t65 -27z" />
    <glyph glyph-name="aringacute" unicode="&#x1fb;" horiz-adv-x="1064" 
d="M481 1464l144 236h204l-184 -236h-164zM348 1229q0 85 62 145t153 60t153 -60t62 -145t-62 -145t-153 -60t-153 60t-62 145zM563 1137q38 0 65 27t27 65t-27 65t-65 27t-65 -27t-27 -65t27 -65t65 -27zM717 0v143q-26 -40 -78 -82q-109 -81 -240 -81q-144 0 -235.5 83.5
t-91.5 202.5q0 122 77 202.5t209 104.5l359 62q0 79 -57 131.5t-148 52.5t-186 -67q-37 -25 -70 -66l-133 133q40 52 98 92q131 93 291 93q182 0 296 -108t114 -271v-625h-205zM717 440v31l-287 -51q-76 -13 -115 -48.5t-39 -84.5q0 -56 44.5 -94.5t119.5 -38.5
q116 0 196.5 82t80.5 204z" />
    <glyph glyph-name="AEacute" unicode="&#x1fc;" horiz-adv-x="1996" 
d="M-51 0l799 1434h1136v-215h-706v-369h542v-215h-542v-420h727v-215h-953v389h-542l-215 -389h-246zM522 594h430v625h-82zM1034 1618l154 287h215l-215 -287h-154z" />
    <glyph glyph-name="aeacute" unicode="&#x1fd;" horiz-adv-x="1761" 
d="M256 686l-133 133q40 52 98 92q131 93 291 93q134 0 248 -89q46 -37 80 -86q40 49 92 86q130 89 276 89q202 0 336.5 -137t134.5 -345q0 -19 -6 -73l-4 -29h-737q18 -103 100.5 -174.5t196.5 -71.5q100 0 198 66q44 28 78 67l123 -143q-38 -49 -100 -92
q-133 -92 -309 -92q-172 0 -299 106q-61 49 -101 109q-44 -67 -94 -109q-121 -106 -285 -106q-172 0 -270 86t-98 221q0 131 112.5 219t317.5 88h215q0 107 -55.5 166t-149.5 59q-91 0 -186 -67q-37 -25 -70 -66zM932 594h532q-24 102 -91 163.5t-165 61.5
q-105 0 -174.5 -60t-101.5 -165zM717 430h-215q-117 0 -171.5 -38.5t-54.5 -104.5q0 -56 44.5 -94.5t119.5 -38.5q116 0 196.5 80.5t80.5 195.5zM758 1147l153 287h215l-215 -287h-153z" />
    <glyph glyph-name="Oslashacute" unicode="&#x1fe;" horiz-adv-x="1740" 
d="M430 420l748 737q-46 27 -88 45q-112 47 -220 47q-146 0 -268.5 -70.5t-193 -193t-70.5 -268.5q0 -117 45 -217q21 -47 47 -80zM82 82l184 184q-42 51 -78 121q-75 154 -75 330q0 152 58.5 288t158.5 234.5t241 156.5t299 58q169 0 334 -72q83 -41 127 -71l185 184
l143 -143l-184 -185q41 -53 75 -120q78 -160 78 -330q0 -151 -58.5 -287.5t-159 -235t-241.5 -156.5t-299 -58q-187 0 -333 71q-60 25 -127 72l-185 -184zM1311 1014l-748 -738q40 -27 88 -47q108 -45 219 -45q146 0 268.5 71t193.5 193.5t71 268.5q0 113 -47 217
q-20 44 -45 80zM809 1618l154 287h215l-215 -287h-154z" />
    <glyph glyph-name="oslashacute" unicode="&#x1ff;" 
d="M328 338l420 430q-11 6 -43 20q-57 21 -111 21q-129 0 -218 -87.5t-89 -229.5q0 -65 20 -115q12 -27 21 -39zM61 51l123 133q-35 49 -51 84q-51 104 -51 224q0 215 148.5 363.5t363.5 148.5q107 0 209 -48q43 -21 78 -45l123 133l122 -112l-122 -133q35 -49 51 -84
q51 -112 51 -223q0 -215 -148.5 -363.5t-363.5 -148.5q-113 0 -209 45q-47 23 -78 47l-123 -133zM860 645l-420 -430q11 -6 43 -20q57 -21 111 -21q129 0 218 88t89 230q0 60 -20 114q-12 27 -21 39zM512 1147l154 287h215l-215 -287h-154z" />
    <glyph glyph-name="Scommaaccent" unicode="&#x218;" horiz-adv-x="1167" 
d="M61 195l154 153q32 -44 86 -82q118 -82 272 -82q134 0 210.5 62t76.5 153q0 50 -26 88t-70 61.5t-100.5 42.5t-119.5 37t-126 38.5t-119.5 52.5t-100.5 74.5t-70 109.5t-26 152q0 167 135 283t357 116q187 0 336 -92q69 -42 114 -92l-153 -154q-40 44 -76 66
q-99 67 -221 67q-125 0 -195.5 -56t-70.5 -138q0 -50 26 -88t69.5 -61.5t100.5 -42.5t119.5 -37t125.5 -38.5t120 -52.5t100.5 -74.5t69.5 -109.5t26 -152q0 -113 -61 -208t-179 -153t-272 -58q-225 0 -387 106q-69 44 -125 109zM399 -451l93 287h194l-133 -287h-154z" />
    <glyph glyph-name="scommaaccent" unicode="&#x219;" horiz-adv-x="890" 
d="M51 164l133 133q31 -42 70 -68q93 -65 186 -65q82 0 128 36t46 87q0 33 -29 56.5t-75 39.5t-101.5 31.5t-111 38.5t-101.5 54t-75 85t-29 125q0 120 98.5 203.5t260.5 83.5q145 0 262 -68q48 -25 86 -66l-133 -133q-30 27 -58 41q-70 41 -157 41q-73 0 -113.5 -30
t-40.5 -72q0 -33 29 -57t75 -39.5t101.5 -31.5t111 -39t101.5 -54t75 -84.5t29 -124.5q0 -128 -103.5 -217.5t-275.5 -89.5q-161 0 -290 92q-60 42 -99 92zM256 -451l92 287h195l-133 -287h-154z" />
    <glyph glyph-name="uni021A" unicode="&#x21a;" horiz-adv-x="1167" 
d="M471 0v1219h-430v215h1085v-215h-430v-1219h-225zM399 -451l93 287h194l-133 -287h-154z" />
    <glyph glyph-name="uni021B" unicode="&#x21b;" horiz-adv-x="808" 
d="M246 307v481h-185v195h113q48 0 70 26t22 87v215h185v-328h225v-195h-225v-460q0 -154 143 -154q40 0 80 14l33 17v-195l-43 -16q-47 -14 -111 -14q-149 0 -228 83.5t-79 243.5zM297 -451l92 287h195l-133 -287h-154z" />
    <glyph glyph-name="uni0232" unicode="&#x232;" horiz-adv-x="1331" 
d="M553 0v512l-543 922h256l400 -697l399 697h256l-543 -922v-512h-225zM358 1690v143h615v-143h-615z" />
    <glyph glyph-name="uni0233" unicode="&#x233;" horiz-adv-x="1044" 
d="M82 -399v194q6 -4 35 -16q43 -15 88 -15q120 0 174 134l41 102l-400 983h226l276 -727l277 727h225l-430 -1096q-63 -158 -150 -237.5t-208 -79.5q-64 0 -111 14zM215 1290v144h614v-144h-614z" />
    <glyph glyph-name="uni0244" unicode="&#x244;" horiz-adv-x="1597" 
d="M20 748v204h195v482h225v-482h717v482h225v-482h195v-204h-195v-175q0 -269 -160 -431t-423 -162t-423.5 162t-160.5 431v175h-195zM440 748v-175q0 -175 101.5 -282t257.5 -107t257 107t101 282v175h-717z" />
    <glyph glyph-name="uni0259" unicode="&#x259;" horiz-adv-x="1146" 
d="M92 563h758q-18 104 -102 175t-205 71q-108 0 -209 -68q-42 -26 -78 -65l-123 143q38 49 103 92q142 93 317 93q215 0 363.5 -148.5t148.5 -363.5q0 -141 -67.5 -259t-183 -185.5t-251.5 -67.5q-209 0 -345 136t-136 345q0 38 4 74zM850 389h-553q24 -103 92.5 -164
t173.5 -61q112 0 183.5 60t103.5 165z" />
    <glyph glyph-name="uni0289" unicode="&#x289;" horiz-adv-x="1251" 
d="M41 502v174h143v307h205v-307h471v307h205v-307h145v-174h-145v-502h-205v143q-34 -46 -76 -82q-97 -81 -221 -81q-165 0 -272 116.5t-107 313.5v92h-143zM389 502v-92q0 -107 60.5 -171.5t154.5 -64.5q109 0 182.5 78t73.5 199v51h-471z" />
    <glyph glyph-name="uni02BC" unicode="&#x2bc;" horiz-adv-x="409" 
d="M61 1147l93 287h194l-133 -287h-154z" />
    <glyph glyph-name="circumflex" unicode="&#x2c6;" horiz-adv-x="778" 
d="M61 1147l236 287h184l236 -287h-185l-143 174l-143 -174h-185z" />
    <glyph glyph-name="caron" unicode="&#x2c7;" horiz-adv-x="778" 
d="M297 1147l-236 287h185l143 -174l143 174h185l-236 -287h-184z" />
    <glyph glyph-name="breve" unicode="&#x2d8;" horiz-adv-x="716" 
d="M61 1434h154q0 -62 41 -103t102 -41q62 0 103 41t41 103h153q0 -124 -83.5 -205.5t-213.5 -81.5t-213.5 81.5t-83.5 205.5z" />
    <glyph glyph-name="dotaccent" unicode="&#x2d9;" horiz-adv-x="368" 
d="M61 1290q0 52 37 87.5t86 35.5t86 -35.5t37 -87.5t-37 -87.5t-86 -35.5t-86 35.5t-37 87.5z" />
    <glyph glyph-name="ring" unicode="&#x2da;" horiz-adv-x="552" 
d="M61 1229q0 85 62 145t153 60q92 0 154 -60t62 -145t-62 -145t-154 -60q-91 0 -153 60t-62 145zM369 1229q0 38 -27.5 65t-65.5 27t-65 -27t-27 -65t27 -65t65 -27t65.5 27t27.5 65z" />
    <glyph glyph-name="ogonek" unicode="&#x2db;" horiz-adv-x="471" 
d="M410 -287v-123q-7 -3 -21 -8.5t-20 -7.5q-47 -14 -103 -14q-92 0 -148.5 54t-56.5 140q0 87 56 172q25 42 57 74h123q-25 -35 -47 -74q-45 -84 -45 -143q0 -38 28 -64t74 -26q37 0 70 10q16 3 33 10z" />
    <glyph glyph-name="tilde" unicode="&#x2dc;" horiz-adv-x="808" 
d="M195 1157h-134q0 142 54 209.5t151 67.5q45 0 86 -19t66.5 -42.5t56 -42.5t57.5 -19q40 0 61 28.5t21 94.5h134q0 -142 -54 -209.5t-151 -67.5q-37 0 -70.5 12.5t-58 30.5t-47 36.5t-46 31t-45.5 12.5q-40 0 -60.5 -28.5t-20.5 -94.5z" />
    <glyph glyph-name="hungarumlaut" unicode="&#x2dd;" horiz-adv-x="849" 
d="M61 1147l154 287h215l-215 -287h-154zM420 1147l153 287h215l-215 -287h-153z" />
    <glyph glyph-name="acutecomb" unicode="&#x301;" horiz-adv-x="0" 
d="M-870 1495l153 287h215l-215 -287h-153z" />
    <glyph glyph-name="uni0302" unicode="&#x302;" horiz-adv-x="0" 
d="M-1116 1495l235 287h185l235 -287h-184l-143 174l-144 -174h-184z" />
    <glyph glyph-name="uni0304" unicode="&#x304;" horiz-adv-x="0" 
d="M-1085 1567v143h614v-143h-614z" />
    <glyph glyph-name="uni0306" unicode="&#x306;" horiz-adv-x="0" 
d="M-1075 1761h153q0 -61 41 -102t103 -41t102.5 41t40.5 102h154q0 -124 -83.5 -205t-213.5 -81t-213.5 81t-83.5 205z" />
    <glyph glyph-name="uni0307" unicode="&#x307;" horiz-adv-x="0" 
d="M-901 1628q0 52 37 87.5t86 35.5t86 -35.5t37 -87.5t-37 -87.5t-86 -35.5t-86 35.5t-37 87.5z" />
    <glyph glyph-name="uni0308" unicode="&#x308;" horiz-adv-x="0" 
d="M-1116 1628q0 52 37 87.5t86 35.5t86 -35.5t37 -87.5t-37 -87.5t-86 -35.5t-86 35.5t-37 87.5zM-707 1628q0 52 37 87.5t86 35.5t86 -35.5t37 -87.5t-37 -87.5t-86 -35.5t-86 35.5t-37 87.5z" />
    <glyph glyph-name="uni030A" unicode="&#x30a;" horiz-adv-x="0" 
d="M-993 1700q0 85 62 145t153 60t153 -60t62 -145t-62 -145t-153 -60t-153 60t-62 145zM-686 1700q0 38 -27 65t-65 27t-65 -27t-27 -65t27 -65t65 -27t65 27t27 65z" />
    <glyph glyph-name="uni030C" unicode="&#x30c;" horiz-adv-x="0" 
d="M-870 1495l-236 287h184l144 -174l143 174h184l-235 -287h-184z" />
    <glyph glyph-name="uni0326" unicode="&#x326;" horiz-adv-x="409" 
d="M61 -451l93 287h194l-133 -287h-154z" />
    <glyph glyph-name="Alphatonos" unicode="&#x386;" horiz-adv-x="1433" 
d="M20 0l574 1434h246l573 -1434h-235l-144 369h-635l-143 -369h-236zM481 573h471l-235 594zM92 1147l154 287h215l-215 -287h-154z" />
    <glyph glyph-name="Epsilontonos" unicode="&#x388;" horiz-adv-x="1361" 
d="M236 0v1434h1013v-215h-788v-369h624v-215h-624v-420h809v-215h-1034zM-184 1147l153 287h215l-215 -287h-153z" />
    <glyph glyph-name="Etatonos" unicode="&#x389;" horiz-adv-x="1597" 
d="M236 0v1434h225v-605h706v605h226v-1434h-226v625h-706v-625h-225zM-184 1147l153 287h215l-215 -287h-153z" />
    <glyph glyph-name="Iotatonos" unicode="&#x38a;" horiz-adv-x="665" 
d="M236 0v1434h225v-1434h-225zM-184 1147l153 287h215l-215 -287h-153z" />
    <glyph glyph-name="Omicrontonos" unicode="&#x38c;" horiz-adv-x="1763" 
d="M360 717q0 -146 71 -268.5t193.5 -193.5t268.5 -71t268.5 71t193 193.5t70.5 268.5t-70.5 268.5t-193 193t-268.5 70.5t-268.5 -70.5t-193.5 -193t-71 -268.5zM135 717q0 151 58.5 287.5t159 235t241.5 156.5t299 58t299 -58t241.5 -156.5t159 -235t58.5 -287.5
t-58.5 -287.5t-159 -235t-241.5 -156.5t-299 -58t-299 58t-241.5 156.5t-159 235t-58.5 287.5zM-82 1147l154 287h215l-215 -287h-154z" />
    <glyph glyph-name="Upsilontonos" unicode="&#x38e;" horiz-adv-x="1495" 
d="M717 0v512l-543 922h256l399 -697l400 697h256l-543 -922v-512h-225zM-215 1147l154 287h215l-215 -287h-154z" />
    <glyph glyph-name="Omegatonos" unicode="&#x38f;" horiz-adv-x="1761" 
d="M184 0v205h246q-77 54 -143 135q-144 180 -144 397q0 148 56.5 280t155 228.5t238 152.5t298.5 56q158 0 297.5 -56t237.5 -152.5t155 -228.5t57 -280q0 -218 -143 -397q-66 -81 -143 -135h245v-205h-563v195q80 37 146 86t119.5 113t83.5 146.5t30 176.5q0 146 -68 266
t-188 188t-266 68t-266 -68t-188 -188t-68 -266q0 -181 105.5 -314t273.5 -208v-195h-564zM-82 1147l154 287h215l-215 -287h-154z" />
    <glyph glyph-name="iotadieresistonos" unicode="&#x390;" horiz-adv-x="624" 
d="M102 1147l154 287h184l-204 -287h-134zM-102 1290q0 53 36.5 88t85.5 35t86 -35.5t37 -87.5t-37 -87.5t-86 -35.5t-85.5 35t-36.5 88zM389 1290q0 52 37 87.5t86 35.5t86 -35.5t37 -87.5t-37 -87.5t-86 -35.5t-86 35.5t-37 87.5zM154 297v686h204v-666q0 -68 36 -105.5
t98 -37.5q37 0 69 14l33 17v-195q-7 -3 -21 -8.5t-20 -7.5q-47 -14 -102 -14q-141 0 -219 82t-78 235z" />
    <glyph glyph-name="Alpha" unicode="&#x391;" horiz-adv-x="1433" 
d="M20 0l574 1434h246l573 -1434h-235l-144 369h-635l-143 -369h-236zM481 573h471l-235 594z" />
    <glyph glyph-name="Beta" unicode="&#x392;" horiz-adv-x="1392" 
d="M205 0v1434h573q188 0 309 -111t121 -268q0 -128 -88 -224q-36 -39 -86 -63q68 -26 123 -78q123 -107 123 -270q0 -172 -134 -296t-337 -124h-604zM430 195h379q108 0 177 67t69 168t-69 168.5t-177 67.5h-379v-471zM430 850h348q92 0 148.5 54t56.5 140q0 87 -56.5 141
t-148.5 54h-348v-389z" />
    <glyph glyph-name="Gamma" unicode="&#x393;" horiz-adv-x="1167" 
d="M205 0v1434h921v-215h-696v-1219h-225z" />
    <glyph glyph-name="uni0394" unicode="&#x394;" horiz-adv-x="1413" 
d="M0 0l584 1434h245l584 -1434h-1413zM317 215h779l-389 952z" />
    <glyph glyph-name="Epsilon" unicode="&#x395;" horiz-adv-x="1331" 
d="M205 0v1434h1014v-215h-789v-369h625v-215h-625v-420h809v-215h-1034z" />
    <glyph glyph-name="Zeta" unicode="&#x396;" horiz-adv-x="1269" 
d="M92 0v215l799 1004h-768v215h1034v-215l-799 -1004h820v-215h-1086z" />
    <glyph glyph-name="Eta" unicode="&#x397;" horiz-adv-x="1566" 
d="M205 0v1434h225v-605h707v605h225v-1434h-225v625h-707v-625h-225z" />
    <glyph glyph-name="Theta" unicode="&#x398;" horiz-adv-x="1740" 
d="M492 614v205h757v-205h-757zM338 717q0 -146 70.5 -268.5t193 -193.5t268.5 -71t268.5 71t193.5 193.5t71 268.5t-71 268.5t-193.5 193t-268.5 70.5t-268.5 -70.5t-193 -193t-70.5 -268.5zM113 717q0 152 58.5 288t158.5 234.5t241 156.5t299 58t299 -58t241.5 -156.5
t159 -235t58.5 -287.5t-58.5 -287.5t-159 -235t-241.5 -156.5t-299 -58t-299 58t-241 156.5t-158.5 234.5t-58.5 288z" />
    <glyph glyph-name="Iota" unicode="&#x399;" horiz-adv-x="634" 
d="M205 0v1434h225v-1434h-225z" />
    <glyph glyph-name="Kappa" unicode="&#x39a;" horiz-adv-x="1402" 
d="M205 0v1434h225v-697l645 697h287l-553 -594l594 -840h-277l-471 676l-225 -246v-430h-225z" />
    <glyph glyph-name="Lambda" unicode="&#x39b;" horiz-adv-x="1433" 
d="M20 0l574 1434h246l573 -1434h-235l-461 1167l-461 -1167h-236z" />
    <glyph glyph-name="Mu" unicode="&#x39c;" horiz-adv-x="1904" 
d="M205 0v1434h205l542 -697l543 697h205v-1434h-225v1055l-523 -666l-522 666v-1055h-225z" />
    <glyph glyph-name="Nu" unicode="&#x39d;" horiz-adv-x="1628" 
d="M205 0v1434h205l788 -1055v1055h225v-1434h-204l-789 1055v-1055h-225z" />
    <glyph glyph-name="Xi" unicode="&#x39e;" horiz-adv-x="1392" 
d="M123 0v215h1147v-215h-1147zM154 1219v215h1085v-215h-1085zM287 635v215h819v-215h-819z" />
    <glyph glyph-name="Omicron" unicode="&#x39f;" horiz-adv-x="1740" 
d="M338 717q0 -146 70.5 -268.5t193 -193.5t268.5 -71t268.5 71t193.5 193.5t71 268.5t-71 268.5t-193.5 193t-268.5 70.5t-268.5 -70.5t-193 -193t-70.5 -268.5zM113 717q0 152 58.5 288t158.5 234.5t241 156.5t299 58t299 -58t241.5 -156.5t159 -235t58.5 -287.5
t-58.5 -287.5t-159 -235t-241.5 -156.5t-299 -58t-299 58t-241 156.5t-158.5 234.5t-58.5 288z" />
    <glyph glyph-name="Pi" unicode="&#x3a0;" horiz-adv-x="1566" 
d="M205 0v1434h1157v-1434h-225v1219h-707v-1219h-225z" />
    <glyph glyph-name="Rho" unicode="&#x3a1;" horiz-adv-x="1351" 
d="M205 0v1434h573q207 0 344.5 -133.5t137.5 -327.5t-137.5 -327.5t-344.5 -133.5h-348v-512h-225zM430 717h348q107 0 181.5 74.5t74.5 181.5t-74.5 181.5t-181.5 74.5h-348v-512z" />
    <glyph glyph-name="Sigma" unicode="&#x3a3;" horiz-adv-x="1239" 
d="M123 0v184l440 564l-440 501v185h1034v-215h-747l419 -471l-419 -533h747v-215h-1034z" />
    <glyph glyph-name="Tau" unicode="&#x3a4;" horiz-adv-x="1167" 
d="M471 0v1219h-430v215h1085v-215h-430v-1219h-225z" />
    <glyph glyph-name="Upsilon" unicode="&#x3a5;" horiz-adv-x="1331" 
d="M553 0v512l-543 922h256l400 -697l399 697h256l-543 -922v-512h-225z" />
    <glyph glyph-name="Phi" unicode="&#x3a6;" horiz-adv-x="1761" 
d="M768 276v902q-193 -8 -316.5 -134t-123.5 -317t123.5 -317t316.5 -134zM768 -102v163q-292 17 -479 203.5t-187 462.5t187 462.5t479 203.5v153h225v-153q292 -17 479 -203.5t187 -462.5t-187 -462.5t-479 -203.5v-163h-225zM993 1178v-902q193 8 317 134t124 317
t-124 317t-317 134z" />
    <glyph glyph-name="Chi" unicode="&#x3a7;" horiz-adv-x="1351" 
d="M20 0l512 748l-471 686h267l348 -523l348 523h266l-471 -686l512 -748h-266l-389 584l-389 -584h-267z" />
    <glyph glyph-name="Psi" unicode="&#x3a8;" horiz-adv-x="1720" 
d="M748 0v410q-287 14 -446 182.5t-159 472.5v369h226v-369q0 -213 98.5 -322.5t280.5 -117.5v809h225v-809q182 8 280.5 117.5t98.5 322.5v369h225v-369q0 -304 -158.5 -472.5t-445.5 -182.5v-410h-225z" />
    <glyph glyph-name="uni03A9" unicode="&#x3a9;" horiz-adv-x="1740" 
d="M164 0v205h246q-80 55 -144 135q-143 179 -143 397q0 148 56.5 280t154.5 228.5t237.5 152.5t298.5 56q158 0 297.5 -56t238 -152.5t155.5 -228.5t57 -280q0 -218 -143 -397q-65 -80 -144 -135h246v-205h-563v195q80 37 146 86t119.5 113t83.5 146.5t30 176.5
q0 146 -68.5 266t-188.5 188t-266 68t-266 -68t-188 -188t-68 -266q0 -181 105.5 -314t273.5 -208v-195h-563z" />
    <glyph glyph-name="Iotadieresis" unicode="&#x3aa;" horiz-adv-x="634" 
d="M205 0v1434h225v-1434h-225zM-10 1741q0 52 37 87.5t86 35.5t86 -35.5t37 -87.5t-37 -87.5t-86 -35.5t-86 35.5t-37 87.5zM399 1741q0 52 37 87.5t86 35.5t86 -35.5t37 -87.5t-37 -87.5t-86 -35.5t-86 35.5t-37 87.5z" />
    <glyph glyph-name="Upsilondieresis" unicode="&#x3ab;" horiz-adv-x="1331" 
d="M553 0v512l-543 922h256l400 -697l399 697h256l-543 -922v-512h-225zM338 1741q0 52 37 87.5t86 35.5t86 -35.5t37 -87.5t-37 -87.5t-86 -35.5t-86 35.5t-37 87.5zM748 1741q0 53 36.5 88t85.5 35t86 -35.5t37 -87.5t-37 -87.5t-86 -35.5t-85.5 35t-36.5 88z" />
    <glyph glyph-name="alphatonos" unicode="&#x3ac;" horiz-adv-x="1269" 
d="M1219 184v-184q-10 -7 -23 -10q-30 -10 -70 -10q-121 0 -190 81q-31 39 -45 82q-32 -44 -86 -82q-113 -81 -262 -81q-122 0 -227.5 65t-169.5 183.5t-64 263.5t64 263.5t169.5 183.5t227.5 65q148 0 258 -82q53 -40 80 -82v143h204v-727q0 -82 82 -82q17 0 37 4zM584 174
q125 0 211 90t86 228t-86 227.5t-211 89.5t-211 -89.5t-86 -227.5t86 -228t211 -90zM512 1147l154 287h215l-215 -287h-154z" />
    <glyph glyph-name="epsilontonos" unicode="&#x3ad;" horiz-adv-x="921" 
d="M778 287l133 -133q-36 -47 -100 -88q-136 -86 -309 -86q-197 0 -308.5 86.5t-111.5 209.5q0 111 96 187q47 33 98 49q-34 11 -81 45q-82 66 -82 170q0 113 103.5 195t285.5 82q146 0 268 -64q54 -28 90 -61l-133 -134q-28 22 -63 37q-80 37 -162 37q-88 0 -131 -31
t-43 -81q0 -42 44 -72.5t130 -30.5h143v-184h-143q-102 0 -153.5 -35.5t-51.5 -87.5q0 -58 51 -95.5t154 -37.5q111 0 203 61q33 22 73 62zM389 1147l154 287h215l-215 -287h-154z" />
    <glyph glyph-name="etatonos" unicode="&#x3ae;" 
d="M143 0v983h205v-143q28 43 76 82q102 82 231 82q172 0 280.5 -116.5t108.5 -314.5v-573h-204v573q0 108 -62.5 172t-163.5 64q-116 0 -191 -77.5t-75 -199.5v-532h-205zM522 1147l154 287h215l-215 -287h-154z" />
    <glyph glyph-name="iotatonos" unicode="&#x3af;" horiz-adv-x="604" 
d="M143 297v686h205v-666q0 -68 35.5 -105.5t97.5 -37.5q38 0 70 14l33 17v-195q-7 -3 -21 -8.5t-20 -7.5q-47 -14 -103 -14q-141 0 -219 82t-78 235zM174 1147l154 287h215l-215 -287h-154z" />
    <glyph glyph-name="upsilondieresistonos" unicode="&#x3b0;" 
d="M430 1147l154 287h184l-205 -287h-133zM225 1290q0 52 37 87.5t86 35.5t86 -35.5t37 -87.5t-37 -87.5t-86 -35.5t-86 35.5t-37 87.5zM717 1290q0 52 37 87.5t86 35.5t86 -35.5t37 -87.5t-37 -87.5t-86 -35.5t-86 35.5t-37 87.5zM133 420v563h205v-563q0 -110 70 -178
t186 -68t186 68t70 178v563h205v-563q0 -194 -127 -317t-334 -123t-334 123t-127 317z" />
    <glyph glyph-name="alpha" unicode="&#x3b1;" horiz-adv-x="1269" 
d="M1219 184v-184q-10 -7 -23 -10q-30 -10 -70 -10q-121 0 -190 81q-31 39 -45 82q-32 -44 -86 -82q-113 -81 -262 -81q-122 0 -227.5 65t-169.5 183.5t-64 263.5t64 263.5t169.5 183.5t227.5 65q148 0 258 -82q53 -40 80 -82v143h204v-727q0 -82 82 -82q17 0 37 4zM584 174
q125 0 211 90t86 228t-86 227.5t-211 89.5t-211 -89.5t-86 -227.5t86 -228t211 -90z" />
    <glyph glyph-name="beta" unicode="&#x3b2;" horiz-adv-x="1167" 
d="M154 -430v1464q0 192 113.5 306t305.5 114q183 0 296.5 -109.5t113.5 -279.5q0 -115 -72 -203q-37 -41 -71 -63q68 -29 123 -84q122 -114 122 -285q0 -186 -125.5 -308t-324.5 -122h-277v-430h-204zM358 195h277q108 0 177 67t69 168t-69 168.5t-177 67.5h-143v194h61
q99 0 162 59t63 146t-56.5 141t-148.5 54q-101 0 -158 -59t-57 -167v-839z" />
    <glyph glyph-name="gamma" unicode="&#x3b3;" horiz-adv-x="1044" 
d="M420 -430v420l-400 993h226l276 -727l277 727h225l-399 -993v-420h-205z" />
    <glyph glyph-name="delta" unicode="&#x3b4;" horiz-adv-x="1177" 
d="M184 1249v185h789v-185h-359v-10q86 -53 165 -125t150 -165t113.5 -209.5t42.5 -237.5q0 -229 -142 -375.5t-359 -146.5q-141 0 -256.5 64.5t-180.5 174.5t-65 242t65 242t180.5 174.5t256.5 64.5q63 0 90 -10l22 -10q-133 158 -334 256q-76 40 -178 71zM287 461
q0 -124 83.5 -205.5t213.5 -81.5t213.5 81.5t83.5 205.5t-83.5 205.5t-213.5 81.5t-213.5 -81.5t-83.5 -205.5z" />
    <glyph glyph-name="epsilon" unicode="&#x3b5;" horiz-adv-x="921" 
d="M778 287l133 -133q-36 -47 -100 -88q-136 -86 -309 -86q-197 0 -308.5 86.5t-111.5 209.5q0 111 96 187q47 33 98 49q-34 11 -81 45q-82 66 -82 170q0 113 103.5 195t285.5 82q146 0 268 -64q54 -28 90 -61l-133 -134q-28 22 -63 37q-80 37 -162 37q-88 0 -131 -31
t-43 -81q0 -42 44 -72.5t130 -30.5h143v-184h-143q-102 0 -153.5 -35.5t-51.5 -87.5q0 -58 51 -95.5t154 -37.5q111 0 203 61q33 22 73 62z" />
    <glyph glyph-name="zeta" unicode="&#x3b6;" horiz-adv-x="972" 
d="M860 -307h-205q0 112 35 219q12 40 37 88q-22 -7 -41 -10q-52 -10 -102 -10q-236 0 -364 118t-128 322q0 275 246 565q108 126 246 234h-451v215h778v-174q-164 -114 -307 -254q-307 -307 -307 -555q0 -133 79.5 -205t237.5 -72q100 0 177 25q21 5 69 26l113 -143
q-34 -55 -58 -119q-55 -128 -55 -270z" />
    <glyph glyph-name="eta" unicode="&#x3b7;" 
d="M143 0v983h205v-143q28 43 76 82q102 82 231 82q172 0 280.5 -116.5t108.5 -314.5v-573h-204v573q0 108 -62.5 172t-163.5 64q-116 0 -191 -77.5t-75 -199.5v-532h-205z" />
    <glyph glyph-name="theta" unicode="&#x3b8;" horiz-adv-x="1290" 
d="M952 625h-614q16 -227 100 -339t207 -112t207 112t100 339zM645 -20q-105 0 -198 47t-166 136t-115.5 232t-42.5 322t42.5 322t115.5 232t166 136t198 47t198 -47t166 -136t115.5 -232t42.5 -322t-42.5 -322t-115.5 -232t-166 -136t-198 -47zM338 809h614
q-16 227 -100 339t-207 112t-207 -112t-100 -339z" />
    <glyph glyph-name="iota" unicode="&#x3b9;" horiz-adv-x="604" 
d="M143 297v686h205v-666q0 -68 35.5 -105.5t97.5 -37.5q38 0 70 14l33 17v-195q-7 -3 -21 -8.5t-20 -7.5q-47 -14 -103 -14q-141 0 -219 82t-78 235z" />
    <glyph glyph-name="kappa" unicode="&#x3ba;" horiz-adv-x="1054" 
d="M143 0v983h205v-451l420 451h256l-379 -399l410 -584h-236l-307 440l-164 -174v-266h-205z" />
    <glyph glyph-name="lambda" unicode="&#x3bb;" horiz-adv-x="1064" 
d="M20 0l431 983l-41 102q-43 102 -86 138.5t-109 36.5q-37 0 -70 -11q-18 -7 -32 -10v195q16 2 43 10q45 10 110 10q121 0 204 -74.5t144 -232.5l430 -1147h-225l-266 717l-307 -717h-226z" />
    <glyph glyph-name="uni03BC" unicode="&#x3bc;" 
d="M143 -430v1413h205v-573q0 -108 62 -172t163 -64q116 0 191.5 77.5t75.5 199.5v532h204v-983h-204v143q-35 -48 -78 -82q-101 -81 -230 -81q-74 0 -131 24q-21 7 -53 27v-461h-205z" />
    <glyph glyph-name="nu" unicode="&#x3bd;" horiz-adv-x="1044" 
d="M410 0l-390 983h226l276 -727l277 727h225l-389 -983h-225z" />
    <glyph glyph-name="xi" unicode="&#x3be;" horiz-adv-x="1044" 
d="M911 -307h-204q0 115 34 219q12 40 37 88q-17 -7 -39 -10q-45 -10 -114 -10q-246 0 -384.5 118t-138.5 301q0 59 14 111t35.5 87.5t50.5 66t55 48t53.5 31t42.5 18.5t24 7q-6 0 -28.5 8.5t-58 32t-68 57t-56 91.5t-23.5 128q0 73 32 140t90 118t146 81t193 30
q146 0 258 -51q44 -19 80 -51l-113 -164q-30 22 -59 35q-80 37 -166 37q-118 0 -187 -56.5t-69 -138.5t73 -138.5t204 -56.5h141v-204h-141q-156 0 -237 -66.5t-81 -179.5q0 -112 88.5 -179t270.5 -67q99 0 176 25q21 5 69 26l113 -143q-32 -51 -57 -119q-56 -130 -56 -270z
" />
    <glyph glyph-name="omicron" unicode="&#x3bf;" 
d="M82 492q0 215 148.5 363.5t363.5 148.5t363.5 -148.5t148.5 -363.5t-148.5 -363.5t-363.5 -148.5t-363.5 148.5t-148.5 363.5zM594 174q131 0 219 90t88 228t-87.5 227.5t-219.5 89.5t-219.5 -89.5t-87.5 -227.5t88 -228t219 -90z" />
    <glyph glyph-name="pi" unicode="&#x3c0;" horiz-adv-x="1198" 
d="M143 0v983h912v-983h-205v788h-502v-788h-205z" />
    <glyph glyph-name="rho" unicode="&#x3c1;" horiz-adv-x="1208" 
d="M625 174q125 0 211 90t86 228t-86 227.5t-211 89.5t-211 -89.5t-86 -227.5t86 -228t211 -90zM123 -430v922q0 222 143 367t359 145t358.5 -145t142.5 -367t-142.5 -367t-358.5 -145q-129 0 -222 51q-26 12 -75 51v-512h-205z" />
    <glyph glyph-name="sigma1" unicode="&#x3c2;" horiz-adv-x="1054" 
d="M850 -307h-205q0 117 41 215q11 27 41 86q-2 0 -15.5 -3.5t-21.5 -4.5q-34 -6 -96 -6q-215 0 -363.5 148.5t-148.5 363.5q0 223 144.5 367.5t367.5 144.5q150 0 280 -68q52 -25 99 -66l-113 -153q-43 30 -72 45q-96 47 -194 47q-140 0 -223.5 -85t-83.5 -232
q0 -141 93 -229.5t245 -88.5q96 0 166 25q30 8 59 26l113 -143q-34 -55 -58 -119q-55 -128 -55 -270z" />
    <glyph glyph-name="sigma" unicode="&#x3c3;" horiz-adv-x="1259" 
d="M594 983h645v-195h-246q39 -52 56 -88q57 -101 57 -219q0 -136 -67.5 -251t-185.5 -182.5t-259 -67.5t-259 67.5t-185.5 182.5t-67.5 251t67.5 251.5t185.5 183t259 67.5zM594 174q130 0 218.5 88t88.5 219t-88.5 219t-218.5 88t-218.5 -88t-88.5 -219t88.5 -219
t218.5 -88z" />
    <glyph glyph-name="tau" unicode="&#x3c4;" horiz-adv-x="962" 
d="M379 287v501h-338v195h881v-195h-338v-481q0 -133 123 -133q39 0 79 14l33 17v-195l-43 -16q-47 -14 -110 -14q-141 0 -214 77t-73 230z" />
    <glyph glyph-name="upsilon" unicode="&#x3c5;" 
d="M133 420v563h205v-563q0 -110 70 -178t186 -68t186 68t70 178v563h205v-563q0 -194 -127 -317t-334 -123t-334 123t-127 317z" />
    <glyph glyph-name="phi" unicode="&#x3c6;" horiz-adv-x="1515" 
d="M655 -430v399q-124 4 -231.5 47t-182 112.5t-117 161t-42.5 191.5q0 92 29.5 175t80 144.5t114 105.5t134.5 67l82 -164q-101 -35 -168 -119.5t-67 -208.5q0 -128 101.5 -219t266.5 -98v829h195q123 0 232.5 -42.5t186 -113.5t121 -164t44.5 -192q0 -100 -42.5 -191.5
t-117 -161t-182.5 -112.5t-232 -47v-399h-205zM860 799v-635q165 7 267 98t102 219t-102 219.5t-267 98.5z" />
    <glyph glyph-name="chi" unicode="&#x3c7;" horiz-adv-x="1024" 
d="M20 0l369 512l-338 471h236l225 -317l225 317h236l-338 -471l369 -512h-236l-256 358l-256 -358h-236z" />
    <glyph glyph-name="psi" unicode="&#x3c8;" horiz-adv-x="1495" 
d="M645 -430v410q-243 18 -377.5 161.5t-134.5 401.5v440h205v-440q0 -174 81.5 -267.5t225.5 -101.5v809h205v-809q144 8 225.5 101.5t81.5 267.5v440h205v-440q0 -258 -134.5 -401.5t-377.5 -161.5v-410h-205z" />
    <glyph glyph-name="omega" unicode="&#x3c9;" horiz-adv-x="1658" 
d="M727 492v184h205v-184q0 -154 61.5 -236t153.5 -82q98 0 156.5 78t58.5 240q0 157 -88 274q-34 48 -86 84l92 154q78 -40 143 -111q144 -160 144 -401q0 -237 -117.5 -374.5t-292.5 -137.5q-162 0 -260 102q-49 49 -68 102q-26 -56 -69 -102q-102 -102 -258 -102
q-175 0 -292.5 137.5t-117.5 374.5q0 241 144 401q65 71 143 111l92 -154q-53 -35 -88 -84q-86 -114 -86 -274q0 -162 58.5 -240t156.5 -78q92 0 153.5 82t61.5 236z" />
    <glyph glyph-name="iotadieresis" unicode="&#x3ca;" horiz-adv-x="624" 
d="M154 297v686h204v-666q0 -68 36 -105.5t98 -37.5q37 0 69 14l33 17v-195q-7 -3 -21 -8.5t-20 -7.5q-47 -14 -102 -14q-141 0 -219 82t-78 235zM-72 1290q0 52 37 87.5t86 35.5t86 -35.5t37 -87.5t-37 -87.5t-86 -35.5t-86 35.5t-37 87.5zM338 1290q0 52 37 87.5t86 35.5
t86 -35.5t37 -87.5t-37 -87.5t-86 -35.5t-86 35.5t-37 87.5z" />
    <glyph glyph-name="upsilondieresis" unicode="&#x3cb;" 
d="M133 420v563h205v-563q0 -110 70 -178t186 -68t186 68t70 178v563h205v-563q0 -194 -127 -317t-334 -123t-334 123t-127 317zM266 1290q0 52 37 87.5t86 35.5t86 -35.5t37 -87.5t-37 -87.5t-86 -35.5t-86 35.5t-37 87.5zM676 1290q0 52 37 87.5t86 35.5t86 -35.5
t37 -87.5t-37 -87.5t-86 -35.5t-86 35.5t-37 87.5z" />
    <glyph glyph-name="omicrontonos" unicode="&#x3cc;" 
d="M82 492q0 215 148.5 363.5t363.5 148.5t363.5 -148.5t148.5 -363.5t-148.5 -363.5t-363.5 -148.5t-363.5 148.5t-148.5 363.5zM594 174q131 0 219 90t88 228t-87.5 227.5t-219.5 89.5t-219.5 -89.5t-87.5 -227.5t88 -228t219 -90zM512 1147l154 287h215l-215 -287h-154z
" />
    <glyph glyph-name="upsilontonos" unicode="&#x3cd;" 
d="M133 420v563h205v-563q0 -110 70 -178t186 -68t186 68t70 178v563h205v-563q0 -194 -127 -317t-334 -123t-334 123t-127 317zM512 1147l154 287h215l-215 -287h-154z" />
    <glyph glyph-name="omegatonos" unicode="&#x3ce;" horiz-adv-x="1658" 
d="M727 492v184h205v-184q0 -154 61.5 -236t153.5 -82q98 0 156.5 78t58.5 240q0 157 -88 274q-34 48 -86 84l92 154q78 -40 143 -111q144 -160 144 -401q0 -237 -117.5 -374.5t-292.5 -137.5q-162 0 -260 102q-49 49 -68 102q-26 -56 -69 -102q-102 -102 -258 -102
q-175 0 -292.5 137.5t-117.5 374.5q0 241 144 401q65 71 143 111l92 -154q-53 -35 -88 -84q-86 -114 -86 -274q0 -162 58.5 -240t156.5 -78q92 0 153.5 82t61.5 236zM758 1147l153 287h215l-215 -287h-153z" />
    <glyph glyph-name="uni0400" unicode="&#x400;" horiz-adv-x="1331" 
d="M205 0v1434h1014v-215h-789v-369h625v-215h-625v-420h809v-215h-1034zM655 1618l-215 287h215l154 -287h-154z" />
    <glyph glyph-name="uni0401" unicode="&#x401;" horiz-adv-x="1331" 
d="M205 0v1434h1014v-215h-789v-369h625v-215h-625v-420h809v-215h-1034zM389 1741q0 52 37 87.5t86 35.5t86 -35.5t37 -87.5t-37 -87.5t-86 -35.5t-86 35.5t-37 87.5zM799 1741q0 52 37 87.5t86 35.5t85.5 -35t36.5 -88t-36.5 -88t-85.5 -35t-86 35.5t-37 87.5z" />
    <glyph glyph-name="uni0402" unicode="&#x402;" horiz-adv-x="1484" 
d="M348 0v1219h-348v215h922v-215h-349v-402q39 31 99 57q118 58 260 58q201 0 331 -133.5t130 -347.5t-130 -348t-331 -134h-41v215q123 0 194.5 72t71.5 195t-71.5 194.5t-194.5 71.5q-119 0 -232 -68q-46 -25 -86 -65v-584h-225z" />
    <glyph glyph-name="uni0403" unicode="&#x403;" horiz-adv-x="1167" 
d="M205 0v1434h921v-215h-696v-1219h-225zM594 1618l154 287h215l-215 -287h-154z" />
    <glyph glyph-name="uni0404" unicode="&#x404;" horiz-adv-x="1525" 
d="M348 829h707v-204h-707q30 -191 171.5 -316t350.5 -125q185 0 336 113q71 52 115 113l143 -144q-65 -81 -151 -143q-199 -143 -443 -143q-158 0 -299 58t-241 156.5t-158.5 234.5t-58.5 288t58.5 288t158.5 234.5t241 156.5t299 58q250 0 439 -139q87 -65 145 -137
l-143 -144q-46 61 -109 107q-145 108 -332 108q-199 0 -341 -121.5t-181 -298.5z" />
    <glyph glyph-name="uni0405" unicode="&#x405;" horiz-adv-x="1167" 
d="M61 195l154 153q32 -44 86 -82q118 -82 272 -82q134 0 210.5 62t76.5 153q0 50 -26 88t-70 61.5t-100.5 42.5t-119.5 37t-126 38.5t-119.5 52.5t-100.5 74.5t-70 109.5t-26 152q0 167 135 283t357 116q187 0 336 -92q69 -42 114 -92l-153 -154q-40 44 -76 66
q-99 67 -221 67q-125 0 -195.5 -56t-70.5 -138q0 -50 26 -88t69.5 -61.5t100.5 -42.5t119.5 -37t125.5 -38.5t120 -52.5t100.5 -74.5t69.5 -109.5t26 -152q0 -113 -61 -208t-179 -153t-272 -58q-225 0 -387 106q-69 44 -125 109z" />
    <glyph glyph-name="uni0406" unicode="&#x406;" horiz-adv-x="634" 
d="M205 0v1434h225v-1434h-225z" />
    <glyph glyph-name="uni0407" unicode="&#x407;" horiz-adv-x="634" 
d="M-10 1741q0 52 37 87.5t86 35.5t86 -35.5t37 -87.5t-37 -87.5t-86 -35.5t-86 35.5t-37 87.5zM399 1741q0 52 37 87.5t86 35.5t86 -35.5t37 -87.5t-37 -87.5t-86 -35.5t-86 35.5t-37 87.5zM205 0v1434h225v-1434h-225z" />
    <glyph glyph-name="uni0408" unicode="&#x408;" horiz-adv-x="1024" 
d="M0 143l143 144q28 -32 60 -51q75 -52 176 -52q110 0 172.5 67t62.5 189v994h226v-994q0 -209 -126 -334.5t-335 -125.5q-161 0 -285 81q-55 37 -94 82z" />
    <glyph glyph-name="uni0409" unicode="&#x409;" horiz-adv-x="2211" 
d="M-10 10v205q19 -8 33 -10q38 -10 79 -10q44 0 78.5 17.5t69 70t57 139.5t37 235t14.5 347v430h953v-512h327q207 0 344.5 -133.5t137.5 -327.5t-137.5 -327.5t-344.5 -133.5h-553v1219h-501v-215q0 -246 -22 -428.5t-59 -295.5t-94.5 -181t-120.5 -93.5t-145 -25.5
q-63 0 -110 14zM1311 205h327q107 0 181.5 74.5t74.5 181.5t-74.5 181.5t-181.5 74.5h-327v-512z" />
    <glyph glyph-name="uni040A" unicode="&#x40a;" horiz-adv-x="2222" 
d="M205 0v1434h225v-512h666v512h225v-512h328q207 0 344 -133.5t137 -327.5t-137 -327.5t-344 -133.5h-553v717h-666v-717h-225zM1321 205h328q107 0 181.5 74.5t74.5 181.5t-74.5 181.5t-181.5 74.5h-328v-512z" />
    <glyph glyph-name="uni040B" unicode="&#x40b;" horiz-adv-x="1515" 
d="M348 0v1219h-348v215h922v-215h-349v-402q39 31 99 57q118 58 260 58q194 0 317 -127t123 -334v-471h-225v471q0 110 -70 178t-186 68q-119 0 -232 -68q-46 -25 -86 -65v-584h-225z" />
    <glyph glyph-name="uni040C" unicode="&#x40c;" horiz-adv-x="1402" 
d="M666 1618l153 287h215l-215 -287h-153zM205 0v1434h225v-697l645 697h287l-553 -594l594 -840h-277l-471 676l-225 -246v-430h-225z" />
    <glyph glyph-name="uni040D" unicode="&#x40d;" horiz-adv-x="1628" 
d="M205 0v1434h225v-1055l789 1055h204v-1434h-225v1055l-788 -1055h-205zM737 1618l-215 287h215l154 -287h-154z" />
    <glyph glyph-name="uni040E" unicode="&#x40e;" horiz-adv-x="1280" 
d="M143 10v205q19 -8 35 -10q42 -10 88 -10q100 0 160.5 46t105.5 138l31 61l-543 994h236l420 -768l358 768h236l-533 -1117q-83 -171 -184.5 -254t-255.5 -83q-64 0 -111 14zM348 1905h154q0 -62 41 -103t102 -41t102 41t41 103h154q0 -124 -83.5 -205.5t-213.5 -81.5
t-213.5 81.5t-83.5 205.5z" />
    <glyph glyph-name="uni040F" unicode="&#x40f;" horiz-adv-x="1556" 
d="M205 0v1434h225v-1219h696v1219h226v-1434h-461v-307h-225v307h-461z" />
    <glyph glyph-name="uni0410" unicode="&#x410;" horiz-adv-x="1433" 
d="M20 0l574 1434h246l573 -1434h-235l-144 369h-635l-143 -369h-236zM481 573h471l-235 594z" />
    <glyph glyph-name="uni0411" unicode="&#x411;" horiz-adv-x="1361" 
d="M430 205h369q98 0 166.5 68.5t68.5 166.5t-68.5 167t-166.5 69h-369v-471zM205 0v1434h942v-215h-717v-338h369q198 0 329.5 -127.5t131.5 -313.5t-131.5 -313t-329.5 -127h-594z" />
    <glyph glyph-name="uni0412" unicode="&#x412;" horiz-adv-x="1392" 
d="M205 0v1434h573q188 0 309 -111t121 -268q0 -128 -88 -224q-36 -39 -86 -63q68 -26 123 -78q123 -107 123 -270q0 -172 -134 -296t-337 -124h-604zM430 195h379q108 0 177 67t69 168t-69 168.5t-177 67.5h-379v-471zM430 850h348q92 0 148.5 54t56.5 140q0 87 -56.5 141
t-148.5 54h-348v-389z" />
    <glyph glyph-name="uni0413" unicode="&#x413;" horiz-adv-x="1167" 
d="M205 0v1434h921v-215h-696v-1219h-225z" />
    <glyph glyph-name="uni0414" unicode="&#x414;" horiz-adv-x="1484" 
d="M0 -307v522h82q71 68 123 178q123 244 123 611v430h932v-1219h174v-522h-226v307h-983v-307h-225zM328 215h706v1004h-481v-215q0 -354 -113 -611q-54 -115 -112 -178z" />
    <glyph glyph-name="uni0415" unicode="&#x415;" horiz-adv-x="1331" 
d="M205 0v1434h1014v-215h-789v-369h625v-215h-625v-420h809v-215h-1034z" />
    <glyph glyph-name="uni0416" unicode="&#x416;" horiz-adv-x="2007" 
d="M0 0l594 840l-553 594h287l563 -605v605h225v-605l563 605h287l-553 -594l594 -840h-276l-471 676l-144 -154v-522h-225v522l-143 154l-472 -676h-276z" />
    <glyph glyph-name="uni0417" unicode="&#x417;" horiz-adv-x="1218" 
d="M41 205l154 153q39 -51 94 -88q126 -86 284 -86q147 0 232.5 69t85.5 167q0 91 -86 158t-232 67h-184v215h184q124 0 195.5 57.5t71.5 139.5q0 80 -71 136t-196 56q-135 0 -249 -78q-47 -31 -88 -75l-154 153q47 52 127 103q168 102 364 102q230 0 361 -109t131 -270
q0 -147 -113 -248q-51 -42 -112 -69q73 -26 137 -74q139 -106 139 -274q0 -84 -38 -161.5t-106 -137t-172 -95.5t-227 -36q-228 0 -401 112q-82 53 -131 113z" />
    <glyph glyph-name="uni0418" unicode="&#x418;" horiz-adv-x="1628" 
d="M205 0v1434h225v-1055l789 1055h204v-1434h-225v1055l-788 -1055h-205z" />
    <glyph glyph-name="uni0419" unicode="&#x419;" horiz-adv-x="1628" 
d="M205 0v1434h225v-1055l789 1055h204v-1434h-225v1055l-788 -1055h-205zM512 1905h154q0 -62 41 -103t102 -41t102 41t41 103h154q0 -124 -83.5 -205.5t-213.5 -81.5t-213.5 81.5t-83.5 205.5z" />
    <glyph glyph-name="uni041A" unicode="&#x41a;" horiz-adv-x="1402" 
d="M205 0v1434h225v-697l645 697h287l-553 -594l594 -840h-277l-471 676l-225 -246v-430h-225z" />
    <glyph glyph-name="uni041B" unicode="&#x41b;" horiz-adv-x="1536" 
d="M-10 10v205q19 -8 33 -10q38 -10 79 -10q44 0 78.5 17.5t69 70t57 139.5t37 235t14.5 347v430h973v-1434h-225v1219h-522v-215q0 -246 -22 -428.5t-59 -295.5t-94.5 -181t-120.5 -93.5t-145 -25.5q-63 0 -110 14z" />
    <glyph glyph-name="uni041C" unicode="&#x41c;" horiz-adv-x="1904" 
d="M205 0v1434h205l542 -697l543 697h205v-1434h-225v1055l-523 -666l-522 666v-1055h-225z" />
    <glyph glyph-name="uni041D" unicode="&#x41d;" horiz-adv-x="1566" 
d="M205 0v1434h225v-605h707v605h225v-1434h-225v625h-707v-625h-225z" />
    <glyph glyph-name="uni041E" unicode="&#x41e;" horiz-adv-x="1740" 
d="M338 717q0 -146 70.5 -268.5t193 -193.5t268.5 -71t268.5 71t193.5 193.5t71 268.5t-71 268.5t-193.5 193t-268.5 70.5t-268.5 -70.5t-193 -193t-70.5 -268.5zM113 717q0 152 58.5 288t158.5 234.5t241 156.5t299 58t299 -58t241.5 -156.5t159 -235t58.5 -287.5
t-58.5 -287.5t-159 -235t-241.5 -156.5t-299 -58t-299 58t-241 156.5t-158.5 234.5t-58.5 288z" />
    <glyph glyph-name="uni041F" unicode="&#x41f;" horiz-adv-x="1566" 
d="M205 0v1434h1157v-1434h-225v1219h-707v-1219h-225z" />
    <glyph glyph-name="uni0420" unicode="&#x420;" horiz-adv-x="1351" 
d="M205 0v1434h573q207 0 344.5 -133.5t137.5 -327.5t-137.5 -327.5t-344.5 -133.5h-348v-512h-225zM430 717h348q107 0 181.5 74.5t74.5 181.5t-74.5 181.5t-181.5 74.5h-348v-512z" />
    <glyph glyph-name="uni0421" unicode="&#x421;" horiz-adv-x="1525" 
d="M1321 410l143 -144q-65 -81 -151 -143q-199 -143 -443 -143q-158 0 -299 58t-241 156.5t-158.5 234.5t-58.5 288t58.5 288t158.5 234.5t241 156.5t299 58q250 0 439 -139q87 -65 145 -137l-143 -144q-46 61 -109 107q-145 108 -332 108q-146 0 -268.5 -70.5t-193 -193
t-70.5 -268.5t70.5 -268.5t193 -193.5t268.5 -71q185 0 336 113q71 52 115 113z" />
    <glyph glyph-name="uni0422" unicode="&#x422;" horiz-adv-x="1167" 
d="M471 0v1219h-430v215h1085v-215h-430v-1219h-225z" />
    <glyph glyph-name="uni0423" unicode="&#x423;" horiz-adv-x="1280" 
d="M143 10v205q19 -8 35 -10q42 -10 88 -10q100 0 160.5 46t105.5 138l31 61l-543 994h236l420 -768l358 768h236l-533 -1117q-83 -171 -184.5 -254t-255.5 -83q-64 0 -111 14z" />
    <glyph glyph-name="uni0424" unicode="&#x424;" horiz-adv-x="1761" 
d="M768 348v778q-211 -17 -331 -124.5t-120 -264.5t120 -264.5t331 -124.5zM993 1126v-778q211 17 331 124.5t120 264.5t-120 264.5t-331 124.5zM768 -41v184q-318 24 -497 187t-179 407t179 407t497 187v144h225v-144q318 -24 497 -187t179 -407t-179 -407t-497 -187v-184
h-225z" />
    <glyph glyph-name="uni0425" unicode="&#x425;" horiz-adv-x="1351" 
d="M20 0l512 748l-471 686h267l348 -523l348 523h266l-471 -686l512 -748h-266l-389 584l-389 -584h-267z" />
    <glyph glyph-name="uni0426" unicode="&#x426;" horiz-adv-x="1566" 
d="M205 0v1434h225v-1219h686v1219h225v-1219h175v-522h-226v307h-1085z" />
    <glyph glyph-name="uni0427" unicode="&#x427;" horiz-adv-x="1484" 
d="M1055 0v573q-60 -35 -105 -51q-125 -51 -264 -51q-234 0 -368 139.5t-134 393.5v430h226v-430q0 -148 84.5 -233t232.5 -85q124 0 238 62q46 24 90 61v625h225v-1434h-225z" />
    <glyph glyph-name="uni0428" unicode="&#x428;" horiz-adv-x="2129" 
d="M205 0v1434h225v-1219h522v1219h226v-1219h522v1219h225v-1434h-1720z" />
    <glyph glyph-name="uni0429" unicode="&#x429;" horiz-adv-x="2150" 
d="M205 0v1434h225v-1219h522v1219h226v-1219h522v1219h225v-1219h174v-522h-225v307h-1669z" />
    <glyph glyph-name="uni042A" unicode="&#x42a;" horiz-adv-x="1474" 
d="M348 0v1219h-348v215h573v-512h328q207 0 344 -133.5t137 -327.5t-137 -327.5t-344 -133.5h-553zM573 205h328q107 0 181.5 74.5t74.5 181.5t-74.5 181.5t-181.5 74.5h-328v-512z" />
    <glyph glyph-name="uni042B" unicode="&#x42b;" horiz-adv-x="1873" 
d="M1444 0v1434h225v-1434h-225zM205 0v1434h225v-512h328q207 0 344 -133.5t137 -327.5t-137 -327.5t-344 -133.5h-553zM430 205h328q107 0 181.5 74.5t74.5 181.5t-74.5 181.5t-181.5 74.5h-328v-512z" />
    <glyph glyph-name="uni042C" unicode="&#x42c;" horiz-adv-x="1351" 
d="M205 0v1434h225v-512h348q207 0 344.5 -133.5t137.5 -327.5t-137.5 -327.5t-344.5 -133.5h-573zM430 205h348q107 0 181.5 74.5t74.5 181.5t-74.5 181.5t-181.5 74.5h-348v-512z" />
    <glyph glyph-name="uni042D" unicode="&#x42d;" horiz-adv-x="1515" 
d="M51 266l144 144q45 -62 114 -113q151 -113 336 -113q210 0 349 124.5t173 316.5h-706v204h706q-39 177 -181 298.5t-341 121.5q-187 0 -332 -108q-61 -44 -108 -107l-144 144q54 71 146 137q185 139 438 139q158 0 299 -58t241.5 -156.5t159 -235t58.5 -287.5
t-58.5 -287.5t-159 -235t-241.5 -156.5t-299 -58q-243 0 -442 143q-88 64 -152 143z" />
    <glyph glyph-name="uni042E" unicode="&#x42e;" horiz-adv-x="2201" 
d="M205 0v1434h225v-605h236q12 122 71.5 236t151 200t218.5 137.5t265 51.5q197 0 361.5 -96t260 -265.5t95.5 -375.5t-95.5 -375.5t-260 -265.5t-361.5 -96q-139 0 -265 52t-218 140t-151.5 206t-71.5 247h-236v-625h-225zM1372 184q133 0 245.5 68.5t179.5 191.5t67 273
q0 113 -39.5 212.5t-106 169t-157 110t-189.5 40.5t-189.5 -40.5t-157 -110t-105.5 -169t-39 -212.5t39 -212.5t105.5 -169.5t157 -110.5t189.5 -40.5z" />
    <glyph glyph-name="uni042F" unicode="&#x42f;" horiz-adv-x="1402" 
d="M82 0l326 573q-81 32 -138 86q-137 120 -137 324q0 192 133 321.5t338 129.5h594v-1434h-225v532h-338l-297 -532h-256zM604 737h369v492h-369q-109 0 -177.5 -68.5t-68.5 -177.5t68.5 -177.5t177.5 -68.5z" />
    <glyph glyph-name="uni0430" unicode="&#x430;" horiz-adv-x="1064" 
d="M717 0v143q-26 -40 -78 -82q-109 -81 -240 -81q-144 0 -235.5 83.5t-91.5 202.5q0 122 77 202.5t209 104.5l359 62q0 79 -57 131.5t-148 52.5t-186 -67q-37 -25 -70 -66l-133 133q40 52 98 92q131 93 291 93q182 0 296 -108t114 -271v-625h-205zM717 440v31l-287 -51
q-76 -13 -115 -48.5t-39 -84.5q0 -56 44.5 -94.5t119.5 -38.5q116 0 196.5 82t80.5 204z" />
    <glyph glyph-name="uni0431" unicode="&#x431;" 
d="M952 1505l103 -174q-64 -28 -99 -41q-126 -48 -290 -82q-303 -63 -349 -379q35 41 82 76q110 78 236 78q91 0 177 -40t151 -107t104 -160.5t39 -194.5q0 -102 -39.5 -194.5t-105.5 -159.5t-157 -107t-190 -40q-108 0 -201 42.5t-162.5 122t-109 203t-39.5 277.5
q0 179 38.5 319.5t107.5 231.5t155.5 144.5t190.5 72.5q162 35 260 71q60 23 98 41zM614 174q117 0 202 89t85 218t-85 218t-202 89t-201.5 -89t-84.5 -218t84.5 -218t201.5 -89z" />
    <glyph glyph-name="uni0432" unicode="&#x432;" horiz-adv-x="1054" 
d="M143 0v983h461q148 0 238 -78t90 -188q0 -90 -62 -152q-29 -29 -61 -43q40 -16 82 -49q82 -78 82 -186q0 -119 -96.5 -203t-251.5 -84h-482zM348 184h266q68 0 106 34t38 89t-38 89t-106 34h-266v-246zM348 594h246q60 0 91.5 27t31.5 75t-31.5 75.5t-91.5 27.5h-246
v-205z" />
    <glyph glyph-name="uni0433" unicode="&#x433;" horiz-adv-x="880" 
d="M143 0v983h697v-195h-492v-788h-205z" />
    <glyph glyph-name="uni0434" unicode="&#x434;" horiz-adv-x="1136" 
d="M0 -246v441h72q42 45 82 120q82 164 82 381v287h716v-788h144v-441h-205v246h-686v-246h-205zM287 195h461v593h-308v-92q0 -217 -78 -381q-34 -71 -75 -120z" />
    <glyph glyph-name="uni0435" unicode="&#x435;" horiz-adv-x="1146" 
d="M891 307l123 -143q-38 -49 -103 -92q-141 -92 -317 -92q-215 0 -363.5 148.5t-148.5 363.5q0 141 67.5 259t183 185.5t251.5 67.5q209 0 345 -136.5t136 -345.5q0 -19 -6 -73l-4 -29h-758q18 -104 102 -175t205 -71q111 0 209 66q44 28 78 67zM297 594h553
q-24 103 -92.5 164t-173.5 61q-112 0 -183.5 -60t-103.5 -165z" />
    <glyph glyph-name="uni0436" unicode="&#x436;" horiz-adv-x="1515" 
d="M0 0l410 584l-379 399h256l368 -399v399h205v-399l369 399h256l-379 -399l410 -584h-236l-307 440l-113 -123v-317h-205v317l-112 123l-307 -440h-236z" />
    <glyph glyph-name="uni0437" unicode="&#x437;" horiz-adv-x="901" 
d="M31 154l133 133q29 -33 72 -62q92 -61 194 -61q83 0 128.5 38t45.5 95q0 51 -46 87t-128 36h-133v184h123q73 0 113 30.5t40 72.5q0 50 -39 81t-114 31q-95 0 -172 -43q-29 -14 -64 -41l-133 133q44 40 92 68q130 68 277 68q169 0 268.5 -82.5t99.5 -194.5
q0 -105 -81 -170q-47 -34 -82 -45q50 -17 96 -49q98 -78 98 -187q0 -122 -106 -209t-283 -87q-167 0 -299 86q-64 41 -100 88z" />
    <glyph glyph-name="uni0438" unicode="&#x438;" 
d="M143 0v983h205v-655l512 655h184v-983h-204v655l-512 -655h-185z" />
    <glyph glyph-name="uni0439" unicode="&#x439;" 
d="M143 0v983h205v-655l512 655h184v-983h-204v655l-512 -655h-185zM297 1434h154q0 -62 41 -103t102 -41t102 41t41 103h154q0 -124 -83.5 -205.5t-213.5 -81.5t-213.5 81.5t-83.5 205.5z" />
    <glyph glyph-name="uni043A" unicode="&#x43a;" horiz-adv-x="1054" 
d="M143 0v983h205v-451l420 451h256l-379 -399l410 -584h-236l-307 440l-164 -174v-266h-205z" />
    <glyph glyph-name="uni043B" unicode="&#x43b;" horiz-adv-x="1146" 
d="M-10 0v195l24 -7q28 -4 47 -4q37 0 63 11t50.5 43t39.5 87.5t23.5 148.5t8.5 222v287h758v-983h-205v788h-348v-92q0 -168 -17 -294t-45.5 -205.5t-72.5 -129t-92.5 -68.5t-110.5 -19q-46 0 -88 10q-16 2 -35 10z" />
    <glyph glyph-name="uni043C" unicode="&#x43c;" horiz-adv-x="1331" 
d="M143 0v983h174l349 -430l348 430h174v-983h-205v655l-317 -389l-318 389v-655h-205z" />
    <glyph glyph-name="uni043D" unicode="&#x43d;" horiz-adv-x="1177" 
d="M143 0v983h205v-389h481v389h205v-983h-205v410h-481v-410h-205z" />
    <glyph glyph-name="uni043E" unicode="&#x43e;" 
d="M82 492q0 215 148.5 363.5t363.5 148.5t363.5 -148.5t148.5 -363.5t-148.5 -363.5t-363.5 -148.5t-363.5 148.5t-148.5 363.5zM594 174q131 0 219 90t88 228t-87.5 227.5t-219.5 89.5t-219.5 -89.5t-87.5 -227.5t88 -228t219 -90z" />
    <glyph glyph-name="uni043F" unicode="&#x43f;" horiz-adv-x="1177" 
d="M143 0v983h891v-983h-205v788h-481v-788h-205z" />
    <glyph glyph-name="uni0440" unicode="&#x440;" horiz-adv-x="1228" 
d="M143 -430v1413h205v-143q27 42 80 82q110 82 258 82q122 0 227.5 -65t169.5 -183.5t64 -263.5t-64 -263.5t-169.5 -183.5t-227.5 -65q-149 0 -258 81q-53 40 -80 82v-573h-205zM645 174q125 0 211 90t86 228t-86 227.5t-211 89.5t-211 -89.5t-86 -227.5t86 -228t211 -90z
" />
    <glyph glyph-name="uni0441" unicode="&#x441;" horiz-adv-x="1064" 
d="M870 317l144 -133q-42 -53 -107 -102q-144 -102 -313 -102q-215 0 -363.5 148.5t-148.5 363.5t148.5 363.5t363.5 148.5q172 0 309 -99q63 -47 101 -96l-144 -133q-28 39 -67 65q-97 68 -199 68q-132 0 -219.5 -89.5t-87.5 -227.5t88 -228t219 -90q116 0 203 72
q34 25 73 71z" />
    <glyph glyph-name="uni0442" unicode="&#x442;" horiz-adv-x="962" 
d="M379 0v788h-338v195h881v-195h-338v-788h-205z" />
    <glyph glyph-name="uni0443" unicode="&#x443;" horiz-adv-x="1044" 
d="M82 -399v194q6 -4 35 -16q43 -15 88 -15q120 0 174 134l41 102l-400 983h226l276 -727l277 727h225l-430 -1096q-63 -158 -150 -237.5t-208 -79.5q-64 0 -111 14z" />
    <glyph glyph-name="uni0444" unicode="&#x444;" horiz-adv-x="1474" 
d="M840 819v-655q152 7 250 101.5t98 226.5t-98 226t-250 101zM635 -430v399q-252 25 -402.5 168.5t-150.5 354.5t150.5 354t402.5 168v420h205v-420q252 -25 402.5 -168t150.5 -354t-150.5 -354.5t-402.5 -168.5v-399h-205zM635 164v655q-152 -7 -250 -101t-98 -226
t98 -226.5t250 -101.5z" />
    <glyph glyph-name="uni0445" unicode="&#x445;" horiz-adv-x="1024" 
d="M20 0l369 512l-338 471h236l225 -317l225 317h236l-338 -471l369 -512h-236l-256 358l-256 -358h-236z" />
    <glyph glyph-name="uni0446" unicode="&#x446;" horiz-adv-x="1198" 
d="M143 0v983h205v-788h461v788h205v-788h143v-441h-205v246h-809z" />
    <glyph glyph-name="uni0447" unicode="&#x447;" horiz-adv-x="1105" 
d="M758 0v358q-39 -24 -72 -36q-91 -35 -194 -35q-163 0 -266 110t-103 299v287h205v-287q0 -99 55.5 -157t148.5 -58q90 0 166 35q35 15 60 37v430h205v-983h-205z" />
    <glyph glyph-name="uni0448" unicode="&#x448;" horiz-adv-x="1617" 
d="M143 0v983h205v-788h359v788h204v-788h359v788h205v-983h-1332z" />
    <glyph glyph-name="uni0449" unicode="&#x449;" horiz-adv-x="1658" 
d="M143 0v983h205v-788h359v788h204v-788h359v788h205v-788h143v-441h-205v246h-1270z" />
    <glyph glyph-name="uni044A" unicode="&#x44a;" horiz-adv-x="1105" 
d="M246 0v788h-246v195h451v-307h204q175 0 277 -94.5t102 -243.5t-102 -243.5t-277 -94.5h-409zM451 184h204q84 0 129 41.5t45 112.5t-45 112.5t-129 41.5h-204v-308z" />
    <glyph glyph-name="uni044B" unicode="&#x44b;" horiz-adv-x="1423" 
d="M1075 0v983h205v-983h-205zM348 184h205q84 0 129 41.5t45 112.5t-45 112.5t-129 41.5h-205v-308zM143 0v983h205v-307h205q175 0 277 -94.5t102 -243.5t-102 -243.5t-277 -94.5h-410z" />
    <glyph glyph-name="uni044C" unicode="&#x44c;" horiz-adv-x="1024" 
d="M348 184h225q84 0 129.5 41.5t45.5 112.5t-45.5 112.5t-129.5 41.5h-225v-308zM143 0v983h205v-307h225q175 0 277 -94.5t102 -243.5t-102 -243.5t-277 -94.5h-430z" />
    <glyph glyph-name="uni044D" unicode="&#x44d;" horiz-adv-x="1044" 
d="M31 184l143 133q37 -44 74 -71q87 -72 203 -72q159 0 243 123q40 55 54 123h-451v174h440q-19 61 -55 106q-85 109 -231 109q-102 0 -199 -68q-41 -27 -68 -65l-143 133q39 51 100 96q137 99 310 99q215 0 363.5 -148.5t148.5 -363.5t-148.5 -363.5t-363.5 -148.5
q-170 0 -314 102q-62 47 -106 102z" />
    <glyph glyph-name="uni044E" unicode="&#x44e;" horiz-adv-x="1617" 
d="M143 0v983h205v-389h195q30 183 160 296.5t331 113.5q216 0 359 -145t143 -367t-143 -367t-359 -145q-204 0 -334.5 120t-156.5 310h-195v-410h-205zM1034 174q132 0 214.5 86t82.5 232t-82.5 231.5t-214.5 85.5t-214.5 -85.5t-82.5 -231.5t82.5 -232t214.5 -86z" />
    <glyph glyph-name="uni044F" unicode="&#x44f;" horiz-adv-x="1064" 
d="M72 0l225 358q-49 19 -98 64q-97 93 -97 233q0 142 102.5 235t276.5 93h441v-983h-205v328h-215l-195 -328h-235zM481 512h236v287h-236q-83 0 -128.5 -40t-45.5 -104t45 -103.5t129 -39.5z" />
    <glyph glyph-name="uni0450" unicode="&#x450;" horiz-adv-x="1146" 
d="M891 307l123 -143q-38 -49 -103 -92q-141 -92 -317 -92q-215 0 -363.5 148.5t-148.5 363.5q0 141 67.5 259t183 185.5t251.5 67.5q209 0 345 -136.5t136 -345.5q0 -19 -6 -73l-4 -29h-758q18 -104 102 -175t205 -71q111 0 209 66q44 28 78 67zM297 594h553
q-24 103 -92.5 164t-173.5 61q-112 0 -183.5 -60t-103.5 -165zM502 1147l-215 287h215l153 -287h-153z" />
    <glyph glyph-name="uni0451" unicode="&#x451;" horiz-adv-x="1146" 
d="M891 307l123 -143q-38 -49 -103 -92q-141 -92 -317 -92q-215 0 -363.5 148.5t-148.5 363.5q0 141 67.5 259t183 185.5t251.5 67.5q209 0 345 -136.5t136 -345.5q0 -19 -6 -73l-4 -29h-758q18 -104 102 -175t205 -71q111 0 209 66q44 28 78 67zM297 594h553
q-24 103 -92.5 164t-173.5 61q-112 0 -183.5 -60t-103.5 -165zM256 1290q0 52 37 87.5t86 35.5t86 -35.5t37 -87.5t-37 -87.5t-86 -35.5t-86 35.5t-37 87.5zM666 1290q0 53 36.5 88t85.5 35t86 -35.5t37 -87.5t-37 -87.5t-86 -35.5t-85.5 35t-36.5 88z" />
    <glyph glyph-name="uni0452" unicode="&#x452;" horiz-adv-x="1198" 
d="M174 0v1085h-174v195h174v154h205v-154h266v-195h-266v-297q28 43 76 82q102 82 231 82q173 0 291.5 -134.5t118.5 -356.5t-133 -357t-349 -135v195q125 0 201 79.5t76 217.5q0 134 -71.5 215.5t-174.5 81.5q-116 0 -191 -77.5t-75 -199.5v-481h-205z" />
    <glyph glyph-name="uni0453" unicode="&#x453;" horiz-adv-x="880" 
d="M143 0v983h697v-195h-492v-788h-205zM410 1147l153 287h215l-215 -287h-153z" />
    <glyph glyph-name="uni0454" unicode="&#x454;" horiz-adv-x="1064" 
d="M307 594h441v-174h-451q15 -70 53 -123q84 -123 244 -123q116 0 203 72q34 25 73 71l144 -133q-42 -53 -107 -102q-144 -102 -313 -102q-215 0 -363.5 148.5t-148.5 363.5t148.5 363.5t363.5 148.5q172 0 309 -99q63 -47 101 -96l-144 -133q-28 39 -67 65q-97 68 -199 68
q-147 0 -232 -109q-36 -45 -55 -106z" />
    <glyph glyph-name="uni0455" unicode="&#x455;" horiz-adv-x="890" 
d="M51 164l133 133q31 -42 70 -68q93 -65 186 -65q82 0 128 36t46 87q0 33 -29 56.5t-75 39.5t-101.5 31.5t-111 38.5t-101.5 54t-75 85t-29 125q0 120 98.5 203.5t260.5 83.5q145 0 262 -68q48 -25 86 -66l-133 -133q-30 27 -58 41q-70 41 -157 41q-73 0 -113.5 -30
t-40.5 -72q0 -33 29 -57t75 -39.5t101.5 -31.5t111 -39t101.5 -54t75 -84.5t29 -124.5q0 -128 -103.5 -217.5t-275.5 -89.5q-161 0 -290 92q-60 42 -99 92z" />
    <glyph glyph-name="uni0456" unicode="&#x456;" horiz-adv-x="512" 
d="M154 0v983h204v-983h-204zM133 1290q0 52 37 87.5t86 35.5t86 -35.5t37 -87.5t-37 -87.5t-86 -35.5t-86 35.5t-37 87.5z" />
    <glyph glyph-name="uni0457" unicode="&#x457;" horiz-adv-x="512" 
d="M-72 1290q0 52 37 87.5t86 35.5t86 -35.5t37 -87.5t-37 -87.5t-86 -35.5t-86 35.5t-37 87.5zM338 1290q0 52 37 87.5t86 35.5t86 -35.5t37 -87.5t-37 -87.5t-86 -35.5t-86 35.5t-37 87.5zM154 0v983h204v-983h-204z" />
    <glyph glyph-name="uni0458" unicode="&#x458;" horiz-adv-x="512" 
d="M-102 -399v194l32 -16q34 -15 80 -15q144 0 144 154v1065h204v-1085q0 -160 -79 -244t-228 -84q-63 0 -110 14zM133 1290q0 52 37 87.5t86 35.5t86 -35.5t37 -87.5t-37 -87.5t-86 -35.5t-86 35.5t-37 87.5z" />
    <glyph glyph-name="uni0459" unicode="&#x459;" horiz-adv-x="1648" 
d="M-10 0v195l24 -7q28 -4 47 -4q37 0 63 11t50.5 43t39.5 87.5t23.5 148.5t8.5 222v287h737v-328h225q166 0 267.5 -93t101.5 -234t-101.5 -234.5t-267.5 -93.5h-430v788h-327v-92q0 -168 -17 -294t-45.5 -205.5t-72.5 -129t-92.5 -68.5t-110.5 -19q-46 0 -88 10
q-16 2 -35 10zM983 184h225q76 0 120 40.5t44 103.5t-44 103t-120 40h-225v-287z" />
    <glyph glyph-name="uni045A" unicode="&#x45a;" horiz-adv-x="1658" 
d="M143 0v983h205v-328h440v328h205v-328h226q166 0 267 -93t101 -234t-101 -234.5t-267 -93.5h-431v471h-440v-471h-205zM993 184h226q76 0 119.5 40.5t43.5 103.5t-43.5 103t-119.5 40h-226v-287z" />
    <glyph glyph-name="uni045B" unicode="&#x45b;" horiz-adv-x="1218" 
d="M174 0v1085h-174v195h174v154h205v-154h266v-195h-266v-297q28 43 76 82q102 82 231 82q172 0 280.5 -116t108.5 -314v-522h-205v522q0 108 -62 172t-163 64q-116 0 -191 -77.5t-75 -199.5v-481h-205z" />
    <glyph glyph-name="uni045C" unicode="&#x45c;" horiz-adv-x="1054" 
d="M143 0v983h205v-451l420 451h256l-379 -399l410 -584h-236l-307 440l-164 -174v-266h-205zM492 1147l153 287h215l-215 -287h-153z" />
    <glyph glyph-name="uni045D" unicode="&#x45d;" 
d="M143 0v983h205v-655l512 655h184v-983h-204v655l-512 -655h-185zM522 1147l-215 287h215l154 -287h-154z" />
    <glyph glyph-name="uni045E" unicode="&#x45e;" horiz-adv-x="1044" 
d="M82 -399v194q6 -4 35 -16q43 -15 88 -15q120 0 174 134l41 102l-400 983h226l276 -727l277 727h225l-430 -1096q-63 -158 -150 -237.5t-208 -79.5q-64 0 -111 14zM225 1434h154q0 -62 41 -103t102 -41q62 0 103 41t41 103h153q0 -124 -83.5 -205.5t-213.5 -81.5
t-213.5 81.5t-83.5 205.5z" />
    <glyph glyph-name="uni045F" unicode="&#x45f;" horiz-adv-x="1167" 
d="M143 0v983h205v-788h471v788h205v-983h-338v-246h-205v246h-338z" />
    <glyph glyph-name="uni0462" unicode="&#x462;" horiz-adv-x="1433" 
d="M287 0v1075h-287v195h287v164h225v-164h389v-195h-389v-194h348q212 0 346.5 -126.5t134.5 -314.5q0 -187 -134.5 -313.5t-346.5 -126.5h-573zM512 205h348q115 0 185.5 66.5t70.5 168.5t-70.5 169t-185.5 67h-348v-471z" />
    <glyph glyph-name="uni0463" unicode="&#x463;" horiz-adv-x="1126" 
d="M246 0v829h-246v185h246v420h205v-420h307v-185h-307v-153h225q175 0 277 -94.5t102 -243.5t-102 -243.5t-277 -94.5h-430zM451 184h225q84 0 129 41.5t45 112.5t-45 112.5t-129 41.5h-225v-308z" />
    <glyph glyph-name="uni046A" unicode="&#x46a;" horiz-adv-x="1679" 
d="M113 0v195q0 272 119.5 424.5t340.5 209.5l-430 461v144h1393v-144l-430 -461q221 -57 341 -209.5t120 -424.5v-195h-226v195q0 206 -103.5 319t-285.5 121v-635h-225v635q-182 -8 -285.5 -121t-103.5 -319v-195h-225zM840 850l348 379h-696z" />
    <glyph glyph-name="uni046B" unicode="&#x46b;" horiz-adv-x="1351" 
d="M61 0v20q0 213 106.5 343t283.5 169l-318 318v133h1086v-133l-318 -318q177 -39 283 -169t106 -343v-20h-205v20q0 167 -82 259t-225 100v-379h-205v379q-143 -8 -225 -100t-82 -259v-20h-205zM676 563l246 246h-492z" />
    <glyph glyph-name="uni0472" unicode="&#x472;" horiz-adv-x="1740" 
d="M113 717q0 152 58.5 288t158.5 234.5t241 156.5t299 58t299 -58t241.5 -156.5t159 -235t58.5 -287.5t-58.5 -287.5t-159 -235t-241.5 -156.5t-299 -58t-299 58t-241 156.5t-158.5 234.5t-58.5 288zM348 604q15 -80 60 -155.5t112 -134.5t158.5 -94.5t191.5 -35.5
q209 0 354.5 131.5t178.5 329.5q-39 -20 -78 -31q-92 -30 -199 -30q-109 0 -272 41t-240 41q-90 0 -194 -31q-39 -14 -72 -31zM338 788q53 23 76 31q108 31 200 31q106 0 270.5 -41t241.5 -41q104 0 195 31q34 10 72 30q-16 81 -61 156t-111.5 134t-158 94.5t-192.5 35.5
q-209 0 -355.5 -132t-176.5 -329z" />
    <glyph glyph-name="uni0473" unicode="&#x473;" 
d="M82 492q0 215 148.5 363.5t363.5 148.5t363.5 -148.5t148.5 -363.5t-148.5 -363.5t-363.5 -148.5t-363.5 148.5t-148.5 363.5zM342 414l-45 -15q28 -94 104.5 -159.5t192.5 -65.5q118 0 199.5 69.5t97.5 166.5q-17 -10 -47 -21q-62 -20 -107 -20q-63 0 -146 30.5
t-140 30.5q-47 0 -109 -16zM297 573q21 12 45 21q62 20 109 20q61 0 146 -30.5t140 -30.5q53 0 107 14q5 2 22 8t25 9q-28 94 -104.5 159.5t-192.5 65.5q-119 0 -199 -69t-98 -167z" />
    <glyph glyph-name="uni0474" unicode="&#x474;" horiz-adv-x="1443" 
d="M584 0l-553 1434h235l441 -1147l297 839q62 178 141 253t207 75q48 0 102 -16q14 -6 41 -15l-51 -204l-21 4q-42 6 -51 6q-53 0 -85.5 -31t-57.5 -102l-400 -1096h-245z" />
    <glyph glyph-name="uni0475" unicode="&#x475;" horiz-adv-x="1105" 
d="M410 0l-390 983h226l276 -727l185 502q52 141 115 198.5t171 57.5q54 0 107 -17l37 -14l-62 -184l-14 4q-24 6 -37 6q-36 0 -60 -20.5t-42 -61.5l-287 -727h-225z" />
    <glyph glyph-name="uni048A" unicode="&#x48a;" horiz-adv-x="1628" 
d="M205 0v1434h225v-1055l789 1055h204v-1219h215v-31l-215 -491h-174l103 307h-154v1055l-788 -1055h-205zM512 1905h154q0 -62 41 -103t102 -41t102 41t41 103h154q0 -124 -83.5 -205.5t-213.5 -81.5t-213.5 81.5t-83.5 205.5z" />
    <glyph glyph-name="uni048B" unicode="&#x48b;" horiz-adv-x="1208" 
d="M143 0v983h205v-655l512 655h184v-788h185v-29l-185 -412h-153l82 246h-133v655l-512 -655h-185zM297 1446h154q0 -62 40.5 -102.5t102.5 -40.5t102.5 40.5t40.5 102.5h154q0 -124 -83.5 -205.5t-213.5 -81.5t-213.5 81.5t-83.5 205.5z" />
    <glyph glyph-name="uni048C" unicode="&#x48c;" horiz-adv-x="1433" 
d="M287 0v1075h-287v195h287v164h225v-164h389v-195h-389v-194h348q212 0 346.5 -126.5t134.5 -314.5q0 -187 -134.5 -313.5t-346.5 -126.5h-573zM512 205h348q115 0 185.5 66.5t70.5 168.5t-70.5 169t-185.5 67h-348v-471z" />
    <glyph glyph-name="uni048D" unicode="&#x48d;" horiz-adv-x="1126" 
d="M246 0v829h-246v185h246v420h205v-420h307v-185h-307v-153h225q175 0 277 -94.5t102 -243.5t-102 -243.5t-277 -94.5h-430zM451 184h225q84 0 129 41.5t45 112.5t-45 112.5t-129 41.5h-225v-308z" />
    <glyph glyph-name="uni048E" unicode="&#x48e;" horiz-adv-x="1351" 
d="M205 0v1434h573q207 0 344.5 -133.5t137.5 -327.5q0 -162 -103 -289q-50 -57 -102 -90l112 -164l-163 -113l-134 205l-26 -6q-32 -4 -66 -4h-348v-512h-225zM430 717h307l-82 123l164 112l123 -184q25 22 45 55q47 72 47 150q0 107 -74.5 181.5t-181.5 74.5h-348v-512z
" />
    <glyph glyph-name="uni048F" unicode="&#x48f;" horiz-adv-x="1228" 
d="M143 -430v1413h205v-143q27 42 80 82q110 82 258 82q122 0 227.5 -65t169.5 -183.5t64 -263.5q0 -155 -78 -287q-34 -58 -76 -103l113 -163l-143 -93l-113 164q-8 -3 -24 -8t-23 -8q-54 -14 -117 -14q-149 0 -258 81q-53 40 -80 82v-573h-205zM727 184l-113 164l144 92
l112 -164q23 35 35 62q37 80 37 154q0 138 -86 227.5t-211 89.5t-211 -89.5t-86 -227.5t86 -228t211 -90q32 0 60 4z" />
    <glyph glyph-name="uni0490" unicode="&#x490;" horiz-adv-x="1167" 
d="M205 0v1434h706v286h215v-501h-696v-1219h-225z" />
    <glyph glyph-name="uni0491" unicode="&#x491;" horiz-adv-x="880" 
d="M143 0v983h502v246h195v-441h-492v-788h-205z" />
    <glyph glyph-name="uni0492" unicode="&#x492;" horiz-adv-x="1198" 
d="M236 0v604h-195v215h195v615h921v-215h-696v-400h389v-215h-389v-604h-225z" />
    <glyph glyph-name="uni0493" unicode="&#x493;" horiz-adv-x="890" 
d="M154 0v369h-154v184h154v430h696v-195h-492v-235h277v-184h-277v-369h-204z" />
    <glyph glyph-name="uni0494" unicode="&#x494;" horiz-adv-x="1361" 
d="M205 0v1434h921v-215h-696v-492q36 25 86 45q112 47 242 47q239 0 380.5 -145.5t141.5 -397.5q0 -260 -155 -416.5t-408 -156.5v215q155 0 246.5 95t91.5 263q0 153 -85 240.5t-233 87.5q-137 0 -231 -57q-43 -22 -76 -55v-492h-225z" />
    <glyph glyph-name="uni0495" unicode="&#x495;" horiz-adv-x="1044" 
d="M522 -440v194q120 0 188 78t68 229q0 127 -66.5 202t-168.5 75q-76 0 -144 -37q-29 -16 -51 -35v-266h-205v983h697v-195h-492v-317q30 19 58 31q84 30 157 30q180 0 300 -130.5t120 -340.5q0 -235 -124.5 -368t-336.5 -133z" />
    <glyph glyph-name="uni0496" unicode="&#x496;" horiz-adv-x="2037" 
d="M0 0l594 840l-553 594h287l563 -605v605h225v-605l563 605h287l-553 -594l451 -635h194v-512h-225v307h-102l-471 676l-144 -154v-522h-225v522l-143 154l-472 -676h-276z" />
    <glyph glyph-name="uni0497" unicode="&#x497;" horiz-adv-x="1566" 
d="M0 0l410 584l-379 399h256l368 -399v399h205v-399l369 399h256l-379 -399l276 -389h185v-441h-205v246h-82l-307 440l-113 -123v-317h-205v317l-112 123l-307 -440h-236z" />
    <glyph glyph-name="uni0498" unicode="&#x498;" horiz-adv-x="1218" 
d="M461 -301v291q-179 28 -318 123q-63 45 -102 92l154 153q39 -51 94 -88q126 -86 284 -86q147 0 232.5 69t85.5 167q0 91 -86 158t-232 67h-184v215h184q124 0 195.5 57.5t71.5 139.5q0 80 -71 136t-196 56q-135 0 -249 -78q-47 -31 -88 -75l-154 153q47 52 127 103
q168 102 364 102q230 0 361 -109t131 -270q0 -147 -113 -248q-51 -42 -112 -69q73 -26 137 -74q139 -106 139 -274q0 -162 -119 -278.5t-311 -141.5v-291h-225z" />
    <glyph glyph-name="uni0499" unicode="&#x499;" horiz-adv-x="901" 
d="M338 -246v236q-132 18 -232 94q-47 35 -75 70l133 133q29 -33 72 -62q92 -61 194 -61q83 0 128.5 38t45.5 95q0 51 -46 87t-128 36h-133v184h123q73 0 113 30.5t40 72.5q0 50 -39 81t-114 31q-95 0 -172 -43q-29 -14 -64 -41l-133 133q44 40 92 68q130 68 277 68
q169 0 268.5 -82.5t99.5 -194.5q0 -44 -16 -82.5t-37 -60.5t-47 -39.5t-40 -24t-23 -8.5q1 0 14 -5t29 -13t37.5 -20.5t40.5 -31t36 -41.5t27 -55.5t10 -69.5q0 -106 -76 -183.5t-200 -102.5v-236h-205z" />
    <glyph glyph-name="uni049A" unicode="&#x49a;" horiz-adv-x="1433" 
d="M205 0v1434h225v-697l645 697h287l-553 -594l451 -635h194v-512h-225v307h-103l-471 676l-225 -246v-430h-225z" />
    <glyph glyph-name="uni049B" unicode="&#x49b;" horiz-adv-x="1105" 
d="M143 0v983h205v-451l420 451h256l-379 -399l277 -389h184v-441h-205v246h-82l-307 440l-164 -174v-266h-205z" />
    <glyph glyph-name="uni049C" unicode="&#x49c;" horiz-adv-x="1443" 
d="M205 0v1434h225v-605h92v267h185v-267h61l389 605h256l-461 -707l512 -727h-256l-440 625h-61v-267h-185v267h-92v-625h-225z" />
    <glyph glyph-name="uni049D" unicode="&#x49d;" horiz-adv-x="1146" 
d="M143 0v983h205v-399h72v204h164v-204h30l246 399h225l-297 -481l338 -502h-235l-266 399h-41v-194h-164v194h-72v-399h-205z" />
    <glyph glyph-name="uni049E" unicode="&#x49e;" horiz-adv-x="1443" 
d="M246 0v1106h-246v184h246v144h225v-144h246v-184h-246v-369l645 697h287l-553 -594l594 -840h-277l-471 676l-225 -246v-430h-225z" />
    <glyph glyph-name="uni049F" unicode="&#x49f;" horiz-adv-x="1085" 
d="M174 0v1096h-174v184h174v154h205v-154h266v-184h-266v-564l420 451h256l-379 -399l409 -584h-235l-307 440l-164 -174v-266h-205z" />
    <glyph glyph-name="uni04A0" unicode="&#x4a0;" horiz-adv-x="1546" 
d="M348 0v1219h-348v215h573v-697l646 697h286l-553 -594l594 -840h-276l-471 676l-226 -246v-430h-225z" />
    <glyph glyph-name="uni04A1" unicode="&#x4a1;" horiz-adv-x="1116" 
d="M205 0v788h-205v195h410v-451l419 451h256l-378 -399l409 -584h-235l-308 440l-163 -174v-266h-205z" />
    <glyph glyph-name="uni04A2" unicode="&#x4a2;" horiz-adv-x="1587" 
d="M205 0v1434h225v-605h707v605h225v-1219h174v-522h-225v307h-174v625h-707v-625h-225z" />
    <glyph glyph-name="uni04A3" unicode="&#x4a3;" horiz-adv-x="1218" 
d="M143 0v983h205v-389h481v389h205v-788h144v-441h-205v246h-144v410h-481v-410h-205z" />
    <glyph glyph-name="uni04A4" unicode="&#x4a4;" horiz-adv-x="2027" 
d="M205 0v1434h225v-605h676v605h881v-215h-656v-1219h-225v625h-676v-625h-225z" />
    <glyph glyph-name="uni04A5" unicode="&#x4a5;" horiz-adv-x="1505" 
d="M143 0v983h205v-389h461v389h655v-195h-450v-788h-205v410h-461v-410h-205z" />
    <glyph glyph-name="uni04A6" unicode="&#x4a6;" horiz-adv-x="2283" 
d="M205 0v1434h1147v-707q36 25 86 45q112 47 241 47q239 0 381 -145.5t142 -397.5q0 -260 -155.5 -416.5t-408.5 -156.5v215q155 0 246.5 95t91.5 263q0 154 -84.5 241t-232.5 87q-138 0 -232 -57q-41 -21 -75 -55v-492h-226v1219h-696v-1219h-225z" />
    <glyph glyph-name="uni04A7" unicode="&#x4a7;" horiz-adv-x="1720" 
d="M143 0v983h881v-512q33 20 57 31q84 30 158 30q180 0 300 -130.5t120 -340.5q0 -235 -124.5 -368t-336.5 -133v194q120 0 188 78t68 229q0 127 -66.5 202t-168.5 75q-76 0 -144 -37q-29 -16 -51 -35v-266h-205v788h-471v-788h-205z" />
    <glyph glyph-name="uni04A8" unicode="&#x4a8;" horiz-adv-x="1771" 
d="M1649 256l102 -164q-33 -33 -82 -57q-98 -55 -266 -55q-122 0 -203 24q-24 5 -74 27q-52 -21 -84 -27q-94 -24 -213 -24q-156 0 -290.5 55t-230.5 151.5t-151 233.5t-55 297q0 159 51.5 296t139.5 231.5t205.5 152t249.5 67.5v-194q-83 -9 -158 -50t-134 -109.5
t-93.5 -170.5t-34.5 -223q0 -112 41 -213.5t108.5 -173t157 -114t184.5 -42.5q27 0 55 4l17 6q-73 58 -129 144q-127 194 -127 450q0 131 39 241.5t106 185t156.5 116t189.5 41.5t190 -41.5t157 -116t106 -185t39 -241.5q0 -265 -139 -450q-61 -86 -138 -144l17 -6
q28 -4 55 -4q108 0 178 41q36 19 58 41zM1126 256q76 45 134 115q133 165 133 407q0 181 -77 280t-190 99t-189.5 -99t-76.5 -280q0 -247 133 -407q62 -75 133 -115z" />
    <glyph glyph-name="uni04A9" unicode="&#x4a9;" horiz-adv-x="1351" 
d="M1270 246l112 -133q-39 -46 -77 -68q-100 -65 -230 -65q-102 0 -184 20q-42 10 -62 20q-19 -10 -59 -20q-78 -20 -166 -20q-146 0 -266 68t-188 188t-68 266q0 135 63.5 250t163.5 182.5t213 79.5v-174q-94 -19 -164.5 -109.5t-70.5 -228.5q0 -160 91.5 -255.5
t246.5 -103.5q-44 44 -72 99q-72 122 -72 290q0 174 99 282t249 108t249.5 -108t99.5 -282q0 -154 -72 -290q-39 -66 -72 -99q102 7 178 56q36 22 58 47zM829 195q36 31 72 79q72 113 72 248q0 102 -42.5 158.5t-101.5 56.5t-101 -56t-42 -159q0 -146 72 -248q27 -41 71 -79
z" />
    <glyph glyph-name="uni04AA" unicode="&#x4aa;" horiz-adv-x="1525" 
d="M727 -307v297q-123 18 -234.5 80.5t-195.5 156t-134 221.5t-50 269q0 152 58.5 288t158.5 234.5t241 156.5t299 58q250 0 439 -139q87 -65 145 -137l-143 -144q-46 61 -109 107q-145 108 -332 108q-146 0 -268.5 -70.5t-193 -193t-70.5 -268.5t70.5 -268.5t193 -193.5
t268.5 -71q185 0 336 113q71 52 115 113l143 -144q-52 -70 -129 -129q-165 -128 -383 -157v-287h-225z" />
    <glyph glyph-name="uni04AB" unicode="&#x4ab;" horiz-adv-x="1064" 
d="M481 -246v236q-169 38 -284 174.5t-115 327.5q0 215 148.5 363.5t363.5 148.5q172 0 309 -99q63 -47 101 -96l-144 -133q-28 39 -67 65q-97 68 -199 68q-132 0 -219.5 -89.5t-87.5 -227.5t88 -228t219 -90q116 0 203 72q34 25 73 71l144 -133q-31 -42 -84 -82
q-105 -82 -244 -112v-236h-205z" />
    <glyph glyph-name="uni04AC" unicode="&#x4ac;" horiz-adv-x="1167" 
d="M645 -307v307h-174v1219h-430v215h1085v-215h-430v-1004h174v-522h-225z" />
    <glyph glyph-name="uni04AD" unicode="&#x4ad;" horiz-adv-x="962" 
d="M522 -246v246h-143v788h-338v195h881v-195h-338v-593h143v-441h-205z" />
    <glyph glyph-name="uni04AE" unicode="&#x4ae;" horiz-adv-x="1331" 
d="M553 0v512l-543 922h256l400 -697l399 697h256l-543 -922v-512h-225z" />
    <glyph glyph-name="uni04AF" unicode="&#x4af;" horiz-adv-x="1044" 
d="M420 -430v420l-400 993h226l276 -727l277 727h225l-399 -993v-420h-205z" />
    <glyph glyph-name="uni04B0" unicode="&#x4b0;" horiz-adv-x="1331" 
d="M553 0v358h-328v205h297l-512 871h256l400 -697l399 697h256l-512 -871h297v-205h-328v-358h-225z" />
    <glyph glyph-name="uni04B1" unicode="&#x4b1;" horiz-adv-x="1044" 
d="M420 -430v246h-225v184h225l-400 983h226l276 -727l277 727h225l-399 -983h225v-184h-225v-246h-205z" />
    <glyph glyph-name="uni04B2" unicode="&#x4b2;" horiz-adv-x="1361" 
d="M20 0l512 748l-471 686h267l348 -523l348 523h266l-471 -686l369 -543h194v-512h-225v307h-92l-389 584l-389 -584h-267z" />
    <glyph glyph-name="uni04B3" unicode="&#x4b3;" horiz-adv-x="1054" 
d="M20 0l369 512l-338 471h236l225 -317l225 317h236l-338 -471l235 -317h185v-441h-205v246h-82l-256 358l-256 -358h-236z" />
    <glyph glyph-name="uni04B4" unicode="&#x4b4;" horiz-adv-x="1832" 
d="M471 0v1219h-430v215h1034v-215h-379v-1004h686v1219h226v-1219h174v-522h-226v307h-1085z" />
    <glyph glyph-name="uni04B5" unicode="&#x4b5;" horiz-adv-x="1443" 
d="M379 0v788h-338v195h809v-195h-266v-593h460v788h205v-788h144v-441h-205v246h-809z" />
    <glyph glyph-name="uni04B6" unicode="&#x4b6;" horiz-adv-x="1505" 
d="M1229 -307v307h-174v573q-60 -35 -105 -51q-125 -51 -264 -51q-234 0 -368 139.5t-134 393.5v430h226v-430q0 -148 84.5 -233t232.5 -85q124 0 238 62q46 24 90 61v625h225v-1219h174v-522h-225z" />
    <glyph glyph-name="uni04B7" unicode="&#x4b7;" horiz-adv-x="1146" 
d="M901 -246v246h-143v358q-39 -24 -72 -36q-91 -35 -194 -35q-163 0 -266 110t-103 299v287h205v-287q0 -99 55.5 -157t148.5 -58q90 0 166 35q35 15 60 37v430h205v-788h143v-441h-205z" />
    <glyph glyph-name="uni04B8" unicode="&#x4b8;" horiz-adv-x="1484" 
d="M645 256v215q-214 18 -337.5 155t-123.5 378v430h226v-430q0 -133 64.5 -211.5t170.5 -96.5v256h195v-256q76 16 157 68q22 13 58 45v625h225v-1434h-225v573q-28 -21 -58 -34q-99 -46 -157 -58v-225h-195z" />
    <glyph glyph-name="uni04B9" unicode="&#x4b9;" horiz-adv-x="1105" 
d="M481 143v144q-157 0 -257.5 110.5t-100.5 298.5v287h205v-287q0 -87 43 -141.5t110 -73.5v185h164v-164q42 12 84 33l29 18v430h205v-983h-205v358l-29 -18q-42 -21 -84 -33v-164h-164z" />
    <glyph glyph-name="uni04BA" unicode="&#x4ba;" horiz-adv-x="1464" 
d="M205 0v1434h225v-574q60 35 105 51q137 52 264 52q234 0 367.5 -139.5t133.5 -393.5v-430h-225v430q0 148 -84.5 233t-232.5 85q-124 0 -238 -62q-46 -24 -90 -61v-625h-225z" />
    <glyph glyph-name="uni04BB" unicode="&#x4bb;" horiz-adv-x="1198" 
d="M154 0v1434h204v-594q28 43 76 82q102 82 232 82q172 0 280.5 -116.5t108.5 -314.5v-573h-205v573q0 108 -62 172t-163 64q-116 0 -191.5 -77.5t-75.5 -199.5v-532h-204z" />
    <glyph glyph-name="uni04BC" unicode="&#x4bc;" horiz-adv-x="1853" 
d="M358 666h-20q-165 0 -251.5 72.5t-86.5 193.5q0 43 10 76q2 10 10 26h185l-6 -18q-4 -28 -4 -43q0 -56 33.5 -84.5t109.5 -28.5h31q22 127 81 235.5t146.5 188.5t208.5 125t260 45q148 0 278.5 -55t225 -151t149 -234t54.5 -297v-51h-1188q17 -211 155.5 -346.5
t345.5 -135.5q183 0 328 92q69 43 113 93l143 -144q-66 -72 -149 -123q-190 -122 -435 -122q-152 0 -284 52.5t-226 144.5t-151 218t-66 271zM604 860h922q-18 153 -150 271t-311 118t-311 -118t-150 -271z" />
    <glyph glyph-name="uni04BD" unicode="&#x4bd;" horiz-adv-x="1331" 
d="M10 717h144v-31q0 -48 26 -70t86 -22h10q38 175 172 292.5t320 117.5q209 0 345 -136.5t136 -345.5q0 -19 -6 -73l-4 -29h-758q18 -104 102 -175t205 -71q111 0 209 66q44 28 78 67l123 -143q-39 -50 -102 -92q-141 -92 -318 -92q-201 0 -341.5 125.5t-170.5 314.5
q-128 0 -197 61.5t-69 163.5q0 23 4 51zM481 594h553q-24 103 -92.5 164t-173.5 61q-112 0 -183.5 -60t-103.5 -165z" />
    <glyph glyph-name="uni04BE" unicode="&#x4be;" horiz-adv-x="1853" 
d="M963 -307v297q-119 15 -226 71t-188 143t-132 206.5t-59 255.5h-20q-165 0 -251.5 72.5t-86.5 193.5q0 43 10 76q2 10 10 26h185l-6 -18q-4 -28 -4 -43q0 -56 33.5 -84.5t109.5 -28.5h31q22 127 81 235.5t146.5 188.5t208.5 125t260 45q148 0 278.5 -55t225 -151
t149 -234t54.5 -297v-51h-1188q17 -211 155.5 -346.5t345.5 -135.5q183 0 328 92q69 43 113 93l143 -144q-51 -57 -121 -106q-162 -111 -360 -129v-297h-225zM604 860h922q-18 153 -150 271t-311 118t-311 -118t-150 -271z" />
    <glyph glyph-name="uni04BF" unicode="&#x4bf;" horiz-adv-x="1331" 
d="M655 -246v236q-151 39 -255 151t-134 279q-128 0 -197 61.5t-69 163.5q0 23 4 51l6 21h144v-31q0 -48 26 -70t86 -22h10q38 175 172 292.5t320 117.5q209 0 345 -136.5t136 -345.5q0 -19 -6 -73l-4 -29h-758q18 -104 102 -175t205 -71q111 0 209 66q44 28 78 67l123 -143
q-33 -41 -84 -80q-114 -82 -254 -94v-236h-205zM481 594h553q-24 103 -92.5 164t-173.5 61q-112 0 -183.5 -60t-103.5 -165z" />
    <glyph glyph-name="uni04C0" unicode="&#x4c0;" horiz-adv-x="634" 
d="M205 0v1434h225v-1434h-225z" />
    <glyph glyph-name="uni04C1" unicode="&#x4c1;" horiz-adv-x="2007" 
d="M0 0l594 840l-553 594h287l563 -605v605h225v-605l563 605h287l-553 -594l594 -840h-276l-471 676l-144 -154v-522h-225v522l-143 154l-472 -676h-276zM707 1905h153q0 -61 41 -102.5t103 -41.5q61 0 102 41t41 103h153q0 -124 -83 -205.5t-213 -81.5t-213.5 81.5
t-83.5 205.5z" />
    <glyph glyph-name="uni04C2" unicode="&#x4c2;" horiz-adv-x="1515" 
d="M0 0l410 584l-379 399h256l368 -399v399h205v-399l369 399h256l-379 -399l410 -584h-236l-307 440l-113 -123v-317h-205v317l-112 123l-307 -440h-236zM461 1434h153q0 -62 41 -103t103 -41q61 0 102 41t41 103h154q0 -124 -83.5 -205.5t-213.5 -81.5t-213.5 81.5
t-83.5 205.5z" />
    <glyph glyph-name="uni04C3" unicode="&#x4c3;" horiz-adv-x="1464" 
d="M205 0v1434h225v-697l643 697h289l-563 -605h41q257 0 399.5 -154.5t142.5 -449.5q0 -154 -44 -280.5t-121.5 -210t-184.5 -129t-233 -45.5v215q154 0 251 117.5t97 332.5q0 195 -86.5 297.5t-231.5 102.5q-70 0 -128 -16t-107.5 -50t-82.5 -65t-81 -84v-410h-225z" />
    <glyph glyph-name="uni04C4" unicode="&#x4c4;" horiz-adv-x="1105" 
d="M584 -440v194q120 0 188 78t68 229t-68 229.5t-188 78.5q-87 0 -172 -52q-30 -17 -64 -51v-266h-205v983h205v-451l420 451h256l-399 -420q198 -18 308.5 -143.5t110.5 -358.5q0 -245 -120.5 -373t-339.5 -128z" />
    <glyph glyph-name="uni04C5" unicode="&#x4c5;" horiz-adv-x="1536" 
d="M-10 10v205q19 -8 33 -10q38 -10 79 -10q44 0 78.5 17.5t69 70t57 139.5t37 235t14.5 347v430h973v-1219h215v-31l-215 -491h-174l103 307h-154v1219h-522v-215q0 -246 -22 -428.5t-59 -295.5t-94.5 -181t-120.5 -93.5t-145 -25.5q-63 0 -110 14z" />
    <glyph glyph-name="uni04C6" unicode="&#x4c6;" horiz-adv-x="1167" 
d="M-10 0v195l24 -7q28 -4 47 -4q37 0 63 11t50.5 43t39.5 87.5t23.5 148.5t8.5 222v287h758v-788h184v-29l-184 -412h-154l82 246h-133v788h-348v-92q0 -168 -17 -294t-45.5 -205.5t-72.5 -129t-92.5 -68.5t-110.5 -19q-46 0 -88 10q-16 2 -35 10z" />
    <glyph glyph-name="uni04C7" unicode="&#x4c7;" horiz-adv-x="1566" 
d="M205 0v1434h225v-605h707v605h225v-1536q0 -167 -77.5 -252.5t-219.5 -85.5q-71 0 -125 14q-4 1 -22.5 6.5t-26.5 9.5v205l33 -16q35 -15 80 -15q63 0 98 39t35 115v707h-707v-625h-225z" />
    <glyph glyph-name="uni04C8" unicode="&#x4c8;" horiz-adv-x="1177" 
d="M143 0v983h205v-389h481v389h205v-1108q0 -151 -76.5 -233t-209.5 -82q-59 0 -103 14q-6 2 -20 7.5t-21 8.5v195q14 -7 29 -10q37 -11 74 -11q122 0 122 134v512h-481v-410h-205z" />
    <glyph glyph-name="uni04C9" unicode="&#x4c9;" horiz-adv-x="1566" 
d="M205 0v1434h225v-605h707v605h225v-1219h215v-31l-215 -491h-174l102 307h-153v625h-707v-625h-225z" />
    <glyph glyph-name="uni04CA" unicode="&#x4ca;" horiz-adv-x="1198" 
d="M143 0v983h205v-389h481v389h205v-788h185v-29l-185 -412h-153l82 246h-134v410h-481v-410h-205z" />
    <glyph glyph-name="uni04CB" unicode="&#x4cb;" horiz-adv-x="1484" 
d="M881 -307v522h174v358q-60 -35 -105 -51q-125 -51 -264 -51q-234 0 -368 139.5t-134 393.5v430h226v-430q0 -148 84.5 -233t232.5 -85q124 0 238 62q46 24 90 61v625h225v-1434h-174v-307h-225z" />
    <glyph glyph-name="uni04CC" unicode="&#x4cc;" horiz-adv-x="1105" 
d="M614 -246v441h144v163q-39 -24 -72 -36q-91 -35 -194 -35q-163 0 -266 110t-103 299v287h205v-287q0 -99 55.5 -157t148.5 -58q90 0 166 35q35 15 60 37v430h205v-983h-144v-246h-205z" />
    <glyph glyph-name="uni04CD" unicode="&#x4cd;" horiz-adv-x="1904" 
d="M205 0v1434h205l542 -697l543 697h205v-1219h215v-31l-215 -491h-174l102 307h-153v1055l-523 -666l-522 666v-1055h-225z" />
    <glyph glyph-name="uni04CE" unicode="&#x4ce;" horiz-adv-x="1351" 
d="M143 0v983h174l349 -430l348 430h174v-788h184v-29l-184 -412h-154l82 246h-133v655l-317 -389l-318 389v-655h-205z" />
    <glyph glyph-name="uni04CF" unicode="&#x4cf;" horiz-adv-x="512" 
d="M154 0v1434h204v-1434h-204z" />
    <glyph glyph-name="uni04D0" unicode="&#x4d0;" horiz-adv-x="1433" 
d="M20 0l574 1434h246l573 -1434h-235l-144 369h-635l-143 -369h-236zM481 573h471l-235 594zM420 1905h153q0 -61 41.5 -102.5t102.5 -41.5t102 41t41 103h154q0 -124 -83.5 -205.5t-213.5 -81.5t-213.5 81.5t-83.5 205.5z" />
    <glyph glyph-name="uni04D1" unicode="&#x4d1;" horiz-adv-x="1064" 
d="M717 0v143q-26 -40 -78 -82q-109 -81 -240 -81q-144 0 -235.5 83.5t-91.5 202.5q0 122 77 202.5t209 104.5l359 62q0 79 -57 131.5t-148 52.5t-186 -67q-37 -25 -70 -66l-133 133q40 52 98 92q131 93 291 93q182 0 296 -108t114 -271v-625h-205zM717 440v31l-287 -51
q-76 -13 -115 -48.5t-39 -84.5q0 -56 44.5 -94.5t119.5 -38.5q116 0 196.5 82t80.5 204zM246 1434h153q0 -62 41.5 -103t102.5 -41t102 41t41 103h154q0 -124 -83.5 -205.5t-213.5 -81.5t-213.5 81.5t-83.5 205.5z" />
    <glyph glyph-name="uni04D2" unicode="&#x4d2;" horiz-adv-x="1433" 
d="M20 0l574 1434h246l573 -1434h-235l-144 369h-635l-143 -369h-236zM481 573h471l-235 594zM389 1741q0 52 37 87.5t86 35.5t86 -35.5t37 -87.5t-37 -87.5t-86 -35.5t-86 35.5t-37 87.5zM799 1741q0 52 37 87.5t86 35.5t85.5 -35t36.5 -88t-36.5 -88t-85.5 -35t-86 35.5
t-37 87.5z" />
    <glyph glyph-name="uni04D3" unicode="&#x4d3;" horiz-adv-x="1064" 
d="M717 0v143q-26 -40 -78 -82q-109 -81 -240 -81q-144 0 -235.5 83.5t-91.5 202.5q0 122 77 202.5t209 104.5l359 62q0 79 -57 131.5t-148 52.5t-186 -67q-37 -25 -70 -66l-133 133q40 52 98 92q131 93 291 93q182 0 296 -108t114 -271v-625h-205zM717 440v31l-287 -51
q-76 -13 -115 -48.5t-39 -84.5q0 -56 44.5 -94.5t119.5 -38.5q116 0 196.5 82t80.5 204zM215 1290q0 52 37 87.5t86 35.5t86 -35.5t37 -87.5t-37 -87.5t-86 -35.5t-86 35.5t-37 87.5zM625 1290q0 52 37 87.5t86 35.5t85.5 -35t36.5 -88t-36.5 -88t-85.5 -35t-86 35.5
t-37 87.5z" />
    <glyph glyph-name="uni04D6" unicode="&#x4d6;" horiz-adv-x="1331" 
d="M205 0v1434h1014v-215h-789v-369h625v-215h-625v-420h809v-215h-1034zM430 1905h154q0 -62 41 -103t102 -41t102 41t41 103h154q0 -124 -83.5 -205.5t-213.5 -81.5t-213.5 81.5t-83.5 205.5z" />
    <glyph glyph-name="uni04D7" unicode="&#x4d7;" horiz-adv-x="1146" 
d="M891 307l123 -143q-38 -49 -103 -92q-141 -92 -317 -92q-215 0 -363.5 148.5t-148.5 363.5q0 141 67.5 259t183 185.5t251.5 67.5q209 0 345 -136.5t136 -345.5q0 -19 -6 -73l-4 -29h-758q18 -104 102 -175t205 -71q111 0 209 66q44 28 78 67zM297 594h553
q-24 103 -92.5 164t-173.5 61q-112 0 -183.5 -60t-103.5 -165zM287 1434h153q0 -62 41 -103t103 -41q61 0 102 41t41 103h154q0 -124 -83.5 -205.5t-213.5 -81.5t-213.5 81.5t-83.5 205.5z" />
    <glyph glyph-name="uni04D8" unicode="&#x4d8;" horiz-adv-x="1628" 
d="M102 717v51h1188q-17 211 -156 346t-346 135q-182 0 -327 -92q-71 -45 -113 -92l-143 143q66 72 149 123q191 123 434 123q208 0 374 -93.5t260 -262t94 -381.5q0 -159 -54.5 -297t-149 -234t-225 -151t-278.5 -55t-278.5 55t-225 151t-149 234t-54.5 297zM1270 573h-922
q18 -153 150 -271t311 -118t311 118t150 271z" />
    <glyph glyph-name="uni04D9" unicode="&#x4d9;" horiz-adv-x="1146" 
d="M92 563h758q-18 104 -102 175t-205 71q-108 0 -209 -68q-42 -26 -78 -65l-123 143q38 49 103 92q142 93 317 93q215 0 363.5 -148.5t148.5 -363.5q0 -141 -67.5 -259t-183 -185.5t-251.5 -67.5q-209 0 -345 136t-136 345q0 38 4 74zM850 389h-553q24 -103 92.5 -164
t173.5 -61q112 0 183.5 60t103.5 165z" />
    <glyph glyph-name="uni04DA" unicode="&#x4da;" horiz-adv-x="1628" 
d="M102 717v51h1188q-17 211 -156 346t-346 135q-182 0 -327 -92q-71 -45 -113 -92l-143 143q66 72 149 123q191 123 434 123q208 0 374 -93.5t260 -262t94 -381.5q0 -159 -54.5 -297t-149 -234t-225 -151t-278.5 -55t-278.5 55t-225 151t-149 234t-54.5 297zM1270 573h-922
q18 -153 150 -271t311 -118t311 118t150 271zM502 1741q0 52 37 87.5t86 35.5t86 -35.5t37 -87.5t-37 -87.5t-86 -35.5t-86 35.5t-37 87.5zM911 1741q0 52 37 87.5t86 35.5t86 -35.5t37 -87.5t-37 -87.5t-86 -35.5t-86 35.5t-37 87.5z" />
    <glyph glyph-name="uni04DB" unicode="&#x4db;" horiz-adv-x="1146" 
d="M92 563h758q-18 104 -102 175t-205 71q-108 0 -209 -68q-42 -26 -78 -65l-123 143q38 49 103 92q142 93 317 93q215 0 363.5 -148.5t148.5 -363.5q0 -141 -67.5 -259t-183 -185.5t-251.5 -67.5q-209 0 -345 136t-136 345q0 38 4 74zM850 389h-553q24 -103 92.5 -164
t173.5 -61q112 0 183.5 60t103.5 165zM246 1290q0 52 37 87.5t86 35.5t86 -35.5t37 -87.5t-37 -87.5t-86 -35.5t-86 35.5t-37 87.5zM655 1290q0 52 37 87.5t86 35.5t86 -35.5t37 -87.5t-37 -87.5t-86 -35.5t-86 35.5t-37 87.5z" />
    <glyph glyph-name="uni04DC" unicode="&#x4dc;" horiz-adv-x="2007" 
d="M0 0l594 840l-553 594h287l563 -605v605h225v-605l563 605h287l-553 -594l594 -840h-276l-471 676l-144 -154v-522h-225v522l-143 154l-472 -676h-276zM676 1741q0 52 37 87.5t86 35.5t86 -35.5t37 -87.5t-37 -87.5t-86 -35.5t-86 35.5t-37 87.5zM1085 1741q0 52 37 87.5
t86 35.5t86 -35.5t37 -87.5t-37 -87.5t-86 -35.5t-86 35.5t-37 87.5z" />
    <glyph glyph-name="uni04DD" unicode="&#x4dd;" horiz-adv-x="1515" 
d="M0 0l410 584l-379 399h256l368 -399v399h205v-399l369 399h256l-379 -399l410 -584h-236l-307 440l-113 -123v-317h-205v317l-112 123l-307 -440h-236zM430 1290q0 52 37 87.5t86 35.5t86 -35.5t37 -87.5t-37 -87.5t-86 -35.5t-86 35.5t-37 87.5zM840 1290q0 52 37 87.5
t86 35.5t85.5 -35t36.5 -88t-36.5 -88t-85.5 -35t-86 35.5t-37 87.5z" />
    <glyph glyph-name="uni04DE" unicode="&#x4de;" horiz-adv-x="1218" 
d="M41 205l154 153q39 -51 94 -88q126 -86 284 -86q147 0 232.5 69t85.5 167q0 91 -86 158t-232 67h-184v215h184q124 0 195.5 57.5t71.5 139.5q0 80 -71 136t-196 56q-135 0 -249 -78q-47 -31 -88 -75l-154 153q47 52 127 103q168 102 364 102q230 0 361 -109t131 -270
q0 -147 -113 -248q-51 -42 -112 -69q73 -26 137 -74q139 -106 139 -274q0 -84 -38 -161.5t-106 -137t-172 -95.5t-227 -36q-228 0 -401 112q-82 53 -131 113zM266 1741q0 52 37 87.5t86 35.5t86 -35.5t37 -87.5t-37 -87.5t-86 -35.5t-86 35.5t-37 87.5zM676 1741
q0 52 37 87.5t86 35.5t86 -35.5t37 -87.5t-37 -87.5t-86 -35.5t-86 35.5t-37 87.5z" />
    <glyph glyph-name="uni04DF" unicode="&#x4df;" horiz-adv-x="901" 
d="M31 154l133 133q29 -33 72 -62q92 -61 194 -61q83 0 128.5 38t45.5 95q0 51 -46 87t-128 36h-133v184h123q73 0 113 30.5t40 72.5q0 50 -39 81t-114 31q-95 0 -172 -43q-29 -14 -64 -41l-133 133q44 40 92 68q130 68 277 68q169 0 268.5 -82.5t99.5 -194.5
q0 -105 -81 -170q-47 -34 -82 -45q50 -17 96 -49q98 -78 98 -187q0 -122 -106 -209t-283 -87q-167 0 -299 86q-64 41 -100 88zM123 1290q0 52 37 87.5t86 35.5t86 -35.5t37 -87.5t-37 -87.5t-86 -35.5t-86 35.5t-37 87.5zM532 1290q0 52 37 87.5t86 35.5t86 -35.5t37 -87.5
t-37 -87.5t-86 -35.5t-86 35.5t-37 87.5z" />
    <glyph glyph-name="uni04E0" unicode="&#x4e0;" horiz-adv-x="1208" 
d="M41 205l154 153q39 -51 94 -88q126 -86 284 -86q148 0 233 71t85 175t-85 175t-233 71h-256v153l451 390h-645v215h942v-215l-410 -349q205 -7 338 -133.5t133 -306.5q0 -191 -150 -320.5t-403 -129.5q-228 0 -401 112q-82 53 -131 113z" />
    <glyph glyph-name="uni04E1" unicode="&#x4e1;" horiz-adv-x="1003" 
d="M10 -246l133 144q35 -42 78 -68q98 -66 209 -66q135 0 211 66.5t76 169.5t-76 169.5t-211 66.5h-194v153l378 399h-542v195h798v-184l-348 -369q194 -31 302 -142t108 -288q0 -188 -133.5 -309t-358.5 -121q-182 0 -323 92q-64 40 -107 92z" />
    <glyph glyph-name="uni04E2" unicode="&#x4e2;" horiz-adv-x="1628" 
d="M205 0v1434h225v-1055l789 1055h204v-1434h-225v1055l-788 -1055h-205zM502 1690v143h614v-143h-614z" />
    <glyph glyph-name="uni04E3" unicode="&#x4e3;" 
d="M143 0v983h205v-655l512 655h184v-983h-204v655l-512 -655h-185zM287 1239v143h614v-143h-614z" />
    <glyph glyph-name="uni04E4" unicode="&#x4e4;" horiz-adv-x="1628" 
d="M205 0v1434h225v-1055l789 1055h204v-1434h-225v1055l-788 -1055h-205zM481 1741q0 52 37 87.5t86 35.5t86 -35.5t37 -87.5t-37 -87.5t-86 -35.5t-86 35.5t-37 87.5zM891 1741q0 52 37 87.5t86 35.5t86 -35.5t37 -87.5t-37 -87.5t-86 -35.5t-86 35.5t-37 87.5z" />
    <glyph glyph-name="uni04E5" unicode="&#x4e5;" 
d="M143 0v983h205v-655l512 655h184v-983h-204v655l-512 -655h-185zM266 1290q0 52 37 87.5t86 35.5t86 -35.5t37 -87.5t-37 -87.5t-86 -35.5t-86 35.5t-37 87.5zM676 1290q0 52 37 87.5t86 35.5t86 -35.5t37 -87.5t-37 -87.5t-86 -35.5t-86 35.5t-37 87.5z" />
    <glyph glyph-name="uni04E6" unicode="&#x4e6;" horiz-adv-x="1740" 
d="M338 717q0 -146 70.5 -268.5t193 -193.5t268.5 -71t268.5 71t193.5 193.5t71 268.5t-71 268.5t-193.5 193t-268.5 70.5t-268.5 -70.5t-193 -193t-70.5 -268.5zM113 717q0 152 58.5 288t158.5 234.5t241 156.5t299 58t299 -58t241.5 -156.5t159 -235t58.5 -287.5
t-58.5 -287.5t-159 -235t-241.5 -156.5t-299 -58t-299 58t-241 156.5t-158.5 234.5t-58.5 288zM543 1751q0 52 37 87.5t86 35.5t85.5 -35t36.5 -88t-36.5 -88t-85.5 -35t-86 35.5t-37 87.5zM952 1751q0 52 37 87.5t86 35.5t86 -35.5t37 -87.5t-37 -87.5t-86 -35.5t-86 35.5
t-37 87.5z" />
    <glyph glyph-name="uni04E7" unicode="&#x4e7;" 
d="M82 492q0 215 148.5 363.5t363.5 148.5t363.5 -148.5t148.5 -363.5t-148.5 -363.5t-363.5 -148.5t-363.5 148.5t-148.5 363.5zM594 174q131 0 219 90t88 228t-87.5 227.5t-219.5 89.5t-219.5 -89.5t-87.5 -227.5t88 -228t219 -90zM266 1290q0 52 37 87.5t86 35.5
t86 -35.5t37 -87.5t-37 -87.5t-86 -35.5t-86 35.5t-37 87.5zM676 1290q0 52 37 87.5t86 35.5t86 -35.5t37 -87.5t-37 -87.5t-86 -35.5t-86 35.5t-37 87.5z" />
    <glyph glyph-name="uni04E8" unicode="&#x4e8;" horiz-adv-x="1740" 
d="M348 819h1045q-16 84 -61 161t-111.5 137.5t-158 96t-192.5 35.5q-132 0 -246.5 -61.5t-185 -158.5t-90.5 -210zM113 717q0 152 58.5 288t158.5 234.5t241 156.5t299 58t299 -58t241.5 -156.5t159 -235t58.5 -287.5t-58.5 -287.5t-159 -235t-241.5 -156.5t-299 -58
t-299 58t-241 156.5t-158.5 234.5t-58.5 288zM1393 614h-1045q20 -113 90.5 -210t185 -158.5t246.5 -61.5q101 0 192.5 35.5t158 96t111.5 137.5t61 161z" />
    <glyph glyph-name="uni04E9" unicode="&#x4e9;" 
d="M891 399h-594q28 -94 104.5 -159.5t192.5 -65.5t192.5 65.5t104.5 159.5zM82 492q0 215 148.5 363.5t363.5 148.5t363.5 -148.5t148.5 -363.5t-148.5 -363.5t-363.5 -148.5t-363.5 148.5t-148.5 363.5zM297 584h594q-28 94 -104.5 159.5t-192.5 65.5t-192.5 -65.5
t-104.5 -159.5z" />
    <glyph glyph-name="uni04EA" unicode="&#x4ea;" horiz-adv-x="1740" 
d="M348 819h1045q-16 84 -61 161t-111.5 137.5t-158 96t-192.5 35.5q-132 0 -246.5 -61.5t-185 -158.5t-90.5 -210zM113 717q0 152 58.5 288t158.5 234.5t241 156.5t299 58t299 -58t241.5 -156.5t159 -235t58.5 -287.5t-58.5 -287.5t-159 -235t-241.5 -156.5t-299 -58
t-299 58t-241 156.5t-158.5 234.5t-58.5 288zM1393 614h-1045q20 -113 90.5 -210t185 -158.5t246.5 -61.5q101 0 192.5 35.5t158 96t111.5 137.5t61 161zM543 1741q0 52 37 87.5t86 35.5t85.5 -35t36.5 -88t-36.5 -88t-85.5 -35t-86 35.5t-37 87.5zM952 1741q0 52 37 87.5
t86 35.5t86 -35.5t37 -87.5t-37 -87.5t-86 -35.5t-86 35.5t-37 87.5z" />
    <glyph glyph-name="uni04EB" unicode="&#x4eb;" 
d="M891 399h-594q28 -94 104.5 -159.5t192.5 -65.5t192.5 65.5t104.5 159.5zM82 492q0 215 148.5 363.5t363.5 148.5t363.5 -148.5t148.5 -363.5t-148.5 -363.5t-363.5 -148.5t-363.5 148.5t-148.5 363.5zM297 584h594q-28 94 -104.5 159.5t-192.5 65.5t-192.5 -65.5
t-104.5 -159.5zM266 1290q0 52 37 87.5t86 35.5t86 -35.5t37 -87.5t-37 -87.5t-86 -35.5t-86 35.5t-37 87.5zM676 1290q0 52 37 87.5t86 35.5t86 -35.5t37 -87.5t-37 -87.5t-86 -35.5t-86 35.5t-37 87.5z" />
    <glyph glyph-name="uni04EC" unicode="&#x4ec;" horiz-adv-x="1515" 
d="M51 266l144 144q45 -62 114 -113q151 -113 336 -113q210 0 349 124.5t173 316.5h-706v204h706q-39 177 -181 298.5t-341 121.5q-187 0 -332 -108q-61 -44 -108 -107l-144 144q54 71 146 137q185 139 438 139q158 0 299 -58t241.5 -156.5t159 -235t58.5 -287.5
t-58.5 -287.5t-159 -235t-241.5 -156.5t-299 -58q-243 0 -442 143q-88 64 -152 143zM399 1741q0 52 37 87.5t86 35.5t86 -35.5t37 -87.5t-37 -87.5t-86 -35.5t-86 35.5t-37 87.5zM809 1741q0 52 37 87.5t86 35.5t86 -35.5t37 -87.5t-37 -87.5t-86 -35.5t-86 35.5t-37 87.5z
" />
    <glyph glyph-name="uni04ED" unicode="&#x4ed;" horiz-adv-x="1044" 
d="M31 184l143 133q37 -44 74 -71q87 -72 203 -72q159 0 243 123q40 55 54 123h-451v174h440q-19 61 -55 106q-85 109 -231 109q-102 0 -199 -68q-41 -27 -68 -65l-143 133q39 51 100 96q137 99 310 99q215 0 363.5 -148.5t148.5 -363.5t-148.5 -363.5t-363.5 -148.5
q-170 0 -314 102q-62 47 -106 102zM164 1290q0 52 37 87.5t86 35.5t86 -35.5t37 -87.5t-37 -87.5t-86 -35.5t-86 35.5t-37 87.5zM573 1290q0 52 37 87.5t86 35.5t86 -35.5t37 -87.5t-37 -87.5t-86 -35.5t-86 35.5t-37 87.5z" />
    <glyph glyph-name="uni04EE" unicode="&#x4ee;" horiz-adv-x="1280" 
d="M143 10v205q19 -8 35 -10q42 -10 88 -10q100 0 160.5 46t105.5 138l31 61l-543 994h236l420 -768l358 768h236l-533 -1117q-83 -171 -184.5 -254t-255.5 -83q-64 0 -111 14zM338 1690v143h614v-143h-614z" />
    <glyph glyph-name="uni04EF" unicode="&#x4ef;" horiz-adv-x="1044" 
d="M82 -399v194q6 -4 35 -16q43 -15 88 -15q120 0 174 134l41 102l-400 983h226l276 -727l277 727h225l-430 -1096q-63 -158 -150 -237.5t-208 -79.5q-64 0 -111 14zM215 1239v143h614v-143h-614z" />
    <glyph glyph-name="uni04F0" unicode="&#x4f0;" horiz-adv-x="1280" 
d="M143 10v205q19 -8 35 -10q42 -10 88 -10q100 0 160.5 46t105.5 138l31 61l-543 994h236l420 -768l358 768h236l-533 -1117q-83 -171 -184.5 -254t-255.5 -83q-64 0 -111 14zM317 1741q0 52 37 87.5t86 35.5t86 -35.5t37 -87.5t-37 -87.5t-86 -35.5t-86 35.5t-37 87.5z
M727 1741q0 52 37 87.5t86 35.5t86 -35.5t37 -87.5t-37 -87.5t-86 -35.5t-86 35.5t-37 87.5z" />
    <glyph glyph-name="uni04F1" unicode="&#x4f1;" horiz-adv-x="1044" 
d="M82 -399v194q6 -4 35 -16q43 -15 88 -15q120 0 174 134l41 102l-400 983h226l276 -727l277 727h225l-430 -1096q-63 -158 -150 -237.5t-208 -79.5q-64 0 -111 14zM195 1290q0 53 36.5 88t85.5 35t86 -35.5t37 -87.5t-37 -87.5t-86 -35.5t-85.5 35t-36.5 88zM604 1290
q0 52 37 87.5t86 35.5t86 -35.5t37 -87.5t-37 -87.5t-86 -35.5t-86 35.5t-37 87.5z" />
    <glyph glyph-name="uni04F2" unicode="&#x4f2;" horiz-adv-x="1280" 
d="M143 10v205q19 -8 35 -10q42 -10 88 -10q100 0 160.5 46t105.5 138l31 61l-543 994h236l420 -768l358 768h236l-533 -1117q-83 -171 -184.5 -254t-255.5 -83q-64 0 -111 14zM389 1618l154 287h215l-215 -287h-154zM748 1618l153 287h215l-215 -287h-153z" />
    <glyph glyph-name="uni04F3" unicode="&#x4f3;" horiz-adv-x="1044" 
d="M82 -399v194q6 -4 35 -16q43 -15 88 -15q120 0 174 134l41 102l-400 983h226l276 -727l277 727h225l-430 -1096q-63 -158 -150 -237.5t-208 -79.5q-64 0 -111 14zM266 1147l154 287h215l-215 -287h-154zM625 1147l153 287h215l-215 -287h-153z" />
    <glyph glyph-name="uni04F4" unicode="&#x4f4;" horiz-adv-x="1484" 
d="M1055 0v573q-60 -35 -105 -51q-125 -51 -264 -51q-234 0 -368 139.5t-134 393.5v430h226v-430q0 -148 84.5 -233t232.5 -85q124 0 238 62q46 24 90 61v625h225v-1434h-225zM410 1741q0 53 36.5 88t85.5 35t86 -35.5t37 -87.5t-37 -87.5t-86 -35.5t-85.5 35t-36.5 88z
M819 1741q0 52 37 87.5t86 35.5t86 -35.5t37 -87.5t-37 -87.5t-86 -35.5t-86 35.5t-37 87.5z" />
    <glyph glyph-name="uni04F5" unicode="&#x4f5;" horiz-adv-x="1105" 
d="M758 0v358q-39 -24 -72 -36q-91 -35 -194 -35q-163 0 -266 110t-103 299v287h205v-287q0 -99 55.5 -157t148.5 -58q90 0 166 35q35 15 60 37v430h205v-983h-205zM215 1290q0 52 37 87.5t86 35.5t86 -35.5t37 -87.5t-37 -87.5t-86 -35.5t-86 35.5t-37 87.5zM625 1290
q0 52 37 87.5t86 35.5t85.5 -35t36.5 -88t-36.5 -88t-85.5 -35t-86 35.5t-37 87.5z" />
    <glyph glyph-name="uni04F6" unicode="&#x4f6;" horiz-adv-x="1167" 
d="M379 -307v307h-174v1434h921v-215h-696v-1004h174v-522h-225z" />
    <glyph glyph-name="uni04F7" unicode="&#x4f7;" horiz-adv-x="880" 
d="M287 -246v246h-144v983h697v-195h-492v-593h144v-441h-205z" />
    <glyph glyph-name="uni04F8" unicode="&#x4f8;" horiz-adv-x="1873" 
d="M1444 0v1434h225v-1434h-225zM205 0v1434h225v-512h328q207 0 344 -133.5t137 -327.5t-137 -327.5t-344 -133.5h-553zM430 205h328q107 0 181.5 74.5t74.5 181.5t-74.5 181.5t-181.5 74.5h-328v-512zM614 1741q0 52 37 87.5t86 35.5t86 -35.5t37 -87.5t-37 -87.5
t-86 -35.5t-86 35.5t-37 87.5zM1024 1741q0 52 37 87.5t86 35.5t86 -35.5t37 -87.5t-37 -87.5t-86 -35.5t-86 35.5t-37 87.5z" />
    <glyph glyph-name="uni04F9" unicode="&#x4f9;" horiz-adv-x="1423" 
d="M1075 0v983h205v-983h-205zM348 184h205q84 0 129 41.5t45 112.5t-45 112.5t-129 41.5h-205v-308zM143 0v983h205v-307h205q175 0 277 -94.5t102 -243.5t-102 -243.5t-277 -94.5h-410zM379 1290q0 52 37 87.5t86 35.5t86 -35.5t37 -87.5t-37 -87.5t-86 -35.5t-86 35.5
t-37 87.5zM788 1290q0 52 37 87.5t86 35.5t86 -35.5t37 -87.5t-37 -87.5t-86 -35.5t-86 35.5t-37 87.5z" />
    <glyph glyph-name="uni04FA" unicode="&#x4fa;" horiz-adv-x="1198" 
d="M246 -420v184l20 -6q28 -4 51 -4q93 0 93 103v143h-174v604h-195v215h195v615h921v-215h-696v-400h389v-215h-389v-389h174v-379q0 -138 -68.5 -212.5t-187.5 -74.5q-57 0 -98 15q-29 12 -35 16z" />
    <glyph glyph-name="uni04FB" unicode="&#x4fb;" horiz-adv-x="890" 
d="M154 -422v176l14 -6q28 -4 47 -4q82 0 82 92v164h-143v369h-154v184h154v430h696v-195h-492v-235h277v-184h-277v-174h144v-359q0 -135 -61.5 -205.5t-164.5 -70.5q-61 0 -92 8q-15 2 -30 10z" />
    <glyph glyph-name="uni04FC" unicode="&#x4fc;" horiz-adv-x="1351" 
d="M20 0l512 748l-471 686h267l348 -523l348 523h266l-471 -686l359 -523q7 -11 35.5 -51.5t43 -65t35 -66t30 -85t9.5 -90.5q0 -147 -78.5 -227t-218.5 -80q-63 0 -125 20q-29 10 -49 21v194q6 -3 35 -16q43 -15 88 -15q53 0 88 32.5t35 80.5q0 33 -11 65t-21.5 50.5
t-39.5 60t-41 60.5l-317 471l-389 -584h-267z" />
    <glyph glyph-name="uni04FD" unicode="&#x4fd;" horiz-adv-x="1024" 
d="M20 0l369 512l-338 471h236l225 -317l225 317h236l-338 -471l266 -379q38 -53 55 -80t37.5 -86t20.5 -121q0 -130 -78 -208t-209 -78q-52 0 -102 16q-6 2 -20 7.5t-21 8.5v193q15 -7 28 -10q37 -11 74 -11q123 0 123 113q0 43 -18 77.5t-84 127.5l-195 276l-256 -358
h-236z" />
    <glyph glyph-name="uni04FE" unicode="&#x4fe;" horiz-adv-x="1351" 
d="M20 0l451 645h-287v205h287l-410 584h267l348 -523l348 523h266l-409 -584h286v-205h-286l450 -645h-266l-389 584l-389 -584h-267z" />
    <glyph glyph-name="uni04FF" unicode="&#x4ff;" horiz-adv-x="1024" 
d="M20 0l308 420h-174v184h174l-277 379h236l225 -317l225 317h236l-277 -379h174v-184h-174l308 -420h-236l-256 358l-256 -358h-236z" />
    <glyph glyph-name="uni0510" unicode="&#x510;" horiz-adv-x="1177" 
d="M1014 348l153 -153q-56 -65 -125 -109q-162 -106 -376 -106q-130 0 -238.5 35.5t-178.5 96t-108.5 137.5t-38.5 161q0 169 138 274q62 47 139 74q-66 28 -113 69q-112 96 -112 248q0 162 135 270.5t377 108.5q171 0 319 -78q62 -33 111 -76l-154 -153q-48 37 -74 51
q-96 51 -202 51q-139 0 -213 -55.5t-74 -136.5q0 -84 73.5 -140.5t213.5 -56.5h174v-215h-174q-158 0 -248 -67t-90 -158q0 -98 89.5 -167t248.5 -69q148 0 262 82q54 38 86 82z" />
    <glyph glyph-name="uni0511" unicode="&#x511;" horiz-adv-x="870" 
d="M727 287l133 -133q-39 -51 -94 -88q-126 -86 -285 -86q-184 0 -291.5 87t-107.5 209q0 111 96 187q47 33 98 49q-34 11 -81 45q-82 66 -82 170q0 112 99.5 194.5t268.5 82.5q147 0 254 -58q52 -25 84 -57l-133 -133l-57 30q-80 33 -148 33q-73 0 -113 -31.5t-40 -80.5
q0 -42 40 -72.5t113 -30.5h123v-184h-123q-87 0 -135.5 -36t-48.5 -87q0 -57 48 -95t136 -38q96 0 181 61q38 27 65 62z" />
    <glyph glyph-name="uni0512" unicode="&#x512;" horiz-adv-x="1536" 
d="M-10 10v205q19 -8 33 -10q38 -10 79 -10q44 0 78.5 17.5t69 70t57 139.5t37 235t14.5 347v430h973v-1536q0 -167 -77.5 -252.5t-219.5 -85.5q-71 0 -125 14q-4 1 -22.5 6.5t-26.5 9.5v205l33 -16q35 -15 80 -15q63 0 98 39t35 115v1301h-522v-215q0 -246 -22 -428.5
t-59 -295.5t-94.5 -181t-120.5 -93.5t-145 -25.5q-63 0 -110 14z" />
    <glyph glyph-name="uni0513" unicode="&#x513;" horiz-adv-x="1146" 
d="M-10 0v195l24 -7q28 -4 47 -4q37 0 63 11t50.5 43t39.5 87.5t23.5 148.5t8.5 222v287h758v-1108q0 -151 -77 -233t-210 -82q-59 0 -103 14q-6 2 -20 7.5t-21 8.5v195q14 -7 29 -10q37 -11 74 -11q123 0 123 134v890h-348v-92q0 -168 -17 -294t-45.5 -205.5t-72.5 -129
t-92.5 -68.5t-110.5 -19q-46 0 -88 10q-16 2 -35 10z" />
    <glyph glyph-name="Wgrave" unicode="&#x1e80;" horiz-adv-x="2150" 
d="M512 0l-471 1434h235l349 -1076l338 1076h225l338 -1076l348 1076h235l-471 -1434h-225l-338 1075l-338 -1075h-225zM993 1618l-215 287h215l154 -287h-154z" />
    <glyph glyph-name="wgrave" unicode="&#x1e81;" horiz-adv-x="1556" 
d="M369 0l-349 983h226l225 -666l215 666h184l215 -666l226 666h225l-348 -983h-195l-215 655l-215 -655h-194zM696 1147l-215 287h215l154 -287h-154z" />
    <glyph glyph-name="Wacute" unicode="&#x1e82;" horiz-adv-x="2150" 
d="M512 0l-471 1434h235l349 -1076l338 1076h225l338 -1076l348 1076h235l-471 -1434h-225l-338 1075l-338 -1075h-225zM1004 1618l153 287h215l-215 -287h-153z" />
    <glyph glyph-name="wacute" unicode="&#x1e83;" horiz-adv-x="1556" 
d="M369 0l-349 983h226l225 -666l215 666h184l215 -666l226 666h225l-348 -983h-195l-215 655l-215 -655h-194zM707 1147l153 287h215l-215 -287h-153z" />
    <glyph glyph-name="Wdieresis" unicode="&#x1e84;" horiz-adv-x="2150" 
d="M512 0l-471 1434h235l349 -1076l338 1076h225l338 -1076l348 1076h235l-471 -1434h-225l-338 1075l-338 -1075h-225zM748 1741q0 53 36.5 88t85.5 35t86 -35.5t37 -87.5t-37 -87.5t-86 -35.5t-85.5 35t-36.5 88zM1157 1741q0 52 37 87.5t86 35.5t86 -35.5t37 -87.5
t-37 -87.5t-86 -35.5t-86 35.5t-37 87.5z" />
    <glyph glyph-name="wdieresis" unicode="&#x1e85;" horiz-adv-x="1556" 
d="M369 0l-349 983h226l225 -666l215 666h184l215 -666l226 666h225l-348 -983h-195l-215 655l-215 -655h-194zM451 1290q0 53 36.5 88t85.5 35t86 -35.5t37 -87.5t-37 -87.5t-86 -35.5t-85.5 35t-36.5 88zM860 1290q0 52 37 87.5t86 35.5t86 -35.5t37 -87.5t-37 -87.5
t-86 -35.5t-86 35.5t-37 87.5z" />
    <glyph glyph-name="uni1E9E" unicode="&#x1e9e;" horiz-adv-x="1484" 
d="M184 0v975q0 198 132.5 328.5t338.5 130.5h625v-215l-297 -338v-11q180 -25 289.5 -140.5t109.5 -289.5q0 -188 -136 -314t-355 -126h-174v215h174q113 0 184.5 64.5t71.5 160.5q0 93 -71.5 159.5t-184.5 66.5h-174v204l307 349h-369q-108 0 -176.5 -69t-68.5 -175v-975
h-226z" />
    <glyph glyph-name="Ygrave" unicode="&#x1ef2;" horiz-adv-x="1331" 
d="M553 0v512l-543 922h256l400 -697l399 697h256l-543 -922v-512h-225zM594 1618l-215 287h215l154 -287h-154z" />
    <glyph glyph-name="ygrave" unicode="&#x1ef3;" horiz-adv-x="1044" 
d="M82 -399v194q6 -4 35 -16q43 -15 88 -15q120 0 174 134l41 102l-400 983h226l276 -727l277 727h225l-430 -1096q-63 -158 -150 -237.5t-208 -79.5q-64 0 -111 14zM451 1147l-215 287h215l153 -287h-153z" />
    <glyph glyph-name="endash" unicode="&#x2013;" horiz-adv-x="1003" 
d="M72 512v176h860v-176h-860z" />
    <glyph glyph-name="emdash" unicode="&#x2014;" horiz-adv-x="1495" 
d="M72 512v176h1351v-176h-1351z" />
    <glyph glyph-name="quoteleft" unicode="&#x2018;" horiz-adv-x="471" 
d="M41 1065l256 410l133 -72l-205 -440z" />
    <glyph glyph-name="quoteright" unicode="&#x2019;" horiz-adv-x="471" 
d="M41 1034l205 441l184 -103l-256 -409z" />
    <glyph glyph-name="quotesinglbase" unicode="&#x201a;" horiz-adv-x="450" 
d="M-20 -195l204 441l185 -103l-256 -409z" />
    <glyph glyph-name="quotedblleft" unicode="&#x201c;" horiz-adv-x="839" 
d="M410 1065l256 410l133 -72l-205 -440zM41 1065l256 410l133 -72l-205 -440z" />
    <glyph glyph-name="quotedblright" unicode="&#x201d;" horiz-adv-x="839" 
d="M41 1034l205 441l184 -103l-256 -409zM410 1034l204 441l185 -103l-256 -409z" />
    <glyph glyph-name="quotedblbase" unicode="&#x201e;" horiz-adv-x="819" 
d="M-20 -195l204 441l185 -103l-256 -409zM348 -195l205 441l184 -103l-256 -409z" />
    <glyph glyph-name="dagger" unicode="&#x2020;" horiz-adv-x="880" 
d="M348 358v646h-246v163h246v267h184v-267h246v-163h-246v-646h-184z" />
    <glyph glyph-name="daggerdbl" unicode="&#x2021;" horiz-adv-x="880" 
d="M102 604v164h246v256h-246v164h246v246h184v-246h246v-164h-246v-256h246v-164h-246v-246h-184v246h-246z" />
    <glyph glyph-name="bullet" unicode="&#x2022;" horiz-adv-x="942" 
d="M246 492q0 91 66 158t159 67q91 0 158 -67t67 -158q0 -93 -67 -159.5t-158 -66.5q-94 0 -159.5 66t-65.5 160z" />
    <glyph glyph-name="ellipsis" unicode="&#x2026;" horiz-adv-x="1454" 
d="M225 -20q-54 0 -93.5 39.5t-39.5 93.5t39.5 93.5t93.5 39.5t93.5 -39.5t39.5 -93.5t-39.5 -93.5t-93.5 -39.5zM727 -20q-54 0 -93.5 39.5t-39.5 93.5t39.5 93.5t93.5 39.5t93.5 -39.5t39.5 -93.5t-39.5 -93.5t-93.5 -39.5zM1229 -20q-54 0 -93.5 39.5t-39.5 93.5
t39.5 93.5t93.5 39.5t93.5 -39.5t39.5 -93.5t-39.5 -93.5t-93.5 -39.5z" />
    <glyph glyph-name="perthousand" unicode="&#x2030;" horiz-adv-x="2375" 
d="M82 1137q0 130 95.5 223.5t232.5 93.5t232 -93.5t95 -223.5t-95 -224t-232 -94t-232.5 94t-95.5 224zM246 1137q0 -69 47.5 -116.5t116.5 -47.5t116 47.5t47 116.5t-47 116t-116 47t-116.5 -47t-47.5 -116zM266 0l901 1434h185l-901 -1434h-185zM881 297q0 130 95 223.5
t232 93.5t232.5 -93.5t95.5 -223.5t-95.5 -223.5t-232.5 -93.5t-232 93.5t-95 223.5zM1208 133q69 0 116.5 47.5t47.5 116.5t-47.5 116.5t-116.5 47.5t-116.5 -47.5t-47.5 -116.5t47.5 -116.5t116.5 -47.5zM1638 297q0 130 95.5 223.5t232.5 93.5t232.5 -93.5t95.5 -223.5
t-95.5 -223.5t-232.5 -93.5t-232.5 93.5t-95.5 223.5zM1966 133q69 0 116.5 47.5t47.5 116.5t-47.5 116.5t-116.5 47.5t-116.5 -47.5t-47.5 -116.5t47.5 -116.5t116.5 -47.5z" />
    <glyph glyph-name="guilsinglleft" unicode="&#x2039;" horiz-adv-x="624" 
d="M328 143l-246 349l246 348h215l-246 -348l246 -349h-215z" />
    <glyph glyph-name="guilsinglright" unicode="&#x203a;" horiz-adv-x="624" 
d="M82 143l246 349l-246 348h215l246 -348l-246 -349h-215z" />
    <glyph glyph-name="uni203D" unicode="&#x203d;" horiz-adv-x="1095" 
d="M399 481l-30 717q-65 -37 -97 -96q-17 -30 -26 -58l-185 72q26 90 91 168q146 170 391 170q104 0 193.5 -32t149.5 -85.5t94 -124t34 -147.5q0 -79 -22 -143.5t-57.5 -107.5t-78 -80.5t-85 -71t-78 -69t-57.5 -85t-22 -109.5v-10h-204l-7 27q-4 32 -4 65zM604 1239
l-20 -461q100 58 152 121.5t52 144.5q0 77 -48.5 127.5t-135.5 67.5zM379 113q0 54 39.5 93.5t93.5 39.5t93.5 -39.5t39.5 -93.5t-39.5 -93.5t-93.5 -39.5t-93.5 39.5t-39.5 93.5z" />
    <glyph glyph-name="fraction" unicode="&#x2044;" horiz-adv-x="358" 
d="M-358 0l890 1434h185l-891 -1434h-184z" />
    <glyph glyph-name="uni2070" unicode="&#x2070;" horiz-adv-x="716" 
d="M358 1044q66 0 115 62.5t49 173.5t-49 173.5t-115 62.5t-114.5 -62.5t-48.5 -173.5t48.5 -173.5t114.5 -62.5zM358 911q-127 0 -217 102.5t-90 266.5t90 266.5t217 102.5t217.5 -102.5t90.5 -266.5t-90.5 -266.5t-217.5 -102.5z" />
    <glyph glyph-name="uni2074" unicode="&#x2074;" horiz-adv-x="624" 
d="M10 1065v143l318 430h164v-430h81v-143h-81v-143h-144v143h-338zM164 1208h184v246z" />
    <glyph glyph-name="uni2075" unicode="&#x2075;" horiz-adv-x="604" 
d="M20 1024l93 92q24 -24 45 -37q60 -35 129 -35q60 0 96.5 32.5t36.5 80.5t-36.5 80.5t-96.5 32.5q-44 0 -92 -21q-22 -11 -31 -20h-103l41 409h420v-131h-293l-14 -141l25 12q40 15 77 15q99 0 172.5 -71.5t73.5 -164.5q0 -102 -78 -174t-198 -72q-125 0 -203 56
q-39 25 -64 57z" />
    <glyph glyph-name="uni2076" unicode="&#x2076;" horiz-adv-x="634" 
d="M102 1341l215 297h154l-164 -225q137 0 212 -67.5t75 -178.5q0 -109 -78 -182.5t-199 -73.5t-198.5 73.5t-77.5 182.5q0 57 31 121q14 32 30 53zM184 1167q0 -55 36 -89t97 -34t97.5 34t36.5 89t-36.5 89t-97.5 34t-97 -34t-36 -89z" />
    <glyph glyph-name="uni2077" unicode="&#x2077;" horiz-adv-x="573" 
d="M123 922l266 573h-348v143h502v-143l-267 -573h-153z" />
    <glyph glyph-name="uni2078" unicode="&#x2078;" horiz-adv-x="614" 
d="M307 1516q-102 0 -102 -84q0 -80 102 -80q103 0 103 80q0 84 -103 84zM307 1229q-66 0 -99.5 -25.5t-33.5 -66.5t33.5 -67t99.5 -26t99.5 26t33.5 67t-33.5 66.5t-99.5 25.5zM307 1649q113 0 179.5 -56.5t66.5 -138.5q0 -68 -47 -119q-25 -25 -45 -35q33 -15 61 -36
q62 -54 62 -142q0 -86 -76 -148.5t-201 -62.5t-200.5 62.5t-75.5 148.5q0 89 61 142q26 21 62 36q-23 10 -48 35q-45 49 -45 119q0 82 66.5 138.5t179.5 56.5z" />
    <glyph glyph-name="uni2079" unicode="&#x2079;" horiz-adv-x="634" 
d="M164 922l164 225q-137 0 -212 67.5t-75 178.5q0 109 77.5 182.5t198.5 73.5t199 -73.5t78 -182.5q0 -48 -31 -121l-31 -53l-215 -297h-153zM184 1393q0 -55 36 -89t97 -34t97.5 34t36.5 89t-36.5 89t-97.5 34t-97 -34t-36 -89z" />
    <glyph glyph-name="uni2080" unicode="&#x2080;" horiz-adv-x="716" 
d="M358 -82q66 0 115 62.5t49 173.5t-48.5 173t-115.5 62q-66 0 -114.5 -62t-48.5 -173t48.5 -173.5t114.5 -62.5zM358 -215q-127 0 -217 102.5t-90 266.5t90 266t217 102t217.5 -102t90.5 -266t-90.5 -266.5t-217.5 -102.5z" />
    <glyph glyph-name="uni2081" unicode="&#x2081;" horiz-adv-x="481" 
d="M215 -205v512h-133v113q64 0 110 29t54 63h112v-717h-143z" />
    <glyph glyph-name="uni2082" unicode="&#x2082;" horiz-adv-x="624" 
d="M61 -205v21q0 62 19 114.5t50 88.5t68 66.5t74.5 55t68.5 47.5t50 50.5t19 58.5q0 39 -28.5 65.5t-74.5 26.5q-45 0 -92 -47q-20 -24 -31 -45l-123 41q12 54 45 92q69 92 201 92q115 0 180.5 -61.5t65.5 -163.5q0 -55 -23.5 -100.5t-62 -78.5t-79.5 -59.5t-84.5 -58
t-67.5 -61.5h317v-144h-492z" />
    <glyph glyph-name="uni2083" unicode="&#x2083;" horiz-adv-x="634" 
d="M20 -102l93 92q24 -24 45 -37q60 -35 129 -35q66 0 99.5 25.5t33.5 66.5t-33.5 66.5t-99.5 25.5h-82v134h82q52 0 77 19t25 52q0 82 -102 82q-56 0 -111 -37q-13 -9 -43 -35l-92 93q26 33 61 55q75 57 185 57q114 0 179.5 -58t65.5 -147q0 -70 -40 -110q-16 -19 -41 -33
q30 -15 55 -37q57 -50 57 -137q0 -90 -75 -152.5t-201 -62.5q-127 0 -203 55q-37 24 -64 58z" />
    <glyph glyph-name="uni2084" unicode="&#x2084;" horiz-adv-x="624" 
d="M10 -61v143l318 430h164v-430h81v-143h-81v-144h-144v144h-338zM164 82h184v246z" />
    </font>
</defs>
</svg>
