<?xml version="1.0" encoding="UTF-8"?>
<svg xmlns="http://www.w3.org/2000/svg" width="366.83" height="45.757" version="1.1" viewBox="0 0 366.83 45.757">
  <defs>
    <style>
      .cls-1 {
        fill: #fff;
        fill-rule: evenodd;
      }
    </style>
  </defs>
  <!-- Generator: Adobe Illustrator 28.7.1, SVG Export Plug-In . SVG Version: 1.2.0 Build 142)  -->
  <g>
    <g id="Layer_1">
      <path class="cls-1" d="M366.864,33.116s-3.533,1.359-5.696,1.992c-16.015,4.68-44.628.844-70.868-5.618-18.392-4.528-35.619-10.347-46.52-15.439,1.609-1.165,2.894-2.463,3.731-3.754,1.065-1.643,1.407-3.279.82-4.63-.354-.816-1.047-1.533-2.139-2.086-1.587-.804-4.034-1.264-7.514-1.175h-.01c-2.213.176-3.86.494-4.993.93-1.115.429-1.745.984-1.959,1.617-.166.489-.092,1.034.221,1.624.292.553.798,1.151,1.502,1.784,1.882,1.693,5.207,3.656,9.618,5.748-1.242.84-2.658,1.598-4.197,2.216-5.678,2.278-13.028,2.638-19.44-1.877-7.886-5.553-14.676-3.119-24.598,2.219-22.955,12.348-62.833,40.203-172.967,18.788-6.12-1.19-12.46-1.465-21.885-1.321.015.12.032.24.044.361,9.358-.141,15.675.136,21.77,1.322,110.292,21.446,150.225-6.46,173.213-18.826,9.768-5.254,16.447-7.709,24.211-2.241,6.527,4.596,14.009,4.236,19.789,1.917,1.639-.658,3.14-1.473,4.445-2.377,10.923,5.127,28.256,10.999,46.77,15.558,26.31,6.479,55.002,10.306,71.059,5.614,2.175-.636,5.576-1.903,5.576-1.903l.018-.442ZM243.399,13.871c-4.459-2.105-7.82-4.081-9.714-5.785-.634-.57-1.101-1.108-1.383-1.61-.263-.468-.363-.9-.269-1.294.113-.478.505-.887,1.181-1.239,1.089-.566,2.887-.964,5.479-1.169,2.833-.073,4.967.22,6.497.776,1.488.54,2.395,1.324,2.803,2.262.544,1.253.195,2.762-.792,4.283-.844,1.303-2.156,2.611-3.802,3.776Z"/>
    </g>
  </g>
</svg>