<?xml version="1.0" encoding="UTF-8"?>
<svg xmlns="http://www.w3.org/2000/svg" width="440" height="317.027" version="1.1" viewBox="0 0 440 317.027">
  <!-- Generator: Adobe Illustrator 28.7.1, SVG Export Plug-In . SVG Version: 1.2.0 Build 142)  -->
  <g>
    <g id="Layer_1">
      <path d="M288.813,17.332c-19.129-6.179-42.998-9.818-68.813-9.818s-49.684,3.64-68.898,9.818c-50.954,16.42-85.996,50.362-85.996,89.72,0,55.355,69.321,100.131,154.809,100.131s154.809-44.86,154.809-100.131c.085-39.274-34.872-73.299-85.911-89.72M220,164.185c-12.781,0-23.192-25.054-23.784-56.625,7.702.677,15.659,1.1,23.784,1.1s16.082-.339,23.784-1.1c-.592,31.571-11.003,56.625-23.784,56.625M197.824,82.844c3.47-22.091,12.104-37.835,22.176-37.835s18.706,15.659,22.176,37.835c-7.11.677-14.558,1.016-22.176,1.016-7.702,0-15.066-.339-22.176-1.016M255.719,81.236c-5.163-34.703-19.214-59.672-35.719-59.672s-30.555,24.885-35.719,59.672c-31.487-4.909-53.409-16.082-53.409-29.117,0-17.521,39.951-31.74,89.212-31.74s89.127,14.22,89.127,31.74c0,13.035-22.007,24.207-53.493,29.117M87.79,103.412c0-16.928,6.517-32.841,17.944-46.553-.169.931-.169,1.947-.169,2.878,0,21.33,32.079,39.443,76.685,46.129,0,1.608-.085,3.216-.085,4.825,0,39.697,11.003,73.299,26.239,84.811-67.628-4.063-120.614-43.675-120.614-92.09M231.68,195.587c15.235-11.596,26.239-45.198,26.239-84.811,0-1.608,0-3.216-.085-4.825,44.691-6.687,76.685-24.8,76.685-46.129,0-.931-.085-1.947-.169-2.878,11.342,13.712,17.944,29.54,17.944,46.553-.085,48.33-53.07,87.942-120.614,92.09M70.439,250.688h-22.176v56.625h-15.659v-56.625H10.428v-13.289h60.095v13.289h-.085ZM111.067,235.368c-20.483,0-37.073,16.59-37.073,37.073s16.59,37.073,37.073,37.073,37.073-16.59,37.073-37.073-16.59-37.073-37.073-37.073M129.265,283.613c-2.37,6.094-7.872,10.749-14.558,11.85-1.185.169-2.37.339-3.64.339s-2.455-.085-3.64-.339c-6.602-1.185-12.104-5.756-14.558-11.85-1.354-3.47-2.116-7.279-2.116-11.257s.762-7.787,2.116-11.257c2.37-6.094,7.872-10.749,14.558-11.85,1.185-.254,2.37-.339,3.64-.339s2.455.085,3.64.339c6.602,1.185,12.104,5.756,14.558,11.85,1.354,3.47,2.116,7.279,2.116,11.257s-.762,7.787-2.116,11.257M148.393,237.399h18.536l17.267,30.048,17.351-30.048h18.536l-27.932,44.098v25.9h-15.743v-25.9l-28.016-44.098ZM220.339,272.356c0-20.483,16.59-37.073,37.073-37.073s37.073,16.59,37.073,37.073-16.59,37.073-37.073,37.073c-20.483.085-37.073-16.59-37.073-37.073M257.411,295.802c1.27,0,2.455-.085,3.64-.339,6.602-1.185,12.104-5.756,14.558-11.85,1.354-3.47,2.116-7.279,2.116-11.257s-.762-7.702-2.116-11.257c-2.37-6.094-7.872-10.749-14.558-11.85-1.185-.169-2.37-.339-3.64-.339s-2.455.085-3.64.339c-6.602,1.185-12.104,5.756-14.474,11.85-1.354,3.47-2.116,7.279-2.116,11.257s.762,7.787,2.116,11.257c2.37,6.094,7.872,10.749,14.474,11.85,1.185.254,2.37.339,3.64.339M406.38,291.908h-29.794l-5.756,15.405h-17.521l28.355-69.914h19.552l28.355,69.914h-17.436l-5.756-15.405h0ZM401.809,279.72l-10.326-27.593-10.326,27.593h20.652ZM357.965,250.688h-22.176v56.625h-15.743v-56.625h-22.176v-13.289h60.095v13.289Z"/>
    </g>
  </g>
</svg>