<?xml version="1.0" encoding="UTF-8"?>
<svg xmlns="http://www.w3.org/2000/svg" width="495.753" height="92.675" version="1.1" viewBox="0 0 495.753 92.675">
  <defs>
    <style>
      .cls-1 {
        fill: #fff;
      }
    </style>
  </defs>
  <!-- Generator: Adobe Illustrator 28.7.1, SVG Export Plug-In . SVG Version: 1.2.0 Build 142)  -->
  <g>
    <g id="Layer_1">
      <path class="cls-1" d="M494.731,3.456c-.499-.599-1.198-.798-2.296-.699h0c-1.996.798-3.094,3.294-4.092,5.589l-.2.499c-2.096,4.591-3.693,8.684-4.991,12.975-.299.898-.499,1.797-.798,2.595-.898,3.194-1.797,6.288-3.593,8.284-.1-1.697-1.098-3.194-2.595-3.992-1.697-.898-3.693-.798-5.39.399-2.994,1.797-4.791,4.691-6.488,7.486-.399.599-.798,1.298-1.198,1.896-.1.1-10.48,13.674-15.67,15.87-.599-.998-.898-2.495-.898-4.392,0-7.785,2.395-14.972,4.591-21.06,2.994-8.384,5.689-13.375,7.186-16.369,1.298-2.495,1.896-3.693,1.697-4.591-.1-.399-.399-.699-.998-.998-1.797-.898-3.493,1.896-4.392,3.194-3.094,4.991-5.49,11.279-7.087,15.57l-.1.399c-2.196,6.088-5.39,15.371-5.39,24.454,0,1.896.399,6.588,3.493,7.985,3.793,1.797,7.785-2.895,11.378-6.987.998-1.098,1.896-2.196,2.795-3.094-.499,3.194.299,6.687,3.294,7.286h.2c1.198.1,4.292.2,10.78-7.785.499-.599.898-1.198,1.298-1.896.299-.499.699-.998.998-1.397.299.1.898.2,1.298.1-.1.499-.1.998-.2,1.597-.699,4.791-1.697,11.378,2.395,12.676h.2c1.697,0,2.595-.898,2.695-2.495,0-.798-.399-1.098-.798-1.298-.299-.2-.499-.299-.599-.599-.1-7.186,1.397-13.474,2.895-19.563.399-1.497.699-2.994,1.098-4.591,2.096-3.593,3.793-7.586,5.589-11.478l.499-1.198.1-.2c.798-1.996,1.697-4.392,2.495-6.687l.1-.399c.699-1.697,1.996-5.49.699-7.087ZM474.569,39.288l-.499.798c-2.695,4.092-5.49,8.284-9.781,10.879-.2-3.893,1.397-7.586,2.994-10.68,1.996-3.893,4.192-6.488,6.687-7.785.699,1.098.699,2.994.599,4.791,0,.699,0,1.397,0,1.996ZM386.137,24.716c1.996,2.495-2.395,17.367-2.395,17.567-1.797,5.989-4.891,13.574-8.983,15.071-1.397.499-2.795.299-4.192-.699h0c-3.294-3.893-3.394-10.979-3.394-17.966-2.296,2.595-4.392,5.689-6.388,8.584-4.292,6.088-7.985,11.478-11.877,11.478h-.399v-.1h-.1c-.399-.1-1.497-.499-2.096-2.695h0v-.1c.1-2.695.299-8.284,8.584-25.851.2-.499.399-.998.699-1.597,1.098-2.495,2.395-5.589,4.192-5.889.699-.1,1.298.1,1.896.499.399.299.699.798.699,1.298.1,1.198-.699,2.196-1.397,3.194-.599.798-1.098,1.497-1.198,2.296,0,.2,0,.499.1.699.2.798.499,1.797-1.597,2.595l-.299.798c-2.495,5.789-5.09,11.778-6.787,18.665,3.094-3.194,5.889-7.186,8.584-11.079,1.298-1.797,2.495-3.693,3.893-5.39.2-.2.299-.499.499-.699,1.198-1.697,2.695-3.693,5.09-3.793,1.397.1,2.395,1.397,2.595,3.493.2,1.797.2,3.893.2,6.088,0,4.691,0,9.582,1.697,11.977,2.296-1.996,3.493-5.29,4.691-8.384.299-.898.699-1.797,1.098-2.695l.599-1.896c1.098-3.693,2.196-7.486,2.994-11.478-.599-.499-.898-1.198-.798-1.996.2-1.198,1.198-2.495,2.296-2.695.299-.2.998.1,1.497.699ZM439.136,27.112c-1.797-.798-3.693-.1-4.691.399-4.891,2.495-8.584,8.484-11.478,13.375-.399.599-.699,1.098-.998,1.697.299-1.298.699-2.495,1.098-3.793.299-1.098.699-2.296.998-3.493.1-.499.299-1.198.599-1.797.699-1.896,1.597-4.192.399-5.589-1.198-1.298-2.395-.299-3.394.399-.299.299-.599.499-.898.699-4.092,2.296-9.282,3.593-16.369,4.192-.898-2.795-2.096-4.392-3.693-5.09-1.896-.499-3.793.399-5.889,3.094-3.394,4.192-6.987,11.977-6.987,18.265,0,3.693,1.597,5.989,4.192,6.188,2.395.1,5.29-1.597,7.685-4.691,2.695-3.493,4.491-8.284,5.19-13.674,6.088-.699,10.979-2.196,15.371-3.793-1.098,3.294-2.096,6.687-3.094,10.68-.1.2-.1.499-.2.699-.699,2.795-1.996,7.885-.599,10.181.299.599.798.898,1.497.998.2.1.499.1.699.1,2.096,0,3.094-2.296,4.691-5.989.998-2.196,2.096-4.891,3.893-7.985.299-.499.599-.998.898-1.497,2.495-4.092,5.09-8.284,9.682-10.38.499.299.699.898.898,1.497.299.798.699,1.797,1.797,1.797s1.497-.599,1.597-1.098c.299-1.697-1.697-4.791-2.895-5.39ZM400.609,37.492c-1.298,7.186-3.793,11.478-8.085,13.574-.798-5.29,1.397-9.582,3.394-13.375.299-.599.599-1.198.898-1.797.998.898,2.395,1.298,3.793,1.597ZM320.96,30.006c-3.992.399-6.388,2.495-8.783,4.591-.699.599-1.397,1.198-2.096,1.797.2-.399.299-.898.499-1.298.599-1.597,1.298-3.194.798-4.292-.2-.499-.599-.798-1.198-1.098-.499-.2-.898-.2-1.397,0-1.298.599-1.996,2.695-2.595,4.591-.299.798-.499,1.597-.798,2.096-2.695,1.797-5.19,3.793-7.586,5.689-.499.399-.898.798-1.397,1.098-.399.299-.798.599-1.098.898-2.495,1.996-5.09,4.092-8.284,5.19-.1-3.893.898-7.386,1.697-10.281.898-3.294,1.597-5.789.2-6.987-.499-.399-1.098-.599-1.697-.499-1.896.299-3.693,3.294-4.192,4.292-.1.1-.1.2-.1.2-2.895,4.292-6.088,9.083-9.881,12.975l-.299.299c-.499.599-1.098,1.198-1.797,1.397.2-5.49,2.296-10.68,3.893-14.772,1.697-4.392,2.994-7.486.998-8.484-1.298-.699-3.593.699-6.488,2.395-3.294,1.896-7.286,4.292-10.979,4.292-1.098-1.797-2.395-3.593-4.591-3.992-3.194-.599-5.589,2.096-7.486,4.192-.599.699-1.198,1.298-1.697,1.797-.699.599-1.298,1.098-1.996,1.697-1.697,1.397-3.493,2.895-5.29,4.292-2.395,1.797-4.791,3.693-7.087,5.589s-4.791,3.793-7.087,5.49c.299-.599.499-1.198.798-1.697,4.392-9.582,8.883-19.563,5.39-21.559-1.697-.998-4.292.699-7.386,4.991-1.298,1.397-2.595,2.795-3.793,4.192-3.893,4.491-7.985,9.183-13.674,12.077.2-4.292,1.697-7.785,3.194-11.179.499-1.198,1.098-2.395,1.497-3.593,1.497-.1,1.597-.998,1.597-1.996,0-.399,0-.798.1-1.198.1-.399.299-.699.499-.998.299-.499.599-.998.399-1.697-.299-1.098-1.098-1.697-2.296-1.797-.699.1-1.198.399-1.597.898-.399.399-7.985,13.874-7.785,21.16.1,2.595,1.198,4.292,3.294,4.891,2.895.2,4.891-1.397,6.687-2.695l.399-.299c5.39-4.092,9.682-8.983,14.273-14.173-.499,1.797-2.395,6.987-8.284,18.465-.898.599-1.797,1.298-2.595,1.896-7.286,5.29-14.872,10.68-20.361,18.265-2.196,2.994-6.787,10.281-3.194,14.173.798.798,1.697,1.298,2.895,1.298h.499c5.589-.599,14.273-11.079,25.152-30.243,6.887-5.989,14.772-12.876,22.557-18.764-.699,1.896-2.096,6.388-.699,9.582.599,1.497,1.797,2.595,3.394,3.194h.1c3.793.2,6.388-1.896,8.184-3.693,3.294-3.294,5.789-8.584,6.787-14.373,4.392-.499,7.785-2.595,10.78-4.292.699-.399,1.298-.798,1.896-1.098-.299.798-.699,1.597-1.098,2.495-1.996,4.392-4.392,9.881-3.893,15.371.1,1.298.499,3.094,1.797,3.992.898.599,1.996.798,3.394.499,3.394-.798,7.386-6.488,10.181-10.281.499-.699.998-1.397,1.397-1.896-.599,3.294-1.098,7.586.998,9.582,3.094,2.196,5.889,0,8.184-1.697l.399-.299c1.996-1.497,4.092-3.294,6.088-4.991,1.797-1.497,3.493-2.895,4.991-4.092-.699,2.495-1.397,4.491-1.996,6.188-1.198,3.394-1.896,5.19,0,6.088.399.2.798.2,1.298.2,1.198-.1,1.497-.898,2.196-2.395.798-1.896,1.996-4.991,5.889-9.881.299-.299.599-.599.898-.998,1.198-1.198,2.495-2.595,4.192-3.992.2-.2.399-.299.599-.499,1.597-1.397,3.693-3.194,5.789-2.895.399.1.798.299,1.098.599.699.599,1.497,1.198,2.695.299h0c.399-.499.399-1.198,0-1.896-1.298-1.298-3.693-2.595-5.989-2.396ZM253.987,38.59c-.699,4.691-2.695,8.783-5.589,11.478-1.298,1.298-2.595,1.996-3.893,2.196-1.298-6.188,4.092-13.375,6.088-15.77.599.898,1.697,1.797,3.394,2.096ZM211.368,66.038c-9.282,15.67-15.071,20.761-18.365,22.258.599-4.392,4.292-11.877,18.365-22.258ZM179.329,43.58c-.798-.399-2.096.1-2.795.399-4.891,2.296-10.38,4.491-10.38,4.491-.2,0-.499.2-.898.299-10.281,3.693-15.97,4.491-17.068,2.495-.898-1.597-.299-4.292.499-5.689,4.691-.599,8.684-2.495,11.678-4.092,6.488-3.593,8.184-6.588,8.484-8.584.2-1.397-.299-2.595-1.298-3.593-1.198-1.198-3.094-1.697-5.09-1.597-3.294.299-8.584,2.395-15.371,11.378-1.697-.1-3.094.998-3.493,2.795-.1.898.2,1.397.599,1.896.1.2.2.299.299.499-1.597,2.994-1.497,8.584.998,10.58,1.497,1.198,3.194,1.797,5.29,1.797h.998c3.394-.299,6.787-1.497,10.081-2.795.499-.2.998-.399,1.597-.599,8.384-3.094,11.079-4.491,12.975-5.589.299-.2.599-.299.898-.499.2-.1.399-.2.699-.299.998-.499,2.296-.998,2.196-2.196-.299-.499-.499-.898-.898-1.098ZM151.581,40.486c1.996-2.994,6.388-8.783,11.079-8.983.998,0,1.697.1,2.096.599-.599,1.896-2.196,2.795-3.893,3.793-.699.399-1.397.798-2.096,1.298-1.996,1.098-4.492,2.296-7.186,3.294ZM75.725,51.266c-.998,5.689-1.896,11.778-.898,16.868l.299-.1c.399-.2,1.198-.499,2.096.499.499.599.599,1.497.1,2.296-.499.898-1.597,1.697-2.994,1.397-4.991-1.397-4.392-8.684-3.992-13.474,1.198-14.872,5.09-27.847,8.883-40.423.2-.798.499-1.597.699-2.296-5.989,6.887-11.778,14.572-17.467,21.958-4.192,5.589-8.584,11.378-13.075,16.768-.399.399-.699.898-1.098,1.298-1.397,1.697-2.795,3.493-4.392,4.991l-.1.1c-1.797,1.697-5.19,4.891-8.384,3.992-.898-.2-1.597-.798-2.096-1.697-2.895-5.09,1.198-19.763,3.294-27.548.299-1.098.599-1.996.798-2.695,1.497-5.589,3.194-11.079,4.891-16.469.798-2.495,1.697-5.19,2.495-7.785-.599.599-1.098,1.298-1.697,2.096-.2.299-.399.599-.599.898-11.578,15.87-22.258,32.938-32.638,52.301-.499.898-.898,1.797-1.397,2.895-.2.499-.499,1.098-.699,1.597-.299.599-.599,1.098-.898,1.697-.499.998-.998,1.896-1.198,2.695-.1.299-.1.599-.1.998,0,.499,0,.998-.299,1.497-.499.898-1.497,1.497-2.595,1.497h0c-.898,0-1.697-.499-2.096-1.298v-.1c-.399-1.797.499-3.593,1.198-5.09.1-.299.299-.599.399-.898,5.39-11.877,12.177-23.156,18.764-34.035l.1-.2c7.486-12.377,14.672-22.657,21.759-31.44l.1-.1c1.198-1.497,2.495-3.094,3.992-3.693.499-.2,1.298-.299,2.096.1.599.299,1.098.798,1.397,1.597.699,1.797.1,3.793-.499,5.49-.1.399-.2.798-.299,1.098-1.298,4.691-2.695,9.282-4.092,13.774-2.196,7.186-4.392,14.572-6.288,22.358-.2.599-.299,1.298-.499,1.996-1.098,4.392-2.196,8.883-1.797,13.774,1.896-.699,3.394-2.296,4.891-3.893.499-.499,1.098-1.098,1.597-1.597l.699-.798c1.697-1.896,3.593-3.793,5.09-5.889,5.39-6.288,10.68-12.975,15.77-19.463,2.196-2.795,4.491-5.689,6.687-8.484.499-.599.998-1.298,1.497-1.896,1.298-1.697,2.695-3.394,4.092-5.19.699-.798,1.397-1.697,2.096-2.595.2-.299.499-.599.699-.898.1-.1.2-.299.399-.499.798-1.098,1.896-2.395,3.294-2.395.699,0,1.198.299,1.497.798,1.098,1.497.299,4.791-.1,6.188l-.898,2.994c-2.994,10.979-6.288,22.258-8.484,34.435ZM149.186,23.918c-.1-.399-.299-.798-.699-.998-.499-.299-1.198-.399-1.996-.1-2.595,1.298-10.879,10.78-15.57,16.269-2.096,2.096-3.992,4.491-5.889,6.787-2.695,3.294-5.589,6.787-8.783,9.382.699-5.689,2.395-10.58,4.092-15.371.599-1.797,1.298-3.593,1.896-5.49.1-.2.2-.499.2-.699.599-1.797,1.298-3.992.599-5.889-.2-.599-.599-.998-1.198-1.298-1.397-.599-3.493.299-4.392.699l-.2.1c-4.691,1.996-9.382,3.992-14.772,5.19-.499-.798-1.198-1.397-1.996-1.896.2-1.697-.699-2.395-1.497-2.695-1.896-.699-4.891.399-5.789,1.797-2.096,2.196-4.192,5.29-5.889,8.783-1.298,2.795-4.192,9.781-2.395,14.073.599,1.497,1.797,2.495,3.394,3.094,2.296.499,5.29-.599,8.085-3.094,3.992-3.593,7.885-10.281,7.186-16.668,3.593-.798,6.887-2.096,10.081-3.394,1.697-.699,3.394-1.298,4.991-1.896-.599,1.797-1.198,3.693-1.896,5.689-.699,2.096-1.497,4.192-2.196,6.488-.2.798-.499,1.497-.798,2.296-1.298,3.693-2.595,7.486-2.296,11.378.1,1.597.898,3.094,1.797,3.593.499.299,1.098.399,1.697.399,2.296,0,4.591-2.096,5.689-3.094,1.497-1.397,4.491-4.991,8.184-9.582,3.394-4.092,7.586-9.282,12.077-14.273,3.094-3.593,5.09-5.49,6.188-6.687,1.797-1.597,2.096-1.896,2.096-2.894ZM89.798,51.266c-.2-.1-.399-.2-.399-.499-1.098-5.689,2.994-11.977,4.791-14.672.299-.499.599-.898.699-1.098,1.298,1.298,3.394,1.497,5.19,1.497-.1,3.992-1.896,7.087-3.493,9.282-2.495,3.394-5.689,5.689-6.787,5.49Z"/>
    </g>
  </g>
</svg>